<?xml version="1.0" standalone="no"?>
<!DOCTYPE svg PUBLIC "-//W3C//DTD SVG 20010904//EN"
 "http://www.w3.org/TR/2001/REC-SVG-20010904/DTD/svg10.dtd">
<svg version="1.0" xmlns="http://www.w3.org/2000/svg" fill="#ff7e0c65"
 width="1550px" height="910px" viewBox="0 0 600.000000 450.000000"
 preserveAspectRatio="xMidYMid meet">
<g transform="translate(0.000000,450.000000) scale(0.100000,-0.100000)"
 stroke="none">
<path d="M491 4491 c-8 -5 -15 -18 -16 -28 0 -10 -4 -24 -8 -31 -6 -8 -3 -10
7 -6 11 4 16 0 16 -10 0 -9 -4 -16 -9 -16 -17 0 -33 29 -26 49 4 15 2 19 -12
16 -10 -2 -21 -4 -25 -4 -4 -1 -6 -10 -5 -20 0 -11 5 -17 9 -15 5 3 6 9 3 14
-3 5 -1 11 3 14 5 3 9 -4 8 -16 -1 -16 -12 -24 -47 -34 -26 -8 -49 -21 -53
-29 -3 -8 -2 -14 2 -14 4 1 14 1 22 0 13 -1 13 -2 0 -11 -8 -5 -24 -10 -34
-10 -11 0 -29 -8 -40 -17 -20 -17 -20 -17 -7 0 8 10 9 17 3 17 -6 0 -12 -6
-15 -12 -5 -18 3 -48 14 -48 5 0 9 -5 9 -10 0 -6 -11 -8 -27 -4 -15 4 -33 7
-39 7 -6 0 -11 6 -11 13 0 9 5 10 18 3 14 -7 17 -6 13 4 -7 20 -36 17 -42 -5
-4 -18 -5 -18 -19 -1 -14 17 -14 17 -10 -2 3 -16 -1 -21 -19 -21 -12 0 -21 3
-18 7 2 5 -5 13 -16 19 -11 6 -21 7 -21 3 -1 -4 -2 -15 -3 -23 -1 -10 -9 -14
-24 -12 -21 3 -23 0 -17 -19 6 -19 5 -20 -8 -8 -15 15 -16 26 -4 46 9 15 -9
27 -26 17 -7 -5 -6 0 3 12 14 18 14 18 -2 5 -13 -10 -18 -28 -18 -67 0 -30 5
-54 10 -54 6 0 10 5 10 12 0 9 3 9 11 1 6 -6 18 -9 27 -6 10 4 13 2 8 -5 -3
-6 -1 -14 5 -17 5 -4 8 -13 5 -21 -3 -7 -1 -16 4 -19 6 -4 11 0 12 7 0 7 4 -7
7 -32 3 -26 2 -48 -4 -52 -6 -5 -6 -8 2 -8 18 0 8 -33 -13 -41 -15 -6 -12 -8
13 -8 39 -1 47 -12 32 -45 -14 -30 -34 -33 -62 -8 -20 17 -20 17 -2 -10 9 -15
22 -25 28 -21 6 4 7 1 1 -8 -4 -8 -7 -25 -6 -39 1 -20 -6 -29 -41 -46 -39 -20
-42 -23 -40 -61 1 -21 8 -55 17 -74 l15 -34 -5 35 c-11 66 -10 85 4 82 8 -1
11 2 7 8 -3 5 -1 10 5 10 6 0 8 5 5 10 -3 6 5 14 19 20 18 6 26 17 26 33 0 16
9 26 32 35 17 6 34 9 37 7 2 -3 -1 -5 -7 -5 -15 0 -15 -14 -1 -63 5 -21 14
-35 19 -32 4 3 3 20 -2 39 -9 29 -7 38 13 66 17 23 20 34 12 37 -10 4 -9 8 2
20 8 8 15 20 15 26 0 7 -4 6 -10 -3 -5 -8 -10 -10 -10 -5 0 6 -9 11 -20 11
-13 0 -20 -7 -20 -18 0 -10 -4 -18 -10 -18 -18 0 -11 20 19 51 34 35 26 57
-19 54 -15 -1 -27 4 -27 11 0 7 7 10 15 6 11 -4 14 -1 9 11 -4 10 0 17 11 20
9 3 4 6 -13 7 -16 1 -24 4 -17 7 6 2 10 9 6 14 -3 5 0 9 5 9 6 0 11 7 11 15 0
8 7 15 15 15 9 0 18 6 21 13 3 8 18 14 35 14 16 0 39 9 53 22 14 13 29 19 39
15 12 -4 17 -1 17 10 0 18 25 22 36 4 4 -6 3 -8 -4 -4 -5 3 -12 0 -15 -6 -6
-19 11 -48 28 -48 17 0 19 -14 6 -39 -10 -18 3 -51 15 -38 4 4 13 2 21 -4 10
-9 17 -8 28 1 13 10 20 8 42 -14 14 -14 24 -27 22 -29 -2 -1 -13 -7 -23 -13
-29 -15 -30 -30 -6 -54 17 -17 24 -19 36 -9 11 9 14 8 14 -5 0 -10 -4 -15 -8
-12 -5 3 -20 -1 -34 -8 -20 -11 -25 -11 -25 0 0 8 4 14 9 14 5 0 6 5 3 11 -5
7 -13 5 -25 -6 -13 -12 -18 -13 -16 -3 0 7 -3 14 -9 15 -5 0 -9 -4 -7 -10 2
-7 0 -9 -4 -5 -4 4 -14 2 -23 -5 -14 -11 -14 -10 -2 6 8 10 9 17 3 17 -6 0
-14 -5 -17 -10 -4 -6 -11 -8 -16 -4 -5 3 -7 10 -3 15 3 5 9 7 14 4 4 -3 14 3
21 12 12 14 12 16 0 8 -8 -5 -29 -9 -47 -11 -30 -2 -31 -1 -16 17 20 23 26 24
18 3 -6 -14 -4 -15 9 -4 15 12 15 14 0 23 -13 7 -24 2 -46 -19 -16 -15 -29
-23 -29 -17 0 6 6 13 13 16 6 2 8 8 4 13 -14 15 -34 -23 -42 -79 -15 -106 -18
-99 58 -132 26 -11 37 -22 35 -33 -2 -9 7 -27 20 -38 21 -20 21 -22 5 -29 -10
-5 -21 -7 -25 -7 -12 3 -10 -22 3 -35 7 -7 5 -15 -6 -27 -15 -15 -15 -16 4
-16 12 0 21 5 21 10 0 19 27 10 38 -12 7 -15 11 -18 11 -8 1 9 -5 22 -11 28
-10 10 -10 15 2 22 20 13 30 12 30 -1 0 -5 -4 -7 -10 -4 -5 3 -10 2 -10 -4 0
-20 23 -24 37 -6 11 17 13 12 15 -41 l1 -59 6 65 c7 77 3 119 -10 98 -8 -12
-15 47 -11 97 2 13 -1 16 -6 8 -5 -9 -15 2 -30 32 -12 25 -22 47 -22 48 0 1
13 2 30 3 20 1 31 -5 35 -16 3 -10 14 -25 25 -35 18 -16 19 -15 34 36 9 29 16
84 17 123 0 63 15 180 18 149 0 -7 7 -10 15 -7 17 7 29 -48 13 -58 -8 -5 -6
-8 5 -8 9 0 18 6 21 13 4 10 7 10 18 0 18 -17 49 -16 69 2 10 9 24 13 33 10
23 -9 29 -46 10 -60 -13 -10 -13 -14 -3 -20 8 -5 11 -4 7 2 -3 5 0 10 8 10 8
0 15 -4 15 -9 0 -9 -13 -11 -45 -9 -18 1 -18 1 -3 -9 14 -9 15 -14 6 -29 -9
-15 -17 -17 -42 -10 -17 5 -35 15 -41 22 -14 19 -41 27 -54 16 -8 -6 -8 -5 -1
3 6 7 17 13 25 13 15 0 21 14 8 16 -5 0 -16 8 -26 17 -16 14 -19 14 -28 2 -19
-30 -6 -63 27 -72 21 -5 35 -17 43 -36 10 -25 16 -27 51 -24 22 2 40 8 40 14
0 5 5 6 11 2 7 -4 1 -16 -16 -34 -28 -29 -79 -35 -81 -9 -1 7 -2 20 -3 27 0 6
-5 12 -10 12 -10 0 -8 -22 4 -61 4 -10 -1 -43 -9 -72 -15 -51 -19 -208 -5
-170 5 12 8 6 11 -22 2 -22 5 6 5 62 3 142 10 176 36 169 15 -4 31 6 59 35 21
22 36 44 33 49 -3 5 -1 11 5 15 6 3 10 -4 10 -17 0 -42 78 -342 79 -308 1 13
2 13 11 0 13 -20 12 -33 -2 -24 -7 4 -8 3 -4 -5 4 -6 12 -9 17 -5 6 3 8 -6 4
-23 -4 -23 -4 -24 4 -8 9 18 10 18 10 -7 1 -29 16 -45 26 -29 3 6 -12 41 -33
79 -44 77 -84 182 -56 147 16 -19 16 -19 9 5 -4 14 -13 32 -20 40 -16 18 -44
201 -46 294 -1 22 -5 33 -9 26 -6 -9 -13 -9 -29 -1 -23 13 -29 26 -7 18 24 -9
76 30 76 58 0 14 -4 25 -10 25 -5 0 -10 5 -10 10 0 6 7 10 15 10 13 0 55 -75
55 -99 0 -13 7 -13 35 -1 17 7 18 9 4 15 -15 5 -14 9 7 30 13 13 24 29 24 36
0 6 -9 0 -20 -14 -23 -29 -50 -29 -61 -1 -8 23 6 54 25 54 8 0 17 7 20 16 5
12 10 10 31 -12 20 -21 28 -24 39 -15 12 10 15 8 19 -11 4 -21 4 -21 6 3 0 15
7 27 14 26 33 -1 47 4 47 18 0 8 7 15 15 15 10 0 15 -11 16 -37 l1 -38 8 38
c4 20 10 40 14 44 11 11 26 -18 26 -49 0 -16 5 -28 11 -28 7 0 17 -7 24 -16
10 -14 17 -15 48 -5 21 7 37 17 37 23 0 6 3 9 6 5 4 -3 9 -32 11 -63 5 -53 4
-56 -16 -49 -17 5 -21 2 -21 -17 0 -13 -7 -45 -15 -72 -11 -35 -12 -53 -4 -62
8 -10 5 -12 -15 -8 -24 4 -26 3 -14 -16 9 -13 9 -23 3 -28 -5 -4 -11 -50 -11
-102 l-2 -95 10 65 c5 36 12 85 15 110 l6 45 13 -50 13 -50 -3 49 c-5 68 2 86
30 86 13 0 24 4 24 10 0 5 9 2 20 -7 11 -10 20 -24 20 -33 0 -13 -1 -13 -10 0
-7 10 -10 11 -10 2 0 -7 7 -15 15 -18 10 -4 13 -13 9 -27 -5 -17 -4 -18 8 -6
13 12 13 18 1 47 -8 19 -13 41 -11 50 3 14 25 -35 44 -95 2 -7 11 -13 21 -13
15 0 15 2 -3 15 -17 13 -16 14 14 4 18 -6 36 -8 39 -5 11 11 -14 29 -41 29
-21 0 -25 4 -23 27 2 22 8 30 30 34 16 3 35 13 43 21 9 8 21 12 27 8 7 -4 17
-8 22 -9 6 0 16 -2 23 -2 7 -1 10 -7 6 -14 -5 -7 -3 -8 6 -3 9 5 11 4 6 -3 -5
-8 -15 -8 -32 -1 -22 8 -25 7 -20 -6 3 -9 0 -15 -9 -15 -7 0 -15 -8 -17 -17
-3 -15 -5 -14 -10 5 -3 12 -2 20 2 17 5 -3 11 -1 15 5 9 14 -28 13 -43 -2 -17
-17 -15 -41 3 -34 9 3 15 0 15 -8 0 -7 12 -19 26 -26 23 -13 27 -12 35 3 6 9
19 17 30 17 11 0 18 4 15 9 -3 5 1 12 10 15 15 6 16 0 11 -41 -4 -31 -3 -41 3
-28 6 14 9 15 10 5 0 -12 2 -12 11 2 11 20 4 71 -11 76 -5 2 -10 8 -10 13 0 6
6 7 13 3 9 -5 9 -4 0 6 -8 8 -9 19 -3 30 6 12 5 17 -6 17 -8 0 -14 -10 -14
-27 0 -29 -17 -50 -40 -49 -9 0 -6 4 8 9 23 10 29 25 12 35 -14 8 -13 21 3 37
7 7 16 22 20 32 6 14 11 16 19 8 6 -6 17 -8 26 -4 12 4 14 1 9 -12 -9 -22 18
-50 39 -42 8 3 12 10 9 16 -4 6 1 7 12 3 26 -9 43 -24 43 -36 0 -7 -4 -7 -12
1 -17 17 -38 15 -38 -4 0 -8 5 -12 10 -9 6 4 10 -6 11 -22 0 -15 3 -23 5 -17
3 7 14 10 24 7 11 -3 20 0 20 6 0 9 5 9 22 0 18 -10 20 -9 15 5 -3 8 -2 18 3
21 5 3 14 -14 20 -37 7 -24 18 -56 26 -73 8 -16 20 -50 29 -75 12 -38 13 -39
9 -10 -4 19 -16 60 -29 90 -30 74 -40 150 -20 150 8 0 16 5 16 10 1 6 2 15 3
21 0 7 11 16 24 20 19 7 24 4 32 -17 6 -14 10 -36 10 -49 0 -13 5 -27 12 -31
8 -5 9 2 5 24 -4 19 -2 32 3 32 6 0 10 -4 10 -10 0 -14 37 -12 44 3 3 6 4 -8
1 -33 -5 -40 -4 -42 7 -20 6 14 11 34 10 45 0 11 -2 53 -3 92 -3 65 -6 76 -31
100 -15 15 -28 34 -28 44 0 16 26 34 43 31 4 -1 7 3 7 9 0 5 5 7 10 4 18 -11
90 6 90 21 0 8 7 14 16 14 10 0 14 -6 11 -14 -4 -10 -1 -13 8 -10 8 3 17 14
20 25 8 25 19 24 49 -6 23 -23 64 -36 52 -17 -3 5 10 14 29 20 19 5 35 7 35 4
-1 -14 -28 -42 -41 -42 -8 -1 3 -10 24 -21 21 -11 35 -24 31 -30 -4 -8 -10 -7
-16 2 -7 11 -8 9 -4 -4 3 -10 6 -26 6 -35 0 -15 2 -15 10 -2 5 8 10 10 10 4 0
-6 -3 -14 -7 -18 -11 -11 -10 -47 1 -43 6 2 18 17 26 33 8 16 16 31 17 33 7
11 33 -24 29 -38 -19 -62 -19 -71 0 -64 16 6 17 5 4 -9 -10 -10 -17 -12 -21
-5 -4 5 -15 -5 -24 -23 -13 -25 -19 -30 -26 -19 -5 8 -9 9 -9 4 0 -13 21 -35
33 -35 4 0 5 6 1 13 -6 8 -3 8 9 -1 13 -11 22 -11 51 -1 30 11 35 18 38 48 2
24 9 37 20 39 14 3 18 -6 21 -45 2 -26 4 5 5 70 1 65 7 128 13 139 7 12 7 18
1 14 -6 -3 -13 0 -15 6 -3 7 -6 3 -6 -9 -1 -22 -14 -37 -24 -27 -12 12 10 59
26 56 30 -5 18 16 -12 23 -22 5 -28 10 -24 26 7 27 41 24 46 -3 l4 -23 2 23
c0 13 5 20 11 17 6 -3 10 -2 10 4 0 5 3 17 7 27 5 13 3 16 -10 11 -11 -4 -17
1 -19 16 -4 21 -5 21 -18 -5 -13 -27 -40 -39 -40 -18 0 6 3 9 8 9 19 -3 22 2
8 16 -18 18 -26 19 -26 2 0 -19 -20 -36 -37 -30 -8 3 -11 13 -8 24 4 11 2 19
-4 19 -5 0 -13 -9 -16 -20 -3 -11 -11 -20 -16 -20 -13 0 -11 14 3 28 9 9 6 12
-15 12 -16 0 -26 -5 -25 -12 2 -6 -5 -14 -14 -16 -11 -2 -18 2 -18 11 0 10
-13 15 -44 15 -42 1 -45 -1 -56 -34 -7 -19 -23 -47 -36 -61 l-25 -27 -44 44
c-25 24 -48 52 -51 62 -4 15 -17 18 -74 18 -70 0 -94 -11 -63 -29 16 -9 15
-10 -4 -8 -13 1 -23 5 -23 9 0 17 -30 7 -48 -17 -20 -25 -33 -32 -31 -17 4 22
-5 22 -38 -4 l-38 -28 34 41 c19 24 37 40 42 38 4 -3 10 -2 13 3 2 4 -15 8
-39 8 -26 0 -39 -3 -32 -8 9 -6 8 -12 -5 -22 -10 -7 -14 -16 -10 -20 6 -7 -45
12 -57 21 -2 1 2 10 10 19 11 14 10 16 -11 12 -14 -1 -31 -14 -38 -28 l-13
-25 4 28 c4 26 3 27 -42 27 -42 -1 -44 -2 -28 -15 11 -7 24 -12 30 -9 15 5 39
-44 26 -52 -5 -3 -6 -11 -2 -17 5 -9 3 -9 -8 0 -19 15 -51 19 -69 9 -9 -6 -7
0 5 15 11 13 16 21 11 17 -5 -4 -18 -1 -29 7 -17 12 -23 12 -42 -1 -20 -13
-23 -13 -28 0 -4 10 0 14 13 11 12 -2 17 2 15 13 -2 9 -4 19 -4 21 -1 3 -6 0
-13 -7 -13 -13 -32 -16 -24 -4 2 4 -9 9 -25 10 -26 2 -29 -1 -29 -28 0 -19 5
-30 14 -30 8 0 27 -11 43 -24 24 -20 25 -26 14 -40 -13 -16 -6 -22 22 -17 4 0
7 -4 7 -9 0 -6 -4 -10 -9 -10 -5 0 -12 -10 -14 -22 -4 -21 -4 -21 -6 3 -1 30
-35 66 -46 49 -3 -5 -11 -7 -17 -4 -7 4 -8 2 -4 -5 4 -6 10 -9 14 -7 4 2 16
-2 26 -10 11 -7 18 -15 15 -16 -41 -26 -68 -34 -89 -29 -14 3 -32 6 -40 5 -8
-1 -22 -2 -30 -3 -13 -1 -13 -2 0 -12 13 -9 13 -10 0 -6 -8 2 -23 0 -33 -5
-16 -8 -15 -5 4 21 31 42 20 47 -23 11 -34 -28 -59 -31 -37 -3 6 7 8 13 3 13
-4 0 4 13 19 28 17 18 25 35 22 50 -2 12 1 24 6 28 6 3 8 18 4 32 -5 22 -4 24
9 13 20 -16 66 -6 66 14 0 19 -90 21 -108 3 -9 -9 -15 -10 -20 -2 -16 26 -102
10 -102 -18 0 -6 6 -6 14 1 15 13 15 14 1 -53 -7 -31 -19 -27 -20 7 0 14 -6
22 -17 22 -9 0 -20 4 -25 9 -4 5 -3 6 4 2 6 -3 14 -2 18 4 3 5 -3 10 -14 10
-11 0 -27 7 -35 16 -18 17 -72 16 -69 -2 1 -7 -7 -14 -17 -17 -15 -4 -20 0
-20 14 0 12 -7 19 -20 19 -20 0 -25 -15 -14 -44 3 -8 11 -13 18 -10 14 5 38
-18 35 -32 -1 -5 1 -17 6 -27 5 -11 2 -24 -9 -36 -9 -10 -16 -23 -16 -29 0 -6
-10 -16 -21 -23 -14 -7 -19 -7 -15 0 10 16 -28 32 -45 18 -7 -7 -3 1 11 17 27
31 12 27 -30 -8 -25 -21 -25 -21 -7 0 20 24 23 39 5 28 -7 -4 -25 -8 -41 -9
-15 -1 -35 -10 -45 -20 -11 -12 -12 -15 -2 -8 8 5 28 13 44 17 26 6 28 5 17
-8 -8 -10 -9 -16 -3 -16 6 0 18 -7 27 -16 12 -12 13 -19 4 -30 -6 -7 -8 -17
-5 -23 9 -14 -61 -71 -79 -65 -8 4 -12 11 -8 18 3 6 -6 0 -22 -14 -26 -23 -27
-24 -16 -3 7 14 8 24 1 28 -10 6 -14 -2 -10 -20 1 -5 -2 -7 -6 -2 -4 4 -17 -1
-28 -10 -20 -18 -21 -18 -5 2 29 37 33 51 9 30 -13 -11 -20 -14 -16 -8 9 17
-29 59 -39 43 -4 -6 -13 -9 -21 -6 -8 3 -14 -1 -14 -9 0 -19 -17 -28 -36 -17
-14 8 -13 10 2 23 16 12 17 12 11 -3 -3 -10 -4 -18 -1 -18 2 0 9 11 14 25 5
14 14 25 20 25 6 0 8 -4 5 -10 -3 -5 -2 -10 3 -10 16 0 42 46 32 56 -6 6 -3
27 6 53 8 24 12 51 9 61 -4 12 1 19 13 22 21 6 35 55 20 64 -6 4 -24 -8 -41
-25 -18 -17 -26 -31 -19 -31 6 0 12 -5 12 -11 0 -6 -8 -8 -19 -4 -15 5 -19 1
-18 -14 1 -16 4 -18 17 -8 10 8 9 5 -3 -9 -9 -11 -15 -23 -12 -26 3 -3 -5 -13
-17 -24 -13 -10 -18 -12 -11 -5 17 19 5 43 -18 36 -11 -4 -19 -2 -19 4 0 6 6
11 14 11 12 0 12 7 4 37 -8 30 -7 39 6 49 28 20 16 33 -13 15z m1313 -83 c-5
-7 9 -12 27 -10 3 1 4 -10 2 -23 -3 -15 0 -23 9 -22 33 1 48 -4 48 -16 0 -8
-7 -14 -15 -14 -8 0 -15 6 -15 14 0 7 -5 13 -11 13 -7 0 -10 -12 -7 -30 3 -16
0 -30 -5 -30 -5 0 -7 -6 -4 -12 2 -7 12 -12 21 -10 16 3 16 1 2 -20 -11 -17
-12 -27 -5 -38 9 -13 10 -13 6 1 -3 9 5 29 19 45 13 16 23 37 24 47 0 9 5 17
11 17 8 0 9 -13 4 -42 -15 -91 -13 -118 7 -118 5 0 16 -7 25 -15 8 -8 18 -13
23 -10 5 3 8 -3 7 -14 -1 -15 -5 -17 -23 -11 -15 6 -27 3 -40 -8 -10 -9 -13
-10 -6 -2 6 7 12 21 12 30 0 13 -1 13 -10 0 -7 -11 -10 -8 -10 16 0 23 -5 33
-20 37 -17 4 -18 2 -9 -15 10 -18 8 -19 -13 -13 -22 6 -22 5 -4 -9 18 -14 17
-15 -10 -13 -21 1 -28 -2 -26 -13 3 -12 1 -13 -9 -3 -10 10 -17 9 -35 -8 -16
-15 -28 -18 -48 -13 -26 6 -26 7 -10 25 10 11 12 19 6 19 -7 0 -12 -4 -12 -10
0 -5 -10 -14 -22 -21 -18 -10 -20 -9 -15 5 3 8 2 18 -3 21 -6 4 -10 13 -10 21
0 19 60 16 75 -4 9 -11 14 -10 28 6 16 17 16 20 3 25 -9 4 -18 2 -21 -3 -4 -7
-13 -7 -24 0 -10 5 -22 6 -26 2 -5 -4 -4 0 1 8 5 8 8 24 6 35 -2 20 -2 20 7 0
8 -19 8 -19 20 2 12 23 41 22 41 -2 0 -16 35 -47 44 -38 4 4 11 1 16 -7 8 -13
10 -12 10 2 0 10 -9 18 -22 20 -13 2 -27 13 -33 26 -5 12 -18 25 -27 28 -10 3
-18 10 -18 15 0 6 5 7 12 3 8 -5 9 0 5 17 -4 13 -7 39 -7 57 0 20 -4 31 -10
27 -5 -3 -10 -2 -10 4 0 5 9 13 20 16 11 3 20 10 20 15 0 5 9 8 19 7 11 0 17
-5 15 -9z m-282 -96 c-3 -15 -11 -36 -18 -47 -8 -11 -14 -24 -14 -30 0 -5 4
-3 10 5 5 8 12 11 16 8 3 -4 -9 -16 -27 -27 -32 -19 -59 -20 -29 -1 8 6 10 10
5 10 -6 0 -17 -6 -24 -12 -11 -11 -13 -10 -8 5 9 25 -4 21 -40 -14 -18 -16
-34 -28 -34 -25 -1 4 -2 10 -3 16 0 5 -7 15 -13 21 -10 10 -18 8 -40 -11 -16
-14 -22 -18 -15 -10 16 18 16 35 -1 22 -10 -8 -13 -6 -13 8 0 16 6 18 42 13
35 -4 44 -1 53 15 6 11 8 22 4 26 -3 3 11 5 33 3 35 -2 40 1 56 35 16 34 20
37 41 27 19 -8 23 -17 19 -37z m200 -9 c2 -18 0 -33 -5 -33 -4 0 -5 -6 -1 -12
6 -10 4 -10 -8 0 -13 10 -17 10 -22 -3 -3 -9 -11 -13 -16 -10 -8 5 -7 11 1 21
9 11 8 14 -4 14 -8 0 -17 -7 -21 -15 -3 -8 -1 -15 5 -15 6 0 8 -4 5 -9 -4 -5
-1 -11 6 -13 18 -6 1 -51 -28 -72 l-26 -18 12 22 c6 12 8 25 4 28 -4 4 -9 1
-11 -5 -3 -7 -9 -13 -15 -13 -6 0 -4 8 6 19 16 17 15 18 -6 17 -18 -1 -23 -7
-23 -28 0 -35 -8 -41 -23 -18 -7 11 -8 19 -3 18 5 -2 9 2 9 7 0 6 -5 9 -11 7
-7 -2 -7 1 1 10 6 8 9 23 8 33 -2 11 1 30 5 43 5 13 5 21 0 18 -5 -3 -11 1
-15 9 -6 16 7 19 60 16 18 -1 35 2 39 8 3 6 21 10 40 8 30 -2 34 -6 37 -34z"/>
<path d="M2590 4487 c0 -8 3 -17 7 -21 13 -12 2 -159 -14 -189 -15 -30 -9 -53
7 -27 7 10 10 -5 10 -47 0 -34 -4 -65 -10 -68 -5 -3 -10 -21 -10 -39 0 -25 6
-35 26 -44 18 -9 23 -9 18 -1 -4 8 0 9 15 4 12 -4 21 -2 21 4 0 6 11 11 25 11
14 0 84 12 156 26 72 14 153 24 180 22 27 -1 49 0 49 5 0 4 7 7 15 7 12 0 13
-19 8 -121 l-6 -121 119 3 119 4 6 -30 c3 -17 1 -39 -4 -49 -5 -11 -10 -48
-11 -83 0 -34 -4 -63 -8 -63 -5 0 -8 11 -8 24 0 14 -4 36 -10 50 l-9 26 -27
-25 c-28 -26 -44 -32 -44 -15 0 6 -6 10 -14 10 -13 0 -13 4 0 28 14 28 20 56
6 35 -4 -6 -20 -15 -36 -19 -28 -7 -28 -6 -21 27 6 28 5 32 -6 23 -8 -7 -24
-15 -36 -18 -19 -6 -23 -3 -23 13 0 24 -10 27 -28 9 -9 -9 -15 -8 -25 6 -13
18 -15 18 -31 -5 -14 -20 -18 -22 -26 -9 -5 8 -10 22 -10 30 0 8 -10 0 -21
-17 -24 -38 -30 -40 -47 -13 -7 11 -17 20 -23 20 -5 0 -7 -4 -4 -10 3 -5 0
-22 -8 -36 -9 -17 -17 -23 -21 -15 -13 20 -23 12 -18 -14 3 -20 0 -25 -16 -25
-11 0 -33 5 -47 10 -24 9 -26 8 -20 -7 18 -45 18 -53 -4 -53 -25 0 -26 -3 -5
-35 17 -26 12 -45 -12 -45 -19 0 -18 -17 2 -28 23 -13 13 -48 -11 -44 -11 2
-44 5 -73 8 -78 6 -89 9 -105 22 -11 9 -17 10 -22 2 -13 -21 -25 2 -25 46 0
32 -4 44 -12 41 -7 -2 -23 0 -35 4 -19 7 -23 5 -23 -12 0 -16 6 -19 28 -17 20
2 26 -1 24 -12 -2 -8 -5 -41 -5 -72 -2 -55 -3 -58 -28 -58 -19 0 -28 6 -33 23
-10 40 -7 47 24 47 37 0 39 15 4 24 -18 5 -24 11 -20 23 5 13 4 14 -9 3 -10
-8 -15 -30 -15 -65 l0 -52 -37 -1 c-21 -1 -53 5 -71 14 -26 12 -36 13 -47 4
-18 -15 -10 -30 16 -30 26 0 24 -17 -3 -26 -22 -7 -47 -31 -48 -46 0 -12 54
15 67 33 7 9 28 16 49 17 34 1 36 0 18 -13 -10 -8 -25 -15 -31 -15 -11 0 -20
-20 -10 -20 12 0 75 39 71 43 -4 3 7 4 22 2 16 -2 32 -4 36 -4 4 -1 5 -8 2
-16 -5 -11 -2 -13 10 -9 9 3 14 9 12 13 -3 4 4 7 14 7 15 0 18 -5 14 -23 -4
-14 -2 -23 6 -23 6 0 9 4 6 9 -9 15 19 31 43 24 17 -4 20 -8 9 -15 -10 -7 -10
-11 0 -15 6 -2 12 -11 12 -19 0 -14 -9 -17 -45 -15 l-20 1 20 -9 c18 -9 18
-10 2 -10 -11 -1 -15 -6 -11 -12 4 -8 -1 -9 -17 -4 -14 3 -19 3 -12 -2 9 -6 9
-20 2 -53 -6 -25 -8 -69 -4 -97 7 -54 1 -61 -38 -54 -5 1 -6 -3 -3 -7 3 -5 17
-7 31 -4 15 2 25 0 25 -7 0 -6 -9 -11 -19 -11 -26 0 -79 -74 -96 -135 -7 -27
-16 -94 -19 -148 l-5 -98 30 -27 c17 -15 47 -33 67 -40 l37 -12 -37 5 c-29 5
-43 1 -63 -16 -14 -13 -25 -28 -25 -35 0 -31 163 -143 232 -159 l27 -7 -23
-36 c-13 -21 -25 -43 -27 -51 -8 -22 -90 -50 -152 -50 -39 -1 -59 -5 -63 -15
-3 -8 -15 -11 -29 -8 -30 5 -110 -34 -122 -61 -8 -18 -19 -6 -92 98 -70 101
-83 126 -86 164 -3 54 -7 63 -64 161 -58 99 -176 215 -234 231 -83 22 -83 26
-11 107 35 40 64 76 64 81 0 9 -95 -3 -167 -22 l-52 -14 -4 61 -3 61 -2 -69
c-2 -67 -1 -68 21 -62 39 12 179 38 182 34 2 -2 -35 -46 -82 -98 -57 -63 -107
-108 -152 -135 -156 -96 -295 -203 -387 -300 -44 -46 -50 -58 -47 -87 11 -89
20 -97 51 -45 37 58 378 380 346 326 -5 -9 -43 -44 -84 -77 -41 -33 -88 -75
-105 -93 -28 -30 -26 -30 18 7 26 21 85 71 130 109 45 39 94 78 107 88 15 11
10 10 -12 -3 -21 -12 -38 -19 -38 -16 0 3 30 23 68 45 72 42 122 47 122 11 0
-19 25 -34 41 -24 15 9 97 -57 140 -113 93 -123 91 -167 -14 -323 -124 -186
-291 -381 -355 -416 -39 -21 -42 -24 -17 -19 18 4 26 3 20 -3 -5 -5 -34 -31
-64 -58 -36 -32 -52 -42 -48 -29 7 20 7 20 -8 1 -8 -11 -15 -25 -15 -32 0 -12
-62 -64 -77 -64 -5 0 -14 21 -21 46 -17 64 -50 94 -105 94 -23 0 -48 -5 -55
-12 -23 -23 -26 4 -14 125 7 67 11 147 10 177 -1 51 -2 49 -9 -25 -4 -44 -10
-159 -12 -255 -3 -96 -3 -148 0 -115 2 40 9 64 20 73 20 14 87 16 112 2 43
-23 75 -182 71 -350 -5 -236 -2 -378 9 -433 12 -56 14 -58 39 -52 20 5 30 1
44 -17 17 -21 19 -21 16 -3 -3 17 2 20 30 18 19 0 39 -9 47 -20 13 -17 14 -17
9 3 -7 27 9 38 36 24 15 -8 26 -7 45 6 24 16 27 16 45 -1 12 -10 20 -13 20 -7
0 15 35 15 61 2 13 -7 19 -7 19 0 0 19 59 11 79 -11 l20 -21 -6 21 c-7 28 14
27 44 -1 20 -19 23 -19 23 -4 0 25 24 30 58 12 26 -14 31 -14 36 -1 7 20 31
19 64 -2 24 -16 25 -16 14 -1 -11 14 -10 17 6 22 11 4 32 2 47 -4 15 -6 30 -8
33 -5 3 3 -1 5 -8 5 -11 0 -11 4 2 16 15 15 19 15 49 0 41 -21 46 -20 25 3
-11 12 -14 21 -7 26 6 3 11 18 11 33 0 20 10 33 36 50 62 40 155 213 137 257
-3 8 0 15 7 15 7 0 10 7 6 16 -3 8 -1 24 4 34 7 13 7 21 0 25 -8 5 -4 172 5
183 1 1 14 -2 29 -7 27 -11 36 -45 14 -54 -7 -3 -1 -6 13 -6 33 -1 53 -24 46
-51 -3 -13 2 -25 12 -33 24 -16 37 -57 19 -57 -7 -1 -2 -7 11 -14 22 -12 61
-76 61 -100 0 -5 -12 2 -27 16 -53 49 -116 71 -140 47 -7 -7 -12 -3 -17 15 -3
14 -11 26 -16 26 -13 0 -13 -6 6 -41 8 -17 13 -33 10 -36 -3 -3 -10 5 -15 18
-6 14 -10 17 -10 8 -1 -8 3 -19 9 -25 6 -6 4 -24 -5 -49 -12 -33 -14 -36 -15
-15 l-1 25 -10 -24 c-5 -14 -7 -31 -4 -38 2 -8 -4 -32 -15 -53 -11 -22 -20
-48 -20 -59 0 -23 -75 -91 -101 -91 -9 0 -23 -8 -30 -17 -13 -15 -12 -15 5 -6
12 7 31 7 49 2 23 -6 27 -6 18 5 -14 17 -4 26 33 27 28 1 29 2 7 8 -19 5 -21
8 -10 17 45 36 121 16 173 -47 22 -25 26 -40 24 -73 -3 -35 -6 -41 -25 -40
-15 0 -23 -5 -23 -16 0 -9 -6 -25 -14 -35 -12 -17 -16 -18 -32 -5 -16 13 -17
13 -11 -2 3 -10 -2 -27 -13 -40 -18 -23 -18 -23 -40 -3 l-21 19 6 -27 c6 -24
4 -27 -17 -27 -13 0 -30 6 -37 13 -10 10 -12 8 -9 -8 4 -25 -33 -33 -52 -10
-17 21 -29 19 -23 -5 7 -25 -18 -36 -47 -20 -18 9 -28 9 -47 -1 -20 -11 -28
-11 -45 0 -15 9 -23 10 -31 2 -17 -17 -45 -13 -66 8 -19 19 -19 19 -24 0 -7
-28 -55 -26 -67 3 -7 18 -9 19 -9 6 -1 -22 -14 -23 -31 -3 -7 8 -16 12 -21 9
-5 -3 -9 2 -9 10 0 9 -5 16 -11 16 -5 0 -7 -5 -3 -11 7 -13 -13 -29 -37 -29
-9 0 -21 10 -27 22 -8 18 -11 19 -11 6 -1 -29 -46 -22 -71 10 -12 15 -19 19
-16 10 3 -11 -2 -22 -14 -28 -29 -16 -39 -12 -60 22 -19 31 -20 31 -18 8 3
-21 -2 -25 -29 -28 -24 -2 -33 1 -38 17 -3 12 -10 21 -15 21 -5 0 -7 -6 -4
-14 7 -18 -29 -30 -53 -18 -10 5 -33 7 -51 5 l-33 -5 5 63 6 64 -15 -75 c-25
-137 -51 -207 -104 -288 -28 -43 -69 -91 -92 -108 -70 -50 -99 -75 -99 -86 0
-5 14 2 31 17 17 14 33 24 35 22 2 -1 -17 -41 -41 -87 -39 -75 -89 -209 -109
-293 -6 -26 -5 -27 38 -27 44 0 45 0 60 48 19 56 26 148 11 145 -13 -2 -12 77
2 101 9 17 12 16 30 -10 31 -45 51 -105 59 -175 5 -46 9 -58 15 -44 5 15 8 8
8 -22 1 -43 1 -43 39 -43 37 0 40 2 102 99 64 98 65 99 137 130 70 30 74 31
98 15 38 -25 42 -39 39 -146 l-3 -98 85 0 c66 0 83 3 77 13 -4 6 -6 22 -5 34
2 11 -2 24 -7 28 -8 4 -8 12 -1 25 7 13 6 20 -3 24 -6 3 -1 3 13 0 14 -4 27
-9 30 -13 7 -8 123 -16 233 -16 l87 0 0 -42 c0 -24 -5 -43 -12 -46 -7 -3 6 -6
29 -6 42 -1 92 26 256 137 39 26 78 82 99 143 6 19 36 66 66 104 l55 70 -7
-40 c-25 -144 -49 -217 -96 -283 -26 -37 -50 -83 -54 -102 l-6 -35 15 32 c8
17 35 63 60 103 34 52 53 95 71 167 13 52 24 110 24 127 0 29 51 167 71 192 5
6 15 30 24 53 13 39 12 51 -15 189 -17 81 -34 166 -39 190 -6 31 -4 54 6 85
32 90 16 195 -46 297 -22 36 -51 102 -51 115 0 9 -9 23 -21 33 -11 9 -27 32
-34 49 -11 26 -20 33 -42 33 -20 0 -24 3 -14 9 9 6 10 11 2 15 -6 4 -11 25
-11 48 0 52 -48 194 -100 299 -59 117 -60 91 -1 -32 28 -57 53 -116 57 -131 6
-26 4 -28 -27 -29 l-34 -2 35 -6 c31 -5 36 -11 47 -51 6 -25 12 -74 12 -111 1
-105 -19 -327 -34 -369 -27 -76 -81 -147 -137 -180 -52 -30 -228 -89 -320
-108 l-46 -9 -17 36 c-9 21 -20 68 -24 107 -8 66 -8 67 -10 18 0 -28 6 -73 14
-99 8 -27 13 -51 11 -53 -2 -2 -29 -5 -60 -7 l-55 -3 -7 35 c-4 20 -4 75 -2
122 4 66 4 77 -4 46 -5 -22 -8 -76 -6 -121 l3 -81 -45 9 c-90 16 -90 16 -90
52 0 39 34 154 61 208 11 21 17 38 14 38 -9 0 -53 -94 -69 -149 -9 -30 -16
-72 -16 -93 0 -21 -2 -38 -3 -38 -13 0 -141 46 -184 66 -49 23 -52 28 -59 69
-3 25 -3 80 1 122 4 43 8 132 9 199 l0 121 35 23 35 23 -16 -25 c-20 -30 -28
-95 -17 -126 5 -14 33 -33 74 -52 85 -39 91 -38 30 4 -77 51 -80 57 -66 120
13 60 43 106 92 142 43 32 90 44 167 44 68 0 76 13 15 25 l-38 7 75 27 c81 28
101 50 98 106 0 22 -2 24 -5 9 -7 -35 -35 -53 -112 -69 -132 -27 -133 -26 -57
58 36 39 108 123 159 186 l92 114 6 -84 c6 -88 16 -129 29 -129 5 0 13 -12 18
-27 13 -36 15 -8 2 36 -14 49 -7 48 23 -1 25 -41 39 -39 17 2 -10 19 -9 19 19
3 39 -23 62 -5 59 46 l-1 36 -4 -33 c-3 -18 -11 -36 -19 -39 -30 -11 -84 62
-84 114 1 68 44 70 78 3 12 -24 22 -38 22 -31 0 25 -43 91 -64 97 -20 6 -19 7
3 25 44 35 65 19 105 -81 3 -8 3 0 0 19 -9 50 -32 101 -49 107 -8 4 -33 -3
-55 -14 l-40 -19 0 29 c0 30 65 148 81 148 5 0 19 -15 31 -34 13 -18 43 -62
68 -97 25 -35 62 -91 82 -123 20 -33 44 -61 51 -62 23 -3 160 -45 182 -56 12
-5 29 -10 38 -12 9 -1 23 -8 29 -14 7 -7 19 -12 28 -12 8 0 22 -4 30 -10 12
-7 9 -13 -13 -30 -30 -24 -34 -42 -14 -62 7 -7 16 -21 20 -31 3 -9 12 -17 19
-17 7 0 19 -9 26 -20 7 -11 18 -20 25 -20 7 0 18 -9 24 -19 23 -37 142 -76
158 -52 3 6 14 11 24 11 22 0 53 33 80 87 11 23 55 75 96 116 41 41 75 81 75
89 0 8 -18 22 -41 32 -52 23 -103 90 -88 117 9 18 14 16 72 -23 85 -57 83 -55
61 -79 -10 -12 19 6 64 41 84 64 124 107 136 146 4 14 24 25 68 39 38 11 80
34 113 60 l51 42 17 -29 c17 -29 16 -30 -5 -48 l-23 -19 23 6 c13 3 26 12 29
19 3 8 17 14 32 13 15 0 20 -3 11 -6 -26 -10 -50 -35 -50 -54 0 -25 33 -42 50
-26 12 10 12 9 1 -5 -7 -10 -17 -16 -21 -13 -12 8 -57 -50 -70 -90 -7 -21 -16
-32 -22 -29 -7 5 -8 2 -3 -5 4 -8 -1 -18 -14 -27 -24 -17 -51 -65 -51 -90 0
-12 7 -15 30 -12 25 4 34 -2 62 -36 17 -23 38 -45 45 -49 8 -5 10 -18 7 -37
-6 -26 -3 -29 32 -39 23 -6 42 -7 47 -2 5 5 16 7 25 4 11 -5 13 -2 7 8 -6 11
-5 12 6 2 21 -20 55 -15 65 8 6 12 29 29 54 38 24 9 45 21 47 28 3 7 -13 4
-38 -8 -23 -12 -58 -23 -78 -26 -20 -3 -48 -14 -63 -24 -29 -21 -42 -24 -32
-8 4 7 -1 7 -16 -1 -30 -16 -49 2 -29 26 12 16 12 17 -1 10 -8 -4 -4 1 10 12
14 12 53 26 88 33 53 9 68 17 90 45 15 19 30 34 35 34 4 0 15 -16 24 -35 17
-37 31 -42 64 -25 20 11 25 50 10 78 -11 20 6 124 21 133 6 4 27 5 48 2 25 -4
52 2 84 16 l47 20 67 -62 67 -62 -4 -65 c-3 -60 -1 -68 25 -98 32 -36 61 -41
105 -15 29 17 30 17 56 -10 34 -33 28 -39 -62 -61 -38 -10 -75 -22 -81 -27 -7
-5 -36 -12 -65 -16 -30 -3 -67 -14 -84 -23 -16 -10 -49 -23 -73 -30 -32 -8
-50 -21 -72 -52 -17 -23 -30 -46 -30 -52 0 -7 -27 -65 -60 -129 -49 -97 -60
-127 -60 -167 0 -62 -17 -105 -37 -89 -17 15 -18 -12 -1 -29 9 -9 9 -12 0 -12
-7 0 -12 -8 -10 -17 2 -14 -3 -17 -21 -15 -17 1 -22 -2 -18 -12 4 -10 1 -13
-9 -9 -7 3 -14 0 -14 -6 0 -6 5 -11 10 -11 7 0 7 -6 1 -18 -11 -21 -188 -112
-219 -112 -30 0 -92 -26 -92 -39 0 -6 -6 -11 -14 -11 -22 0 -55 -52 -67 -108
-9 -46 -8 -53 13 -86 15 -23 40 -43 70 -56 79 -34 156 -15 263 66 45 34 84 55
110 59 125 20 168 65 180 190 6 64 10 74 49 116 34 38 50 47 87 53 36 5 55 16
89 51 24 25 50 45 57 45 8 0 18 11 23 25 5 14 16 25 24 25 9 0 12 7 9 19 -7
26 17 31 179 38 l138 6 25 -57 c44 -99 62 -169 69 -258 5 -62 3 -92 -5 -107
-10 -15 -10 -23 1 -36 15 -18 6 -31 -25 -37 -28 -5 -31 -36 -4 -46 21 -8 21
-9 -7 -21 -38 -15 -59 -47 -40 -58 8 -4 16 -17 18 -28 4 -21 20 -24 76 -11 20
5 32 4 32 -3 0 -5 10 -25 23 -45 23 -37 54 -47 64 -20 5 13 8 12 25 -5 10 -12
23 -21 28 -21 13 0 22 34 14 54 -5 14 -2 16 20 10 21 -5 26 -3 26 12 0 11 -9
34 -20 52 l-20 32 43 -6 c23 -4 43 -8 45 -9 1 -1 -5 -21 -13 -45 -19 -54 -19
-60 4 -90 18 -22 21 -23 45 -10 14 7 26 20 26 27 0 8 -4 11 -10 8 -6 -3 -7 1
-4 9 8 21 13 20 22 -3 5 -16 22 8 77 111 74 138 108 188 130 188 7 0 16 6 19
13 7 17 25 -13 58 -97 22 -54 26 -78 21 -115 -3 -25 -9 -50 -13 -56 -4 -5 -8
-29 -8 -51 -1 -23 -8 -67 -17 -98 -13 -45 -14 -63 -5 -90 19 -58 2 -97 -55
-127 -28 -14 -65 -45 -83 -68 l-33 -44 3 -138 3 -139 138 0 c76 0 136 4 133 8
-4 7 11 113 31 217 6 36 45 79 83 95 16 7 44 35 63 63 19 29 59 77 87 107 29
30 70 82 92 115 l40 60 -5 85 c-17 285 -27 431 -33 475 -5 48 -4 54 44 125
132 199 163 258 160 301 l-3 40 -40 -34 c-26 -22 -48 -33 -62 -31 -13 2 -23 0
-23 -6 0 -5 -18 -28 -40 -52 -22 -24 -40 -38 -40 -32 0 6 3 14 8 18 4 4 7 12
7 16 0 5 15 23 34 39 31 28 44 34 61 33 3 0 15 13 25 29 11 16 32 35 48 42 24
11 27 17 27 64 0 59 -7 83 -25 83 -20 0 -45 -35 -45 -63 0 -14 -5 -38 -12 -52
-9 -21 -9 -28 1 -34 9 -6 7 -10 -8 -14 -12 -3 -19 -1 -16 3 3 5 0 12 -6 15 -5
4 -8 13 -5 21 3 8 1 14 -5 14 -5 0 -12 -7 -15 -15 -4 -8 -9 -13 -14 -10 -4 2
-5 -7 -2 -20 3 -17 11 -25 26 -25 21 -1 21 -1 2 -15 -25 -19 -36 -19 -36 1 0
9 -5 12 -12 8 -8 -5 -9 0 -5 17 4 13 7 30 7 37 0 6 7 12 15 12 12 0 13 5 7 18
-6 11 -3 29 9 52 16 30 18 32 19 12 0 -13 -5 -32 -10 -43 -6 -10 -8 -19 -4
-19 13 0 33 35 34 58 0 12 4 22 9 22 5 0 11 14 15 30 3 17 12 30 20 30 21 0
31 21 15 31 -18 11 -32 11 -25 0 3 -5 -1 -12 -10 -15 -12 -5 -14 -1 -8 16 4
13 7 42 7 65 0 29 6 48 18 59 22 20 38 11 19 -11 -10 -12 -10 -15 1 -15 11 0
11 -2 1 -9 -10 -6 -10 -10 3 -21 8 -7 15 -21 15 -31 0 -11 5 -19 10 -19 16 0
12 67 -5 74 -8 3 -15 10 -15 17 0 6 7 9 15 5 24 -9 18 8 -13 38 -31 29 -31 18
-3 148 5 24 8 44 6 46 -2 2 -17 -4 -34 -12 -16 -9 -31 -16 -33 -16 -2 0 -2 24
0 52 3 57 30 121 45 111 6 -3 7 -1 4 5 -4 5 -3 21 2 34 6 12 10 17 10 11 1 -7
8 -13 16 -13 25 0 17 15 -17 32 -27 13 -36 26 -50 69 -33 108 -32 102 -9 90
12 -7 21 -19 22 -29 0 -11 2 -13 6 -4 6 16 -24 52 -44 52 -24 0 -13 28 20 51
l32 22 -30 -33 -30 -33 32 22 c18 12 35 26 38 31 4 6 14 10 23 10 12 0 18 9
20 26 2 24 -1 26 -26 20 -15 -4 -32 -7 -39 -8 -7 -1 -10 -4 -8 -8 4 -6 -48
-50 -59 -50 -5 0 -46 75 -46 84 0 2 8 7 18 9 13 4 12 5 -5 6 -14 1 -32 15 -48
39 -14 20 -32 47 -41 60 -9 12 -15 25 -12 28 3 2 34 -6 69 -20 35 -14 56 -25
47 -25 -10 -1 -18 -6 -18 -12 0 -6 7 -9 15 -6 13 6 94 -11 138 -28 15 -6 17 0
17 49 0 67 32 49 -329 181 -48 18 -150 96 -155 120 -3 11 -7 68 -11 127 l-6
107 28 6 c143 30 174 41 167 60 -3 7 4 15 15 18 12 3 21 1 21 -5 0 -6 10 -8
24 -4 13 3 43 0 67 -8 24 -8 73 -22 108 -32 63 -18 64 -18 36 -30 l-27 -11 23
-6 c13 -4 27 -7 32 -7 4 0 7 47 7 105 l0 104 -37 6 c-64 11 -70 15 -15 10 39
-3 52 -1 52 9 0 22 -21 24 -80 9 -46 -13 -69 -13 -139 -3 -47 6 -89 14 -94 17
-5 3 19 32 53 66 56 54 61 62 46 73 -13 9 -14 13 -4 17 10 4 10 6 -1 6 -8 1
-20 -7 -27 -16 -7 -10 -14 -13 -14 -6 0 6 7 18 15 27 17 16 9 25 -17 21 -20
-4 -22 3 -8 25 6 10 10 11 10 3 0 -7 3 -13 8 -13 4 0 7 19 7 43 0 35 -3 42
-19 42 -11 0 -21 6 -24 13 -2 6 -10 12 -17 12 -7 0 -16 7 -19 16 -3 8 -2 12 4
9 6 -3 10 -1 10 6 0 6 -8 9 -18 7 -12 -4 -18 1 -19 14 -1 10 1 17 5 14 4 -2 7
9 8 26 1 26 -1 29 -20 22 -12 -3 -34 -7 -51 -7 -16 0 -24 -2 -17 -4 6 -3 10
-9 6 -14 -10 -16 -24 -10 -24 11 0 11 -4 20 -10 20 -5 0 -7 7 -4 15 4 8 -1 17
-10 21 -11 4 -16 18 -16 42 l0 36 -34 -33 c-36 -35 -47 -32 -39 11 3 18 10 25
19 21 9 -3 14 1 14 12 0 9 -4 13 -10 10 -13 -8 -13 -3 1 32 20 50 68 228 63
233 -7 7 -24 -22 -24 -43 0 -11 -5 -15 -11 -11 -6 3 -9 17 -6 30 2 13 1 24 -4
24 -12 0 -17 -24 -8 -41 5 -9 4 -31 -1 -50 -5 -18 -8 -35 -5 -37 2 -2 8 11 14
29 5 19 10 26 10 17 1 -10 -21 -86 -49 -170 -27 -84 -50 -157 -50 -163 0 -6
-18 -29 -41 -50 l-40 -40 -24 27 c-22 26 -24 27 -30 8 -5 -16 -15 -20 -56 -20
-52 0 -65 15 -31 37 14 8 22 35 32 99 15 95 15 130 -2 182 -7 24 -7 37 1 45 8
8 11 6 12 -8 0 -14 2 -16 6 -5 3 8 14 35 25 58 15 32 23 40 29 30 7 -10 9 -9
9 5 0 10 4 16 9 12 6 -3 9 4 8 15 -2 26 -42 27 -70 3 -19 -17 -20 -17 -14 0 6
16 1 17 -37 15 -24 -2 -42 -6 -39 -10 2 -5 -1 -8 -7 -8 -7 0 -10 -6 -7 -14 3
-8 -1 -17 -9 -20 -17 -6 -17 -5 -4 28 5 15 6 26 0 26 -5 0 -12 -9 -15 -21 -5
-14 -12 -18 -23 -13 -65 27 -98 33 -183 34 -110 0 -167 -15 -223 -61 -42 -36
-107 -120 -133 -174 -14 -30 -31 -43 -88 -70 -38 -18 -95 -41 -125 -50 -30 -9
-66 -21 -80 -27 -14 -6 -70 -13 -126 -15 l-100 -6 -36 32 c-20 17 -50 34 -67
37 -27 6 -31 11 -31 38 -1 17 -7 42 -14 55 -17 31 -10 59 26 97 18 19 25 33
18 36 -7 2 -4 14 11 32 18 22 19 30 8 36 -7 5 -17 6 -22 3 -5 -3 -6 5 -3 18 9
31 -8 4 -19 -29 -6 -22 -5 -23 17 -17 l23 7 -23 -25 c-13 -14 -24 -32 -26 -40
-5 -33 -28 -47 -80 -47 -86 0 -111 22 -138 123 l-12 47 -77 0 -76 0 -12 -40
c-7 -22 -28 -67 -47 -100 -40 -69 -64 -76 -111 -35 -23 20 -25 24 -10 25 18 0
18 2 -2 36 l-21 35 21 -6 22 -7 -23 38 c-13 22 -27 43 -32 49 -14 16 -9 -5 8
-30 17 -26 7 -34 -14 -13 -21 21 -13 -6 13 -44 30 -45 31 -52 4 -38 -34 19
-34 3 1 -31 43 -44 50 -67 43 -142 -4 -47 -2 -71 10 -94 12 -23 14 -39 7 -62
-5 -18 -7 -38 -4 -45 2 -6 -2 -28 -11 -48 l-15 -37 -99 -3 c-144 -4 -135 -11
-127 85 13 162 18 203 32 270 8 38 14 106 14 153 l0 84 -45 0 -45 0 0 -54 c0
-29 3 -69 7 -87 7 -33 7 -33 14 -9 5 18 7 10 8 -30 1 -65 -5 -75 -42 -82 l-29
-6 3 112 c1 61 6 121 11 134 7 21 5 22 -37 20 l-45 -1 -1 -81 c0 -45 0 -105 1
-135 2 -58 -7 -71 -49 -71 l-24 0 6 145 c6 139 6 145 -13 145 -10 0 -24 -8
-30 -17 -11 -17 -11 -17 -6 0 3 10 0 17 -8 17 -10 0 -15 -37 -20 -152 -6 -145
-12 -167 -39 -168 -8 0 -1 201 9 253 3 15 9 25 14 22 4 -2 8 7 8 20 l0 25
-104 0 c-80 0 -104 -3 -104 -13z m1147 -213 c3 -9 0 -20 -8 -25 -10 -6 -10 -9
-1 -9 6 0 12 -7 12 -15 0 -8 -5 -15 -11 -15 -5 0 -8 -4 -4 -10 10 -16 -77 -34
-175 -34 -71 -1 -94 2 -92 12 1 6 -5 12 -13 12 -11 0 -15 11 -15 38 0 28 3 33
10 22 7 -10 12 -12 18 -4 4 6 45 14 92 18 47 3 99 10 115 15 46 14 65 13 72
-5z m142 -90 c1 -15 11 -24 41 -33 44 -13 67 -40 76 -88 3 -18 9 -32 13 -31
41 5 61 -24 35 -53 -10 -11 -22 -19 -27 -19 -9 0 -74 -50 -123 -95 -62 -57
-83 -72 -126 -93 -50 -23 -255 -68 -265 -58 -10 9 19 88 42 112 11 13 54 36
95 53 75 31 202 122 180 129 -7 3 -16 -2 -21 -9 -12 -21 -23 15 -15 54 5 26 4
29 -5 13 -6 -10 -9 -35 -5 -57 6 -39 6 -39 -54 -78 -76 -49 -109 -57 -149 -37
-16 9 -41 16 -55 16 -29 0 -41 15 -39 50 1 16 0 19 -3 7 -6 -21 -45 -20 -52 1
-3 11 0 12 16 3 17 -9 21 -7 26 14 8 32 -9 65 -33 65 -16 0 -18 7 -15 51 3 60
6 64 31 51 10 -6 29 -15 43 -20 18 -8 20 -11 8 -11 -29 -1 -20 -18 12 -24 34
-7 63 1 54 15 -3 5 -13 7 -21 4 -8 -3 -12 -2 -9 3 3 5 27 12 53 15 27 4 57 10
68 13 17 5 18 4 6 -10 -7 -9 -17 -14 -22 -11 -5 3 -9 0 -9 -5 0 -18 26 -12 46
10 19 21 53 42 99 59 24 9 27 7 44 -30 l17 -39 17 29 c13 21 15 35 8 53 -5 14
-7 28 -3 31 8 8 20 -21 21 -50z m1331 16 c0 -5 -13 -10 -29 -10 -24 0 -32 -7
-50 -45 -12 -25 -21 -48 -21 -51 0 -4 19 -4 43 -1 38 5 40 4 23 -9 -20 -14
-95 -17 -150 -5 -36 7 -50 46 -33 91 l11 29 96 4 c52 1 98 4 103 5 4 1 7 -2 7
-8z m-830 -70 c0 -5 -6 -10 -14 -10 -8 0 -17 -8 -21 -19 -3 -12 -24 -23 -58
-33 l-52 -14 80 0 c65 -1 82 2 92 16 7 10 20 20 30 22 16 4 14 -8 -17 -103
l-35 -107 -61 -7 c-33 -3 -90 -5 -126 -4 l-66 2 -18 39 c-10 22 -25 45 -33 51
-9 7 -17 27 -19 45 l-2 32 87 2 c49 1 70 3 48 5 -22 1 -73 5 -112 9 -50 4 -73
10 -73 18 0 10 31 15 118 18 64 3 126 10 137 16 41 24 115 38 115 22z m564
-70 c19 0 22 -5 20 -35 -3 -38 3 -44 51 -48 20 -1 29 2 27 11 -1 7 11 15 28
18 37 8 39 19 3 22 -15 1 -31 6 -36 11 -9 9 102 3 112 -5 2 -2 -3 -12 -12 -22
-19 -21 -22 -58 -7 -98 12 -30 -2 -56 -29 -53 -28 2 -36 -1 -22 -10 24 -15 1
-31 -47 -33 l-47 -1 43 -4 c42 -4 55 -16 27 -27 -9 -3 -19 -15 -23 -26 -8 -20
-10 -20 -55 15 -50 38 -61 64 -78 180 -13 93 -12 118 7 111 9 -3 26 -6 38 -6z
m-1465 -144 c9 -10 8 -16 -4 -26 -8 -7 -15 -17 -15 -22 0 -5 7 -2 16 6 16 16
69 21 99 10 13 -5 9 -11 -19 -30 -28 -19 -39 -38 -60 -101 -37 -115 -106 -376
-101 -382 3 -2 5 2 5 10 0 9 3 10 8 4 10 -15 89 -75 97 -75 4 0 -15 19 -44 42
-28 23 -51 47 -51 54 0 21 12 44 22 44 5 0 6 -4 3 -10 -9 -15 44 -59 80 -66
18 -3 43 -3 56 1 18 6 21 4 16 -10 -4 -9 -7 -25 -7 -35 0 -10 -8 -21 -17 -23
-15 -4 -15 -6 5 -12 12 -4 22 -12 22 -17 0 -16 -52 -128 -59 -128 -3 0 -26 12
-51 25 -25 14 -65 34 -88 46 -39 19 -43 23 -37 47 10 41 -8 16 -27 -36 -67
-188 -137 -399 -146 -448 -9 -42 -21 -67 -44 -91 -17 -18 -32 -40 -33 -50 -1
-21 -5 -23 -50 -23 -23 0 -35 5 -35 14 0 14 26 108 100 366 12 41 40 120 62
175 89 218 102 254 135 365 18 63 47 169 64 234 17 66 35 128 40 138 11 21 42
24 58 4z m1340 -49 c149 -92 261 -179 261 -204 0 -15 -6 -23 -18 -23 -9 0 -33
-8 -52 -18 -34 -19 -35 -19 -93 4 -32 13 -82 39 -110 57 -29 19 -78 49 -109
67 -32 17 -58 36 -58 40 0 16 72 130 83 130 6 0 49 -24 96 -53z m-439 -19 c0
-5 -10 -19 -21 -31 -12 -12 -35 -40 -51 -62 -26 -35 -29 -37 -25 -14 l5 26
-41 -20 c-52 -24 -51 -23 -43 -44 6 -15 8 -15 16 -3 7 10 10 11 10 3 0 -7 8
-13 18 -13 14 0 15 -2 2 -10 -9 -6 -17 -5 -22 3 -5 8 -8 4 -8 -10 0 -13 -4
-23 -10 -23 -5 0 -10 -8 -10 -17 0 -14 3 -13 16 5 24 34 38 27 31 -15 -8 -49
7 -30 28 36 18 56 95 152 95 119 0 -9 -4 -19 -8 -22 -5 -3 -21 -37 -36 -76
-25 -63 -27 -73 -13 -88 9 -11 13 -30 10 -54 -5 -37 -16 -48 -28 -28 -12 19
-26 10 -41 -25 -17 -41 -17 -48 -4 -40 6 3 10 15 10 25 0 23 13 32 34 24 22
-8 20 -46 -4 -96 -13 -28 -17 -45 -10 -53 21 -25 -5 -24 -32 2 -34 33 -37 21
-4 -22 19 -25 23 -38 17 -65 -6 -30 -8 -32 -23 -17 -17 17 -28 13 -28 -12 0
-13 2 -13 9 -2 16 26 31 -24 31 -105 l0 -77 -26 24 c-23 22 -25 29 -20 84 l4
60 -10 -63 -11 -63 34 -35 33 -34 -22 -45 c-12 -25 -22 -55 -22 -65 0 -20 -1
-20 -42 1 -57 29 -98 75 -98 111 0 16 9 54 20 85 11 32 20 58 20 59 0 1 -8 1
-17 0 -30 -2 -27 31 4 41 l28 10 -37 7 c-28 5 -38 12 -38 26 0 17 6 19 40 15
24 -2 40 1 40 7 0 5 -7 8 -15 4 -23 -8 -75 14 -75 33 0 13 8 16 39 13 23 -2
42 1 46 8 5 8 2 10 -11 6 -24 -7 -74 6 -74 19 0 6 10 13 23 16 12 4 41 12 65
18 38 11 45 17 66 66 28 61 42 107 28 87 -15 -22 -35 94 -21 121 10 18 8 24
-15 44 -20 17 -29 38 -36 80 -6 32 -10 61 -10 65 0 3 54 6 120 6 66 -1 120 -5
120 -10z m377 -146 c29 -19 53 -38 53 -41 0 -4 24 -15 53 -26 112 -39 108 -27
38 -100 -70 -73 -113 -156 -131 -255 -6 -36 -16 -75 -22 -87 -6 -13 -8 -45 -4
-77 7 -61 -4 -75 -61 -77 -24 -2 -25 -2 -5 -6 l23 -5 -26 -34 c-40 -52 -73
-131 -85 -206 -7 -38 -13 -68 -14 -68 -2 0 -45 6 -97 14 -123 19 -186 35 -200
52 -6 8 -18 14 -25 14 -15 0 -29 43 -19 59 3 6 1 11 -4 11 -14 0 -14 43 1 75
16 35 28 31 28 -9 0 -19 5 -38 10 -41 6 -4 10 12 10 39 0 50 8 55 50 31 14 -8
30 -14 37 -15 14 0 57 135 49 156 -3 8 -22 22 -41 31 -36 17 -36 18 -30 63 4
25 8 46 10 48 1 2 19 -5 39 -14 40 -20 41 -19 50 16 7 25 7 25 -6 3 l-13 -22
-40 22 c-46 26 -53 48 -33 114 19 65 29 69 83 37 39 -22 46 -31 42 -50 -5 -30
1 -31 12 -1 7 19 2 26 -40 55 -27 18 -49 35 -49 38 0 4 14 24 31 45 30 38 31
38 59 24 55 -28 72 -21 113 48 20 35 37 66 37 70 0 3 -18 16 -39 29 l-40 24
30 47 29 47 42 -21 c23 -12 66 -37 95 -57z m-1763 -126 c11 -18 13 -31 7 -48
-9 -22 -10 -21 -11 7 0 17 -4 37 -10 45 -14 23 -23 -11 -11 -43 7 -19 7 -27 0
-27 -6 0 -7 -4 -4 -10 3 -5 -3 -10 -15 -10 -18 0 -19 -3 -10 -21 7 -11 9 -23
6 -26 -3 -4 -11 8 -17 26 -11 32 -12 32 -26 11 -9 -13 -12 -31 -9 -46 5 -18 2
-24 -10 -24 -13 0 -14 -3 -5 -14 13 -15 -4 -26 -40 -26 -10 0 -19 -4 -19 -10
0 -14 -31 -13 -62 2 -23 11 -24 14 -12 33 11 16 21 20 49 17 24 -3 35 -9 36
-21 0 -10 4 -7 10 9 6 13 13 27 17 30 29 22 44 97 17 86 -19 -7 -19 -1 1 19
12 11 25 14 46 9 22 -4 28 -3 23 6 -4 6 1 20 11 31 21 24 19 24 38 -5z m-295
-178 l20 -31 -25 -20 c-14 -10 -23 -22 -19 -25 3 -3 16 5 29 17 19 18 27 20
51 11 22 -8 25 -13 15 -25 -13 -16 -3 -40 29 -69 27 -24 27 -7 1 27 -11 14
-20 28 -20 32 0 10 103 55 127 55 24 0 39 -33 53 -115 5 -27 12 -62 15 -76 6
-23 3 -27 -27 -35 -35 -10 -33 -5 -37 -110 -1 -13 -14 -28 -36 -40 l-34 -18
-73 37 c-81 41 -132 55 -142 38 -4 -6 -21 -11 -38 -11 -105 0 -166 237 -80
307 15 12 35 22 44 23 9 0 20 5 23 10 8 13 76 49 93 50 7 0 21 -14 31 -32z
m388 -57 c30 -13 41 -15 29 -6 -25 19 -13 19 24 0 33 -17 31 -41 -5 -77 -12
-13 -25 -32 -29 -43 -4 -13 -24 -26 -56 -37 l-50 -16 -15 35 c-8 20 -15 48
-15 63 0 15 -7 47 -15 70 l-15 43 50 -6 c27 -3 71 -15 97 -26z m1793 -176 c7
19 7 19 14 -2 7 -23 25 -26 38 -8 11 15 19 0 25 -44 5 -39 23 -59 23 -26 0 26
16 16 34 -22 15 -32 20 -35 29 -23 18 23 67 52 67 40 0 -7 6 -8 19 0 28 15 33
13 26 -11 -6 -19 -5 -19 44 5 61 31 60 31 54 6 -5 -20 -4 -20 51 4 51 23 55
23 46 6 -14 -27 -12 -34 5 -20 19 16 34 5 17 -12 -7 -7 -12 -18 -12 -25 0 -11
5 -11 21 -3 19 11 20 10 9 -10 -9 -18 -9 -21 0 -15 9 5 10 1 5 -14 -11 -34 10
-24 49 24 35 42 66 58 66 35 0 -5 -6 -10 -14 -10 -17 0 -79 -95 -73 -112 2 -7
-3 -25 -12 -41 -13 -22 -13 -31 -3 -47 6 -11 11 -32 11 -47 -1 -17 -3 -21 -6
-10 -8 30 -30 19 -62 -30 -82 -127 -192 -197 -309 -198 -60 0 -65 2 -95 36
-58 65 -68 80 -61 91 4 6 3 8 -3 5 -6 -4 -18 4 -27 18 -19 29 -21 44 -4 27 26
-26 28 -10 2 23 -14 19 -30 32 -35 29 -14 -8 -29 39 -17 53 7 8 6 22 -1 40
l-11 28 6 -30 c3 -16 2 -26 -2 -22 -10 9 -12 37 -20 192 -3 74 -2 115 4 107 7
-10 11 -5 17 20 l8 33 6 -30 c7 -29 8 -29 16 15 l8 45 20 -45 c17 -38 21 -42
27 -25z m749 -101 c44 -50 86 -128 84 -156 -1 -10 2 -16 7 -13 10 6 88 -102
109 -150 7 -16 33 -84 56 -151 43 -120 43 -121 26 -151 -25 -39 -131 -133
-152 -133 -9 0 -19 -6 -22 -14 -3 -8 -38 -32 -79 -54 -75 -41 -83 -42 -178
-25 l-45 8 48 5 c59 6 63 25 4 21 -31 -2 -50 3 -70 19 -19 15 -35 20 -52 16
-23 -6 -46 9 -24 16 6 2 -2 16 -17 31 l-27 28 22 15 c12 9 33 28 46 42 14 15
25 22 25 17 0 -6 28 42 61 105 33 63 78 141 100 174 42 62 46 76 27 76 -10 0
-9 3 1 9 8 5 10 14 6 22 -6 9 -4 11 8 6 43 -16 44 67 1 152 -13 25 -24 54 -24
63 0 9 -9 37 -20 63 l-20 46 29 -21 c17 -11 48 -41 70 -66z m-73 -70 c9 -49
-2 -210 -17 -254 -7 -19 -22 -51 -34 -70 -12 -19 -41 -71 -64 -115 -42 -78
-97 -139 -115 -128 -5 4 -6 1 -2 -5 12 -19 -15 -24 -30 -6 -14 18 -14 18 -7 0
4 -13 3 -17 -5 -12 -6 3 -14 1 -17 -5 -11 -17 3 -23 20 -9 11 9 15 9 15 1 0
-19 -27 -23 -56 -8 l-27 14 39 29 c74 56 142 125 167 172 37 68 79 189 79 228
0 19 4 34 9 34 5 0 9 5 9 11 0 5 -5 7 -12 3 -6 -4 -9 -3 -6 2 3 5 11 42 18 82
13 79 25 92 36 36z m-2798 9 c37 -24 94 -85 86 -92 -4 -3 -9 0 -11 7 -7 20
-18 14 -19 -12 -2 -23 -1 -23 28 -9 37 19 57 7 115 -68 57 -73 68 -106 44
-121 -10 -6 -16 -19 -14 -28 6 -21 -23 -80 -39 -80 -6 0 -8 -3 -5 -6 4 -4 -3
-20 -14 -35 l-20 -29 -47 25 c-26 13 -67 41 -91 62 -41 36 -43 40 -31 63 7 14
14 27 16 29 2 2 31 -17 66 -41 78 -56 114 -76 103 -57 -6 9 -3 11 9 6 10 -4
15 -3 11 4 -4 5 -16 7 -27 3 -12 -3 -18 -2 -15 3 4 6 -15 20 -42 33 -27 12
-61 32 -77 45 -27 21 -28 24 -15 49 8 14 18 26 23 26 5 0 40 -16 78 -35 98
-49 102 -43 5 8 -70 37 -80 45 -78 67 7 66 4 140 -5 140 -4 0 -18 -9 -32 -20
-14 -11 -28 -20 -32 -20 -3 0 -22 23 -42 50 l-36 50 40 0 c23 0 53 -8 68 -17z
m-5 -171 c-18 -12 -38 -32 -44 -45 -11 -19 -10 -20 3 -10 8 7 19 9 23 5 5 -4
5 -2 2 4 -4 6 2 19 13 29 11 10 20 14 20 8 0 -22 -34 -122 -60 -178 -15 -33
-38 -88 -51 -122 -13 -35 -27 -63 -30 -63 -13 0 -42 146 -43 210 -1 56 3 72
30 115 17 29 57 71 95 99 l64 49 5 -39 c5 -35 2 -41 -27 -62z m2621 -89 c-9
-21 -27 -63 -40 -93 -18 -44 -37 -67 -94 -113 -55 -45 -72 -54 -76 -42 -4 9 2
25 11 35 10 11 15 23 12 27 -13 12 -36 -31 -37 -67 0 -19 -2 -52 -3 -73 l-2
-38 -50 6 c-27 4 -54 11 -59 16 -6 5 -18 9 -27 9 -25 0 -39 22 -70 113 l-29
82 25 -30 c47 -58 56 -66 66 -59 6 3 3 12 -8 21 -16 13 -16 13 6 3 34 -17 97
-5 177 34 75 36 141 95 181 163 31 53 39 56 17 6z m56 -53 c-37 -94 -71 -141
-147 -201 -41 -33 -79 -59 -84 -59 -12 0 -12 26 1 50 11 20 125 113 153 123 9
3 17 14 17 23 0 9 13 33 28 53 16 20 32 45 36 55 3 10 9 17 12 14 2 -3 -5 -29
-16 -58z m-2567 -149 c41 -14 43 -18 23 -44 -8 -11 -20 -15 -32 -11 -14 4 -16
3 -5 -4 16 -12 4 -35 -15 -28 -8 3 -11 0 -8 -8 8 -21 -21 -39 -45 -27 -11 6
-23 11 -28 11 -4 -1 4 -8 20 -16 33 -18 34 -29 3 -49 -23 -15 -28 -15 -74 9
-28 14 -53 30 -56 35 -4 5 18 -4 46 -20 29 -16 58 -29 63 -28 6 0 -11 11 -36
24 -52 27 -72 48 -67 69 3 13 9 13 45 -4 l42 -19 -34 35 c-36 36 -39 42 -29
68 9 24 25 19 64 -20 19 -20 44 -40 55 -45 11 -6 7 1 -10 15 -19 17 -25 26
-15 26 8 0 -5 12 -30 26 -56 32 -54 29 -40 53 11 21 11 21 68 -8 31 -15 74
-34 95 -40z m240 46 c18 -7 17 -10 -7 -51 -28 -48 -35 -73 -11 -42 14 19 16
19 52 -11 43 -34 125 -83 139 -83 5 0 -16 14 -46 31 -85 49 -100 65 -89 101 4
17 6 34 4 38 -3 4 2 13 10 20 11 9 27 3 83 -36 38 -27 77 -59 86 -72 18 -23
18 -24 -8 -51 -25 -26 -39 -58 -15 -34 9 9 18 8 36 -4 28 -18 37 -13 115 71
37 39 47 47 48 32 0 -11 -24 -44 -54 -72 -112 -108 -253 -107 -346 3 -18 21
-30 30 -26 20 3 -10 2 -16 -2 -13 -10 6 -15 142 -7 156 4 6 9 9 13 7 4 -2 15
-7 25 -10z m771 -2 c11 -8 16 -15 10 -16 -5 0 9 -8 31 -18 36 -16 42 -16 63
-3 18 11 25 12 37 2 8 -7 15 -20 15 -30 0 -20 31 -32 50 -20 7 5 20 5 29 0 9
-4 33 -15 54 -24 39 -16 50 -35 20 -32 -10 0 -17 -4 -16 -10 1 -7 -6 -10 -17
-7 -10 3 -27 0 -37 -6 -10 -6 -13 -11 -5 -11 7 0 11 -4 7 -9 -3 -5 5 -17 17
-25 13 -9 17 -16 9 -16 -17 0 -133 84 -226 164 -38 33 -74 64 -79 68 -18 15
18 8 38 -7z m-158 -124 c-24 -14 -61 -39 -80 -55 -41 -33 -71 -30 -57 6 4 13
11 51 15 86 11 99 9 98 93 40 l74 -51 -45 -26z m-766 -25 l0 -124 -37 8 c-46
11 -103 41 -103 56 0 13 54 89 71 100 7 4 20 -2 31 -16 22 -27 24 -13 3 18
-15 20 -14 24 6 52 13 16 24 30 26 30 2 0 3 -56 3 -124z m1736 -29 c20 -23 48
-47 61 -53 33 -14 12 -31 -47 -38 -34 -4 -39 -3 -20 3 24 9 24 9 3 10 -13 1
-41 8 -62 17 -61 24 -71 12 -17 -20 39 -23 57 -27 101 -24 50 3 54 2 58 -22 2
-14 8 -33 12 -42 6 -15 2 -18 -18 -18 -14 0 -29 -5 -33 -11 -5 -9 3 -10 28 -5
52 9 58 -17 11 -39 -73 -35 -180 2 -218 74 -8 16 -19 48 -24 72 -9 39 -7 47
12 68 12 13 17 21 11 18 -7 -4 -11 5 -12 24 0 16 4 27 9 24 5 -4 9 7 9 22 0
20 7 31 23 38 12 6 24 21 25 34 3 19 8 13 27 -33 12 -31 40 -75 61 -99z m-869
41 c74 -54 243 -203 240 -212 -2 -5 -21 -16 -44 -23 -49 -17 -96 -4 -87 24 2
10 -1 8 -7 -4 -7 -13 -19 -25 -28 -28 -12 -3 -18 -18 -20 -48 -3 -54 -17 -69
-31 -33 -5 15 -10 30 -10 34 0 4 -10 21 -21 37 -12 17 -19 22 -15 13 3 -10 0
-18 -6 -18 -7 0 -9 -17 -6 -48 5 -53 61 -148 80 -136 6 4 9 1 6 -6 -9 -28 -27
-19 -61 28 -20 28 -38 68 -42 93 -4 24 -11 51 -16 59 -7 11 -8 8 -4 -10 19
-86 20 -116 7 -144 -15 -29 -64 -56 -104 -56 -13 0 -40 -9 -59 -19 -36 -19
-37 -19 -57 -1 -11 11 -33 36 -48 56 -27 35 -27 37 -9 50 22 16 39 18 30 4 -8
-13 19 -58 49 -82 23 -19 41 -24 32 -9 -4 5 3 7 14 4 12 -3 20 0 20 7 0 8 -9
11 -29 7 -24 -5 -34 -1 -54 23 -17 20 -23 37 -20 57 5 39 3 144 -3 155 -3 5
-2 7 3 6 5 -2 24 14 42 34 18 21 37 35 43 32 5 -4 23 3 39 15 23 17 29 19 29
6 0 -17 2 -18 53 -6 36 9 39 8 34 -11 -5 -17 -2 -19 18 -14 23 6 24 4 19 -24
-4 -16 -2 -30 3 -30 5 0 9 8 9 18 0 9 4 27 7 38 7 19 4 21 -18 16 -24 -4 -25
-3 -15 22 11 30 9 31 -30 11 -17 -9 -30 -13 -30 -10 0 3 -9 1 -20 -5 -18 -9
-20 -8 -20 17 l0 27 -34 -33 c-33 -32 -33 -32 -40 -9 -11 39 102 135 174 147
3 1 20 -9 37 -21z m-724 -34 c-3 -17 19 -32 85 -60 37 -15 69 -29 71 -31 10
-7 -24 -53 -38 -53 -29 0 -135 57 -164 88 -24 25 -27 33 -18 50 8 15 19 20 38
18 16 -2 27 -7 26 -12z m14 -122 c4 3 31 -5 58 -17 l50 -22 -39 -36 c-37 -34
-40 -35 -66 -22 -14 7 -50 35 -78 60 -29 26 -52 44 -52 41 0 -9 77 -78 112
-100 29 -19 29 -19 10 -39 -20 -19 -20 -19 -66 12 -25 18 -53 45 -61 62 -15
28 -15 33 10 86 l26 57 43 -43 c24 -24 48 -41 53 -39z m-189 8 c17 0 32 -5 32
-11 0 -20 -41 -69 -59 -69 -9 0 -23 -6 -29 -12 -10 -10 -15 -10 -23 2 -8 12
-9 10 -4 -6 3 -13 -1 -26 -10 -34 -13 -11 -15 -10 -9 6 5 15 4 16 -4 4 -6 -8
-9 -26 -8 -40 2 -14 1 -17 -1 -8 -4 14 -9 15 -36 6 -18 -6 -35 -16 -39 -22 -4
-6 -10 -8 -13 -5 -9 9 34 111 57 136 11 11 22 39 25 61 l5 40 42 -24 c22 -13
56 -24 74 -24z m1665 -194 c31 -19 62 -28 91 -28 l45 -1 -18 -36 c-25 -50 -33
-88 -22 -108 5 -10 14 -45 20 -78 57 -292 120 -511 165 -570 29 -38 39 -85 19
-92 -9 -3 -13 7 -14 29 l-2 33 -6 -37 c-4 -25 -21 -52 -54 -87 -50 -53 -62
-59 -70 -38 -3 6 -6 -1 -7 -18 l-2 -30 -8 30 c-4 17 -8 53 -9 81 -1 68 -48
197 -129 354 -67 131 -117 258 -147 376 -16 65 -17 73 -2 105 9 18 21 54 27
79 6 25 16 59 21 77 l10 31 22 -22 c13 -13 44 -35 70 -50z m1327 -67 c0 -55
-21 -99 -65 -138 -50 -44 -101 -64 -139 -57 -22 4 -27 3 -16 -4 12 -7 8 -10
-15 -10 -23 0 -27 3 -15 10 22 14 3 12 -21 -2 -18 -11 -23 -10 -45 15 -25 30
-31 47 -14 47 6 0 10 7 10 15 0 9 -6 12 -15 9 -18 -7 -21 32 -4 56 8 12 9 10
4 -7 -4 -14 -2 -23 4 -23 6 0 11 6 11 14 0 12 55 22 166 30 17 2 48 15 70 31
45 33 66 52 45 40 -8 -5 -12 -4 -8 1 3 5 15 10 26 11 18 2 21 -4 21 -38z
m-100 -311 c-4 -18 -13 -67 -20 -108 -19 -119 -20 -122 -53 -153 -52 -50 -364
-251 -500 -322 -124 -65 -127 -67 -211 -169 -68 -82 -98 -109 -146 -135 -34
-18 -64 -31 -66 -28 -3 2 14 21 37 41 24 20 36 36 28 36 -9 0 -28 -14 -44 -30
-57 -59 -195 -117 -179 -75 4 8 10 15 14 15 16 0 100 83 100 98 0 13 4 11 16
-6 18 -26 49 -29 58 -6 3 9 5 32 5 52 -1 31 -2 33 -8 12 -9 -37 -48 -36 -56 2
-4 17 -2 35 5 43 21 26 -3 16 -33 -12 l-29 -28 7 28 c5 17 3 27 -4 27 -19 0 3
31 71 101 61 62 67 65 183 103 66 22 136 48 155 60 66 38 227 174 304 258 48
51 84 82 94 80 12 -3 13 -1 5 10 -6 7 -14 39 -18 71 l-7 58 29 -8 c40 -11 193
-8 223 5 43 18 49 15 40 -20z m-861 -362 c49 -49 81 -89 76 -95 -3 -6 -3 -11
2 -10 47 8 -4 -24 -59 -37 -56 -13 -58 -13 -58 7 0 11 -13 37 -29 57 -25 32
-71 131 -71 155 0 4 12 7 28 7 21 0 46 -19 111 -84z m-2408 -32 c47 -46 56
-86 39 -163 l-13 -56 -12 40 c-12 41 -56 118 -74 129 -5 3 -20 2 -33 -3 -15
-5 -30 -6 -39 0 -10 6 -4 9 19 9 20 0 31 4 27 10 -3 6 -17 10 -31 10 -27 0
-29 6 -14 46 10 24 14 26 52 21 29 -4 51 -16 79 -43z m1329 -99 c16 -8 51 -15
79 -15 82 0 87 -6 42 -55 -21 -23 -51 -61 -66 -84 -30 -44 -52 -54 -106 -49
-44 4 -67 45 -51 92 44 131 56 157 64 142 5 -9 22 -23 38 -31z m-1380 -12 c35
-32 43 -46 47 -84 3 -28 -1 -68 -12 -104 l-17 -59 -15 33 c-23 46 -90 100
-135 107 -21 4 -38 12 -38 18 0 21 48 114 61 119 36 14 68 5 109 -30z m85
-274 c41 -143 41 -171 4 -205 -19 -17 -19 -16 -19 34 0 38 -5 54 -18 64 -10 7
-23 32 -29 56 -10 37 -8 48 10 82 12 21 25 36 30 31 4 -4 14 -32 22 -62z m-71
-90 c8 -42 -28 -95 -138 -203 -50 -49 -86 -87 -79 -85 27 9 174 153 204 199
36 55 48 62 51 28 3 -50 -5 -65 -70 -128 -37 -36 -79 -79 -93 -95 -33 -38 -61
-61 -102 -83 -61 -34 -119 -73 -114 -79 9 -8 184 94 217 127 3 3 21 16 40 29
19 14 55 47 78 73 24 26 50 48 57 48 7 0 17 -19 23 -42 9 -33 7 -49 -5 -82
-37 -93 -165 -238 -265 -299 -100 -61 -216 -106 -228 -87 -5 8 -21 7 -61 -4
-30 -8 -70 -16 -89 -17 -100 -4 -152 -1 -163 10 -6 6 -19 11 -29 11 -10 0 -35
15 -55 33 -21 19 -46 38 -57 44 -14 8 -4 11 49 17 37 4 118 16 179 27 61 12
122 22 136 23 35 4 80 24 80 36 0 7 -6 7 -20 0 -11 -6 -25 -8 -30 -5 -5 3 -26
-2 -47 -11 -28 -11 -77 -17 -185 -19 -80 -1 -151 -6 -157 -9 -6 -4 -11 -3 -11
3 0 5 10 13 23 16 45 14 150 66 144 72 -9 8 -199 -66 -367 -144 -96 -45 -252
-154 -231 -161 7 -2 2 -15 -14 -34 -14 -16 -25 -34 -25 -39 0 -5 -4 -9 -9 -9
-4 0 -11 37 -14 83 -8 95 -18 131 -59 201 l-29 49 18 35 c10 18 30 42 44 53
15 10 41 41 59 69 l32 50 245 -1 c401 0 507 20 733 138 69 36 132 70 140 77 8
6 26 18 40 25 14 7 41 30 60 50 46 48 85 52 94 10z m2867 -421 c11 -13 33 -42
50 -65 16 -24 41 -46 54 -49 14 -3 25 -9 25 -13 0 -4 -21 -28 -47 -53 -33 -32
-60 -49 -85 -53 -33 -6 -41 -3 -68 23 -36 36 -34 55 11 141 16 30 29 62 29 72
0 25 8 24 31 -3z m-3022 -206 c-11 -33 -112 -113 -210 -166 -83 -46 -91 -46
-87 1 3 34 7 39 43 53 22 8 64 24 93 35 29 11 79 39 110 63 31 23 58 42 59 42
1 0 -2 -13 -8 -28z"/>
<path d="M906 4120 c-9 -23 -15 -27 -24 -18 -16 16 -15 6 3 -28 8 -16 15 -46
15 -66 0 -48 8 -68 26 -61 8 3 14 -1 14 -9 0 -8 6 -23 14 -33 12 -16 16 -17
30 -6 9 8 16 9 16 3 0 -6 3 -18 7 -28 4 -11 3 -15 -4 -11 -6 4 -13 0 -17 -8
-3 -8 -10 -15 -16 -15 -6 0 -8 5 -5 10 3 6 -3 10 -14 10 -13 0 -21 7 -21 17 0
9 -3 14 -6 10 -10 -9 7 -48 18 -41 6 4 8 -1 4 -14 -7 -21 30 -109 40 -99 3 3
-4 23 -15 46 -26 50 -26 55 0 48 12 -3 22 0 26 9 8 22 23 6 24 -29 2 -30 2
-30 6 -5 2 15 -5 62 -16 105 -11 43 -22 89 -25 103 -2 14 -4 -2 -3 -34 1 -40
-2 -61 -10 -63 -13 -5 -14 1 -16 64 -1 27 -3 30 -16 20 -12 -10 -13 -9 -6 2 4
7 9 23 9 35 1 11 7 20 14 19 7 -2 12 3 13 10 0 6 5 3 10 -8 l9 -20 -3 20 c-2
11 -9 19 -15 18 -14 -4 -16 33 -2 42 6 3 10 13 10 21 0 24 -25 -5 -34 -39 -7
-28 -20 -35 -31 -17 -4 6 -1 9 6 8 7 -2 14 6 16 17 4 17 2 18 -7 5 -9 -12 -10
-9 -6 13 8 36 -2 35 -18 -3z"/>
<path d="M2405 4056 c-11 -7 -28 -12 -37 -10 -10 1 -18 -2 -18 -7 0 -9 15 -13
39 -9 11 1 12 -6 7 -32 -9 -42 -17 -128 -10 -108 2 8 10 49 18 90 l13 75 1
-125 c1 -86 -2 -118 -8 -102 -6 13 -14 20 -20 17 -5 -3 -10 -1 -10 6 0 7 -2
10 -5 7 -9 -8 6 -38 16 -32 5 3 9 -1 9 -10 0 -8 5 -16 12 -18 6 -2 8 -10 4
-17 -6 -9 -11 -9 -24 1 -10 8 -13 8 -9 1 4 -6 2 -13 -3 -15 -7 -2 -5 -11 5
-23 12 -16 14 -17 9 -2 -4 11 -1 17 9 17 10 0 15 -8 14 -20 -1 -17 -7 -20 -32
-18 -33 3 -50 19 -32 30 16 10 1 22 -19 14 -10 -4 -14 -13 -11 -26 3 -13 0
-20 -9 -20 -8 0 -14 -7 -14 -15 0 -13 12 -15 65 -13 36 2 64 7 64 13 -5 43 2
65 21 65 17 0 20 -7 21 -47 2 -32 3 -38 6 -18 7 54 13 62 27 43 14 -19 26 -14
26 11 0 14 -2 14 -11 1 -8 -11 -9 -1 -6 40 l5 55 -16 -35 -17 -35 -3 69 c-2
39 2 74 8 80 5 5 10 18 10 27 0 9 7 22 15 29 18 15 20 44 3 37 -7 -2 -12 -10
-10 -16 1 -7 -14 -11 -39 -11 l-41 0 6 35 c7 38 1 42 -29 21z"/>
<path d="M208 3845 c2 -14 8 -28 13 -31 5 -3 3 -14 -4 -25 -10 -16 -9 -21 3
-29 13 -8 12 -10 -2 -10 -10 0 -18 -7 -18 -16 0 -10 6 -14 15 -10 11 4 15 -1
15 -19 0 -14 -4 -25 -8 -25 -10 0 -8 -55 3 -85 26 -73 49 -131 57 -140 5 -5 2
8 -5 30 -14 40 -14 41 13 68 l27 27 15 -46 c12 -38 16 -43 20 -26 4 12 2 22
-2 22 -5 0 -14 16 -20 35 -11 32 -10 37 12 54 l23 19 -40 8 c-22 4 -48 7 -57
6 -21 -1 -32 26 -17 44 8 10 8 14 0 14 -7 0 -11 20 -11 53 1 47 2 50 15 33 8
-10 21 -16 29 -13 8 3 20 -1 26 -9 7 -8 16 -14 21 -14 5 0 0 9 -11 20 -11 11
-27 20 -35 20 -8 0 -15 5 -15 10 0 6 -8 10 -17 10 -14 0 -15 2 -4 9 7 5 10 14
7 20 -4 6 -12 9 -17 5 -5 -3 -16 -1 -23 5 -11 9 -12 6 -8 -14z"/>
<path d="M1885 3778 c4 -26 3 -29 -4 -13 -5 11 -10 14 -10 8 -1 -7 -8 -13 -16
-13 -9 0 -12 -6 -8 -17 4 -11 8 -13 11 -5 2 7 8 10 12 7 5 -3 7 -12 4 -19 -3
-8 -1 -17 5 -21 6 -3 11 -17 11 -31 0 -17 -4 -23 -12 -18 -8 5 -9 2 -5 -9 3
-9 3 -16 -1 -15 -7 1 -50 -15 -84 -33 -28 -14 -30 -11 -10 12 12 12 18 29 15
40 -6 21 11 26 23 7 5 -7 2 -8 -7 -3 -11 6 -12 5 -2 -5 11 -11 17 -10 38 10
32 30 32 48 -1 60 -30 12 -37 12 -31 3 3 -5 -6 -8 -19 -8 -13 0 -24 4 -24 8 0
5 -8 1 -17 -9 -16 -16 -18 -15 -35 22 -15 34 -17 35 -11 9 8 -41 35 -86 48
-81 7 2 17 -4 23 -14 9 -14 8 -21 -3 -30 -8 -7 -15 -9 -15 -4 0 5 -5 2 -10 -6
-5 -8 -7 -22 -5 -31 4 -11 -6 -19 -36 -28 -22 -7 -43 -10 -46 -8 -8 9 41 31
62 29 11 -1 14 1 7 4 -6 3 -10 10 -7 15 4 5 -1 6 -9 3 -9 -4 -16 2 -19 18 -4
21 -4 20 -6 -4 -1 -24 -5 -28 -29 -28 -29 0 -72 44 -72 74 0 8 -5 18 -12 22
-8 5 -9 2 -5 -10 10 -25 -2 -66 -19 -66 -8 0 -14 -5 -14 -11 0 -5 6 -7 13 -3
8 5 8 3 -2 -9 -12 -15 -10 -18 10 -26 23 -10 24 -10 2 -10 -12 -1 -25 -5 -28
-11 -3 -5 -11 -10 -18 -10 -6 0 -2 7 9 16 17 14 17 15 1 10 -10 -3 -25 -6 -33
-6 -9 0 -13 -4 -10 -9 4 -5 -2 -7 -12 -4 -10 2 -36 -5 -57 -17 -21 -12 -41
-17 -44 -12 -8 12 -55 27 -48 15 4 -5 0 -10 -8 -10 -8 0 -15 6 -15 13 0 15 35
25 48 12 6 -6 12 -6 16 1 4 6 1 11 -7 11 -10 0 -14 7 -11 23 l5 22 -10 -22
c-6 -13 -13 -23 -16 -23 -10 0 -35 72 -28 83 4 6 1 7 -7 2 -9 -6 -12 -4 -8 6
3 8 0 23 -8 34 -21 28 -18 -1 5 -51 14 -31 16 -45 8 -53 -8 -8 -7 -11 4 -11
11 0 11 -2 1 -9 -8 -4 -13 -11 -13 -15 3 -20 0 -26 -11 -20 -7 4 -8 3 -4 -4 4
-7 1 -12 -8 -12 -9 0 -26 16 -38 35 -26 39 -38 44 -38 15 0 -11 6 -19 13 -18
6 2 11 -3 9 -9 -1 -7 4 -13 12 -13 7 0 19 -6 25 -14 19 -23 60 -29 77 -11 9 8
23 15 32 15 12 0 9 -6 -10 -18 -36 -22 -38 -45 -3 -32 30 11 33 5 5 -10 -14
-8 -26 -8 -41 1 -17 9 -25 7 -42 -9 -31 -27 -47 -35 -47 -23 0 6 7 11 16 11
14 0 14 3 4 15 -18 21 -43 19 -36 -3 6 -17 -25 -62 -41 -62 -4 0 -2 5 5 12 7
7 12 17 12 23 0 5 -5 2 -11 -7 -11 -20 -39 -24 -39 -6 0 6 -3 9 -6 5 -4 -3
-15 4 -25 16 l-19 22 11 -27 c7 -16 17 -28 22 -28 6 0 2 -9 -7 -19 -10 -11
-25 -17 -34 -14 -10 3 -6 -3 8 -13 14 -10 36 -19 50 -20 14 -2 30 -3 35 -3 6
-1 -1 -7 -15 -14 -27 -14 -93 -10 -84 4 12 20 -15 7 -29 -13 l-15 -23 -24 23
c-21 21 -22 24 -5 33 9 6 15 14 12 20 -10 14 2 11 20 -7 9 -9 18 -14 21 -11 3
2 -2 12 -11 20 -8 9 -15 21 -15 28 0 7 -13 0 -30 -16 -31 -30 -32 -29 -45 29
-3 15 -9 26 -12 22 -3 -3 -12 -1 -20 5 -10 9 -14 5 -19 -20 -5 -22 -12 -31
-26 -31 -10 0 -21 -6 -24 -14 -3 -8 -11 -13 -18 -10 -7 3 -24 0 -39 -5 -23 -9
-29 -7 -47 16 -11 14 -20 20 -20 13 0 -7 -7 -10 -17 -6 -11 4 -8 -2 7 -14 34
-27 64 -34 90 -20 16 9 25 9 36 -1 11 -9 14 -9 14 0 0 7 5 9 10 6 6 -4 8 -10
5 -14 -8 -14 -53 -19 -64 -8 -8 8 -11 7 -11 -1 0 -6 20 -17 45 -23 44 -11 55
-22 35 -34 -5 -3 -10 -1 -10 4 0 6 -7 11 -15 11 -8 0 -15 -6 -15 -12 0 -8 -3
-9 -8 -3 -4 6 -11 11 -17 11 -5 1 -21 5 -35 9 l-25 7 27 -21 c29 -23 64 -28
71 -8 3 7 6 4 6 -6 1 -10 6 -15 11 -12 6 4 10 -5 10 -21 0 -21 -4 -25 -20 -21
-10 3 -20 1 -22 -5 -2 -6 -14 -5 -31 1 -16 6 -25 15 -22 21 3 6 -1 7 -9 4 -9
-4 -18 1 -22 10 -3 9 -10 14 -14 11 -4 -3 -10 2 -14 10 -3 8 -14 15 -24 15
-10 0 -35 15 -55 34 -20 18 -39 31 -42 28 -3 -3 -5 0 -5 6 0 7 -7 12 -16 12
-14 0 -16 -8 -10 -47 3 -27 9 -60 12 -75 5 -24 3 -27 -14 -23 -16 3 -20 0 -15
-13 4 -14 3 -14 -5 -3 -6 8 -8 25 -6 39 3 14 -2 40 -11 58 -19 40 -29 45 -15
8 13 -33 13 -47 0 -39 -14 9 -13 -8 2 -23 8 -8 8 -12 1 -12 -13 0 -25 28 -18
41 6 9 -36 72 -43 64 -2 -2 6 -25 18 -50 28 -58 21 -67 -16 -20 -15 20 -36 41
-48 47 -11 6 1 -13 28 -43 27 -30 53 -53 57 -52 5 2 6 -4 2 -13 -3 -8 -2 -14
3 -13 16 4 43 -12 40 -24 -1 -7 -1 -9 1 -5 5 8 53 0 64 -11 4 -3 10 -21 14
-40 6 -29 5 -33 -9 -28 -8 3 -18 2 -21 -4 -4 -5 -11 -7 -16 -3 -5 3 -7 10 -4
15 4 5 1 9 -5 9 -7 0 -10 -6 -7 -13 7 -18 -6 -38 -19 -29 -5 4 -20 23 -32 42
l-22 35 2 -32 c1 -21 8 -33 20 -36 10 -3 18 -10 18 -16 0 -21 -33 -25 -62 -8
-16 9 -26 12 -23 7 8 -13 -17 -13 -110 1 -62 10 -75 15 -75 30 0 11 -5 16 -13
13 -16 -6 -37 16 -42 43 -2 10 -4 20 -5 23 -1 3 -1 19 0 35 1 17 -1 27 -5 23
-12 -12 -35 19 -35 46 0 14 -5 28 -10 31 -6 4 -8 11 -5 16 4 5 -10 55 -29 112
-20 56 -38 113 -41 126 -2 13 -10 30 -17 39 -10 12 -10 14 0 8 14 -8 15 9 2
39 -7 16 -9 17 -9 3 -1 -9 -5 -19 -10 -22 -5 -4 -7 4 -5 16 l5 23 -10 -22 c-7
-16 -6 -39 4 -78 18 -66 18 -78 5 -70 -6 3 -7 -1 -4 -9 3 -9 10 -13 15 -10 5
3 10 -5 10 -18 2 -29 4 -39 12 -58 3 -8 8 -26 11 -40 3 -14 3 -5 1 20 -3 25
-8 60 -11 79 -12 60 14 25 35 -47 49 -172 71 -261 72 -292 1 -19 3 -27 6 -17
2 9 9 17 14 17 13 0 50 -63 45 -77 -3 -7 0 -10 7 -8 16 6 68 -71 61 -89 -3 -8
-12 -17 -20 -20 -9 -3 -12 -11 -8 -17 9 -15 -16 -60 -30 -52 -6 3 -8 3 -4 -2
4 -4 3 -14 -3 -22 -9 -10 -8 -13 0 -13 15 0 34 19 46 45 8 19 9 19 13 -3 2
-13 -1 -29 -7 -36 -10 -12 -208 -53 -216 -44 -2 2 3 17 11 33 l15 29 -23 -19
c-16 -14 -15 -11 5 11 28 31 36 51 15 38 -7 -5 -8 -3 -4 5 5 7 10 10 13 7 13
-13 64 69 62 101 0 10 -5 5 -10 -11 -4 -17 -15 -34 -24 -39 -8 -4 -13 -12 -10
-18 13 -19 -13 -8 -29 14 l-17 22 7 -24 c4 -17 3 -21 -6 -16 -8 5 -11 4 -7 -3
9 -13 -2 -42 -15 -42 -6 0 -17 8 -25 18 -13 15 -14 15 -9 -10 4 -15 2 -30 -4
-33 -5 -3 -10 -15 -10 -27 0 -17 2 -18 15 -8 8 7 15 19 15 26 0 8 7 14 15 14
13 0 14 -4 5 -21 -6 -11 -9 -25 -7 -32 2 -7 -8 -17 -22 -24 -23 -11 -21 -12
24 -7 28 3 100 14 160 24 61 10 134 21 163 25 28 4 52 9 52 11 0 2 -40 55 -89
117 -49 61 -88 114 -86 116 2 1 48 -4 102 -12 107 -17 287 -30 296 -21 3 3 -6
37 -19 76 -35 104 -66 224 -62 241 2 11 20 2 68 -34 85 -65 194 -129 217 -129
17 0 21 14 32 113 7 61 13 118 14 125 1 21 11 13 47 -40 53 -79 149 -198 160
-198 8 0 90 140 143 245 28 56 27 57 50 -65 16 -84 49 -195 61 -207 3 -3 46
29 95 71 l90 77 4 -53 3 -53 2 64 c2 73 14 76 -107 -26 -41 -35 -78 -63 -82
-63 -5 0 -13 17 -18 38 -49 183 -60 252 -42 252 7 0 10 -4 7 -9 -8 -13 18 -21
35 -10 11 7 10 9 -5 9 -30 0 -11 12 26 16 38 5 101 24 108 33 3 4 16 12 30 19
23 12 23 12 3 8 -49 -9 -19 11 50 34 81 27 90 29 97 19 3 -4 30 -1 60 7 30 8
75 16 99 18 35 2 47 7 54 24 6 12 16 22 23 22 7 0 16 4 19 10 4 6 -1 7 -12 3
-15 -5 -16 -3 -5 8 6 7 12 21 12 31 0 16 3 17 23 6 12 -7 29 -11 39 -10 9 2
19 -1 22 -6 10 -16 -20 -44 -47 -44 -15 0 -30 -4 -33 -9 -3 -5 2 -6 10 -3 9 3
16 1 16 -5 0 -6 -11 -11 -24 -11 -20 0 -36 -16 -36 -36 0 -8 79 -4 102 5 33
12 168 22 168 11 0 -4 -6 -11 -12 -14 -7 -3 -2 -3 12 1 27 8 68 8 143 0 26 -3
47 -1 47 4 0 8 -17 13 -47 12 -7 0 -11 4 -10 10 1 6 -9 16 -23 24 -18 9 -20
13 -8 13 9 0 19 -4 22 -9 7 -11 76 -12 76 -1 0 4 -19 11 -42 15 -61 12 -138
14 -132 4 3 -5 12 -9 20 -9 22 0 74 -29 74 -41 0 -6 -6 -6 -17 -1 -10 5 -23 7
-30 5 -6 -2 -27 4 -45 13 -35 19 -39 20 -78 23 -18 1 -21 4 -11 10 11 7 9 10
-8 16 -24 7 -44 -2 -36 -16 4 -5 0 -9 -7 -9 -9 0 -14 11 -14 27 1 16 -4 28
-11 28 -6 0 -21 12 -33 28 -12 15 -26 27 -32 27 -6 0 -3 -8 6 -19 13 -14 14
-20 4 -23 -19 -7 -38 2 -38 18 0 8 -4 14 -10 14 -5 0 -10 7 -10 16 0 14 2 15
17 3 15 -12 16 -12 9 6 -5 11 -12 35 -18 53 -5 17 -11 32 -13 32 -3 0 -2 -15
0 -32z"/>
<path d="M700 2400 c-6 -10 -13 -47 -17 -82 -3 -35 -12 -76 -20 -91 -8 -16
-19 -70 -24 -120 -8 -83 -62 -279 -90 -331 -8 -13 -8 -21 0 -25 16 -10 -10
-290 -31 -319 -18 -26 -17 -29 -34 136 -3 34 -9 62 -13 62 -6 0 -255 -89 -295
-105 -13 -6 -9 5 17 41 37 52 157 263 157 276 0 5 -10 6 -22 3 -39 -9 -291
-36 -295 -31 -2 2 19 35 47 72 69 91 163 234 159 238 -2 2 -35 18 -73 35 -37
18 -90 43 -116 56 l-48 24 2 -24 c0 -14 5 -25 10 -25 5 0 2 -7 -5 -17 -13 -15
-12 -15 10 -4 18 10 21 15 10 22 -7 4 -11 10 -8 14 3 3 51 -16 106 -42 l101
-48 -16 -25 c-68 -107 -134 -189 -149 -183 -13 5 -12 9 8 25 l24 18 -24 -3
c-13 -2 -30 -11 -37 -21 -6 -10 -16 -18 -20 -19 -5 -1 -9 -7 -10 -13 -2 -12
25 -12 44 0 29 17 22 -5 -13 -49 -21 -25 -36 -48 -33 -51 3 -2 75 4 159 16 85
11 157 20 161 20 17 0 -77 -172 -149 -273 -19 -27 -32 -51 -29 -54 2 -3 33 6
68 20 112 45 248 90 254 84 3 -3 10 -54 15 -114 12 -135 12 -134 33 -98 9 17
14 21 10 10 -4 -11 -17 -55 -30 -98 -13 -42 -29 -87 -35 -99 -16 -30 -25 -228
-11 -228 8 0 10 22 6 72 -5 62 -3 84 19 148 14 41 33 102 42 135 9 33 21 65
25 70 5 6 13 89 19 185 14 216 15 223 51 309 27 67 35 106 45 231 2 31 14 78
26 104 11 27 19 59 16 72 -2 13 0 21 4 18 8 -5 14 28 11 66 0 8 5 18 11 22 9
6 9 8 0 8 -7 0 -17 -9 -23 -20z"/>
<path d="M2239 1649 c-49 -121 -263 -332 -318 -314 -27 8 -41 -21 -41 -87 0
-33 6 -62 16 -77 14 -20 22 -22 56 -17 93 15 172 82 252 216 64 106 80 153 71
215 -4 28 -8 60 -9 73 -2 31 -11 28 -27 -9z m30 -89 c0 -32 -1 -33 -11 -13
-10 21 -13 19 -44 -33 -19 -31 -31 -60 -28 -65 3 -5 2 -8 -3 -7 -5 2 -33 -21
-63 -49 -30 -29 -60 -53 -67 -53 -6 0 -15 -9 -18 -20 -4 -12 -15 -20 -28 -20
-13 0 -33 -7 -45 -16 -25 -18 -76 -11 -70 8 3 7 20 16 39 21 66 17 155 99 258
237 63 85 63 86 72 64 4 -10 8 -35 8 -54z m-15 -46 c13 -35 -95 -219 -161
-273 -59 -49 -98 -64 -146 -56 -46 8 -57 18 -57 53 0 18 6 22 33 23 90 4 108
7 134 23 50 32 122 120 149 183 28 65 37 74 48 47z"/>
<path d="M424 954 c-15 -12 -15 -14 -3 -11 15 5 16 -2 11 -56 -4 -47 -13 -73
-37 -108 -17 -25 -37 -71 -44 -102 -11 -51 -16 -58 -54 -79 -29 -16 -51 -40
-72 -78 -30 -54 -40 -61 -109 -75 -40 -8 -82 -54 -96 -106 -7 -24 -11 -80 -10
-124 1 -44 1 -110 1 -148 l0 -67 159 0 160 0 -7 28 c-10 35 -10 206 0 253 4
21 19 54 33 75 14 21 35 54 45 73 12 22 19 29 19 18 0 -10 -17 -44 -37 -75
-27 -42 -38 -71 -41 -109 -3 -35 -1 -53 7 -53 6 0 11 19 11 46 0 34 9 62 32
103 30 52 33 54 39 31 4 -14 7 -40 8 -57 1 -18 5 -33 9 -33 5 0 3 42 -4 93
-16 113 -17 272 -4 442 6 70 9 129 7 131 -2 2 -12 -3 -23 -12z"/>
<path d="M981 658 c1 -7 -1 -20 -4 -28 -11 -26 -47 -184 -46 -205 0 -17 47
145 48 169 1 5 4 7 7 4 6 -7 -63 -322 -78 -354 -19 -40 -93 -113 -129 -128
-59 -24 -176 0 -228 47 -13 12 -37 42 -52 66 -16 25 -29 38 -29 30 0 -28 66
-114 104 -135 53 -30 173 -41 214 -20 68 35 202 215 188 252 -3 8 -2 23 3 32
5 9 11 37 15 62 l6 45 -16 -30 c-13 -27 -14 -27 -10 -5 3 14 6 31 6 38 0 7 5
10 10 7 6 -4 10 25 10 79 0 53 -4 86 -10 86 -6 0 -10 -6 -9 -12z"/>
</g>
</svg>
