<?xml version="1.0" standalone="no"?>
<!DOCTYPE svg PUBLIC "-//W3C//DTD SVG 20010904//EN"
 "http://www.w3.org/TR/2001/REC-SVG-20010904/DTD/svg10.dtd">
<svg version="1.0" xmlns="http://www.w3.org/2000/svg" fill="#f38824"
 width="600.000000pt" height="478.000000pt" viewBox="0 0 600.000000 478.000000"
 preserveAspectRatio="xMidYMid meet">
<g transform="translate(0.000000,478.000000) scale(0.100000,-0.100000)"
 stroke="none">
<path d="M785 4766 l-30 -13 40 -7 c88 -17 245 -133 245 -181 0 -9 4 -14 9
-11 5 3 4 -15 0 -42 -13 -68 -17 -76 -43 -101 -22 -21 -26 -21 -52 -8 -16 8
-76 29 -134 46 -202 62 -235 75 -238 95 -2 10 0 16 5 13 4 -3 8 5 8 18 0 31
-11 22 -25 -20 -6 -19 -17 -35 -23 -35 -7 0 -29 -11 -49 -25 -25 -17 -35 -30
-32 -43 3 -10 -9 -62 -26 -115 l-31 -97 -38 0 c-61 0 -143 -19 -164 -37 -44
-41 -167 -365 -167 -444 0 -35 -19 -3 -21 36 -2 30 -2 30 -6 3 -2 -15 1 -37 8
-50 8 -15 12 -86 13 -218 1 -193 1 -195 27 -235 100 -151 307 -216 475 -149
35 14 68 22 74 19 12 -7 4 -63 -16 -111 l-13 -31 45 -10 44 -10 10 38 c15 54
23 49 18 -11 -4 -43 -2 -52 19 -72 18 -16 22 -29 18 -48 -4 -18 -1 -31 10 -40
8 -7 15 -20 15 -29 0 -9 5 -22 12 -29 9 -9 9 -12 0 -12 -7 0 -18 11 -24 25
-14 32 -24 32 -30 0 -3 -13 -2 -22 2 -20 4 3 10 -4 13 -14 12 -46 102 -24 132
33 19 35 17 108 -4 129 -20 20 -26 -4 -9 -33 9 -16 13 -32 9 -35 -12 -7 -42
30 -34 40 5 5 0 3 -9 -4 -20 -15 -24 -46 -8 -56 15 -9 12 -25 -5 -25 -8 0 -15
4 -15 9 0 5 -7 17 -16 26 -16 15 -13 20 31 65 40 41 46 50 32 56 -23 9 -21 31
3 39 11 3 20 10 20 14 0 13 -57 95 -90 130 -31 33 -32 36 -17 60 9 14 21 27
27 29 7 3 5 -6 -5 -21 -16 -25 -15 -26 35 -89 28 -35 54 -75 57 -90 3 -16 10
-25 16 -21 6 4 8 0 4 -11 -9 -23 17 -72 43 -79 17 -4 20 -13 20 -59 0 -55 -6
-71 -27 -75 -7 -2 -18 -4 -25 -5 -7 -2 -23 -15 -36 -30 -31 -36 -86 -47 -124
-25 -20 12 -28 13 -27 4 5 -41 -3 -157 -11 -157 -5 0 -10 26 -12 57 l-3 57
-40 9 c-48 10 -115 -7 -115 -28 0 -21 -16 -18 -33 5 -13 18 -15 19 -21 5 -3
-9 -10 -13 -16 -10 -5 3 -10 1 -10 -5 0 -6 -4 -8 -10 -5 -5 3 -30 -6 -55 -21
-25 -14 -49 -24 -52 -20 -4 3 0 6 7 6 7 0 11 2 8 5 -7 8 -69 -16 -63 -25 2 -4
-7 -12 -21 -19 -31 -14 -37 -14 -28 1 4 7 3 8 -5 4 -6 -4 -9 -11 -6 -16 6 -10
-24 -24 -44 -21 -9 2 -12 -3 -8 -13 4 -9 1 -15 -5 -13 -7 1 -18 -16 -26 -38
-11 -33 -12 -51 -2 -103 l12 -64 -33 -34 c-18 -19 -28 -34 -22 -34 6 0 13 6
16 13 3 8 36 37 74 66 l68 53 -80 -75 c-44 -41 -84 -72 -89 -69 -5 3 -6 1 -3
-5 4 -6 -1 -19 -9 -29 -14 -17 -15 -17 -10 -1 7 24 -1 21 -15 -4 -9 -17 -8
-20 2 -14 9 6 11 3 6 -9 -4 -10 -7 -25 -8 -34 0 -14 -2 -13 -9 3 -6 15 -9 7
-9 -30 -1 -38 2 -46 10 -35 8 11 9 7 4 -16 -4 -23 3 -48 31 -102 41 -81 80
-118 171 -164 35 -17 68 -37 74 -44 19 -23 25 -16 38 49 51 251 89 347 223
565 48 78 88 146 88 151 0 5 7 11 14 14 9 4 13 1 10 -6 -6 -17 240 -109 293
-109 16 0 23 -7 25 -25 l3 -24 49 31 c26 17 51 28 54 25 3 -3 -14 -27 -39 -53
-33 -36 -31 -34 12 8 31 30 54 60 52 67 -3 7 7 18 21 25 18 8 25 17 21 27 -30
77 -80 290 -74 310 2 6 12 -3 21 -20 10 -16 13 -27 8 -24 -12 8 -12 7 1 -55
10 -48 21 -61 34 -40 10 16 42 11 49 -7 8 -19 -17 -43 -43 -42 -11 0 -8 4 7
11 27 14 29 28 3 28 -31 0 -35 -18 -16 -81 14 -45 22 -58 33 -54 12 4 13 3 2
-10 -10 -12 -10 -15 3 -15 23 0 47 11 47 21 0 5 -8 9 -17 9 -13 0 -14 3 -6 11
18 18 45 2 41 -23 -2 -18 -11 -24 -35 -26 -18 -2 -33 -7 -33 -11 0 -9 31 -104
36 -110 2 -3 15 6 29 19 26 24 51 22 62 -6 8 -21 -21 -44 -54 -44 -13 0 -23
-3 -23 -7 0 -7 31 -94 35 -101 1 -1 16 5 33 15 29 17 32 17 48 1 14 -14 15
-20 4 -32 -7 -9 -24 -16 -39 -15 l-26 1 28 10 c15 5 27 14 27 19 0 13 -32 10
-53 -5 -17 -13 -16 -18 9 -97 14 -46 28 -86 30 -88 6 -6 64 21 64 30 0 12 -27
11 -35 -1 -3 -5 -11 -10 -18 -10 -6 0 -2 9 10 21 25 25 63 18 63 -11 0 -14
-12 -23 -41 -31 -34 -11 -39 -16 -35 -33 3 -12 13 -57 21 -101 28 -141 21
-128 57 -109 29 15 31 15 26 -3 -54 -188 -76 -335 -61 -393 8 -29 10 -17 11
65 1 75 9 131 31 219 17 66 36 124 42 130 9 8 10 6 5 -8 -4 -11 -18 -67 -32
-125 -27 -109 -34 -221 -21 -316 7 -47 7 -49 -7 -25 -28 46 -16 9 15 -49 29
-56 125 -168 135 -158 3 2 0 33 -6 68 -5 35 -10 101 -10 146 0 76 2 84 24 98
13 9 47 18 75 22 46 5 51 4 51 -14 0 -31 77 -82 102 -67 10 7 86 -13 101 -26
5 -4 -5 -63 -22 -131 -16 -68 -32 -140 -35 -160 -5 -31 -12 -38 -46 -52 -51
-20 -56 -54 -10 -64 30 -5 30 -7 29 -65 -2 -69 16 -95 91 -133 49 -24 170 -55
219 -55 30 0 31 1 29 48 l-1 47 -4 -42 c-3 -35 -8 -43 -24 -43 -17 0 -20 5
-15 28 3 15 13 99 21 187 19 192 46 382 81 565 14 74 43 230 64 345 22 116 51
262 64 325 14 63 41 196 61 295 88 442 162 721 239 900 l56 129 -39 85 c-21
47 -42 104 -45 126 -13 79 -18 95 -30 95 -6 0 -12 -8 -13 -17 -3 -33 -52 -224
-65 -251 -15 -30 -57 -49 -84 -37 -17 6 -15 9 11 20 17 7 31 9 33 4 7 -17 22
-9 22 12 0 11 5 29 11 40 7 14 47 214 49 245 0 7 61 25 68 20 5 -3 14 -45 22
-93 7 -48 15 -90 19 -93 10 -8 53 -113 59 -144 3 -20 -8 -57 -38 -125 -24 -53
-49 -103 -57 -112 -7 -8 -13 -25 -13 -37 0 -11 -4 -24 -10 -27 -5 -3 -10 -21
-10 -39 0 -19 -11 -67 -24 -108 -31 -94 -98 -368 -126 -513 -12 -60 -41 -209
-65 -330 -24 -121 -60 -312 -80 -425 -20 -113 -44 -245 -55 -295 -33 -159 -71
-437 -75 -555 -2 -63 -1 -98 1 -77 5 34 8 37 37 37 39 -1 133 -21 210 -45 56
-18 57 -19 59 -59 1 -23 4 61 7 186 3 124 9 230 13 234 4 4 14 1 22 -5 8 -7
21 -9 27 -5 7 4 9 3 5 -4 -8 -14 50 -25 104 -20 58 5 58 9 -25 -280 -25 -90
-44 -169 -42 -175 2 -7 7 8 12 31 7 41 9 44 34 39 14 -2 80 -15 146 -27 160
-31 422 -34 534 -7 60 15 76 15 82 5 28 -44 -19 143 -75 297 -20 55 -35 109
-35 120 1 17 2 17 6 3 6 -26 47 -32 109 -19 35 8 60 21 73 37 l19 24 6 -23 c3
-12 6 -78 7 -147 2 -154 15 -386 17 -308 l2 56 48 10 c26 6 68 13 94 17 45 7
47 6 51 -21 4 -26 4 -26 5 6 1 19 -7 98 -18 175 -22 155 -23 168 -12 162 4 -3
5 18 3 46 -4 45 -5 48 -11 22 -5 -24 -9 -13 -19 55 -7 47 -15 93 -18 103 -3
12 1 17 16 17 17 0 20 -9 27 -67 l8 -68 7 42 c8 44 37 108 46 100 2 -3 0 -14
-5 -24 -10 -19 -32 -145 -32 -184 0 -26 15 -15 23 16 3 14 5 12 6 -9 0 -16 -6
-37 -15 -47 -15 -16 -14 -34 10 -221 15 -112 29 -215 32 -231 5 -22 1 -29 -18
-36 -43 -18 -2 -11 53 8 69 24 181 82 243 128 l49 35 -6 52 c-3 28 -26 123
-51 211 l-45 160 9 145 c5 80 10 148 10 153 0 4 8 7 18 7 10 0 23 5 28 10 7 7
16 4 29 -10 21 -23 45 -25 92 -8 28 10 36 10 42 -1 7 -10 10 -9 16 8 3 11 10
21 15 21 10 0 13 -11 26 -85 11 -63 12 -76 20 -152 6 -68 8 -71 35 -77 16 -3
35 -3 43 0 8 3 25 -1 38 -9 31 -20 119 -30 152 -17 30 11 34 28 9 37 -10 4
-31 16 -48 27 -16 12 -32 22 -34 23 -10 6 23 33 40 33 12 0 21 10 25 28 3 15
12 47 20 71 8 25 14 56 14 69 0 24 1 24 18 9 10 -10 33 -17 50 -17 17 0 43 -5
57 -12 24 -11 29 -9 45 12 l18 23 7 -22 c7 -23 24 -25 69 -6 13 6 17 5 13 -2
-10 -17 26 -163 40 -163 7 0 13 11 13 25 0 32 13 32 30 -1 17 -32 32 -40 92
-48 33 -5 48 -3 54 6 4 7 4 10 -1 6 -4 -4 -21 6 -39 22 -17 17 -34 30 -38 30
-5 0 -8 7 -8 17 0 9 -12 36 -26 61 -30 51 -47 102 -33 102 5 0 9 6 9 14 0 7
16 30 35 50 27 29 34 43 29 62 -3 13 -3 32 1 41 5 10 9 23 9 28 1 6 10 27 21
47 19 39 19 39 -17 156 -8 27 -7 37 7 52 22 25 32 105 15 125 -9 11 -10 18 -1
29 12 14 5 73 -11 82 -5 3 -6 21 -2 41 5 24 3 38 -7 43 -10 7 -10 14 -1 35 19
41 15 76 -8 82 -11 3 -20 12 -20 19 0 8 -5 23 -12 34 -10 15 -9 30 5 74 11 33
24 56 32 56 20 0 28 18 30 64 2 23 7 59 13 81 6 22 14 61 17 86 5 43 10 49 71
93 55 39 90 82 79 94 -2 2 -19 -11 -39 -28 -20 -18 -45 -39 -56 -47 -18 -13
-20 -12 -20 4 0 21 20 56 20 36 0 -24 25 -13 43 18 10 18 16 33 15 35 -7 7
-165 7 -176 0 -20 -12 -14 -23 18 -35 26 -9 30 -15 30 -49 0 -48 -37 -160 -62
-188 -14 -15 -31 -21 -61 -21 -31 0 -37 2 -22 8 11 4 15 8 8 8 -6 1 -19 4 -27
7 -12 5 -15 2 -10 -10 3 -9 2 -16 -4 -16 -6 0 -18 -3 -28 -7 -12 -4 -15 -2
-12 8 3 8 11 13 17 11 7 -1 10 2 7 7 -4 5 1 17 11 26 15 15 17 15 25 1 10 -18
43 -21 53 -6 4 6 11 8 16 4 5 -3 6 -11 2 -17 -4 -8 -1 -7 9 1 18 14 43 77 28
67 -16 -10 -12 12 5 29 19 19 19 25 -2 49 -17 19 -17 20 3 9 25 -13 34 -7 34
23 0 29 -15 41 -73 55 -26 7 -47 16 -47 21 0 4 -9 11 -20 14 -11 4 -18 10 -16
14 8 12 -43 61 -64 61 -53 0 -148 83 -117 102 6 4 8 8 2 8 -5 0 1 7 13 16 17
12 36 14 90 8 66 -6 68 -7 95 -50 16 -25 26 -51 23 -59 -4 -12 3 -15 33 -15
21 0 58 -7 81 -15 23 -8 54 -15 69 -14 23 0 21 2 -13 15 -58 21 -56 25 10 20
32 -3 51 -3 42 0 -10 3 -18 9 -18 14 0 5 8 11 18 13 19 5 -11 0 -75 -12 -46
-8 -60 8 -25 28 9 6 13 11 7 11 -5 0 -25 -9 -43 -20 -39 -24 -81 -28 -63 -6
15 18 2 47 -31 70 -12 9 -18 19 -14 23 4 4 11 2 15 -6 5 -7 19 -11 32 -10 13
2 33 -2 44 -7 11 -6 61 -11 110 -13 l90 -3 35 37 c19 20 27 33 18 30 -31 -12
-40 5 -14 26 13 10 29 19 35 19 6 0 8 7 5 15 -5 11 -10 13 -19 5 -9 -8 -14 -7
-18 2 -4 10 -6 10 -6 1 -1 -16 -77 -18 -86 -3 -10 17 -23 11 -18 -8 10 -40
-17 -45 -199 -38 -191 7 -208 8 -209 16 0 3 -2 13 -4 24 -6 30 5 44 38 51 18
4 42 17 55 28 19 17 26 19 42 10 14 -10 19 -9 24 2 3 8 1 15 -4 15 -6 0 -10
14 -10 31 0 17 -4 28 -10 24 -5 -3 -10 1 -10 10 0 10 5 13 13 9 6 -4 1 5 -12
19 -14 15 -25 27 -25 27 -1 0 0 -18 0 -39 1 -27 -3 -42 -13 -45 -8 -3 -11 -10
-8 -16 4 -6 11 -8 16 -5 5 3 6 -1 3 -9 -9 -24 -51 -46 -86 -46 -48 0 -76 23
-81 68 -3 20 -4 -18 -3 -85 1 -68 -1 -117 -6 -110 -14 22 -5 272 11 290 12 15
11 17 -8 17 -28 0 -28 40 0 66 16 15 22 16 29 5 6 -10 9 -9 15 8 3 12 10 19
15 16 5 -3 12 0 16 6 4 7 3 9 -4 5 -18 -11 -27 20 -24 82 l4 60 28 -11 c22 -8
29 -18 33 -50 5 -33 34 -77 51 -77 3 0 29 -18 58 -40 61 -46 68 -48 68 -19 0
24 -23 51 -41 47 -6 -2 -14 3 -16 10 -3 7 4 12 16 12 14 0 21 6 21 20 0 11 -4
20 -8 20 -11 0 -3 58 9 66 18 11 9 34 -13 34 -21 1 -22 2 -5 14 23 18 22 36
-3 36 -10 0 -24 9 -30 19 -9 18 -111 63 -208 92 -70 21 -41 20 59 -1 115 -24
133 -24 164 -4 30 19 32 34 6 34 -27 0 -43 24 -49 75 -3 30 -11 49 -23 55 -21
12 -25 7 -34 -41 -4 -24 -1 -49 9 -74 9 -21 14 -40 11 -43 -3 -3 -38 2 -78 11
-39 10 -84 17 -99 17 -24 0 -28 4 -28 30 0 28 -8 35 -37 31 -7 -1 -18 7 -25
18 -9 15 -15 17 -25 9 -7 -6 -13 -16 -13 -23 0 -7 -9 -15 -20 -18 -21 -5 -28
-27 -9 -27 5 0 8 -4 5 -9 -7 -11 -46 -2 -46 10 0 5 -6 9 -14 9 -16 0 -29 -27
-20 -41 11 -19 13 -73 3 -86 -6 -7 -9 -20 -5 -28 3 -8 -1 -21 -9 -27 -11 -11
-8 -19 23 -50 47 -50 35 -49 -20 1 -36 34 -44 37 -50 23 -5 -14 -7 -14 -8 -2
-1 10 -4 9 -9 -5 -6 -14 -9 -5 -14 33 -5 45 -37 118 -37 85 0 -6 -3 -20 -6
-30 -5 -15 -4 -15 4 -3 9 12 13 9 22 -15 13 -34 5 -110 -16 -150 -13 -25 -12
-28 9 -46 12 -10 30 -21 39 -24 23 -8 22 -13 -2 -75 -14 -37 -17 -56 -10 -69
7 -13 4 -29 -10 -57 -11 -21 -20 -45 -20 -54 0 -12 -9 -15 -37 -13 l-38 2 33
-8 c18 -5 35 -11 37 -13 5 -5 -14 -170 -20 -176 -8 -8 -33 58 -59 153 -22 80
-34 108 -62 137 -19 20 -34 44 -34 53 0 18 -49 93 -74 114 -23 19 -20 28 13
39 37 13 48 5 54 -38 4 -34 4 -34 5 7 1 23 7 45 13 49 6 3 26 -9 45 -27 19
-18 34 -30 34 -26 0 4 9 3 20 -3 12 -6 20 -21 20 -36 0 -13 7 -27 16 -31 9 -3
23 -20 31 -37 l14 -31 -6 30 c-4 17 -16 40 -27 52 -14 15 -19 31 -16 52 2 16
1 28 -4 25 -4 -3 -8 2 -8 10 0 9 -4 16 -10 16 -5 0 -7 -7 -4 -15 10 -24 -30
-18 -54 8 -23 24 -30 43 -12 32 6 -3 13 1 16 9 3 9 10 13 15 10 5 -3 9 1 9 8
0 9 3 9 10 -2 8 -12 10 -12 11 5 0 11 2 43 3 70 2 28 6 59 10 70 4 11 0 8 -10
-7 -10 -16 -22 -28 -27 -28 -4 0 -17 -9 -29 -20 -32 -30 -38 -25 -31 25 8 58
-3 58 -18 0 -17 -66 -33 -69 -27 -6 3 30 1 54 -5 58 -6 3 -7 1 -3 -5 4 -7 3
-12 -3 -12 -6 0 -13 -11 -17 -25 -3 -14 -10 -22 -15 -19 -12 7 -98 -34 -119
-56 -13 -13 -63 -40 -75 -40 -9 0 -5 49 7 77 6 15 10 34 9 41 -1 6 2 12 7 12
5 0 14 12 21 28 11 26 11 26 -5 7 -16 -19 -16 -19 -8 5 11 39 13 70 3 70 -5 0
-9 7 -9 15 0 8 -5 15 -11 15 -5 0 -7 5 -4 10 4 6 12 7 18 3 9 -5 9 -3 1 8 -21
26 -24 59 -6 60 12 0 10 3 -6 10 -14 5 -20 13 -16 20 4 8 3 9 -5 5 -6 -4 -9
-11 -6 -16 3 -4 -2 -10 -10 -14 -24 -9 -18 22 11 52 14 15 30 35 35 45 9 17 8
18 -13 12 -12 -4 -30 -9 -39 -11 -9 -3 -24 2 -32 10 -13 13 -16 14 -21 1 -3
-8 3 -19 12 -24 16 -10 16 -10 0 -11 -10 0 -18 -4 -18 -9 0 -5 -9 -11 -20 -14
-24 -6 -44 15 -28 31 17 17 2 44 -19 33 -10 -5 -30 -12 -45 -15 -19 -5 -26
-11 -21 -22 4 -12 -2 -15 -35 -13 -32 2 -39 6 -31 16 6 7 19 15 30 18 10 4 19
14 19 23 0 12 -3 13 -12 4 -7 -7 -20 -12 -30 -12 -10 0 -18 -4 -18 -9 0 -5 -7
-11 -15 -15 -22 -8 -19 -1 12 30 23 23 32 26 80 22 43 -4 53 -2 53 10 0 9 6
31 12 50 11 30 11 35 -7 48 -22 17 -95 18 -149 3 -48 -13 -111 -72 -131 -122
-15 -37 -15 -37 12 -48 l28 -12 -30 -8 c-16 -5 -36 -16 -42 -26 -21 -27 -16
-133 7 -170 11 -18 18 -38 16 -45 -1 -7 -1 -9 2 -5 5 9 32 -11 32 -24 0 -5 -8
-6 -17 -3 -14 5 -14 2 3 -13 23 -19 38 -63 23 -63 -9 0 -13 14 -10 40 2 13 0
13 -8 1 -14 -21 -3 -39 36 -57 37 -18 40 -39 8 -59 -16 -11 -30 -10 -75 1
-118 29 -132 35 -126 49 3 8 1 17 -4 20 -21 13 -9 24 16 15 42 -16 47 -12 24
23 -25 38 -45 81 -54 120 -6 25 -4 27 26 27 l33 1 -35 16 -35 17 39 4 38 3
-51 36 c-28 20 -51 41 -51 48 0 7 -10 16 -22 19 -23 7 -23 7 -3 21 64 45 66
43 -33 37 -51 -2 -92 -1 -92 3 0 4 9 18 20 32 26 33 20 39 -17 19 -17 -8 -54
-24 -82 -35 -52 -20 -53 -20 -47 0 3 10 9 28 12 39 4 12 -19 -5 -57 -41 -70
-67 -85 -64 -55 12 9 22 12 38 6 34 -16 -10 -70 -127 -70 -152 0 -12 -10 -29
-22 -37 -13 -8 -34 -42 -47 -76 -13 -33 -29 -63 -34 -67 -5 -3 -25 10 -45 30
-50 48 -109 75 -184 86 -63 9 -164 -1 -197 -19 -22 -12 -111 -8 -111 5 0 7 -3
7 -8 0 -4 -5 -20 -17 -37 -26 -16 -9 -37 -31 -45 -48 -8 -17 -19 -31 -23 -31
-12 0 -37 27 -31 33 3 3 -3 3 -15 0 -25 -6 -76 29 -96 67 -27 53 -18 106 29
159 17 20 18 23 4 18 -14 -5 -18 -1 -19 16 -1 20 -2 20 -6 2 -3 -11 -20 -34
-39 -51 l-33 -31 -3 56 c-3 51 -4 54 -15 31 -7 -17 -7 -29 -1 -37 7 -9 7 -13
0 -13 -6 0 -12 -29 -14 -64 l-3 -64 53 -39 c30 -21 61 -43 70 -49 9 -7 17 -32
20 -70 3 -32 9 -62 14 -65 7 -4 6 -9 0 -13 -6 -3 -22 7 -35 24 -14 16 -29 30
-32 30 -4 0 7 -17 24 -37 35 -43 39 -60 14 -66 -10 -3 -4 -5 14 -6 17 0 35 -6
39 -13 5 -7 2 -9 -7 -4 -8 4 -1 -4 14 -18 20 -18 31 -41 37 -78 5 -29 14 -70
19 -91 10 -43 0 -54 -74 -77 -83 -26 -91 -34 -105 -102 -6 -35 -19 -74 -27
-88 -9 -16 -12 -18 -8 -5 4 11 12 49 17 85 6 36 12 70 13 75 1 6 36 23 76 39
84 32 98 45 91 82 l-5 26 -13 -31 c-7 -17 -17 -30 -21 -30 -4 1 -21 -3 -36 -9
-57 -24 -143 -5 -169 37 -7 12 -18 21 -25 21 -20 0 -15 18 7 25 11 3 20 11 20
16 0 5 20 52 45 105 25 52 43 100 40 105 -4 5 -1 9 6 9 7 0 9 3 5 7 -9 9 -37
13 -32 4 3 -4 -8 -35 -24 -68 -29 -60 -50 -86 -50 -62 0 7 -3 9 -6 6 -4 -4 -2
-12 3 -19 8 -9 3 -30 -18 -72 -16 -33 -29 -65 -29 -72 0 -7 -6 -14 -12 -17 -9
-3 -6 -12 11 -30 18 -20 22 -33 18 -55 -7 -36 2 -49 33 -49 63 -1 62 1 55 -50
-9 -67 -18 -80 -35 -48 -7 14 -16 25 -20 25 -4 0 -5 12 -2 28 3 23 -1 29 -27
39 -27 10 -31 16 -31 51 0 21 -7 53 -16 70 -12 24 -13 36 -4 49 9 15 10 14 4
-7 -10 -39 3 -20 19 28 13 37 13 42 0 42 -11 0 -14 14 -12 69 2 38 7 67 11 65
4 -2 22 5 40 16 18 11 28 20 23 20 -6 0 -21 -7 -33 -16 -13 -9 -25 -14 -27
-12 -3 2 10 32 27 65 32 60 32 62 20 122 -7 34 -10 66 -7 71 3 6 2 10 -2 10
-5 0 -10 12 -11 27 -2 26 -2 26 20 7 15 -12 14 -9 -4 12 -16 16 -28 35 -28 40
0 6 -10 19 -22 30 -16 13 -19 14 -10 2 10 -13 10 -17 0 -21 -7 -3 -4 -6 7 -6
17 -1 17 -3 5 -11 -13 -9 -13 -10 0 -10 11 -1 10 -4 -4 -15 -16 -12 -22 -12
-28 -2 -5 7 -8 8 -8 1 0 -7 -11 -9 -25 -6 -28 5 -31 32 -5 44 9 5 3 7 -15 5
-24 -2 -31 -7 -33 -28 -2 -15 -13 -31 -25 -38 -12 -6 -28 -24 -34 -39 -11 -24
-9 -23 17 8 l29 35 1 -28 c0 -15 -7 -54 -16 -86 -16 -56 -14 -91 3 -91 4 0 9
21 9 46 2 64 16 73 38 23 10 -23 21 -37 25 -32 8 13 41 13 41 0 0 -5 -6 -7
-14 -4 -17 7 -31 -22 -17 -36 6 -6 16 -5 28 3 16 10 16 11 -4 7 -13 -3 -23 -1
-23 4 0 5 7 9 15 9 8 0 22 14 30 31 14 27 18 29 33 17 15 -11 15 -11 4 3 -7 9
-9 25 -5 35 5 14 9 9 18 -22 13 -45 4 -91 -27 -142 l-20 -32 -22 32 c-29 43
-107 63 -179 47 -67 -16 -98 -57 -105 -144 -2 -36 -7 -63 -10 -60 -3 3 -11 -8
-18 -24 -15 -36 -44 -33 -75 10 -11 16 -32 34 -46 41 -15 7 -39 35 -53 61
l-25 48 28 25 c15 13 37 24 47 24 10 0 22 5 26 11 11 18 -45 2 -78 -21 -15
-11 -29 -20 -31 -20 -2 0 -23 32 -46 71 -36 60 -40 73 -29 86 12 15 11 15 -10
4 -13 -7 -26 -10 -30 -7 -3 3 -1 6 4 7 5 1 -9 7 -31 13 -27 9 -41 19 -42 32
-3 18 -3 18 5 0 7 -16 11 -11 21 29 7 28 17 55 23 62 6 7 8 28 5 47 -4 28 -2
35 17 44 12 5 30 26 41 45 16 31 17 39 6 61 -8 14 -11 36 -7 50 7 29 -20 107
-36 103 -6 -1 -13 4 -16 12 -3 10 0 11 9 5 12 -6 12 -5 1 8 -7 9 -22 15 -32
13 -10 -2 -26 5 -35 15 -16 17 -16 18 2 15 10 -1 17 -9 15 -16 -3 -11 -1 -11
9 -2 10 10 9 16 -2 29 -26 32 -92 74 -116 74 -14 0 -31 7 -39 15 -18 18 -39
18 -79 1z m2948 -578 c2 -7 -3 -23 -11 -36 -8 -12 -12 -25 -8 -29 3 -3 6 -1 6
6 0 7 5 9 11 5 6 -3 14 -1 18 5 4 6 7 -11 7 -38 0 -33 5 -56 17 -69 22 -24 22
-46 1 -38 -9 3 -33 6 -55 6 -29 0 -39 4 -39 16 0 8 5 12 10 9 6 -3 10 3 10 13
0 23 23 45 35 34 5 -4 5 -1 1 6 -6 11 -12 10 -27 -4 -17 -16 -19 -15 -30 9 -7
15 -16 24 -22 20 -6 -3 -7 -1 -3 5 3 6 2 13 -4 17 -15 9 -1 57 22 77 21 19 52
11 61 -14z m-737 -125 l59 -97 3 54 4 55 24 -45 25 -45 -5 50 -5 50 24 -45
c13 -25 24 -48 25 -52 0 -13 -82 -50 -101 -45 -23 6 -24 1 -4 -19 21 -21 23
-21 40 4 11 14 26 22 46 22 20 0 28 4 23 12 -4 7 -3 8 5 4 6 -4 9 -12 6 -17
-4 -5 -2 -17 4 -26 9 -16 11 -13 17 14 10 50 27 28 19 -25 -14 -94 -78 -176
-159 -206 -31 -11 -123 40 -152 83 -40 61 -43 87 -25 199 16 99 31 140 31 91
1 -13 7 -37 15 -54 13 -28 13 -26 14 53 1 45 3 82 5 82 2 0 30 -44 62 -97z
m-1936 -29 c12 -12 11 -14 -10 -14 l-23 0 20 -22 c41 -45 55 -88 50 -147 -2
-31 -7 -63 -11 -71 -5 -12 5 -19 39 -29 39 -11 50 -11 85 3 49 20 46 20 46 -3
0 -16 -3 -18 -15 -8 -12 10 -13 8 -6 -13 8 -25 8 -25 -14 -6 -23 21 -26 16
-10 -17 10 -22 10 -22 -10 1 -26 30 -46 29 -26 -2 14 -21 14 -24 1 -29 -10 -4
-13 -1 -10 7 3 8 1 17 -5 21 -6 3 -11 1 -11 -5 0 -15 -61 -50 -89 -50 -23 0
-24 1 -16 63 5 34 9 95 9 135 1 71 0 75 -32 103 -27 24 -41 29 -85 29 -101 0
-148 -57 -127 -155 23 -108 24 -149 1 -169 -29 -26 -60 -15 -117 44 -27 28
-59 53 -72 57 -12 3 -22 10 -21 17 1 6 -3 22 -9 36 -10 24 -11 24 -11 3 -1
-18 -7 -23 -26 -23 -22 0 -25 -4 -25 -34 0 -19 -7 -42 -16 -51 -17 -17 -12
-63 9 -78 9 -6 9 -10 0 -14 -17 -6 -17 -32 0 -39 8 -3 12 -16 9 -32 -3 -24 3
-33 40 -58 42 -28 42 -29 17 -32 -18 -2 -36 6 -54 23 -33 30 -44 26 -21 -9 15
-23 15 -25 0 -19 -9 3 -20 0 -26 -8 -7 -10 -8 -6 -4 14 6 27 -8 39 -17 15 -3
-8 -6 -6 -6 5 -1 10 6 29 15 42 15 23 15 24 -6 20 -25 -5 -70 34 -70 61 0 10
7 25 16 35 15 17 15 19 0 35 -17 16 -13 53 6 65 6 4 7 16 3 28 -8 26 18 71 40
71 8 0 15 8 15 18 0 22 19 42 40 42 10 0 23 16 33 40 12 30 25 44 52 56 20 8
40 12 45 9 6 -4 26 -1 44 6 28 10 38 10 51 -1 13 -11 18 -10 33 2 25 21 92 38
151 38 30 0 51 4 51 11 0 14 60 1 80 -17z m1150 -76 c0 -5 17 -8 38 -6 36 3
37 2 37 -32 0 -51 -40 -92 -91 -94 -37 -1 -40 2 -61 44 -30 58 -31 94 -3 85
11 -3 20 -2 20 3 0 5 14 9 30 9 17 0 30 -4 30 -9z m172 -65 c10 -12 17 -46 20
-101 3 -45 7 -84 10 -87 3 -3 21 2 41 10 55 23 56 18 4 -15 -26 -16 -49 -30
-51 -30 -11 0 -26 71 -26 124 0 72 -15 107 -23 55 -2 -19 -11 -60 -18 -92 -12
-54 -12 -61 7 -95 19 -36 21 -37 74 -34 30 1 65 4 78 7 12 3 22 1 22 -4 0 -11
-33 -20 -109 -27 -59 -7 -60 -6 -79 25 l-19 31 -26 -57 c-14 -32 -29 -70 -32
-85 -12 -46 -28 -52 -81 -29 -44 20 -76 21 -45 2 7 -5 10 -14 7 -20 -4 -6 -2
-11 3 -11 6 0 11 4 11 9 0 7 64 -5 78 -15 2 -1 -4 -30 -14 -63 -18 -59 -20
-61 -51 -61 -18 0 -33 5 -33 11 0 8 -4 8 -15 -1 -8 -6 -23 -9 -35 -5 -11 4
-20 2 -20 -4 0 -6 7 -11 15 -11 11 0 12 -6 6 -22 -10 -27 -34 -30 -39 -5 -2 9
0 17 5 17 5 0 7 32 5 70 -3 61 -1 71 15 76 10 3 27 10 38 15 15 7 12 8 -12 3
-39 -7 -39 -6 -19 106 16 87 35 128 68 144 14 7 24 22 26 39 2 15 8 25 13 22
16 -10 49 5 49 22 0 9 3 13 6 10 4 -4 20 8 35 26 23 26 29 28 29 13 0 -12 5
-16 16 -12 9 3 18 6 20 6 2 0 4 11 4 23 0 40 18 48 42 20z m1058 -45 c5 -13
14 -59 19 -103 11 -87 43 -200 54 -189 3 4 2 16 -4 26 -9 16 -8 19 3 16 15 -5
22 -32 14 -54 -5 -13 -10 -12 -34 5 -23 16 -32 34 -45 93 -10 40 -18 101 -20
134 -3 76 -17 74 -42 -4 -9 -31 -37 -101 -60 -154 -27 -63 -41 -106 -38 -122
3 -14 2 -34 -2 -43 -6 -15 -10 -12 -20 17 -8 19 -14 44 -14 56 -1 29 56 141
82 159 15 11 18 18 10 26 -9 9 5 77 31 146 9 22 55 16 66 -9z m-3198 -89 c-1
-7 4 -7 17 1 35 18 50 11 70 -35 11 -25 29 -59 41 -74 11 -16 20 -41 20 -56 0
-17 11 -37 31 -56 22 -21 30 -36 27 -55 l-3 -28 -50 45 c-27 24 -73 67 -102
94 -29 28 -60 56 -69 64 -8 7 -13 20 -10 28 10 24 -18 9 -31 -18 -9 -17 -13
-19 -13 -7 0 10 13 32 29 50 l29 34 -36 20 c-21 11 -47 19 -59 18 -13 -1 -23
3 -23 8 0 6 7 8 15 4 10 -4 15 1 15 15 0 18 4 17 53 -11 28 -17 51 -35 49 -41z
m3443 52 c-6 -5 -19 -11 -30 -13 -18 -3 -20 -10 -16 -62 4 -73 -14 -73 -42 1
-19 51 -42 69 -68 52 -10 -6 -8 -9 8 -9 15 0 24 -9 32 -31 19 -54 11 -116 -13
-102 -13 9 -18 10 -50 12 -22 1 -24 4 -19 44 8 57 29 96 56 102 72 15 155 19
142 6z m-2161 -17 c9 -3 16 -18 17 -33 l1 -26 8 25 c8 24 8 23 9 -8 1 -18 5
-31 10 -27 5 3 17 -2 26 -11 9 -9 24 -14 35 -11 22 6 25 -17 9 -63 l-9 -25 4
27 3 28 -34 -30 c-18 -17 -39 -30 -45 -30 -6 0 -9 -3 -6 -6 4 -3 16 -1 27 6
12 6 21 9 21 8 0 -2 4 -18 9 -35 7 -25 5 -40 -10 -70 -10 -20 -19 -39 -19 -40
0 -2 16 -3 35 -3 38 0 44 13 24 53 -10 21 -10 21 5 3 22 -27 21 -66 -1 -67
-10 -1 -21 -1 -25 0 -5 0 -8 -8 -8 -18 0 -15 5 -18 23 -14 20 5 20 4 -5 -18
-36 -31 -35 -40 1 -33 16 4 32 1 35 -5 5 -7 -6 -11 -31 -11 -21 0 -47 -7 -57
-15 -33 -25 -43 -17 -12 9 l30 23 -23 36 c-14 24 -27 34 -37 30 -9 -3 -13 -12
-9 -21 4 -12 2 -12 -8 -4 -8 7 -16 11 -18 9 -2 -1 3 3 11 10 8 7 20 17 27 23
9 7 18 -1 36 -30 13 -22 27 -37 30 -33 4 3 -1 15 -10 25 -15 17 -15 21 -3 30
13 8 12 9 -2 4 -11 -3 -27 7 -47 30 -35 39 -42 92 -15 118 9 9 11 16 4 16 -6
0 -22 11 -35 25 -20 19 -25 21 -25 8 0 -23 -6 -13 -14 22 -5 22 -4 26 4 15 8
-12 10 -10 11 10 0 14 3 19 6 13 6 -17 31 -16 49 2 13 12 12 15 -6 25 -12 6
-20 21 -20 35 0 27 1 28 24 19z m2216 -34 c0 -19 1 -19 33 -2 17 9 39 17 48
17 21 0 49 -24 49 -41 0 -17 -12 -18 -30 -1 -12 10 -12 9 -1 -6 14 -18 19 -87
7 -106 -4 -6 -16 -11 -27 -11 -10 0 -19 -5 -19 -11 0 -7 -9 -9 -24 -5 -23 6
-24 4 -28 -67 -4 -59 -10 -80 -34 -116 l-29 -43 -5 198 c-3 110 -4 202 -2 207
2 4 16 7 33 7 22 0 29 -5 29 -20z m-800 -85 c36 -33 101 -28 171 12 9 6 51
-86 47 -104 -2 -11 -21 -21 -52 -29 -27 -7 -53 -17 -59 -23 -5 -5 12 -3 38 5
85 25 88 23 80 -43 -12 -102 -23 -131 -62 -157 -29 -20 -40 -23 -59 -14 -18 9
-24 20 -27 57 -4 44 -4 44 -3 -6 1 -30 -3 -52 -9 -51 -5 1 -20 -3 -32 -10 -20
-11 -27 -10 -52 9 -32 23 -37 39 -47 153 l-7 77 39 -7 c21 -3 47 -11 57 -16
10 -5 21 -8 23 -5 9 9 -23 25 -66 34 -40 8 -45 12 -42 33 3 25 34 99 41 100 3
0 12 -7 21 -15z m700 -382 c-6 -29 -16 -53 -21 -53 -10 0 -12 15 -11 75 1 37
0 37 -6 10 -9 -38 -15 -29 -41 70 -14 48 -18 81 -12 83 5 2 8 9 5 17 -3 7 3
30 14 51 l19 37 8 -39 8 -39 8 30 c31 116 34 113 37 -42 2 -86 -1 -170 -8
-200z m-850 -72 c6 -36 13 -74 17 -85 3 -13 1 -16 -7 -11 -22 14 -72 140 -81
205 -7 56 -5 73 14 123 l22 57 12 -111 c6 -62 17 -142 23 -178z m525 226 c-23
-35 -56 -138 -48 -150 4 -7 12 1 20 18 l13 30 -6 -35 c-3 -19 -12 -40 -20 -46
-8 -7 -11 -14 -5 -15 5 -2 13 -38 16 -79 l7 -75 -46 45 -45 45 14 80 c8 44 18
99 21 123 4 23 11 42 15 42 12 0 12 -5 -8 -82 -13 -49 -14 -71 -6 -79 7 -7 9
-4 6 13 -8 42 52 188 77 188 6 0 4 -10 -5 -23z m-216 -196 c-30 -77 -34 -82
-83 -105 -28 -14 -54 -22 -57 -18 -13 14 -19 61 -9 67 5 3 10 11 10 17 0 7 -4
7 -14 -1 -11 -9 -16 0 -28 48 l-14 59 24 -19 c14 -10 38 -19 54 -19 24 0 30
-5 34 -29 4 -21 11 -28 21 -24 10 4 13 15 10 32 -5 24 -4 25 9 6 12 -16 14
-17 14 -2 0 9 7 17 15 17 18 0 20 20 3 20 -7 0 -2 9 12 20 14 10 26 17 28 15
2 -1 -11 -39 -29 -84z m-1929 54 c28 -14 50 -32 50 -40 0 -8 7 -15 15 -15 8 0
15 -3 15 -8 0 -13 59 -34 78 -27 11 3 32 0 48 -6 16 -6 42 -11 59 -11 20 1 25
-2 16 -8 -13 -8 92 -46 217 -79 27 -8 42 -17 42 -28 0 -12 -3 -13 -14 -4 -15
13 -24 5 -49 -46 -9 -21 -12 -35 -6 -39 6 -3 8 -12 5 -20 -3 -8 0 -14 6 -14 6
0 9 -2 6 -5 -6 -7 -92 41 -108 60 -7 8 -19 15 -27 15 -8 0 -12 4 -9 8 3 5 -11
24 -30 43 -20 20 -32 26 -28 16 3 -10 15 -22 25 -28 11 -5 19 -14 19 -20 0 -6
-7 -3 -16 5 -8 9 -22 16 -29 16 -8 0 -17 5 -21 12 -5 7 -3 8 6 3 9 -6 11 -4 6
4 -5 7 -14 10 -22 7 -8 -3 -11 0 -8 9 4 8 -6 20 -25 30 -17 8 -31 12 -31 8 0
-4 -5 -2 -12 5 -7 7 -20 12 -31 12 -10 0 -15 5 -11 11 4 6 -1 10 -12 8 -25 -4
-64 10 -64 22 0 5 12 2 28 -7 21 -13 19 -10 -8 13 -26 23 -39 29 -52 22 -11
-6 -19 -5 -24 3 -5 7 -2 9 7 4 8 -4 5 0 -6 9 -11 9 -28 14 -38 11 -9 -2 -15 0
-11 5 5 8 -10 13 -19 7 -2 -2 -11 3 -20 10 -9 8 -18 9 -21 3 -6 -9 42 -55 79
-76 16 -10 16 -15 -12 -70 -17 -33 -28 -66 -25 -74 3 -9 0 -11 -8 -6 -9 5 -11
4 -6 -4 4 -6 12 -9 17 -5 5 3 18 -14 29 -38 11 -24 27 -52 35 -62 14 -18 15
-16 15 32 0 51 14 69 28 35 9 -24 19 22 21 97 2 44 4 50 11 33 8 -19 17 -23
56 -23 30 0 54 -6 66 -17 20 -18 34 -26 104 -63 81 -42 146 -88 135 -95 -6 -3
-11 -15 -11 -26 0 -13 -7 -19 -22 -20 -22 0 -22 -1 -3 -9 11 -5 14 -9 7 -9
-15 -1 -60 -41 -46 -41 5 0 2 -5 -6 -11 -12 -9 -11 -10 5 -5 19 6 19 5 3 -8
-10 -7 -18 -20 -18 -28 0 -16 29 -58 30 -42 0 5 -5 15 -12 22 -9 9 -9 15 -1
23 8 8 11 7 10 -4 -1 -9 3 -16 8 -16 6 0 9 8 7 17 -10 56 -5 72 21 71 18 -1
19 -2 3 -6 -15 -4 -17 -11 -12 -43 3 -22 2 -41 -4 -45 -15 -9 -12 -25 6 -25 8
0 12 -4 9 -10 -3 -5 -1 -10 5 -10 6 0 8 -4 5 -10 -3 -5 -3 -10 2 -10 13 0 82
26 90 33 3 4 16 -1 27 -10 17 -15 18 -15 8 -2 -7 9 -19 50 -27 90 -9 41 -18
84 -20 97 -5 20 -2 23 17 20 15 -2 23 -10 23 -23 0 -25 35 -34 36 -8 0 16 1
16 9 -2 14 -32 12 -36 -14 -31 -20 4 -23 1 -19 -12 4 -10 8 -12 11 -4 5 16 42
-4 42 -23 0 -18 -27 -20 -33 -2 -3 6 -4 -4 -3 -23 0 -20 9 -42 20 -53 19 -17
21 -16 48 10 16 15 26 33 24 40 -6 14 6 18 18 6 9 -9 -64 -83 -84 -83 -9 0
-11 -3 -5 -8 6 -4 11 -13 13 -20 3 -17 -25 -330 -33 -362 -5 -17 -4 -21 3 -12
15 22 42 -107 53 -248 15 -203 29 -292 45 -286 8 3 14 0 14 -6 0 -6 14 -33 31
-60 24 -37 29 -52 20 -61 -8 -8 -11 -6 -11 9 -1 10 -8 30 -16 44 l-15 25 6
-29 c18 -85 18 -84 -4 -91 -30 -9 -38 0 -46 48 -12 80 -17 97 -26 91 -5 -3 -9
-36 -9 -75 0 -69 -3 -76 -28 -60 -11 6 -11 16 -3 47 13 48 14 64 1 44 -7 -11
-10 -3 -10 29 0 38 2 43 19 38 16 -4 18 -2 11 12 -5 9 -28 97 -51 195 -34 148
-52 266 -59 396 0 8 -7 3 -16 -13 -8 -15 -12 -38 -9 -50 3 -12 -8 2 -25 32
-16 30 -38 64 -48 75 -15 18 -13 18 8 -1 l26 -22 2 51 c2 39 -4 61 -23 95 -14
23 -32 43 -40 43 -26 0 -27 38 0 79 l25 41 -42 -1 c-24 -1 -35 -3 -25 -6 15
-4 17 -11 11 -36 -8 -40 -9 -41 -31 -32 -10 5 -22 9 -28 10 -5 1 -12 3 -15 4
-3 1 -21 4 -40 7 -23 3 -42 13 -55 32 -11 15 -30 38 -43 51 l-23 23 22 24 c37
39 57 40 95 3 l34 -33 1 40 c1 21 1 42 0 47 0 4 3 7 9 7 12 0 14 -97 2 -102
-4 -1 0 -17 8 -33 14 -28 15 -22 11 88 -2 71 1 122 7 130 8 9 0 11 -35 8 -39
-3 -45 -1 -40 13 6 15 4 15 -17 -1 -21 -16 -22 -18 -6 -21 16 -3 19 -21 11
-74 -1 -5 -10 -8 -20 -8 -11 0 -23 -5 -26 -10 -4 -6 -29 5 -60 27 -29 21 -52
40 -50 43 2 3 -4 6 -14 7 -17 1 -17 -3 -5 -70 20 -112 18 -118 -21 -62 -19 28
-39 55 -45 62 -5 7 -10 17 -10 22 0 6 -8 15 -17 20 -10 6 -14 11 -10 11 4 0 3
9 -3 20 -6 11 -16 20 -23 19 -9 0 -9 -2 1 -6 6 -2 12 -10 12 -15 0 -6 -16 5
-36 25 -20 19 -33 40 -30 46 4 5 1 13 -5 17 -8 5 -10 2 -5 -7 4 -8 -2 -3 -13
11 -12 14 -19 33 -17 42 2 10 -1 16 -8 15 -6 -1 -10 4 -9 10 2 7 -1 12 -6 10
-11 -2 -175 203 -168 210 3 2 11 -3 18 -13 8 -9 29 -32 46 -51 18 -19 30 -40
26 -46 -3 -6 -1 -7 6 -3 6 4 22 1 34 -6 35 -23 57 -29 51 -15 -9 24 46 11 63
-14 10 -13 25 -30 36 -38 11 -8 16 -19 12 -29 -11 -29 3 -8 33 50 l30 57 -39
27 c-49 33 -60 53 -47 77 7 14 34 31 56 36 1 1 25 -10 52 -24z m3426 -20 c35
-26 36 -29 19 -42 -18 -12 -17 -13 5 -13 32 0 84 -42 104 -83 20 -43 22 -102
4 -90 -7 4 -24 6 -37 4 -15 -2 -21 1 -16 9 10 17 -3 60 -20 60 -7 0 -17 9 -20
20 -8 25 -40 26 -55 3 -8 -14 -10 -8 -8 29 3 45 2 47 -35 63 -21 9 -44 14 -52
12 -15 -6 -25 13 -25 45 0 19 5 20 50 16 33 -3 61 -14 86 -33z m-596 -130
c-11 -60 -19 -135 -20 -165 0 -30 -5 -62 -11 -70 -8 -12 -10 -9 -6 12 4 25
-17 47 -31 33 -3 -3 0 -5 6 -5 7 0 12 -9 12 -20 0 -18 -3 -19 -20 -10 -11 6
-18 15 -15 20 3 4 -5 6 -17 2 -14 -3 -19 -2 -14 6 4 7 2 12 -5 12 -6 0 -9 -8
-6 -20 7 -28 -7 -25 -23 5 -12 23 -11 28 10 50 15 16 26 21 30 14 4 -5 17 35
30 90 19 82 27 101 42 101 12 0 18 8 18 24 0 15 7 26 18 28 9 3 18 4 19 4 0
-1 -7 -50 -17 -111z m-2076 -178 c99 -163 121 -254 77 -316 -13 -17 -36 -38
-52 -47 l-30 -15 7 27 c5 19 4 25 -4 20 -8 -5 -10 2 -6 24 5 24 3 30 -11 30
-14 0 -16 -6 -11 -27 l7 -28 -20 30 c-25 39 -37 100 -21 110 7 4 26 -7 46 -26
25 -24 34 -42 35 -68 1 -22 3 -28 6 -16 3 11 8 22 12 25 14 11 33 83 23 89 -5
3 -9 24 -9 46 0 32 -12 59 -52 124 -53 84 -67 111 -58 111 3 0 30 -42 61 -93z
m1502 -103 c-4 -32 -3 -53 3 -50 5 3 12 -15 16 -41 l7 -48 13 38 c25 72 34 61
11 -13 -19 -65 -30 -170 -18 -170 6 0 13 19 16 43 11 83 15 91 11 22 -4 -79
-11 -105 -30 -105 -15 0 -26 24 -20 43 9 29 15 141 6 127 -4 -8 -11 -46 -14
-84 -5 -64 -3 -71 19 -91 19 -18 29 -44 42 -111 14 -73 18 -83 23 -59 4 17 7
44 7 60 l0 30 -7 -30 c-6 -26 -9 -21 -21 42 -7 40 -9 79 -5 90 6 13 11 3 18
-39 9 -57 27 -79 27 -35 1 12 8 33 16 47 l15 25 -6 -25 c-14 -51 -34 -166 -35
-194 0 -47 18 -18 29 44 l10 55 -5 -62 c-3 -34 0 -81 6 -103 12 -45 3 -150
-10 -115 -15 40 -21 115 -11 115 6 0 11 5 11 11 0 8 -4 8 -14 0 -15 -13 -30 0
-39 34 -4 19 -5 19 -6 -1 0 -12 5 -27 13 -33 18 -15 37 -126 35 -200 -1 -36 5
-68 16 -89 13 -25 14 -37 6 -45 -6 -6 -12 -9 -15 -6 -9 10 -207 411 -231 469
-37 87 -145 398 -145 416 0 10 22 13 100 13 97 -1 100 -2 100 -24 0 -14 7 -25
19 -28 13 -3 22 -17 27 -41 3 -20 8 -35 11 -33 6 6 -8 86 -16 85 -25 -3 -31 5
-30 45 1 38 2 39 8 12 7 -35 16 -26 26 28 11 57 19 44 11 -19z m-2403 40 c3
-3 1 -14 -6 -24 -15 -26 5 -70 33 -70 16 0 20 -5 16 -17 -3 -10 -8 -30 -11
-44 -5 -21 -11 -26 -27 -21 -11 3 -24 -1 -29 -9 -7 -12 -9 -12 -9 1 0 8 -11
-2 -25 -22 -44 -66 -137 -75 -174 -17 -15 24 -15 24 6 6 14 -12 29 -16 43 -12
11 4 27 1 35 -5 19 -16 51 -4 73 28 26 37 35 75 17 68 -17 -6 -29 9 -20 24 5
8 12 7 22 -2 14 -12 15 -7 11 39 -3 28 -1 58 4 67 9 16 30 21 41 10z m1814
-91 c-8 -71 -65 -225 -146 -395 -77 -162 -123 -271 -178 -428 -24 -70 -48
-124 -55 -122 -8 2 -84 50 -107 68 -1 2 16 99 39 216 34 169 48 222 71 258 61
99 131 253 146 325 l16 74 54 12 c30 6 78 19 106 29 29 10 54 19 56 19 2 1 1
-25 -2 -56z m773 -873 l1 -35 25 48 c14 27 28 47 30 44 3 -3 -1 -18 -9 -34
-17 -33 -50 -183 -42 -191 11 -11 18 10 32 95 7 48 19 92 25 98 8 7 9 0 4 -25
-4 -19 -13 -69 -20 -111 -7 -41 -16 -81 -20 -87 -4 -7 -3 -12 3 -12 14 0 24
-119 14 -159 -8 -31 -10 -25 -22 65 -8 54 -19 102 -25 106 -6 4 -9 24 -8 45 1
21 -4 75 -11 120 -10 59 -11 85 -3 93 13 13 24 -11 26 -60z m-32 -438 c7 -5
10 -16 7 -24 -4 -9 1 -18 11 -22 13 -5 14 -9 4 -21 -7 -8 -10 -21 -7 -30 9
-21 -11 -29 -31 -13 -15 11 -16 11 -4 -3 13 -17 6 -53 -8 -44 -4 3 -10 -2 -14
-10 -4 -11 -14 -13 -36 -8 -24 4 -34 1 -45 -14 -10 -15 -22 -19 -40 -15 -26 4
-92 -10 -127 -29 -24 -12 -85 -11 -94 2 -3 6 -17 8 -31 4 -23 -5 -25 -4 -19
18 5 21 3 24 -17 20 -19 -4 -22 0 -22 29 0 18 4 43 8 55 7 20 11 21 29 12 32
-17 128 -20 151 -4 12 8 32 11 53 8 26 -4 47 3 99 31 37 20 70 34 75 31 5 -3
11 4 15 15 7 21 21 25 43 12z m-1131 -13 c5 -5 37 -13 69 -16 32 -4 82 -16
109 -28 38 -17 56 -20 77 -13 19 7 35 5 58 -7 18 -9 48 -15 68 -14 40 2 92 -9
92 -20 0 -4 -7 -16 -15 -28 -10 -14 -13 -32 -9 -47 9 -37 -30 -59 -92 -51 -27
3 -75 7 -106 9 -37 3 -68 12 -87 25 -21 15 -37 19 -60 15 -33 -7 -39 3 -18 26
6 8 2 6 -10 -3 -20 -18 -22 -18 -32 0 -6 10 -11 14 -11 9 0 -5 -6 -4 -12 2
-12 10 -18 12 -35 12 -5 0 -15 5 -23 10 -13 8 -12 11 5 25 14 10 15 13 4 9
-23 -7 -33 25 -14 46 8 9 15 24 15 33 0 19 11 22 27 6z"/>
<path d="M1420 4372 c0 -4 18 -6 40 -4 l40 4 0 -52 0 -52 -24 23 c-20 20 -22
25 -10 32 23 13 17 39 -8 35 -16 -2 -22 -9 -20 -22 2 -13 0 -16 -10 -10 -31
19 -36 10 -9 -15 35 -33 46 -67 38 -123 -7 -51 -59 -104 -112 -114 -19 -3 -38
-10 -41 -15 -3 -5 -10 -7 -15 -4 -5 4 -4 -5 3 -20 8 -18 14 -22 20 -13 4 7 8
8 8 3 0 -6 -4 -15 -8 -20 -4 -6 13 -50 40 -100 l47 -90 1 53 c0 29 -3 51 -7
49 -5 -3 -16 3 -26 13 -17 17 -16 17 10 13 20 -3 24 -2 14 5 -10 7 -10 11 -1
14 7 2 14 27 16 58 5 58 5 59 85 114 23 17 38 31 33 33 -5 2 -8 38 -7 80 1 43
-1 90 -4 106 -4 25 -8 27 -49 27 -24 0 -44 -3 -44 -8z"/>
<path d="M5408 4096 c-71 -19 -120 -56 -148 -112 -36 -74 -38 -144 -5 -246 14
-45 29 -89 31 -97 4 -11 7 -10 18 4 7 10 39 32 71 49 75 40 85 62 25 52 -36
-6 -41 -4 -37 9 4 9 1 15 -8 15 -26 0 -55 50 -55 96 0 81 74 136 181 136 108
-1 179 -55 179 -136 0 -46 -29 -96 -55 -96 -9 0 -12 -6 -8 -16 5 -13 1 -15
-23 -10 -33 7 -60 -6 -50 -23 4 -6 15 -11 26 -11 10 0 41 -15 68 -34 l51 -34
5 52 c3 28 8 113 10 188 l6 137 -26 20 c-72 56 -175 80 -256 57z"/>
<path d="M1917 3859 l22 -22 -50 -61 -49 -61 22 -17 c22 -16 23 -16 33 1 15
26 52 71 59 71 3 0 6 -9 6 -20 0 -27 18 -25 23 3 3 12 3 3 1 -20 -2 -24 -1
-43 2 -43 13 0 35 74 29 101 -8 34 -67 89 -98 89 l-21 0 21 -21z"/>
<path d="M5115 3845 c-21 -21 -25 -33 -25 -89 0 -36 4 -76 9 -89 8 -21 6 -26
-12 -31 -22 -6 -21 -7 7 -30 42 -35 100 -52 131 -38 28 13 29 5 -21 133 -19
49 -34 105 -34 128 0 49 -18 54 -55 16z"/>
<path d="M5786 3795 c-9 -35 -25 -79 -36 -97 -25 -42 -26 -99 -2 -121 26 -24
103 -22 133 3 l24 19 -32 7 c-33 6 -42 17 -24 29 16 9 34 110 27 147 -8 42
-24 64 -52 72 -19 6 -23 0 -38 -59z"/>
<path d="M5412 3665 c-25 -8 -66 -35 -102 -69 -90 -83 -167 -93 -234 -31 -24
23 -26 23 -26 4 0 -46 29 -89 72 -109 24 -11 51 -20 61 -20 9 0 17 -4 17 -8 0
-4 30 -3 68 3 64 11 68 10 85 -11 9 -13 27 -25 40 -27 13 -3 7 -5 -15 -6 -21
0 -38 -6 -38 -12 0 -6 14 -9 33 -7 21 2 31 -1 30 -9 -2 -7 4 -10 15 -7 11 4 8
-1 -8 -15 -14 -12 -35 -19 -48 -16 -12 2 -20 0 -17 -6 4 -5 12 -6 18 -3 7 4 1
-6 -13 -22 -14 -15 -18 -23 -9 -16 14 10 18 10 23 -3 4 -11 -1 -15 -19 -15
-15 0 -31 -10 -41 -26 -12 -17 -19 -22 -25 -13 -4 7 -7 3 -6 -12 1 -13 -2 -34
-7 -46 -7 -22 -5 -23 43 -23 28 0 51 -4 51 -10 0 -5 14 -10 30 -10 33 0 39 14
14 28 -14 8 -14 10 -1 15 9 3 18 -1 21 -9 7 -18 96 -19 115 -1 11 10 12 8 6
-10 -5 -19 -3 -23 18 -23 32 0 40 10 20 26 -15 10 -16 18 -7 53 9 32 9 43 -1
49 -7 4 -28 21 -47 37 -18 17 -50 43 -70 59 -43 32 -49 49 -15 44 15 -2 21 -9
19 -20 -2 -10 2 -18 8 -18 5 0 10 5 10 12 0 6 3 8 7 5 3 -4 12 -2 20 5 10 8
17 8 25 0 9 -9 8 -12 -5 -12 -15 0 -16 -4 -7 -20 6 -11 20 -20 30 -20 16 0 20
7 20 30 0 30 2 31 40 28 33 -1 40 -5 40 -22 -1 -19 -1 -19 -11 -3 -5 9 -17 17
-25 17 -12 0 -12 -3 -1 -22 15 -28 16 -70 1 -75 -6 -2 -16 7 -22 19 -6 13 -11
17 -11 10 -1 -8 -6 -10 -13 -6 -7 4 -3 -3 10 -15 18 -18 22 -31 19 -64 -2 -23
-2 -34 0 -24 3 13 9 16 21 11 9 -5 55 -9 102 -9 55 -1 96 -7 115 -17 52 -27
75 -31 75 -14 0 19 -23 32 -73 41 -20 4 -37 11 -37 15 0 4 -7 11 -16 14 -14 5
-15 4 -5 -8 11 -13 4 -14 -46 -9 -60 6 -116 30 -110 48 6 17 37 18 37 1 0 -9
7 -16 15 -16 8 0 15 6 15 14 0 31 74 27 109 -5 11 -10 29 -19 41 -19 11 0 28
-8 38 -18 19 -19 44 -18 79 5 26 17 30 33 8 33 -21 0 -20 49 2 65 23 17 7 38
-24 30 -21 -5 -25 -3 -21 12 5 17 -3 19 -76 22 -44 1 -84 5 -88 7 -4 3 -8 2
-9 -3 -4 -49 -21 -83 -42 -83 -7 0 -7 4 1 12 22 22 8 78 -20 78 -4 0 -8 -20
-8 -45 0 -26 -5 -45 -11 -45 -7 0 -10 17 -7 45 3 48 0 50 -60 45 l-22 -1 24
26 c13 14 33 25 43 23 16 -3 18 6 21 67 l3 71 -40 32 c-77 62 -134 74 -219 47z
m101 -52 c4 -3 2 -12 -3 -18 -8 -10 -2 -14 23 -19 19 -4 43 -4 53 0 16 5 16 4
4 -5 -13 -9 -13 -11 2 -11 10 0 25 -11 34 -25 15 -23 15 -27 0 -50 -32 -49
-76 -62 -193 -57 -47 2 -96 39 -108 80 -6 19 0 25 37 42 24 10 64 22 88 26 38
6 41 8 21 15 -12 5 -19 13 -16 19 7 11 48 14 58 3z"/>
<path d="M5686 3537 c-3 -18 -7 -48 -9 -69 l-3 -36 56 4 c124 11 159 27 178
84 l11 30 -36 -15 c-51 -22 -102 -18 -150 9 l-42 24 -5 -31z"/>
<path d="M912 2226 c-34 -35 -62 -68 -62 -73 1 -4 24 17 53 47 84 88 91 89 47
9 -22 -41 -60 -111 -83 -157 -23 -46 -54 -95 -68 -110 l-27 -27 41 -23 c48
-27 46 -31 88 98 18 52 34 99 37 105 4 5 12 -10 19 -35 11 -42 12 -39 6 47 -5
82 -3 95 16 126 49 80 12 76 -67 -7z"/>
<path d="M1117 1799 c-10 -6 -25 -8 -33 -5 -11 4 -14 1 -10 -12 14 -53 16
-130 3 -161 -22 -52 7 -120 43 -101 10 5 24 1 43 -15 15 -13 27 -28 27 -32 0
-4 -20 -24 -45 -43 -41 -33 -58 -60 -35 -60 42 0 117 26 137 48 18 19 23 21
23 8 0 -9 8 -16 19 -16 25 0 56 97 46 147 -4 24 -2 35 8 39 15 6 10 53 -13
105 -8 20 -9 16 -4 -21 3 -25 8 -53 10 -62 3 -10 1 -18 -4 -18 -12 0 -21 23
-23 53 -1 12 -5 4 -8 -18 -6 -37 -8 -40 -38 -40 -18 0 -34 -3 -34 -7 -1 -5 -2
-14 -3 -20 -1 -7 9 -26 23 -42 19 -22 21 -27 9 -23 -10 4 -18 2 -18 -2 0 -5
-8 -8 -17 -6 -10 2 -24 4 -31 4 -7 1 -11 5 -7 11 3 5 -5 16 -19 25 -45 29 -60
65 -66 148 -4 68 -3 77 12 77 10 0 22 9 28 19 17 33 10 39 -23 20z"/>
<path d="M2577 388 c-5 -39 -5 -74 1 -85 20 -38 23 -90 7 -103 -14 -11 -21 -8
-53 23 -41 40 -78 57 -124 57 -27 0 -29 2 -17 18 7 9 2 7 -12 -5 -14 -13 -30
-23 -36 -23 -16 0 -60 -54 -95 -117 -16 -29 -35 -53 -41 -53 -7 0 -5 5 3 10 8
5 10 10 4 10 -7 0 -22 -9 -35 -20 -17 -14 -19 -18 -6 -14 12 4 17 1 17 -11 0
-10 5 -15 14 -12 7 3 19 0 25 -6 6 -6 52 -11 114 -11 97 -1 107 1 168 32 35
18 77 43 93 55 l28 22 -18 65 c-9 36 -20 103 -23 150 l-6 85 -8 -67z"/>
<path d="M3461 410 c0 -39 -42 -212 -53 -220 -4 -3 -4 -11 0 -17 11 -17 127
-73 153 -74 22 0 23 -1 4 -9 -63 -25 131 -23 252 3 55 12 63 12 66 -2 4 -13 5
-13 5 -1 1 8 -10 29 -24 45 -15 17 -23 23 -20 15 4 -8 -1 -5 -10 7 -24 34 -39
28 -15 -5 l20 -29 -27 2 c-15 1 -39 13 -54 28 -24 24 -25 27 -9 41 14 13 20
13 30 3 10 -9 10 -6 0 13 -18 32 -57 70 -71 70 -6 0 -21 8 -32 18 -20 16 -20
16 -7 0 12 -16 11 -18 -5 -18 -26 0 -136 -53 -153 -74 -8 -9 -24 -22 -35 -28
-12 -6 -18 -7 -14 -3 4 4 0 14 -8 23 -17 17 -16 34 9 146 10 45 13 75 7 85 -7
12 -9 7 -9 -19z"/>
</g>
</svg>
