<?xml version="1.0" standalone="no"?>
<!DOCTYPE svg PUBLIC "-//W3C//DTD SVG 20010904//EN"
 "http://www.w3.org/TR/2001/REC-SVG-20010904/DTD/svg10.dtd">
<svg version="1.0" xmlns="http://www.w3.org/2000/svg" fill="#f38824"
 width="768.000000pt" height="432.000000pt" viewBox="0 0 768.000000 432.000000"
 preserveAspectRatio="xMidYMid meet">
<g transform="translate(0.000000,432.000000) scale(0.100000,-0.100000)"
 stroke="none">
<path d="M3050 4279 c0 -86 33 -306 65 -435 34 -135 89 -267 145 -349 51 -74
46 -45 -7 36 -26 41 -59 103 -74 139 -51 126 -97 342 -114 535 l-6 70 70 -132
c38 -73 95 -171 125 -218 55 -84 186 -265 192 -265 1 0 -8 24 -21 54 -25 56
-59 175 -52 182 2 2 25 -47 52 -109 106 -246 195 -421 282 -554 10 -15 11 -23
3 -28 -15 -9 -162 136 -269 265 -107 129 -120 147 -176 252 -25 46 -45 79 -45
75 0 -20 88 -177 134 -237 56 -75 209 -251 254 -294 30 -27 30 -30 15 -53
l-16 -24 -13 30 c-7 16 -49 72 -94 122 -45 51 -107 128 -138 171 -31 42 -58
75 -61 73 -9 -10 116 -175 219 -288 26 -29 52 -67 58 -84 10 -31 9 -33 -11
-33 -31 0 -38 -6 -90 -79 -34 -45 -47 -73 -47 -97 0 -18 -4 -35 -9 -38 -4 -3
-6 -16 -4 -28 2 -13 -4 -50 -15 -84 -10 -34 -17 -76 -15 -95 l4 -34 -30 33
c-36 38 -38 45 -11 72 11 11 15 20 10 20 -26 0 -21 33 11 66 19 20 26 32 17
29 -23 -9 -24 17 -3 35 12 10 14 24 10 54 -8 48 18 89 69 112 31 13 31 13 5
14 -44 0 -89 12 -83 21 3 5 -2 6 -11 3 -16 -7 -161 41 -170 56 -8 13 208 -1
240 -15 52 -23 85 -35 85 -29 0 3 -17 12 -37 20 -93 39 -245 163 -314 255 -50
68 -49 79 4 36 23 -19 62 -47 87 -63 25 -15 56 -37 70 -48 l24 -21 -25 34
c-14 19 -32 35 -41 37 -23 3 -94 54 -152 108 -27 25 -51 44 -53 43 -1 -2 14
-32 35 -67 35 -61 174 -212 237 -259 l30 -22 -120 5 -120 6 40 -25 c47 -29
129 -62 197 -77 l47 -11 -29 -34 c-25 -28 -30 -43 -30 -83 0 -29 -5 -50 -11
-50 -6 0 -9 -11 -7 -24 1 -13 -5 -32 -14 -43 -10 -11 -17 -41 -20 -78 -2 -40
-8 -64 -19 -72 -19 -14 -33 -132 -19 -167 17 -46 -85 -136 -154 -136 -29 0
-35 -14 -10 -24 24 -9 42 -7 26 3 -10 6 -4 10 18 14 18 4 54 28 85 58 l54 51
14 -33 c14 -32 13 -35 -6 -49 -12 -8 -31 -24 -44 -36 -40 -37 -91 -60 -105
-46 -9 9 -8 12 5 12 9 0 17 5 17 11 0 7 -9 9 -22 5 -13 -3 -30 -6 -38 -6 -10
-1 -4 -9 14 -25 l30 -24 -27 -6 c-15 -4 -47 -5 -72 -3 -50 4 -54 -1 -25 -27
11 -10 17 -21 15 -25 -3 -5 13 -24 35 -42 l39 -34 -53 -26 -52 -26 -27 42
c-69 110 -173 176 -306 197 -87 13 -135 7 -255 -31 l-90 -29 -40 43 c-23 24
-55 51 -73 60 -46 23 -168 39 -250 32 l-73 -6 0 64 c0 35 -5 122 -11 195 -13
154 -9 169 72 286 27 39 49 81 49 94 0 36 18 15 41 -50 12 -34 29 -63 36 -66
8 -3 50 8 94 26 44 17 96 31 115 31 21 0 37 6 40 15 5 12 9 12 27 0 19 -12 28
-11 62 2 22 9 71 19 110 22 61 5 71 9 81 31 7 14 26 55 43 92 l31 66 -16 94
c-14 78 -14 104 -4 162 12 67 12 69 -13 94 -17 17 -42 28 -74 32 -26 4 -77 15
-113 25 -53 14 -84 16 -165 10 -55 -4 -104 -7 -110 -6 -5 0 -46 3 -90 6 -79 7
-81 6 -163 -34 -89 -44 -276 -161 -268 -168 2 -2 35 16 73 41 79 53 196 86
234 65 21 -11 21 -16 16 -222 -5 -202 -21 -325 -46 -350 -5 -5 -9 57 -10 138
-2 192 -21 285 -68 337 -21 23 -72 23 -143 -2 -30 -10 -58 -16 -62 -14 -9 6
-86 -50 -248 -181 -69 -56 -130 -104 -136 -108 -6 -4 -72 -22 -145 -41 -74
-19 -146 -39 -161 -45 -91 -35 -242 -238 -422 -569 -73 -134 -171 -342 -182
-388 l-7 -29 30 25 c17 14 73 59 125 101 86 71 186 141 282 199 l38 23 -11
-22 c-7 -12 -32 -72 -57 -134 -64 -158 -94 -287 -101 -433 -7 -151 -1 -166
119 -278 86 -82 91 -85 156 -96 66 -11 68 -12 112 -72 72 -96 174 -186 249
-220 182 -82 354 -123 567 -134 116 -7 125 -9 129 -28 2 -12 12 -57 21 -101
23 -112 76 -269 117 -352 62 -121 247 -328 368 -411 44 -29 48 -36 64 -104 9
-40 19 -81 22 -90 4 -17 65 -18 1093 -18 l1089 0 7 23 c4 12 17 63 28 113 l21
91 115 93 c63 52 159 138 213 193 91 91 102 108 156 220 32 67 80 178 107 246
64 164 77 176 188 184 134 11 278 47 364 91 17 9 50 40 72 70 34 45 50 57 113
81 153 59 221 100 281 168 50 57 73 73 212 146 199 104 272 153 290 196 11 28
11 48 -2 135 -13 86 -49 242 -80 350 l-8 25 30 -19 c104 -67 201 -144 287
-228 55 -54 101 -98 103 -98 8 0 -82 245 -138 379 -59 139 -200 388 -310 548
-50 72 -50 72 -183 137 -74 36 -158 73 -187 82 -30 10 -97 50 -158 94 -58 42
-147 105 -198 139 -51 34 -117 84 -147 111 -29 26 -73 60 -98 74 -55 33 -257
78 -342 76 -33 0 -76 -1 -95 -1 -19 0 -78 2 -130 6 -88 7 -101 5 -160 -18 -36
-14 -85 -27 -109 -30 -25 -3 -53 -14 -64 -26 -19 -19 -20 -25 -9 -84 10 -53
10 -72 -3 -106 -8 -23 -17 -65 -21 -94 -4 -29 -13 -69 -20 -89 -13 -37 -12
-38 19 -62 88 -65 111 -75 187 -81 41 -3 92 -11 112 -17 33 -10 41 -9 58 7 20
18 21 18 43 -3 13 -12 28 -22 33 -22 6 0 37 16 70 36 54 33 63 35 112 29 47
-6 55 -11 78 -45 54 -82 99 -331 89 -495 -4 -60 -9 -113 -11 -117 -2 -3 -24 0
-49 7 -24 8 -80 19 -124 25 -76 12 -82 11 -133 -13 -29 -13 -77 -45 -106 -71
-60 -52 -55 -50 -102 -36 -19 6 -77 15 -128 21 -110 12 -168 0 -298 -60 -82
-39 -164 -107 -226 -189 l-25 -33 -77 49 -77 49 45 12 c25 6 58 22 73 36 l28
24 -44 1 c-43 0 -44 0 -26 20 18 20 17 20 -20 20 -39 0 -115 30 -134 54 -9 11
-1 12 39 8 47 -4 51 -3 87 34 l38 39 -70 6 c-74 6 -99 15 -127 46 -15 16 -16
25 -7 56 5 20 9 65 7 100 -3 54 -6 62 -24 65 -18 3 -21 10 -21 50 -1 73 -17
145 -41 184 -12 19 -22 48 -22 64 0 19 -12 40 -36 65 l-35 36 44 6 c55 8 238
65 252 79 7 7 2 9 -15 5 -37 -9 -190 -21 -190 -15 0 3 25 22 55 42 30 19 86
65 124 102 71 66 188 210 179 219 -2 3 -31 -16 -64 -41 -62 -49 -159 -114
-169 -114 -3 0 6 19 20 43 90 143 200 419 265 660 28 105 28 129 1 85 -32 -52
-344 -488 -348 -485 -1 2 8 37 22 77 14 40 23 75 21 78 -10 9 -36 -47 -30 -64
4 -13 3 -15 -3 -6 -7 9 -33 -27 -93 -125 -117 -193 -243 -385 -267 -406 -17
-15 -27 -16 -64 -8 -30 7 -58 7 -88 -1 -43 -11 -45 -10 -68 18 -30 37 -148
278 -244 498 -40 92 -75 164 -77 158 -1 -5 9 -56 23 -112 14 -56 24 -104 21
-107 -5 -5 -70 86 -142 197 -27 41 -81 140 -121 219 -71 141 -73 143 -73 100z
m1519 -121 c-78 -282 -195 -559 -289 -683 l-51 -68 58 33 c32 18 93 59 136 91
68 52 76 55 56 27 -94 -131 -301 -301 -394 -323 -21 -5 -6 9 50 46 77 50 189
131 210 152 6 6 -17 -4 -49 -22 -166 -92 -246 -132 -246 -123 0 5 7 16 16 23
27 22 234 340 228 350 -3 5 20 41 51 81 45 57 105 150 83 128 -14 -13 -168
-223 -168 -227 0 -3 8 1 18 8 15 13 16 12 3 -3 -7 -10 -17 -16 -21 -13 -4 2
-49 -45 -100 -106 -51 -61 -142 -160 -202 -220 -97 -97 -111 -108 -129 -98
-16 8 -25 7 -38 -5 -10 -9 -24 -14 -32 -11 -15 6 -74 84 -68 90 13 11 81 20
116 15 52 -8 60 -14 43 -37 -7 -10 2 -2 20 17 39 43 170 240 280 423 45 76 85
136 87 133 7 -7 -26 -102 -58 -171 -32 -66 -28 -62 34 38 43 68 367 527 372
527 2 0 -6 -33 -16 -72z m806 -447 l30 -6 -47 -18 c-27 -10 -48 -23 -48 -28 0
-5 11 -31 24 -57 13 -26 29 -68 36 -92 6 -25 13 -52 16 -61 4 -15 1 -16 -37
-3 -36 13 -49 13 -100 -1 -33 -8 -78 -24 -101 -35 -28 -13 -45 -17 -52 -10 -5
5 -12 41 -15 80 l-6 70 -23 -35 c-33 -48 -41 -114 -16 -132 19 -15 19 -15 0
-26 -11 -7 -30 -23 -43 -36 -20 -21 -23 -22 -29 -7 -8 20 2 107 17 154 8 25 8
50 0 93 -16 78 -6 96 57 104 26 3 74 17 107 30 61 23 162 31 230 16z m260 -11
c33 -6 24 -8 -46 -9 -87 -1 -149 -15 -149 -33 0 -5 15 -37 34 -71 30 -56 35
-73 41 -167 3 -58 9 -114 12 -125 4 -16 0 -15 -27 10 -55 52 -97 118 -110 175
-7 30 -25 83 -41 117 -15 35 -24 65 -20 67 4 3 46 16 92 30 84 25 109 26 214
6z m-3423 -6 c80 -18 133 -39 143 -54 4 -6 -4 -25 -18 -43 -13 -18 -46 -70
-72 -117 -49 -87 -131 -195 -180 -240 -25 -22 -27 -22 -21 -5 34 88 45 136 56
240 6 66 10 140 8 165 l-3 45 -70 -1 c-66 -1 -68 -1 -40 12 41 18 112 17 197
-2z m296 -4 c39 -11 85 -20 100 -20 17 0 40 -10 57 -25 33 -31 29 -56 -15
-106 -16 -19 -51 -63 -78 -98 -55 -76 -76 -85 -182 -76 -41 4 -94 6 -116 6
l-42 -2 12 33 c17 49 54 115 98 180 l39 58 -33 20 c-18 10 -46 22 -63 26 l-30
7 25 8 c49 14 156 9 228 -11z m3301 -41 c51 -8 107 -35 129 -62 8 -10 -11 -8
-76 5 -97 20 -148 23 -157 9 -8 -13 -27 -288 -35 -491 -1 -27 -29 32 -54 115
-35 117 -35 116 -20 201 8 44 13 112 12 153 -3 72 -2 75 22 82 26 7 90 3 179
-12z m173 -143 c50 -9 86 -25 140 -61 100 -65 269 -187 266 -190 -2 -2 -32 1
-68 6 -35 5 -69 8 -75 5 -5 -2 13 -6 40 -10 132 -18 251 -59 413 -140 70 -35
99 -56 123 -89 31 -42 162 -250 214 -341 l29 -50 -68 52 c-127 98 -317 173
-471 187 l-60 5 73 -14 c279 -54 510 -187 578 -335 47 -102 154 -384 154 -406
0 -2 -35 30 -77 72 -181 175 -378 300 -604 383 -45 16 -98 39 -118 50 l-36 21
31 -29 c18 -17 62 -40 100 -52 38 -12 119 -46 181 -75 l112 -53 25 -84 c58
-191 93 -397 73 -436 -17 -36 -30 -37 -54 -4 -18 25 -20 35 -12 70 7 33 5 51
-10 89 l-18 47 -8 -70 -7 -69 -44 50 c-39 44 -44 56 -44 99 0 69 -21 182 -30
165 -4 -8 -13 -42 -20 -77 l-13 -63 -31 29 c-17 17 -47 38 -66 47 -38 19 -180
142 -180 156 0 14 -47 111 -71 149 l-23 35 22 -19 c12 -11 22 -15 22 -10 0 5
-32 41 -72 79 -39 39 -67 63 -60 54 7 -9 9 -19 5 -23 -4 -4 -3 -10 2 -14 15
-10 57 -137 53 -160 -3 -17 -13 -13 -98 36 -52 30 -141 85 -197 122 l-103 68
-40 -50 c-22 -28 -61 -84 -87 -125 -26 -40 -47 -72 -48 -70 -1 1 2 59 8 129 6
82 6 150 0 194 -12 83 0 238 27 354 12 47 33 147 49 223 16 81 34 143 42 148
19 12 51 11 131 -5z m-4177 -128 c3 -35 15 -94 25 -133 34 -127 49 -229 66
-456 20 -269 15 -535 -10 -616 -9 -29 -20 -53 -24 -53 -4 0 -17 37 -30 83 -37
132 -185 337 -243 337 -37 -1 -102 -34 -204 -104 l-92 -64 7 39 c4 21 5 39 2
39 -2 0 2 8 9 17 12 15 12 16 -1 8 -31 -18 -111 -88 -105 -93 2 -3 -15 -27
-40 -53 -25 -27 -45 -57 -45 -68 0 -21 -197 -231 -217 -231 -7 0 -14 27 -18
64 -8 77 -2 293 10 321 6 15 5 17 -4 9 -7 -6 -16 -36 -20 -65 -4 -30 -27 -101
-51 -159 -23 -58 -57 -147 -76 -199 -19 -52 -37 -97 -39 -100 -7 -6 4 102 17
169 16 87 67 237 113 336 l42 91 97 52 c53 29 96 54 96 56 0 9 -141 -59 -240
-116 -112 -64 -209 -133 -339 -241 -45 -38 -81 -66 -81 -65 0 14 64 155 126
278 65 130 80 153 122 184 60 45 307 167 395 195 38 12 66 24 64 26 -8 8 -212
-63 -278 -96 -35 -18 -94 -52 -131 -76 -38 -24 -68 -41 -68 -39 0 3 21 40 47
83 120 199 221 329 287 366 50 30 273 85 376 94 l75 7 -53 5 -54 5 96 78 c107
87 130 99 248 126 136 31 135 32 143 -41z m1880 -178 c21 -14 31 -16 37 -8 5
9 13 7 27 -6 18 -16 21 -31 21 -94 0 -74 0 -75 -20 -57 -20 18 -20 17 -20 -8
l0 -25 -67 29 c-87 37 -114 37 -155 -1 l-33 -29 26 -1 c22 0 31 -9 54 -56 31
-63 45 -72 88 -56 l30 11 -24 -26 c-20 -22 -21 -24 -4 -15 11 5 31 22 45 37
25 27 70 55 90 55 6 0 10 -24 10 -56 l0 -57 -41 7 c-37 6 -44 3 -76 -29 l-36
-36 29 -18 c16 -10 38 -28 48 -40 l19 -21 -45 0 c-25 0 -67 -3 -93 -7 l-48 -6
6 31 6 31 -49 -21 c-59 -24 -75 -20 -96 26 -14 28 -15 40 -5 67 7 19 19 76 26
127 15 96 29 125 89 190 20 21 39 32 58 32 18 0 33 8 44 25 20 30 21 30 59 5z
m338 -66 c16 -19 24 -34 18 -34 -7 0 6 -24 29 -53 42 -56 48 -73 29 -79 -8 -3
0 -26 21 -64 25 -45 32 -66 27 -86 -5 -17 -12 -25 -20 -22 -18 6 -47 58 -47
82 0 10 -9 31 -20 45 -18 22 -18 27 -6 34 13 7 9 17 -22 58 -32 43 -72 125
-72 148 0 19 38 2 63 -29z m222 -439 c0 -62 -5 -80 -40 -150 -35 -70 -40 -76
-43 -52 -2 16 1 34 7 41 15 17 52 128 46 134 -3 3 0 11 6 18 6 7 8 18 4 24 -5
8 -21 -1 -46 -26 l-39 -38 0 -129 c0 -70 -5 -137 -10 -148 -6 -10 -43 -35 -83
-55 l-72 -37 46 45 c56 56 79 127 79 244 0 88 9 108 80 172 53 48 65 40 65
-43z m-872 26 c22 -25 38 -54 42 -78 11 -67 13 -77 34 -158 20 -77 39 -105 69
-105 9 0 5 10 -12 30 -28 34 -46 87 -46 140 l0 35 31 -38 c38 -46 52 -48 33
-2 -7 19 -14 44 -14 56 0 19 6 16 50 -25 48 -45 84 -65 140 -80 14 -4 -4 8
-39 26 -80 41 -88 57 -29 60 38 1 37 2 -16 7 -62 6 -92 29 -69 52 22 22 168
31 325 20 161 -11 191 -20 162 -52 -14 -15 -27 -18 -73 -14 -52 4 -50 2 7 -11
13 -2 20 -9 17 -14 -7 -11 -96 -58 -135 -71 -21 -8 -20 -8 8 -4 40 6 42 -12 6
-46 -23 -22 -34 -24 -114 -24 -76 0 -93 3 -119 23 -34 25 -35 23 -20 -31 8
-30 13 -36 27 -28 9 4 39 11 65 15 59 7 104 -12 113 -51 14 -54 -59 -79 -206
-71 -65 4 -88 10 -127 34 -57 35 -72 62 -74 129 0 28 -3 44 -6 38 -12 -32 -40
-10 -76 62 l-37 75 11 70 c7 43 17 70 24 70 7 0 29 -18 48 -39z m-29 -278 c-3
-16 -8 -36 -10 -45 -3 -9 -28 -28 -57 -42 -29 -14 -44 -25 -34 -26 10 0 32 7
48 16 17 8 33 13 36 11 2 -3 2 -25 -2 -49 -6 -38 -9 -43 -33 -43 -15 0 -55 -4
-88 -8 -58 -7 -64 -6 -90 17 l-29 26 35 -5 c19 -3 28 -2 20 1 -8 4 -31 16 -50
28 l-35 21 55 6 c44 5 74 17 145 62 50 31 91 56 93 57 1 0 0 -12 -4 -27z
m1816 -24 c27 -6 50 -14 50 -18 0 -4 -18 -13 -40 -20 -22 -6 -84 -34 -139 -61
-85 -43 -110 -62 -177 -132 -42 -46 -102 -120 -132 -165 -42 -63 -60 -83 -77
-83 -13 0 -26 7 -29 16 -6 15 -8 15 -26 -1 -19 -17 -20 -17 -29 6 -14 38 31
132 115 239 68 87 185 167 303 207 75 25 108 28 181 12z m-2424 -30 c61 -38
151 -145 193 -231 48 -98 96 -259 75 -251 -8 3 -17 -2 -20 -11 -5 -12 -10 -13
-26 -5 -14 8 -23 8 -27 1 -11 -19 -26 0 -81 103 -110 206 -195 312 -301 373
l-53 30 40 7 c21 4 44 8 49 11 23 9 121 -8 151 -27z m723 -114 c5 -16 12 -45
15 -63 l6 -32 -39 19 c-21 11 -52 32 -70 46 -33 28 -38 56 -25 124 l7 32 48
-47 c27 -27 53 -62 58 -79z m1067 -476 c32 -7 62 -15 67 -19 4 -3 -19 -17 -50
-30 -213 -87 -605 -305 -692 -384 -18 -17 -50 -52 -71 -78 l-38 -47 -48 62
c-26 34 -36 51 -21 38 15 -14 29 -22 32 -19 9 9 -46 49 -57 42 -5 -3 -19 3
-31 14 -63 58 -333 215 -535 311 -40 19 -72 41 -72 48 0 7 18 22 40 33 40 21
41 21 68 2 15 -11 83 -47 151 -81 129 -64 181 -97 292 -188 39 -31 73 -51 81
-48 16 6 31 -8 42 -40 6 -17 4 -17 -18 4 -15 14 -26 20 -26 15 0 -6 14 -23 31
-40 l32 -29 -7 45 c-3 25 -8 54 -12 66 -6 23 69 128 89 121 6 -2 24 -24 40
-50 l29 -47 -20 -27 c-39 -57 -44 -79 -7 -36 31 35 40 40 55 31 15 -10 29 -2
91 49 129 105 278 198 416 258 91 40 75 38 149 24z"/>
</g>
</svg>
