<?xml version="1.0" standalone="no"?>
<!DOCTYPE svg PUBLIC "-//W3C//DTD SVG 20010904//EN"
 "http://www.w3.org/TR/2001/REC-SVG-20010904/DTD/svg10.dtd">
<svg version="1.0" xmlns="http://www.w3.org/2000/svg" fill="#f38824"
 width="540.000000pt" height="810.000000pt" viewBox="0 0 540.000000 810.000000"
 preserveAspectRatio="xMidYMid meet">
<g transform="translate(0.000000,810.000000) scale(0.100000,-0.100000)"
 stroke="none">
<path d="M0 7495 c0 -626 0 -621 38 -596 12 7 11 51 -3 262 -21 331 -21 374
-1 394 9 9 13 21 10 27 -4 6 1 6 14 -1 18 -10 23 -6 43 27 13 20 28 40 33 44
35 24 36 13 36 -316 0 -281 -2 -327 -16 -340 -17 -18 -10 -60 9 -53 7 2 38 12
70 21 45 13 57 21 53 32 -3 9 -6 18 -6 20 0 2 -8 4 -19 4 -22 0 -31 26 -31 97
l0 52 58 16 c102 30 110 28 146 -38 29 -54 30 -59 14 -71 -20 -14 -22 -25 -10
-43 6 -10 32 -6 112 17 58 17 106 30 107 30 0 0 -1 8 -4 18 -2 10 -16 23 -31
29 -20 8 -69 77 -196 282 -169 271 -170 272 -200 266 -29 -5 -30 -5 -6 6 14 5
34 8 44 5 11 -3 27 0 35 7 12 10 13 9 7 -3 -4 -8 1 -5 11 8 15 18 35 25 93 33
41 6 78 16 83 22 5 8 7 5 6 -8 -4 -36 11 -55 42 -55 22 0 32 -6 39 -25 22 -57
130 -464 130 -488 0 -16 -8 -30 -20 -37 -21 -11 -28 -50 -9 -50 7 0 47 10 90
22 71 19 79 24 79 46 0 21 -4 24 -26 19 -14 -2 -31 1 -38 8 -7 7 -36 100 -65
206 -28 107 -55 203 -58 214 -5 17 -4 17 8 5 23 -24 301 -331 345 -382 l40
-47 42 11 c23 6 42 16 42 22 0 6 -22 92 -49 191 -27 99 -61 227 -76 285 l-27
105 26 20 c19 15 24 26 19 43 -4 19 -11 22 -29 18 -14 -4 -24 -2 -24 4 0 5 13
10 30 10 18 0 28 5 26 13 -1 6 -1 9 1 5 3 -5 9 -8 14 -8 6 0 7 5 3 12 -5 8 0
9 15 5 13 -3 20 -3 17 0 -8 8 93 42 127 43 18 0 26 4 21 11 -4 7 0 9 13 5 11
-4 33 0 49 9 16 8 37 15 46 15 10 0 17 5 15 12 -1 7 3 13 8 13 27 4 71 19 84
29 8 6 37 18 65 27 48 16 10 17 -731 18 l-783 1 0 -605z m964 376 c3 -4 -21
-14 -55 -21 -33 -7 -62 -17 -65 -21 -10 -17 17 -51 37 -46 10 3 19 1 19 -5 0
-5 4 -7 9 -4 12 8 32 -47 81 -224 22 -80 42 -152 45 -160 3 -8 -7 -1 -23 16
-200 226 -232 265 -226 276 4 6 3 8 -4 4 -9 -5 -96 84 -88 91 2 2 16 -1 31 -7
21 -8 31 -8 39 1 8 9 8 10 -1 5 -6 -3 -23 -1 -37 5 -35 16 -18 35 39 44 25 3
45 10 45 15 0 4 7 11 16 14 9 4 13 2 8 -5 -4 -7 0 -9 12 -6 11 4 31 9 47 13
15 3 27 10 27 15 0 12 37 12 44 0z m-664 -496 c35 -58 61 -107 59 -109 -2 -1
-24 -8 -49 -15 -25 -7 -53 -15 -62 -17 -17 -5 -18 5 -18 120 0 69 2 126 4 126
2 0 32 -47 66 -105z"/>
<path d="M1667 8055 c-81 -23 -150 -44 -153 -47 -13 -13 11 -38 36 -38 16 0
31 -4 34 -9 8 -13 48 -151 102 -351 l44 -165 -26 -23 c-29 -26 -29 -59 1 -54
11 2 100 26 197 53 98 27 180 49 184 49 7 0 -1 158 -9 166 -3 3 -16 2 -30 -1
-22 -6 -25 -12 -25 -57 0 -27 -4 -54 -10 -60 -16 -16 -141 -48 -147 -38 -8 14
-65 218 -65 234 0 19 76 32 95 16 7 -6 17 -25 20 -41 5 -21 11 -29 22 -25 8 3
19 6 24 6 5 0 9 7 9 16 0 12 -37 155 -55 211 -3 9 -11 10 -27 4 -20 -7 -23
-14 -20 -53 3 -44 3 -44 -38 -57 -24 -7 -46 -9 -50 -4 -10 11 -63 214 -57 220
11 10 113 32 129 27 10 -3 27 -22 39 -43 17 -31 25 -37 45 -33 31 6 30 19 -3
87 l-27 55 -46 -1 c-25 -1 -112 -20 -193 -44z"/>
<path d="M2055 8073 c23 -46 137 -470 133 -495 -2 -13 -13 -27 -25 -33 -24
-10 -28 -22 -14 -43 6 -11 37 -5 151 28 79 23 160 50 179 60 43 22 82 63 106
109 38 76 27 229 -25 340 l-29 61 -76 0 c-41 0 -75 -2 -75 -4 0 -2 13 -32 30
-67 62 -135 82 -294 44 -360 -23 -40 -89 -77 -112 -63 -13 9 -100 300 -133
447 l-11 47 -78 0 -78 0 13 -27z"/>
<path d="M2604 8088 c-4 -6 -2 -14 4 -16 7 -2 10 -8 6 -13 -3 -5 -2 -15 3 -21
7 -13 10 -22 17 -68 2 -14 8 -38 15 -53 6 -16 8 -33 5 -38 -3 -6 0 -16 6 -24
6 -8 18 -36 25 -62 12 -44 47 -147 62 -183 3 -8 7 -17 8 -20 9 -33 18 -49 26
-44 5 3 9 2 7 -3 -1 -4 4 -28 12 -53 7 -25 13 -52 13 -60 0 -8 5 -19 11 -23 8
-6 7 -10 -2 -14 -10 -4 -9 -8 3 -17 9 -6 17 -23 17 -36 1 -14 5 -27 8 -30 3
-3 13 -15 24 -27 18 -22 18 -23 -3 -59 -19 -31 -20 -40 -10 -69 18 -49 8 -60
-62 -73 -35 -7 -73 -15 -85 -18 -32 -9 -49 37 -28 78 16 30 15 31 -15 61 l-30
31 -17 -39 c-15 -36 -15 -42 0 -70 23 -43 7 -87 -52 -145 -40 -39 -52 -45 -70
-39 -26 10 -45 54 -38 85 6 21 -26 74 -43 74 -4 0 -13 -17 -19 -37 -9 -30 -9
-40 2 -53 17 -19 33 -92 41 -190 3 -41 8 -89 11 -106 4 -29 0 -35 -43 -61 -61
-38 -129 -106 -154 -155 -47 -91 -33 -195 35 -263 40 -40 175 -115 269 -150
l48 -18 -43 -19 c-23 -10 -56 -29 -73 -42 -16 -13 -46 -31 -65 -40 -19 -10
-51 -33 -70 -52 -61 -59 -123 -102 -197 -138 -190 -91 -236 -165 -153 -246 22
-22 40 -43 40 -47 0 -5 11 -20 25 -35 l25 -27 -48 -98 c-45 -93 -52 -101 -117
-146 -97 -65 -115 -88 -115 -143 0 -43 18 -92 45 -124 7 -8 16 -32 20 -52 7
-37 6 -38 -21 -38 -16 0 -56 -7 -89 -14 -72 -17 -111 -55 -121 -116 l-7 -41
-19 32 c-11 18 -35 37 -58 46 -25 10 -47 29 -60 50 -25 42 -41 48 -99 37 -33
-6 -49 -15 -56 -31 -5 -12 -19 -24 -32 -28 -12 -3 -56 -40 -98 -81 -81 -82
-93 -115 -56 -148 10 -9 21 -30 25 -47 3 -18 15 -34 30 -40 14 -7 32 -28 40
-49 11 -29 24 -41 50 -50 19 -6 37 -18 40 -26 3 -8 21 -21 40 -29 29 -13 40
-13 73 -1 60 21 165 76 191 99 12 11 22 16 22 11 0 -5 -26 -29 -57 -54 -102
-79 -326 -276 -377 -330 -46 -49 -52 -52 -77 -43 -40 15 -77 5 -145 -41 -102
-69 -170 -129 -205 -180 -32 -46 -34 -53 -33 -130 0 -57 7 -99 22 -141 12 -32
22 -77 22 -100 0 -80 111 -254 189 -295 20 -11 51 -34 70 -51 l34 -32 -27 -84
c-68 -209 -130 -502 -146 -693 -6 -69 -16 -145 -23 -170 -6 -25 -13 -112 -14
-195 -2 -157 11 -240 44 -278 9 -9 19 -34 22 -54 13 -76 93 -76 129 0 28 59
35 115 22 171 -14 64 1 108 44 125 134 54 292 91 390 91 51 0 156 -34 156 -50
0 -4 -25 -47 -55 -95 -80 -127 -82 -165 -13 -201 27 -14 28 -13 34 13 10 50
14 57 24 47 6 -6 5 -22 -3 -43 -11 -29 -10 -34 7 -47 23 -17 79 -18 107 -3 20
10 20 8 14 -113 -14 -266 -39 -398 -98 -513 -31 -61 -54 -83 -179 -168 -74
-51 -106 -67 -132 -67 -19 0 -38 -5 -41 -10 -3 -6 -21 -10 -39 -10 -40 0 -258
-68 -268 -84 -7 -10 -1 -83 8 -98 2 -3 0 -9 -6 -13 -17 -11 -12 -101 7 -116
13 -12 107 -14 514 -14 564 0 528 -5 536 82 4 39 1 53 -17 76 -13 16 -31 27
-46 27 -23 0 -24 3 -24 66 0 42 -7 82 -20 112 -32 78 -41 127 -30 157 5 14 10
54 10 87 0 64 11 106 92 358 48 149 67 198 68 173 0 -18 98 -44 137 -37 18 3
37 13 42 22 7 13 12 13 42 -2 18 -9 36 -13 40 -9 4 5 -2 72 -14 151 -11 78
-17 145 -14 148 10 11 177 27 272 27 83 0 98 -4 192 -42 216 -88 353 -106 533
-67 63 13 116 23 118 21 2 -2 -3 -36 -12 -76 -8 -41 -18 -95 -21 -121 -7 -46
-6 -48 21 -59 38 -14 86 0 99 29 12 28 29 34 60 22 17 -7 25 -17 25 -34 0 -19
7 -26 30 -31 34 -7 64 10 56 31 -5 12 14 24 39 24 8 0 26 -36 43 -87 17 -49
56 -155 87 -238 54 -139 57 -153 51 -210 -4 -40 -1 -68 7 -85 11 -21 10 -42
-5 -130 -10 -58 -21 -119 -23 -137 -4 -19 -13 -34 -24 -38 -22 -7 -34 -57 -25
-104 8 -40 64 -79 163 -113 60 -20 84 -23 261 -22 187 0 338 13 407 35 39 13
83 62 83 94 0 37 -10 55 -42 71 -16 8 -33 26 -38 40 -6 15 -26 32 -55 44 -25
11 -65 40 -89 65 -24 25 -49 45 -55 45 -6 0 -11 5 -11 11 0 5 -24 21 -52 34
-60 26 -183 135 -229 201 -33 48 -55 136 -89 351 -11 70 -23 143 -26 161 -3
23 -1 32 9 32 21 0 46 32 53 68 8 41 17 46 39 22 37 -41 95 -15 125 55 11 25
28 46 39 50 12 3 21 11 21 17 0 5 -35 43 -77 84 l-78 74 65 0 c58 0 145 -10
221 -26 26 -5 27 -7 31 -102 3 -78 9 -106 28 -142 19 -35 26 -66 30 -137 6
-104 22 -133 73 -133 40 0 99 61 123 126 l18 51 59 11 c33 6 76 20 96 30 20
10 83 43 141 73 58 30 133 67 168 82 34 15 62 32 62 37 0 6 -3 10 -6 10 -13 0
-294 -139 -322 -158 -30 -22 -97 -46 -156 -57 l-38 -8 6 44 c16 119 17 195 3
242 -14 43 -14 51 1 80 13 24 17 58 16 139 0 59 2 106 5 104 7 -4 9 15 11 103
2 48 5 59 17 54 9 -3 11 -8 5 -12 -10 -6 4 -101 14 -101 3 0 5 30 5 68 -1 92
8 152 24 152 26 0 38 75 20 127 -2 7 -26 15 -52 19 l-48 6 3 49 c2 27 8 49 13
49 5 0 9 -7 9 -17 0 -9 3 -14 6 -10 4 3 3 45 -1 93 -4 48 -10 82 -14 77 -3 -6
-7 38 -9 98 l-3 109 35 0 c39 0 46 11 46 75 0 49 -10 60 -62 69 -35 6 -38 10
-38 40 0 41 -22 105 -48 143 -14 19 -22 52 -26 103 -4 56 -13 90 -36 134 -16
32 -30 64 -30 71 0 7 20 15 49 19 52 7 61 18 61 81 0 47 -13 58 -74 63 -39 3
-56 9 -56 19 0 7 -11 35 -24 61 -13 27 -26 74 -29 110 -4 47 -13 74 -34 105
-29 44 -52 106 -60 168 -4 33 -3 36 31 46 26 8 38 8 45 -1 18 -23 110 -215
172 -361 52 -123 78 -170 147 -262 161 -218 315 -486 387 -673 18 -45 31 -68
33 -57 2 10 -2 33 -9 50 -10 23 -10 32 -1 35 7 2 12 10 12 18 0 9 -5 12 -12 8
-10 -6 -10 -4 0 7 6 7 12 19 12 27 0 10 -3 10 -16 -2 -19 -20 -20 -20 -28 0
-3 8 -2 12 4 9 6 -3 10 -2 10 4 0 5 3 18 7 28 3 10 2 15 -2 10 -5 -4 -21 18
-35 49 -16 31 -31 51 -34 45 -4 -6 -4 -17 0 -23 5 -10 4 -10 -5 -2 -6 6 -14
42 -17 79 -2 38 -7 71 -9 73 -2 3 -10 -7 -16 -22 -8 -18 -15 -23 -20 -15 -4 7
4 37 18 68 39 88 38 83 10 72 -21 -8 -25 -7 -20 4 3 8 9 12 14 9 9 -5 11 0 13
29 1 6 3 14 6 17 29 28 68 124 73 182 1 9 4 15 7 13 15 -9 35 34 38 77 2 38 0
48 -13 48 -8 0 -15 7 -15 17 0 30 -10 7 -15 -33 -2 -21 -11 -59 -20 -84 -10
-25 -21 -63 -26 -85 -14 -59 -13 -57 -39 -96 -26 -40 -83 -84 -88 -69 -2 6 -8
7 -14 4 -6 -4 -8 1 -4 13 3 11 0 37 -8 59 -11 31 -15 35 -21 21 -4 -10 -1 -24
6 -34 8 -10 0 -7 -21 7 -19 14 -38 25 -41 25 -11 0 -158 199 -153 207 3 4 0 8
-5 8 -6 0 -11 9 -11 19 0 11 -5 23 -10 26 -6 4 -8 11 -5 16 4 5 1 9 -5 9 -7 0
-9 7 -6 16 4 10 2 13 -6 8 -8 -5 -9 -2 -5 9 3 10 2 17 -3 17 -5 0 -6 7 -3 17
4 11 3 14 -5 9 -11 -7 -17 11 -13 42 1 7 -5 15 -13 18 -9 3 -12 12 -9 21 5 12
3 14 -7 8 -10 -6 -12 -4 -7 9 5 11 3 15 -5 10 -7 -5 -9 -2 -5 9 3 9 1 17 -4
19 -6 2 -11 10 -13 18 -1 8 -15 40 -32 70 -38 71 -39 74 -25 66 6 -4 11 -4 11
-1 0 14 -44 91 -59 102 -9 7 -13 13 -8 13 11 0 -21 72 -42 91 -11 10 -22 15
-27 11 -4 -4 -4 1 -1 11 4 10 3 16 -3 12 -5 -3 -14 3 -19 13 -8 15 -5 24 16
43 14 13 32 39 40 57 l14 34 52 -44 c29 -25 79 -64 112 -89 296 -218 520 -417
568 -502 l17 -32 0 35 c0 23 -8 43 -26 61 l-27 28 27 7 c28 7 36 24 10 24 -8
0 -25 -5 -36 -11 -18 -10 -27 -4 -72 39 -91 87 -197 175 -376 309 -207 155
-236 183 -300 294 -72 124 -85 139 -128 139 -35 1 -42 7 -114 98 -49 60 -101
143 -140 217 -75 148 -136 249 -200 337 -47 64 -53 88 -24 88 18 0 56 38 56
56 0 31 -137 144 -207 170 -26 10 -68 34 -93 53 -25 18 -61 40 -80 48 -19 8
-67 30 -107 48 -39 19 -88 37 -108 41 -21 4 -67 24 -104 45 -36 22 -71 39 -78
39 -28 0 -11 18 39 41 65 31 134 99 164 164 55 117 13 236 -114 320 -35 23
-42 33 -42 61 0 65 32 239 48 256 11 14 13 31 9 74 -4 39 -3 54 4 47 26 -26
31 -142 6 -126 -5 3 -7 1 -3 -5 3 -6 1 -23 -5 -39 -6 -15 -14 -68 -18 -116
l-7 -89 38 -40 c21 -22 38 -38 38 -34 0 3 16 -11 35 -33 19 -21 35 -44 35 -50
0 -7 4 -9 10 -6 5 3 12 -6 16 -21 5 -19 9 -22 15 -12 6 9 9 4 9 -17 1 -26 4
-23 17 20 32 107 38 97 19 -35 -3 -19 13 39 36 130 23 90 47 170 54 177 7 7
10 22 7 34 -5 17 -3 20 7 14 10 -6 12 -1 7 26 -5 22 -4 29 2 20 7 -11 11 -4
16 25 6 36 15 68 36 134 4 14 13 49 20 78 7 28 17 52 21 52 5 0 6 -4 3 -10 -3
-5 -19 -72 -34 -147 -16 -76 -41 -189 -55 -252 -14 -63 -24 -116 -22 -118 2
-2 11 27 20 64 10 38 22 75 27 83 8 12 9 11 5 -5 -16 -66 -27 -136 -21 -144 3
-6 -3 -46 -15 -90 -41 -163 -15 -133 41 47 30 96 48 136 33 75 -14 -56 7 -14
30 63 14 43 25 70 26 59 1 -12 8 -1 18 27 9 26 20 50 25 54 4 4 7 17 8 28 0
19 1 18 10 -4 10 -24 -3 -99 -21 -125 -9 -13 -21 -89 -12 -81 6 7 37 95 107
301 29 88 41 107 90 159 53 55 57 58 70 40 16 -21 19 -44 7 -44 -4 0 -6 -17
-4 -37 4 -34 5 -35 19 -17 8 10 19 18 25 16 6 -2 8 8 5 23 -3 18 0 28 10 32
12 5 12 7 2 14 -16 9 -12 14 18 23 20 6 21 4 14 -21 -6 -20 -14 -27 -27 -26
-10 1 -13 0 -6 -3 14 -7 16 -60 2 -69 -5 -3 -10 -11 -10 -17 0 -7 4 -7 13 0
19 16 14 -63 -7 -113 -10 -22 -28 -69 -41 -105 -13 -36 -35 -96 -49 -134 -14
-38 -26 -76 -26 -85 1 -20 65 99 81 148 6 20 15 41 19 46 4 6 13 27 19 48 7
20 17 37 22 37 5 0 9 8 9 18 0 9 10 28 21 42 l20 25 -7 -25 c-6 -25 -33 -88
-60 -143 -12 -26 -12 -28 2 -23 12 5 15 2 10 -10 -6 -16 17 -48 28 -37 3 4
-14 -40 -39 -97 -25 -57 -44 -104 -42 -106 1 -2 22 35 47 81 24 47 45 83 48
81 4 -5 -28 -94 -51 -141 -37 -74 -151 -324 -163 -359 -17 -47 -11 -72 18 -79
25 -7 31 0 85 91 21 35 39 58 41 52 3 -8 8 -8 17 0 10 8 14 4 19 -15 5 -20 -4
-45 -34 -102 -42 -78 -45 -87 -32 -79 4 2 8 -3 9 -12 4 -48 8 -60 21 -55 9 4
12 -2 10 -18 -2 -13 0 -25 5 -26 10 -4 47 -42 47 -49 0 -3 -4 -2 -10 1 -5 3
-10 2 -10 -4 0 -5 -6 -11 -12 -14 -7 -2 0 -2 16 1 24 3 28 1 22 -13 -4 -13 -2
-16 9 -11 8 3 15 0 16 -7 0 -7 4 -3 9 8 8 19 9 19 9 -2 1 -29 31 -31 51 -3 26
36 31 21 6 -17 -17 -25 -22 -39 -15 -44 8 -4 8 -12 1 -24 -17 -31 35 -125 60
-109 4 3 5 -3 1 -13 -5 -14 -1 -13 20 6 15 13 24 28 21 32 -3 5 2 9 11 9 9 0
88 68 176 151 88 83 163 149 166 145 4 -4 -9 -20 -28 -36 -19 -16 -29 -29 -23
-30 16 0 67 57 60 68 -6 10 131 150 176 180 13 8 -17 -24 -65 -73 -92 -92
-114 -135 -25 -49 28 27 58 55 66 62 16 14 36 16 27 2 -9 -14 8 -12 25 3 12
10 12 9 3 -3 -13 -18 -13 -50 0 -50 5 0 6 7 3 16 -4 11 -2 15 8 11 8 -3 34 11
59 34 45 39 92 53 81 24 -4 -8 -15 -15 -26 -15 -11 0 -16 -5 -13 -10 4 -6 1
-19 -6 -28 -11 -14 -10 -13 8 1 12 11 26 16 32 13 5 -4 13 -1 16 5 4 5 13 8
20 5 7 -2 16 3 20 12 5 14 7 14 15 2 8 -12 10 -12 10 3 0 11 6 17 13 15 17 -6
17 -58 -1 -58 -7 0 -11 -4 -8 -8 3 -5 -4 -19 -15 -31 -12 -12 -19 -24 -17 -27
3 -2 12 4 21 14 11 12 26 17 45 14 24 -3 28 -8 24 -28 -3 -17 0 -24 11 -24 8
0 17 -10 19 -22 5 -28 -17 -77 -25 -56 -4 10 -6 9 -6 -2 -1 -8 -10 -21 -21
-28 -11 -7 -20 -19 -20 -28 0 -8 -4 -13 -8 -10 -5 3 -9 -1 -9 -9 0 -8 3 -15 7
-15 12 0 50 37 50 49 0 6 4 11 10 11 5 0 6 -8 3 -17 -5 -13 -1 -12 17 5 13 12
29 21 34 20 6 0 19 2 29 6 16 8 17 69 17 1092 l0 1084 -1394 0 c-1068 0 -1397
-3 -1402 -12z m1643 -460 c-3 -29 -8 -69 -12 -88 -4 -26 -3 -30 4 -15 9 18 10
17 10 -8 1 -16 -3 -36 -9 -46 -5 -10 -11 -37 -12 -59 -2 -22 -7 -38 -12 -34
-5 3 -7 -2 -3 -11 3 -10 3 -17 -2 -17 -5 0 -11 -21 -14 -47 -3 -33 -11 -52
-26 -61 -15 -11 -18 -19 -11 -31 10 -20 -3 -50 -15 -32 -4 7 -4 18 -1 26 3 8
1 17 -4 20 -6 4 -10 0 -11 -7 -1 -13 -9 11 -28 89 -11 42 -6 65 29 148 5 11
15 40 21 65 7 25 16 49 21 55 4 5 8 17 8 27 0 10 3 17 8 17 22 -4 31 4 37 31
11 52 28 35 22 -22z m-1311 -389 c13 -15 19 -36 19 -71 0 -42 4 -52 20 -59 26
-10 95 -11 96 -1 4 49 13 70 38 96 28 27 32 29 55 16 33 -17 40 -56 21 -113
-13 -37 -13 -51 -4 -69 16 -30 50 -57 72 -58 17 0 39 38 30 53 -2 4 -1 6 4 5
4 -1 21 10 37 25 40 37 45 26 9 -20 -22 -27 -28 -44 -23 -58 5 -14 1 -24 -14
-36 -37 -28 -47 -26 -97 25 -40 40 -49 55 -49 84 0 20 7 43 16 53 13 14 13 24
4 58 -6 23 -14 41 -17 41 -4 0 -19 -12 -34 -26 -22 -21 -26 -32 -22 -63 8 -55
-11 -66 -78 -47 -29 9 -63 16 -76 16 -32 0 -38 23 -16 60 18 30 17 32 -4 71
-23 42 -17 51 13 18z m219 -79 c4 -11 0 -29 -9 -42 -9 -12 -16 -33 -16 -46 0
-13 -4 -21 -9 -17 -5 3 -12 1 -16 -5 -3 -5 -1 -10 4 -10 6 0 11 -9 11 -20 0
-22 25 -77 44 -95 18 -18 68 -32 98 -28 23 3 27 0 22 -14 -5 -15 -4 -15 4 -3
6 8 9 17 6 21 -2 4 3 10 12 13 9 4 14 9 11 13 -4 3 -2 13 5 20 6 8 12 28 12
45 1 41 26 50 26 10 0 -16 -9 -37 -20 -47 -11 -10 -17 -22 -14 -27 3 -5 3 -26
-1 -48 l-7 -40 -28 15 c-37 19 -102 40 -165 53 -196 41 -480 27 -614 -30 -35
-15 -46 -16 -53 -6 -12 19 -10 90 2 83 6 -4 8 -10 5 -15 -8 -13 28 -30 62 -30
45 0 118 60 108 88 -3 8 0 10 7 6 8 -5 9 -2 5 9 -8 22 3 78 14 72 4 -3 5 -13
2 -22 -4 -10 -2 -14 4 -10 5 3 23 -8 39 -26 l29 -32 -35 30 c-19 17 -28 21
-20 10 24 -32 44 -45 63 -39 9 3 17 1 17 -5 0 -6 11 -11 24 -11 27 0 89 47 81
61 -7 10 24 73 32 65 3 -3 1 -11 -5 -18 -8 -10 -5 -20 10 -38 11 -14 16 -19
12 -11 -5 10 -3 12 5 7 7 -5 10 -14 7 -22 -3 -9 0 -11 11 -7 10 4 14 2 10 -4
-11 -18 17 -33 59 -31 40 1 68 14 59 28 -3 4 2 11 11 14 10 4 13 2 8 -6 -4 -7
-3 -8 5 -4 6 4 10 13 9 19 -1 7 4 22 11 35 7 13 11 38 10 55 -2 21 1 31 8 30
7 -2 10 4 7 12 -4 8 -1 15 4 15 6 0 13 -9 17 -20z m-153 -410 c141 -16 320
-91 401 -168 77 -73 98 -166 59 -256 -20 -44 -41 -66 -28 -28 4 12 0 10 -14
-6 l-20 -24 5 44 c4 39 4 40 -6 15 -6 -15 -16 -26 -22 -24 -7 3 -21 -3 -31
-12 -17 -13 -17 -11 2 13 12 16 21 40 21 55 -1 21 -2 22 -6 6 -3 -11 -9 -24
-13 -29 -5 -5 -7 0 -4 11 3 12 1 24 -5 27 -7 5 -11 -2 -11 -18 0 -14 -4 -28
-10 -31 -5 -3 -10 -11 -10 -17 0 -6 7 -5 18 3 15 11 15 11 4 -1 -7 -8 -18 -15
-25 -15 -7 -1 -11 -6 -10 -11 1 -6 -4 -11 -11 -11 -9 0 -5 12 10 35 13 19 23
47 23 61 -1 21 -2 22 -6 6 -12 -49 -43 -60 -43 -15 0 20 5 30 15 30 17 0 20
17 4 22 -5 2 -29 39 -52 83 -50 94 -98 132 -211 167 -96 31 -236 30 -316 -1
-92 -35 -133 -72 -175 -157 -24 -48 -46 -80 -62 -87 -13 -6 -22 -15 -20 -21 4
-11 -21 -35 -37 -36 -4 0 -5 12 -2 28 5 24 4 25 -7 9 -35 -53 -36 -54 -37 -27
-1 23 -2 23 -10 5 -5 -11 -9 -33 -10 -50 -1 -26 -3 -27 -10 -10 -8 18 -9 18
-9 2 -1 -28 -21 -9 -21 19 0 14 -4 22 -10 19 -5 -3 -7 -26 -3 -52 4 -31 3 -44
-4 -40 -21 13 -43 76 -43 124 0 108 85 211 231 281 170 82 318 105 521 82z
m-139 -222 c20 -40 44 -99 54 -130 10 -32 21 -58 24 -58 9 0 19 81 19 148 0
47 2 53 15 42 8 -7 31 -44 50 -83 41 -82 41 -84 -47 -115 -46 -16 -69 -40 -28
-29 11 3 20 1 20 -4 0 -5 9 0 20 11 27 27 75 26 94 -2 9 -12 18 -20 21 -17 10
10 -27 49 -46 49 -12 0 -17 4 -14 11 4 6 14 8 22 5 8 -3 11 -1 8 4 -3 6 -1 10
4 10 6 0 11 5 11 11 0 5 -3 8 -7 6 -5 -3 -9 9 -10 26 -1 18 -5 43 -7 57 -3 14
6 3 19 -25 14 -27 27 -69 31 -92 3 -24 10 -43 15 -43 17 0 9 -109 -12 -167
-34 -93 -146 -183 -225 -183 -44 0 -124 42 -175 91 -35 35 -49 58 -62 106 -16
54 -35 227 -21 179 11 -37 27 -44 48 -24 28 25 59 23 98 -9 18 -15 27 -20 19
-10 -19 24 1 21 28 -4 19 -18 22 -30 19 -72 -2 -27 1 -52 7 -53 6 -2 11 19 13
50 3 68 -19 99 -84 115 l-46 12 7 56 c14 114 53 222 74 209 5 -3 24 -38 44
-78z m378 -427 c79 -27 129 -53 129 -67 0 -6 22 -14 50 -18 48 -6 149 -44 122
-45 -30 -2 1 -19 44 -25 56 -7 171 -66 152 -77 -9 -6 -7 -10 7 -14 108 -35
224 -103 238 -139 4 -9 13 -16 21 -16 20 0 31 -37 16 -55 -7 -8 -21 -17 -33
-21 -12 -4 -33 -15 -47 -25 -22 -17 -49 -24 -167 -45 -30 -6 -83 -52 -83 -74
0 -30 23 -40 178 -78 165 -42 195 -57 219 -108 16 -32 16 -40 -6 -139 -14 -59
-21 -118 -18 -137 3 -18 3 -28 1 -22 -4 9 -11 9 -29 0 -27 -12 -31 -26 -13
-44 19 -19 38 -14 38 9 0 11 4 19 8 17 4 -1 43 -40 85 -86 70 -75 85 -102 56
-102 -6 0 -7 5 -4 10 3 6 -1 10 -9 10 -9 0 -13 -7 -11 -20 4 -22 4 -23 -20
-14 -13 6 -14 9 -3 16 9 7 5 8 -14 5 -19 -3 -33 2 -45 17 -17 20 -17 20 1 6
17 -13 19 -13 14 0 -3 8 -16 15 -29 16 -45 1 -100 15 -94 24 3 4 -3 6 -13 3
-22 -5 -132 42 -132 57 0 6 -5 8 -12 4 -7 -5 -8 -3 -3 6 6 10 4 12 -8 7 -9 -3
-19 -1 -23 5 -5 7 -2 8 6 3 8 -5 11 -4 6 3 -4 6 -13 9 -21 6 -20 -8 -170 140
-160 157 5 7 4 10 -3 5 -13 -8 -56 60 -46 75 4 8 3 9 -4 5 -7 -4 -19 9 -32 33
-25 50 -25 59 0 36 11 -10 23 -15 27 -11 4 3 -4 14 -17 23 -13 9 -45 40 -72
67 -70 75 -141 224 -84 176 9 -6 21 -10 27 -8 7 2 -8 16 -34 31 -25 15 -57 42
-71 60 -27 35 -75 140 -77 166 -1 10 -4 7 -7 -7 -7 -21 -8 -22 -29 -7 -38 27
-77 105 -89 180 l-12 70 -2 -50 c-2 -57 -14 -40 -25 38 -8 51 10 88 54 112 34
19 38 18 102 -4z m-500 -116 c-2 -5 -3 -29 -2 -52 2 -42 -27 -128 -36 -105 -8
21 -18 13 -31 -23 -9 -23 -18 -32 -27 -28 -9 3 -15 -1 -15 -10 0 -19 -34 -83
-61 -117 -15 -18 -19 -20 -15 -7 3 10 6 25 6 33 0 9 4 12 10 9 6 -3 7 1 4 10
-11 27 -28 11 -40 -41 -7 -27 -28 -79 -45 -117 -33 -67 -33 -67 -44 -40 -10
24 -12 14 -17 -77 -5 -82 -12 -120 -33 -173 -20 -50 -30 -65 -37 -55 -7 9 -8
7 -4 -7 4 -14 -9 -38 -45 -82 -64 -79 -89 -96 -108 -76 -12 13 -11 14 8 8 12
-4 21 -2 21 4 0 6 7 11 17 11 19 0 10 13 -12 16 -8 1 -13 -3 -12 -9 1 -6 -5
-11 -13 -12 -17 0 -64 -44 -56 -52 3 -3 12 2 21 11 18 18 25 20 25 8 0 -5 -23
-21 -51 -37 -28 -15 -59 -40 -68 -56 -9 -16 -22 -29 -29 -29 -7 0 -23 -7 -36
-15 -21 -14 -27 -13 -69 5 -63 28 -95 72 -102 141 -6 49 -5 52 7 29 20 -37 54
-38 61 -3 3 15 9 41 13 57 6 26 5 28 -17 22 -22 -6 -22 -5 -6 6 11 7 60 43
110 79 53 39 97 65 106 62 12 -4 13 -3 3 4 -9 7 -4 17 21 40 33 30 34 30 56
12 13 -11 36 -19 52 -19 16 0 29 -4 29 -10 0 -5 6 -7 14 -4 9 3 17 -3 21 -15
8 -26 25 -28 25 -3 0 27 -32 52 -71 55 -33 3 -87 26 -61 27 21 0 13 16 -15 29
-45 20 -103 63 -115 84 -8 17 -8 19 6 14 8 -3 18 -2 21 3 6 9 -11 23 -32 26
-23 4 -72 44 -78 65 -12 37 5 68 58 108 54 41 141 84 151 74 3 -3 17 8 31 25
31 37 137 92 176 92 15 0 31 5 35 11 5 8 -6 10 -36 7 l-43 -4 34 29 c19 15 55
35 81 45 26 9 45 20 42 24 -5 8 23 25 91 54 l50 21 40 -36 c22 -19 38 -40 36
-46z m368 -135 c4 -3 22 -26 39 -52 18 -26 42 -54 53 -62 13 -9 16 -16 10 -21
-6 -3 -14 1 -18 10 -5 15 -16 16 -77 11 -96 -9 -136 -21 -166 -49 -22 -20 -29
-22 -58 -14 -27 9 -37 7 -63 -12 -17 -13 -32 -21 -33 -19 -1 1 -8 18 -15 36
-8 17 -18 32 -24 32 -6 0 -7 3 -4 6 4 4 -3 20 -14 35 -21 30 -21 31 32 32 18
1 25 5 22 14 -4 10 -9 11 -19 2 -8 -7 -14 -7 -14 -1 0 5 7 15 15 22 8 7 15 8
15 3 0 -13 62 -15 80 -2 12 8 11 9 -6 4 -15 -4 -24 1 -32 17 l-12 23 6 -22 c8
-35 -5 -27 -22 12 -23 55 -20 67 14 49 37 -19 61 -18 106 6 22 10 42 17 46 15
5 -3 10 2 14 10 3 8 10 15 15 15 7 0 7 -8 2 -22 -5 -13 -14 -42 -20 -65 -6
-23 -27 -64 -46 -92 -37 -56 -33 -68 8 -21 35 39 73 114 88 172 l11 48 30 -58
c17 -31 33 -59 37 -62z m126 -270 c-3 -5 0 -12 6 -16 8 -4 9 -3 5 4 -4 7 -2
12 3 12 6 0 11 -6 11 -14 0 -26 -61 -210 -77 -236 -10 -14 -17 -32 -15 -40 1
-9 -1 -10 -4 -3 -4 9 -15 8 -46 -3 -52 -18 -109 -18 -153 0 -43 18 -44 28 -2
55 17 11 28 21 24 21 -12 0 -71 -33 -75 -42 -4 -8 -52 36 -52 47 0 3 11 10 25
15 14 5 25 16 25 25 0 8 8 15 18 16 11 0 12 2 4 6 -7 3 -24 -7 -37 -21 -13
-14 -28 -26 -33 -26 -13 0 -32 46 -32 77 0 21 4 24 21 20 32 -9 68 9 87 43 23
41 48 47 77 20 21 -20 30 -21 87 -15 l63 7 -35 -38 c-32 -35 -31 -35 15 6 27
25 50 47 51 50 0 3 4 17 8 33 7 22 11 25 22 16 8 -6 12 -15 9 -19z m-681 -62
c-18 -99 -17 -307 1 -410 18 -106 64 -239 116 -338 42 -81 31 -70 -59 55 -92
127 -182 278 -182 303 0 4 18 18 40 31 22 12 40 26 40 31 0 14 -36 30 -68 30
l-29 0 18 53 c10 28 18 70 19 93 0 55 88 224 115 224 1 0 -4 -33 -11 -72z
m816 -35 c15 -39 30 -91 34 -115 4 -23 9 -58 12 -75 5 -26 3 -33 -9 -33 -45 0
-121 -25 -158 -52 l-41 -30 36 -24 c20 -14 36 -28 36 -32 0 -9 -343 -351 -404
-403 l-40 -34 51 70 c191 263 334 550 393 793 l11 43 25 -19 c16 -11 37 -47
54 -89z m663 -9 c58 -85 327 -601 316 -607 -3 -1 -21 -17 -41 -36 -37 -34 -38
-34 -58 -16 -20 18 -20 18 16 43 30 20 35 28 29 50 -9 39 -39 77 -63 80 -11 2
-39 -6 -61 -17 l-40 -21 -27 35 c-29 39 -29 41 1 189 l19 89 -23 43 c-30 56
-69 78 -173 99 -101 21 -205 52 -213 64 -18 30 37 66 115 75 30 4 69 13 85 21
17 7 35 12 40 11 6 -1 41 -47 78 -102z m-1317 56 c12 0 29 7 38 15 20 20 21
20 46 -22 19 -32 21 -44 13 -92 -6 -41 -13 -57 -25 -59 -10 -2 -18 1 -18 7 0
19 -48 82 -53 69 -6 -14 -107 82 -107 101 0 6 16 5 41 -4 23 -8 52 -15 65 -15z
m64 -342 c-12 -10 -32 -18 -45 -18 -12 0 -30 -9 -40 -20 -14 -15 -20 -17 -26
-8 -6 9 -11 5 -17 -12 -15 -40 7 -74 84 -128 18 -12 18 -13 -3 -9 -12 3 -31
-2 -42 -10 -12 -8 -25 -12 -30 -9 -15 10 -41 95 -30 101 14 9 11 25 -5 19 -23
-9 -27 24 -6 48 68 78 71 80 97 75 14 -2 37 2 52 9 23 12 26 12 30 -3 2 -9 -7
-25 -19 -35z m-396 -120 c-2 -46 -5 -125 -8 -177 -3 -76 -7 -97 -21 -107 -10
-8 -22 -11 -28 -7 -5 3 -2 -8 8 -24 18 -30 18 -31 -13 -98 -18 -38 -36 -64
-42 -60 -6 4 -9 1 -8 -7 2 -7 -3 -12 -10 -10 -8 1 -10 -2 -7 -8 4 -6 -1 -21
-12 -33 -17 -20 -17 -20 15 2 17 12 32 18 32 13 0 -5 -15 -32 -32 -58 -27 -39
-44 -53 -89 -71 -31 -12 -76 -25 -100 -29 -40 -7 -43 -6 -30 9 7 9 17 15 21
12 4 -3 13 2 20 10 7 8 9 15 5 15 -5 0 0 9 10 20 34 38 7 31 -60 -15 -76 -52
-87 -62 -104 -93 -17 -32 -52 -44 -68 -23 -23 31 -15 52 27 68 43 17 53 33 20
33 -35 0 -79 29 -86 56 -9 34 7 44 74 44 55 0 78 -18 53 -43 -6 -6 -11 -17
-11 -25 0 -7 11 -2 25 14 19 20 25 38 25 71 0 51 -17 63 -64 44 -70 -28 -106
-34 -145 -22 -49 14 -69 55 -53 107 11 37 -1 46 -18 14 -6 -11 -17 -20 -24
-20 -21 0 -2 71 24 92 25 20 96 35 213 44 63 5 94 12 110 25 12 10 17 18 10
19 -6 0 -15 -4 -18 -10 -3 -5 -11 -10 -18 -10 -17 0 30 31 55 35 12 3 44 -2
72 -10 58 -17 96 -19 96 -5 0 6 -6 10 -14 10 -22 0 -40 27 -24 37 8 4 25 30
38 56 19 37 146 197 156 197 1 0 0 -37 -2 -82z m1060 -41 c-1 -12 -3 -28 -3
-34 -2 -22 -73 -93 -134 -135 -32 -22 -96 -58 -143 -80 -46 -22 -82 -43 -80
-46 7 -6 264 87 295 107 23 15 23 15 16 -20 -10 -51 -48 -129 -80 -167 -33
-40 -100 -75 -182 -96 -73 -19 -97 -20 -87 -4 4 7 3 8 -5 4 -6 -4 -9 -11 -6
-16 6 -10 -129 -34 -156 -27 -10 3 -17 1 -13 -4 3 -5 -6 -9 -20 -9 -14 0 -27
4 -30 9 -7 11 59 52 99 60 31 7 49 41 22 41 -9 0 -48 -18 -87 -41 l-72 -41
-62 27 c-33 15 -65 31 -70 36 -16 14 -36 10 -36 -6 0 -9 8 -18 18 -21 9 -3 38
-15 64 -26 39 -17 46 -24 36 -35 -11 -14 -71 -16 -93 -4 -31 17 -35 6 -7 -18
29 -23 32 -29 19 -39 -8 -7 -21 -10 -30 -6 -18 7 -29 -8 -21 -29 6 -18 27 -13
63 15 13 10 35 18 50 18 21 0 23 -2 11 -11 -12 -8 -11 -9 5 -5 34 8 139 10
162 3 38 -13 35 -34 -8 -51 -65 -26 -238 -19 -398 16 -43 9 -57 18 -72 42 -27
45 -24 49 20 22 21 -14 56 -28 77 -31 l39 -7 -53 47 c-53 48 -92 108 -92 144
0 29 18 36 41 15 23 -20 38 -11 22 14 -41 67 -76 308 -54 375 15 46 24 46 39
4 23 -63 134 -217 229 -317 l95 -100 101 82 c56 46 152 133 212 195 107 109
113 113 195 143 103 37 153 49 161 38 3 -5 4 -19 3 -31z m247 -132 c69 -32
119 -44 264 -61 l50 -6 -75 -19 c-63 -16 -150 -59 -150 -74 0 -2 21 7 48 21
59 30 183 57 227 48 58 -11 48 -29 -26 -48 -38 -10 -72 -22 -75 -28 -5 -8 1
-9 17 -4 83 23 162 37 184 32 27 -7 34 -26 10 -26 -28 0 -67 -48 -63 -79 2
-20 -7 -39 -30 -65 -23 -27 -32 -46 -32 -72 l0 -36 -37 7 c-48 9 -95 33 -88
45 3 6 -1 7 -9 4 -9 -3 -16 -2 -16 4 0 6 14 13 30 17 17 4 30 11 30 16 0 12
-5 12 -46 -6 -31 -13 -34 -17 -24 -35 15 -28 82 -60 125 -60 44 0 61 -31 38
-67 -18 -27 -43 -36 -101 -35 -51 1 -70 16 -107 77 -13 24 -31 45 -39 48 -12
5 -13 13 -5 44 18 69 41 123 50 118 5 -4 6 2 2 11 -5 13 -3 15 7 9 8 -5 11 -4
6 3 -3 6 -2 13 4 17 5 3 15 16 21 28 15 31 -80 -67 -112 -115 l-27 -40 -30 91
c-29 87 -30 105 -4 79 23 -23 12 0 -19 38 -42 52 -92 154 -76 154 3 0 38 -16
78 -35z m845 -92 c15 -27 40 -67 56 -90 32 -47 35 -65 13 -83 -13 -10 -15 -9
-15 9 0 11 -4 21 -10 21 -5 0 -10 -9 -10 -20 0 -23 -10 -26 -28 -8 -6 6 -15 8
-19 3 -5 -4 -2 -10 5 -12 17 -7 15 -51 -4 -70 -13 -14 -17 -14 -25 -2 -5 8 -9
17 -9 22 0 18 -19 5 -22 -15 -2 -17 -15 1 -47 67 -24 50 -54 104 -67 122 -27
36 -31 65 -10 83 32 26 57 7 107 -80 27 -47 55 -89 63 -95 24 -15 31 3 8 22
-21 18 -90 169 -72 158 6 -3 10 -1 10 4 0 6 11 11 25 11 18 0 31 -11 51 -47z
m-211 -65 c41 -48 118 -195 109 -209 -10 -16 -31 -9 -43 14 -10 19 -11 18 -6
-15 6 -38 -7 -78 -25 -78 -6 0 -10 9 -10 21 0 36 -32 119 -43 112 -6 -3 -7 -1
-3 5 4 6 -11 42 -34 79 -43 72 -46 83 -28 101 22 22 46 13 83 -30z m-2960 -23
l30 -24 -45 -40 c-25 -22 -57 -46 -72 -53 -16 -7 -28 -16 -28 -20 0 -22 25
-11 95 42 42 33 85 60 95 60 17 0 46 -26 52 -47 3 -13 -160 -133 -181 -133
-11 0 -12 -3 -4 -11 9 -9 26 -2 67 25 31 20 74 45 96 55 22 10 37 21 32 26 -4
4 3 2 16 -4 43 -23 38 -40 -29 -102 -35 -32 -74 -61 -86 -65 -27 -7 -30 -19
-7 -28 12 -4 35 11 73 47 80 77 141 103 141 62 0 -25 -23 -64 -40 -70 -9 -3
-27 -24 -39 -46 -39 -69 -117 -101 -143 -59 -7 11 -18 20 -25 20 -24 0 -63 23
-69 42 -3 10 -22 39 -42 63 -68 82 -82 103 -82 122 0 18 139 163 156 163 5 0
23 -11 39 -25z m2839 -20 c8 -8 31 -43 52 -77 20 -35 46 -73 56 -85 21 -22 21
-64 1 -70 -7 -3 -21 10 -32 28 l-20 33 -11 -29 c-14 -37 -27 -20 -36 47 -5 38
-14 54 -45 83 -43 39 -48 59 -21 74 24 14 38 13 56 -4z m-786 -89 c-25 -39
-36 -43 -223 -101 -66 -21 -145 -49 -175 -64 -51 -24 -57 -25 -84 -12 -29 14
-29 14 90 51 65 20 184 69 264 109 80 39 146 67 148 62 2 -5 -7 -25 -20 -45z
m-13 -116 c13 -20 -17 -40 -59 -40 -23 0 -51 -6 -62 -14 -10 -9 -29 -12 -42
-9 -17 4 -31 -2 -50 -20 -23 -22 -39 -27 -97 -31 -162 -9 -116 30 80 69 66 13
138 31 160 39 49 18 62 19 70 6z m-1713 -253 c-53 -118 -134 -267 -143 -261
-4 2 -11 -1 -15 -7 -4 -8 -3 -9 4 -5 7 4 12 5 12 1 0 -9 -111 -235 -141 -286
-14 -25 -31 -61 -38 -80 -16 -47 -80 -177 -80 -163 -1 7 -16 26 -33 44 -18 18
-26 29 -18 25 12 -6 13 -5 3 6 -7 7 -13 23 -13 35 0 12 -11 46 -24 77 -14 30
-22 57 -20 60 3 3 -1 18 -10 34 -8 15 -15 22 -16 14 0 -11 -5 -10 -20 4 -14
13 -18 25 -13 43 4 18 3 23 -6 17 -7 -4 0 17 15 46 34 69 230 266 414 417
l135 112 23 -23 23 -23 -39 -87z m2780 117 c4 -3 0 -17 -8 -32 -8 -15 -13 -47
-13 -72 l1 -45 12 40 c14 44 27 49 38 13 4 -14 6 -1 7 35 1 53 2 57 20 48 25
-14 30 -50 21 -130 -10 -73 -6 -90 8 -40 l9 34 12 -28 c6 -16 11 -38 11 -51 0
-12 11 -33 25 -46 36 -34 47 -79 41 -167 -2 -43 -2 -65 2 -49 6 24 9 27 18 15
23 -27 47 -115 52 -188 l5 -74 -23 21 c-13 12 -26 19 -29 16 -3 -3 1 -11 10
-17 8 -7 30 -34 49 -62 35 -51 44 -100 28 -155 -7 -22 -6 -21 5 3 7 15 16 24
20 21 13 -13 7 -45 -12 -72 -10 -15 -24 -38 -30 -52 l-12 -25 22 25 c15 17 20
19 16 7 -5 -13 4 -28 28 -53 19 -19 35 -45 36 -57 0 -21 1 -21 10 -2 7 15 7
11 3 -14 -4 -22 -2 -36 7 -42 11 -6 11 -19 1 -68 -11 -54 -11 -64 5 -87 12
-19 18 -50 19 -107 2 -85 -2 -111 -17 -101 -8 5 -6 -17 11 -99 4 -20 6 -70 4
-110 -6 -85 -5 -93 2 -217 11 -164 9 -226 -5 -244 -11 -13 -11 -28 -1 -81 13
-71 8 -130 -16 -176 -13 -26 -13 -34 2 -78 18 -56 15 -126 -9 -260 -20 -105
-51 -168 -96 -192 -62 -33 -85 -2 -86 121 -1 61 -6 86 -30 135 -23 48 -28 72
-28 130 0 38 7 93 16 121 12 40 13 62 5 105 -13 68 -4 236 16 282 14 34 35 43
53 22 4 -4 2 -5 -6 0 -9 5 -12 3 -9 -6 3 -8 10 -14 15 -14 6 0 15 -4 20 -9 5
-5 3 -6 -4 -2 -17 10 -16 6 7 -40 l20 -39 -5 45 -5 45 21 -45 c12 -25 30 -55
40 -68 l18 -23 7 36 c3 20 2 51 -5 68 -10 29 -10 27 -5 -20 3 -36 1 -53 -7
-53 -6 0 -9 7 -5 15 3 8 1 15 -3 15 -5 0 -20 22 -34 50 -13 27 -27 47 -29 44
-10 -9 -37 34 -56 88 -10 32 -21 56 -23 54 -2 -3 -3 17 -1 42 5 84 7 90 19 52
11 -34 11 -33 12 27 1 34 6 65 11 68 6 3 10 40 10 81 0 76 9 91 28 52 l11 -23
0 25 c2 39 12 70 22 64 5 -3 -5 22 -23 54 -18 33 -36 58 -40 56 -4 -3 -5 2 -2
11 5 12 9 13 21 3 8 -6 3 10 -11 37 -27 49 -27 74 -1 39 18 -23 19 -14 3 21
-6 15 -17 24 -25 21 -7 -3 -18 4 -24 16 -9 17 -13 18 -21 7 -8 -11 -8 -9 -4 5
4 10 2 24 -3 30 -4 6 -11 34 -15 61 -3 29 -2 42 3 31 7 -19 8 -19 13 1 3 12
-1 31 -8 42 -10 13 -12 30 -7 48 4 15 7 31 8 35 0 3 3 10 8 14 4 4 7 18 7 32
0 20 -3 22 -14 13 -11 -9 -15 -8 -20 4 -3 9 -2 14 3 11 5 -4 4 5 -2 18 -7 13
-14 23 -18 20 -3 -2 -4 8 -1 23 3 17 1 24 -6 19 -7 -4 -8 2 -3 22 7 21 3 42
-15 83 -13 30 -23 60 -24 67 0 17 27 15 34 -3 3 -8 10 -15 16 -15 13 0 -13 43
-58 94 -31 35 -34 43 -29 85 5 49 -7 86 -25 75 -6 -4 -8 -3 -4 4 3 6 2 13 -4
17 -5 3 -10 13 -10 22 0 11 4 13 13 6 6 -6 21 -13 31 -17 19 -7 19 -6 2 13
-10 11 -26 18 -37 16 -10 -2 -19 0 -19 6 0 5 -5 9 -11 9 -5 0 -7 -6 -3 -12 4
-8 3 -10 -2 -5 -5 5 -9 12 -9 15 0 4 -4 13 -9 21 -7 11 -4 13 11 9 26 -7 25
13 -5 70 -24 46 -37 55 -27 20 5 -20 4 -21 -5 -5 -19 30 -1 39 32 16 l30 -22
-16 31 c-10 19 -22 29 -29 26 -15 -5 -27 8 -45 48 -15 37 10 28 27 -9 17 -38
24 -22 7 18 -21 52 -29 99 -17 99 6 0 11 -10 11 -22 0 -14 10 0 25 36 13 32
24 62 23 65 -2 20 11 28 24 15z m-2436 -41 c-4 -21 -22 -68 -40 -106 -36 -75
-28 -83 21 -19 l31 41 4 -53 c1 -30 0 -52 -4 -49 -5 2 -8 -5 -8 -16 0 -11 -11
-45 -25 -76 -13 -31 -22 -63 -19 -73 4 -12 3 -14 -3 -4 -8 10 -21 -1 -54 -42
-46 -58 -76 -80 -65 -49 9 25 -55 -44 -82 -88 -29 -48 -28 -54 6 -30 15 10 38
22 52 25 26 5 26 5 25 -67 0 -61 -5 -80 -29 -120 -17 -29 -34 -46 -41 -43 -8
3 -16 -1 -18 -9 -8 -20 4 -27 22 -12 14 11 14 10 2 -6 -9 -12 -17 -14 -26 -7
-6 5 -15 7 -18 3 -4 -3 -7 2 -7 12 0 15 -8 11 -41 -20 -26 -26 -38 -33 -33
-20 5 13 -1 10 -19 -11 -15 -17 -31 -44 -37 -60 l-11 -29 30 29 c17 16 29 32
26 35 -2 4 5 8 16 8 18 2 17 -2 -11 -40 -34 -47 -42 -81 -12 -54 10 10 22 17
26 17 15 0 -5 -55 -27 -73 -14 -11 -16 -15 -6 -11 10 3 19 1 23 -4 6 -10 -43
-82 -56 -82 -5 0 1 10 12 23 12 12 26 31 32 42 6 12 0 8 -14 -8 -12 -15 -35
-36 -50 -45 -37 -24 -82 -92 -69 -105 5 -5 7 -16 4 -25 -5 -11 -3 -13 7 -7 25
16 -3 -19 -47 -59 -24 -21 -41 -41 -38 -44 3 -4 17 7 30 22 14 16 25 25 25 19
0 -5 -9 -18 -20 -28 -11 -10 -20 -24 -20 -32 0 -7 -13 -43 -30 -80 -16 -36
-30 -74 -30 -84 0 -11 -5 -19 -11 -19 -6 0 -8 -8 -5 -18 6 -18 -24 -124 -49
-172 -7 -14 -18 -58 -23 -97 -10 -72 -63 -199 -77 -185 -4 4 -5 -3 -1 -14 8
-26 -23 -96 -37 -87 -6 4 -8 0 -5 -8 4 -10 -1 -15 -13 -16 -13 -1 -19 5 -20
20 -1 18 -2 19 -6 4 -3 -10 1 -25 8 -33 10 -12 9 -13 -6 -8 -13 5 -16 3 -13
-7 3 -8 -2 -19 -11 -26 -11 -8 -12 -12 -3 -13 15 0 7 -43 -14 -77 -8 -13 -11
-23 -8 -23 12 0 33 34 34 53 0 9 5 17 11 17 8 0 10 -19 7 -56 -4 -44 -10 -61
-29 -76 -13 -11 -17 -16 -10 -12 9 4 6 -5 -7 -24 -13 -17 -28 -30 -35 -28 -7
1 -9 1 -5 -1 5 -3 3 -14 -4 -26 -11 -21 -10 -22 9 -4 20 17 21 17 25 -7 3 -17
0 -27 -11 -32 -28 -12 -41 -13 -41 -1 0 7 -5 5 -10 -3 -5 -8 -10 -26 -10 -40
0 -19 3 -21 9 -11 5 8 8 19 7 25 -2 6 -1 8 1 3 3 -4 8 -5 12 -3 13 8 -1 -53
-14 -64 -17 -14 -8 -81 12 -93 15 -9 18 -53 3 -62 -6 -3 -10 -14 -10 -24 0
-22 -45 -65 -59 -56 -6 3 -11 14 -11 23 0 13 2 14 9 4 7 -11 10 -10 15 3 11
29 7 38 -11 24 -11 -9 -14 -9 -10 -2 5 7 -4 25 -21 42 -30 31 -52 90 -51 132
l0 24 9 -22 c13 -33 17 -28 12 13 -3 25 -7 32 -13 23 -6 -9 -6 0 -2 21 3 19
17 51 30 70 12 19 23 41 22 50 0 8 -5 4 -11 -10 l-10 -25 -12 28 c-7 15 -15
25 -19 21 -11 -11 2 105 16 138 8 18 25 47 39 63 15 18 28 50 32 79 8 54 25
96 38 96 4 0 8 -10 8 -22 0 -27 5 -21 14 17 5 23 4 27 -4 15 -10 -13 -11 -13
-7 0 2 8 14 15 26 14 12 0 18 3 14 7 -5 5 -6 28 -4 51 l5 43 7 -35 c6 -26 7
-21 3 18 -7 72 9 121 57 182 36 45 42 60 46 114 6 85 19 131 57 201 18 33 40
83 49 110 10 28 29 67 43 88 13 20 33 71 44 112 21 82 40 123 80 175 15 19 37
68 50 107 14 47 44 104 82 159 53 78 60 95 69 163 12 88 20 105 88 189 39 49
51 71 51 98 0 62 36 145 83 188 43 41 80 64 106 65 10 1 12 -8 7 -36z m-267
-17 c9 -10 9 -21 3 -33 -10 -17 -15 -54 -13 -80 1 -7 15 -19 31 -28 31 -16 39
-38 18 -51 -6 -4 -8 -3 -5 2 3 6 2 16 -2 23 -6 9 -12 4 -19 -18 -10 -27 -8
-32 9 -42 22 -11 19 -21 -7 -25 -8 -1 -18 5 -21 13 -4 11 -11 2 -19 -28 -7
-24 -11 -45 -9 -48 3 -2 5 1 5 7 0 6 10 17 22 23 17 9 14 1 -16 -40 -41 -55
-66 -123 -66 -177 l0 -33 -63 6 c-70 6 -70 6 -87 -66 -11 -44 -4 -58 31 -66
16 -4 29 -8 29 -10 0 -2 -13 -30 -30 -63 -16 -33 -33 -78 -38 -100 -5 -22 -24
-58 -41 -80 -18 -21 -43 -66 -56 -98 -14 -32 -28 -58 -32 -58 -5 1 -22 5 -40
9 -29 6 -35 3 -53 -27 -29 -47 -23 -89 16 -108 l30 -16 -23 -49 c-12 -28 -23
-58 -23 -67 0 -9 -5 -20 -11 -24 -17 -10 -66 -124 -74 -169 -12 -74 -12 -73
-53 -68 -35 5 -39 3 -60 -35 -29 -52 -28 -76 4 -91 21 -9 25 -16 19 -34 -4
-12 -16 -60 -26 -107 -11 -47 -28 -96 -37 -109 -9 -13 -24 -34 -33 -47 -9 -13
-18 -22 -20 -20 -2 2 -5 -10 -5 -27 -2 -60 -8 -82 -26 -106 -10 -13 -18 -19
-18 -13 0 6 4 13 9 16 5 4 8 18 6 34 -12 95 56 484 121 692 89 283 300 764
505 1150 48 91 100 195 115 233 15 37 31 67 35 67 3 0 12 -6 18 -14z m-615
-346 l26 -10 -36 -47 c-20 -27 -43 -47 -51 -45 -11 2 -13 -5 -8 -37 3 -22 7
-53 9 -68 5 -36 45 -134 45 -111 1 27 19 30 31 6 11 -22 10 -22 -4 -4 -9 11
-16 15 -16 8 0 -6 9 -17 20 -25 12 -8 24 -35 31 -68 7 -32 25 -71 45 -98 34
-44 43 -71 24 -71 -6 0 -10 -6 -8 -12 1 -7 -26 -86 -62 -176 -46 -116 -69
-162 -79 -160 -25 5 -81 87 -87 129 -4 22 -11 42 -15 45 -13 7 -11 -63 1 -87
15 -28 5 -24 -40 17 -29 26 -45 51 -55 89 -9 29 -14 58 -13 65 2 7 -3 15 -11
18 -10 3 -13 -3 -9 -26 7 -46 -9 -28 -27 30 -17 57 -19 124 -6 181 10 41 1 48
-21 15 -14 -21 -15 -19 -28 40 -15 73 -8 142 19 186 23 36 130 126 220 185 71
45 69 45 105 31z m1336 -310 c77 -24 92 -36 32 -26 -37 5 -63 -5 -99 -40 -47
-46 -124 -167 -187 -297 -102 -209 -148 -358 -132 -423 6 -24 11 -26 41 -21
18 3 91 31 161 62 124 55 163 63 114 24 -28 -23 -132 -101 -169 -127 -92 -64
-107 -80 -129 -135 -56 -140 -52 -217 10 -217 29 0 47 13 128 96 52 52 115
110 140 127 l44 31 -46 -60 c-109 -142 -253 -249 -303 -226 -33 15 -65 107
-65 185 0 104 90 531 140 662 35 94 96 202 163 293 33 43 37 55 27 67 -18 21
-30 19 -84 -16 -27 -16 -50 -29 -52 -27 -8 8 44 84 64 94 27 14 107 3 202 -26z
m1450 -50 c33 -10 77 -43 109 -83 12 -15 10 -15 -40 -1 -70 21 -159 15 -198
-14 l-29 -21 -21 23 c-11 12 -21 28 -21 34 0 15 39 40 88 58 45 16 67 17 112
4z m-602 -460 c78 -80 147 -153 153 -164 14 -23 -60 32 -156 117 -38 34 -75
61 -82 61 -7 -1 -10 3 -7 8 4 6 2 13 -3 17 -21 14 -93 114 -93 128 0 22 15 8
188 -167z m240 158 c19 -24 140 -332 203 -518 34 -102 77 -209 96 -238 42 -66
43 -117 6 -207 -30 -73 -75 -125 -107 -125 -35 1 -98 35 -151 84 l-50 45 55
-29 c78 -41 129 -48 158 -20 28 27 52 83 52 124 0 34 -23 70 -87 139 -183 197
-352 387 -365 412 -10 18 -10 19 9 5 116 -85 265 -199 295 -227 35 -34 36 -35
47 -15 6 11 11 28 11 37 0 32 -50 164 -81 217 -51 84 -158 208 -180 208 -5 0
-9 4 -9 10 0 5 21 0 46 -10 25 -11 49 -20 53 -20 10 0 -9 111 -21 128 -7 8 -7
12 0 12 5 0 14 -6 20 -12z m512 -995 c37 -58 38 -102 5 -169 -30 -60 -91 -134
-111 -134 -8 0 -14 -4 -14 -9 0 -14 -61 -35 -95 -33 -93 7 -221 47 -270 86
-19 14 -18 15 13 4 17 -7 32 -15 32 -19 0 -4 10 -5 23 -2 18 4 19 3 7 -7 -12
-9 -8 -10 20 -5 26 5 31 3 20 -4 -12 -8 -9 -10 15 -10 17 0 53 -1 81 -2 49 -2
96 13 91 29 -2 10 49 72 59 72 4 0 -3 -12 -17 -26 -14 -16 -18 -25 -9 -22 8 2
27 23 42 45 26 38 33 66 54 221 3 17 9 32 15 32 5 0 23 -21 39 -47z m-2157
-171 c9 -8 37 -22 64 -32 83 -31 62 -47 -55 -40 -79 4 -134 51 -148 128 -5 24
-2 38 11 52 16 18 18 17 64 -38 26 -31 55 -63 64 -70z m2316 -267 c142 -123
170 -153 153 -164 -5 -3 -17 -22 -27 -41 -32 -65 -35 -65 -77 -18 -37 41 -167
238 -201 304 -16 30 -13 48 6 41 4 -1 70 -56 146 -122z m-2458 -38 c-54 -159
-61 -176 -75 -171 -7 3 -33 -2 -57 -10 -24 -8 -45 -14 -46 -12 -2 2 13 34 32
72 46 90 132 207 147 198 7 -4 8 -3 4 5 -4 6 -2 19 6 28 25 31 21 -14 -11
-110z m229 91 c0 -24 -78 -269 -89 -279 -3 -3 -32 -3 -64 0 l-59 6 46 90 c41
83 135 205 157 205 5 0 9 -10 9 -22z m2086 -90 c87 -90 164 -179 164 -190 0
-3 -11 -9 -24 -12 -18 -4 -29 -18 -41 -55 -9 -27 -23 -52 -31 -55 -9 -3 -12
-2 -9 5 4 5 -11 40 -33 77 -95 160 -159 322 -128 322 7 0 53 -42 102 -92z
m-1979 6 c-4 -42 -13 -101 -21 -132 -8 -32 -17 -69 -20 -84 -5 -22 -12 -28
-34 -28 -48 0 -55 11 -42 61 31 115 93 259 111 259 9 0 10 -20 6 -76z m152
-101 c31 -123 51 -224 51 -254 0 -24 -48 -33 -100 -19 l-43 11 7 57 c3 31 9
122 12 202 3 80 8 152 11 160 8 26 31 -31 62 -157z m1666 -103 c10 -41 27 -92
38 -113 24 -44 18 -63 -28 -86 -20 -10 -33 -10 -50 -3 -19 9 -24 21 -30 74 -3
35 -13 108 -21 164 -8 55 -12 112 -10 125 3 13 5 35 6 49 1 39 73 -121 95
-210z m37 188 c40 -49 80 -124 114 -215 22 -58 22 -63 6 -63 -9 0 -36 -9 -59
-19 l-41 -19 -15 36 c-38 94 -72 322 -48 322 5 0 24 -19 43 -42z m-249 -9 c16
-29 17 -49 12 -134 -5 -87 -16 -152 -34 -212 -1 -2 -10 6 -21 17 -11 11 -33
20 -48 20 l-28 0 7 65 c5 36 17 102 28 147 35 150 49 165 84 97z m-1363 -13
c0 -6 9 -72 20 -146 26 -178 26 -182 -2 -171 -33 12 -46 80 -47 236 0 116 1
128 14 111 8 -11 15 -25 15 -30z m1263 31 c6 -16 -14 -138 -42 -264 -12 -51
-20 -99 -19 -105 2 -8 -11 -14 -34 -16 -37 -3 -38 -2 -38 29 0 37 45 264 60
305 10 26 46 63 61 64 4 0 9 -6 12 -13z m194 -101 c12 -59 24 -140 28 -179 l7
-72 -46 3 c-40 4 -47 8 -52 29 -8 32 1 307 11 323 16 27 31 -3 52 -104z m282
-233 c24 -20 26 -26 51 -183 55 -341 58 -348 190 -474 l77 -74 -80 -7 c-44 -4
-107 -15 -140 -25 l-59 -19 4 50 c5 45 2 54 -30 96 -34 45 -35 47 -24 90 7 24
12 56 12 72 0 30 -52 138 -76 157 -7 6 -11 14 -7 17 3 4 2 7 -4 7 -6 0 -13 14
-17 31 -5 25 -8 28 -20 17 -10 -9 -11 -17 -3 -26 7 -9 7 -16 -2 -25 -10 -9
-11 -8 -5 7 5 13 4 17 -4 12 -12 -7 -17 16 -13 62 1 13 -2 21 -7 18 -5 -3 -12
11 -16 32 -9 57 -7 72 8 72 8 0 29 12 48 27 18 15 27 20 21 13 -7 -8 -13 -18
-13 -23 0 -5 9 2 21 17 11 14 27 26 35 26 8 0 14 5 14 11 0 7 -10 5 -25 -5
-24 -16 -25 -15 -25 3 0 39 54 53 89 24z m-2176 -73 c13 -11 34 -37 44 -59 19
-37 19 -46 7 -141 -8 -56 -23 -137 -35 -181 -17 -64 -19 -84 -10 -112 13 -39
4 -73 -34 -123 -23 -30 -23 -32 -9 -95 23 -108 20 -120 -35 -172 -27 -26 -61
-49 -75 -53 -16 -4 -61 4 -118 21 -51 15 -104 30 -116 33 -17 3 -30 19 -44 51
-11 25 -27 54 -35 64 -13 14 -14 17 -2 18 27 1 224 145 255 186 63 84 123 310
124 469 0 85 9 114 35 114 12 0 34 -9 48 -20z m2472 -735 c-39 -18 -66 -42
-94 -83 l-23 -32 -29 20 c-16 12 -45 24 -64 27 -57 9 -62 28 -13 48 59 23 111
33 188 34 63 0 64 0 35 -14z m218 -62 c49 -36 51 -61 2 -29 -32 21 -42 20 -21
-3 15 -16 15 -19 1 -31 -13 -11 -21 -9 -47 16 -28 27 -30 27 -24 7 6 -17 3
-23 -9 -23 -8 0 -18 -7 -22 -17 -5 -14 -10 -12 -29 13 -13 15 -26 25 -30 21
-4 -3 -1 -13 6 -22 16 -19 14 -20 -32 -33 -23 -6 -38 -7 -38 -1 0 5 6 9 14 9
8 0 18 5 21 10 12 19 -25 10 -47 -12 -15 -15 -25 -18 -36 -11 -28 17 -24 31
20 75 49 49 89 66 167 67 47 1 60 -4 104 -36z m-3261 -22 c18 -16 41 -43 51
-60 15 -26 16 -32 4 -37 -8 -3 -31 1 -50 10 -28 11 -50 12 -114 4 -87 -11
-166 -3 -160 15 2 7 23 15 48 18 25 3 70 22 103 42 33 21 66 37 73 37 7 0 27
-13 45 -29z"/>
<path d="M1335 7964 c-66 -18 -157 -43 -202 -55 -71 -18 -83 -24 -83 -43 0
-28 20 -149 26 -155 2 -2 15 1 29 7 23 10 25 16 19 51 -3 21 -1 47 5 58 12 24
90 48 96 30 2 -7 27 -95 55 -197 29 -102 58 -207 66 -234 21 -74 18 -93 -15
-111 -22 -11 -28 -20 -24 -35 3 -12 11 -19 17 -17 6 2 66 19 134 37 110 30
123 36 120 54 -2 17 -9 20 -34 18 -17 -2 -36 3 -42 11 -9 10 -139 468 -146
511 -2 15 77 35 96 24 10 -5 27 -27 38 -49 18 -34 24 -39 43 -33 12 3 23 8 25
9 2 2 -11 37 -28 79 -26 63 -36 76 -53 75 -12 -1 -76 -16 -142 -35z"/>
<path d="M1950 7319 c-316 -87 -883 -242 -1260 -345 -377 -102 -687 -188 -689
-190 -2 -2 -2 -6 0 -9 5 -4 70 13 533 141 109 30 200 53 202 51 2 -2 -15 -19
-37 -38 -39 -32 -195 -207 -232 -258 l-17 -25 -30 22 c-16 13 -30 18 -30 13 0
-5 12 -18 26 -28 l26 -20 -51 -71 c-28 -40 -51 -74 -51 -77 0 -2 -12 -24 -27
-49 l-27 -44 -34 45 c-19 24 -36 42 -39 39 -8 -7 25 -56 37 -56 5 0 14 -9 20
-20 8 -15 3 -32 -25 -82 -30 -55 -41 -65 -36 -35 0 4 -5 6 -11 5 -7 -2 -11 4
-10 12 2 8 0 12 -4 7 -4 -4 -17 1 -28 10 -20 18 -20 18 -2 -12 10 -16 27 -38
37 -47 19 -16 19 -17 0 -55 -32 -62 -59 -127 -66 -156 -4 -15 -10 -27 -15 -27
-14 0 -42 39 -35 49 3 7 0 8 -9 5 -9 -3 -21 5 -31 20 -10 14 -21 26 -25 26 -5
0 -9 -93 -10 -207 l-1 -208 105 -380 c58 -209 127 -461 154 -560 43 -156 52
-180 68 -177 18 3 523 141 1149 313 160 44 294 84 299 89 6 6 -11 8 -41 7 -28
-1 -47 -5 -41 -8 5 -3 -5 -9 -22 -13 -21 -4 -39 -1 -52 8 -20 14 -20 15 3 19
13 2 2 2 -26 -1 -27 -2 -47 -1 -43 3 4 4 49 11 99 16 63 6 98 14 111 25 10 10
16 19 13 22 -3 3 5 20 16 39 l21 33 -46 -20 c-88 -37 -162 -51 -317 -60 -166
-9 -225 -26 -249 -70 -17 -31 -23 -105 -11 -127 9 -17 7 -22 -9 -26 -46 -12
-91 95 -71 170 13 48 31 65 96 94 43 19 75 23 230 29 206 7 262 21 435 111 96
49 104 57 163 157 29 49 12 38 -24 -15 -18 -27 -39 -55 -48 -63 -46 -43 -50
-40 -13 9 22 30 45 71 50 92 8 33 6 42 -18 79 l-28 42 -32 -43 c-17 -24 -48
-56 -69 -70 -44 -29 -209 -73 -236 -62 -12 4 -16 3 -12 -4 5 -7 -1 -9 -15 -5
-21 5 -21 6 -2 13 10 4 30 5 43 2 17 -4 22 -2 19 8 -3 8 -11 13 -17 11 -6 -1
-11 2 -11 8 0 5 -13 7 -29 4 -17 -4 -32 -1 -36 5 -5 8 2 10 22 6 21 -5 24 -4
13 4 -13 9 -13 11 2 11 9 0 20 -4 23 -10 3 -5 13 -10 21 -10 12 0 13 4 3 21
-8 15 -17 19 -32 15 -12 -4 -38 -9 -57 -11 -19 -2 -26 -2 -15 1 51 14 171 57
175 63 3 3 23 19 44 35 118 88 199 238 211 393 6 70 -11 164 -30 169 -5 2 -26
-24 -45 -58 -68 -121 -206 -276 -301 -339 -48 -32 -69 -38 -49 -14 7 8 9 15 4
15 -5 0 2 6 16 13 14 8 24 19 22 26 -1 7 2 10 7 7 9 -6 23 17 27 44 1 8 5 23
9 33 11 25 -6 21 -30 -9 -14 -17 -33 -27 -60 -30 -40 -5 -40 -4 -80 56 -52 81
-94 116 -144 125 -23 4 -41 11 -41 16 0 12 -144 11 -195 -1 -61 -15 -123 -2
-152 31 -14 16 -29 27 -32 24 -4 -2 -7 5 -7 16 0 23 0 23 35 4 26 -13 30 -13
41 0 10 12 10 15 0 15 -8 0 -11 2 -8 5 3 3 13 2 23 -1 17 -7 17 -8 0 -21 -23
-16 -20 -19 30 -29 37 -7 39 -6 22 10 -9 10 -23 14 -29 10 -10 -5 -10 -4 -1 6
11 12 19 11 48 -3 51 -24 74 -22 42 4 -58 45 -271 321 -227 294 4 -3 3 11 -3
30 -6 19 -13 35 -16 35 -3 0 -6 16 -7 35 0 19 0 35 2 35 2 0 53 -16 115 -36
86 -28 121 -35 153 -30 29 4 37 3 26 -4 -10 -7 20 -10 100 -11 63 0 128 -2
145 -4 42 -6 115 -35 115 -46 0 -5 -11 -32 -25 -59 -22 -44 -24 -55 -16 -112
4 -34 13 -64 20 -66 6 -2 11 -10 11 -18 0 -8 4 -14 9 -14 15 0 26 23 22 44 -1
11 2 16 8 12 7 -4 11 1 11 13 0 11 -9 22 -20 26 -15 5 -17 11 -11 29 5 12 7
35 5 52 -3 27 -3 28 5 4 9 -25 9 -25 10 5 1 24 3 27 12 15 9 -12 10 -12 5 3
-3 10 -6 25 -6 33 0 9 -5 12 -10 9 -6 -4 -8 -10 -5 -15 3 -4 -2 -10 -10 -14
-19 -7 -19 3 0 28 11 15 18 17 26 9 6 -6 18 -9 27 -6 10 4 13 2 8 -5 -5 -8 -2
-10 8 -6 20 8 20 9 -5 43 -19 26 -20 30 -5 57 8 16 29 45 45 64 17 19 31 38
31 42 0 11 72 -21 108 -49 18 -14 35 -23 38 -21 2 3 -14 32 -36 66 -22 34 -35
62 -30 62 6 0 10 -5 10 -11 0 -5 5 -7 10 -4 6 3 10 2 10 -3 0 -6 12 -13 26
-16 56 -14 95 -50 125 -114 16 -34 29 -65 29 -69 0 -3 25 -58 56 -122 38 -78
61 -142 71 -195 15 -81 13 -105 -24 -280 l-6 -29 22 22 c13 13 25 39 27 59 12
89 12 88 40 51 13 -18 24 -39 24 -47 0 -7 5 -10 10 -7 6 3 10 28 10 54 0 26 9
83 20 127 19 75 20 83 5 169 -39 226 -131 621 -196 840 -40 132 -74 252 -76
266 -5 25 -2 27 59 39 34 7 123 29 196 50 73 21 134 34 137 30 14 -23 27 -152
21 -204 -6 -48 -14 -65 -46 -100 -21 -22 -56 -52 -79 -66 -49 -30 -52 -42 -9
-29 46 13 47 12 13 -11 -21 -14 -48 -20 -90 -21 -58 -1 -59 -2 -20 -10 22 -4
58 -8 80 -9 33 -1 37 -3 20 -11 -14 -7 -2 -8 42 -5 40 3 66 0 72 -7 10 -13 56
-146 66 -190 3 -17 10 -25 17 -21 19 12 -7 243 -32 279 -4 6 -7 26 -9 46 -2
44 17 99 28 81 5 -8 11 -6 20 7 11 15 20 17 43 10 45 -13 60 -29 54 -58 l-6
-26 24 29 c13 16 37 59 52 95 15 36 32 69 38 73 6 4 1 37 -13 90 -34 128 -42
148 -54 147 -7 -1 -271 -72 -587 -160z m-435 -138 c-6 -4 -71 -49 -145 -99
-280 -188 -555 -448 -741 -702 -32 -43 -179 -261 -179 -265 0 -15 -79 -133
-85 -127 -5 4 -5 2 -1 -5 9 -16 -52 -136 -64 -128 -5 3 -7 0 -5 -7 7 -19 -59
-161 -70 -151 -4 5 -5 3 -2 -3 7 -13 -69 -227 -83 -232 -4 -2 -6 -13 -4 -25 3
-17 1 -16 -9 5 -9 20 -16 25 -24 17 -7 -7 -14 -1 -22 22 -6 17 -11 38 -11 46
0 28 103 271 162 383 34 63 94 178 133 255 123 243 226 390 401 574 106 112
282 270 360 323 24 17 95 42 189 67 83 23 161 45 175 50 34 12 35 12 25 2z
m506 -576 c40 -52 79 -165 79 -228 0 -63 -22 -179 -36 -184 -6 -2 -10 -14 -7
-26 2 -12 -5 -4 -15 18 -20 39 -20 40 -1 87 26 67 25 124 -2 139 -12 6 -30 9
-40 6 -16 -4 -17 -2 -8 14 5 11 11 39 13 63 2 38 0 44 -16 41 -11 -2 -18 2
-18 11 0 11 6 13 19 9 36 -11 32 15 -4 32 -30 14 -38 15 -45 4 -6 -10 -12 -5
-25 19 -17 33 -17 34 5 52 29 23 49 12 101 -57z m-551 -12 c41 -13 94 -31 117
-40 l42 -15 -45 -62 c-25 -33 -47 -60 -50 -59 -3 1 -40 42 -82 90 -42 48 -86
96 -97 106 -20 17 -19 17 10 11 17 -4 64 -18 105 -31z m474 -545 c3 -13 8 -43
10 -67 5 -41 5 -43 -17 -38 -20 6 -20 5 -4 -7 21 -16 22 -47 2 -112 -25 -83
-26 -83 -90 -34 -30 23 -58 47 -61 52 -3 4 11 32 32 61 52 72 49 70 75 58 l24
-12 -22 16 -21 16 26 44 c31 50 40 55 46 23z m-101 -267 c31 -24 57 -46 57
-50 0 -3 -16 -31 -36 -61 -39 -59 -93 -112 -108 -107 -6 2 -37 33 -70 70 l-59
68 68 69 c39 38 74 66 80 62 6 -4 37 -27 68 -51z m-502 -1 c14 -51 10 -109 -8
-118 -29 -15 -75 -24 -69 -14 3 5 -12 12 -33 16 -22 3 -47 13 -55 22 -22 21
-20 60 4 77 11 8 17 16 14 20 -3 3 4 3 17 0 14 -4 20 -2 16 4 -5 7 1 9 15 6
15 -3 19 -2 11 4 -7 5 6 8 35 8 41 0 47 -3 53 -25z m348 -162 l63 -71 -39 -24
c-21 -12 -64 -32 -95 -42 l-57 -19 -46 60 c-25 34 -44 64 -43 69 4 10 131 97
144 98 6 0 39 -31 73 -71z m-188 -94 c29 -39 38 -59 31 -66 -6 -6 -44 -13 -85
-16 l-74 -4 -27 34 c-14 19 -26 39 -26 45 0 10 103 60 127 62 7 1 31 -24 54
-55z"/>
<path d="M5250 5248 c-258 -104 -349 -142 -346 -145 2 -2 15 1 30 6 46 18 28
3 -29 -23 -30 -14 -55 -29 -55 -35 0 -5 -10 -7 -22 -4 -21 4 -21 3 -5 -7 14
-9 70 6 297 81 l280 93 0 43 c0 28 -4 43 -12 42 -7 0 -69 -23 -138 -51z"/>
<path d="M5330 5027 c-113 -34 -349 -100 -370 -105 -14 -2 -29 -8 -35 -12 -5
-4 -32 -15 -60 -24 l-50 -16 0 -80 0 -80 28 0 c16 0 59 5 97 11 114 17 114 5
0 -16 -87 -17 -99 -21 -70 -26 34 -5 34 -5 -16 -13 -51 -8 -69 -30 -32 -39 10
-3 18 -1 18 4 0 5 -5 9 -12 9 -6 0 -8 3 -5 7 4 3 15 -2 26 -11 10 -10 22 -13
25 -8 3 5 22 9 43 9 l38 1 -40 -13 c-22 -8 -49 -14 -60 -15 -11 -1 -14 -4 -7
-7 17 -7 15 -21 -5 -26 -17 -4 -17 -5 0 -6 9 0 17 -5 17 -11 0 -5 15 -11 33
-11 l32 -1 -30 -9 c-32 -9 404 -2 468 7 l37 6 0 244 c0 272 5 254 -70 231z"/>
<path d="M0 4081 c0 -812 2 -921 15 -921 8 0 15 4 15 8 0 10 181 98 193 94 12
-3 8 15 -5 26 -8 5 -22 6 -33 1 -32 -13 -52 -10 -25 4 59 30 161 69 166 64 12
-11 -7 -25 -51 -37 -40 -11 -44 -15 -32 -27 13 -13 20 -12 55 6 l40 20 26 -83
c14 -46 26 -87 26 -90 0 -13 -303 -138 -363 -151 l-27 -5 0 -1495 0 -1495
1428 0 1427 0 2 108 c5 227 29 690 43 812 5 47 14 184 20 305 10 216 5 295
-19 303 -6 2 -11 10 -11 17 0 20 -28 26 -35 7 -4 -11 -8 -13 -13 -5 -8 12 -29
12 -48 1 -20 -13 -51 35 -58 87 -6 47 -26 88 -26 53 0 -27 -19 -31 -29 -6 -9
23 -10 22 -22 -10 -8 -17 -17 -32 -20 -32 -4 0 -10 -14 -14 -30 -8 -35 -6 -34
-50 -16 -19 8 -35 12 -35 8 0 -3 -5 -1 -12 6 -17 17 -45 15 -52 -3 -3 -8 -8
-50 -12 -93 -7 -89 -14 -97 -86 -93 -29 1 -48 -2 -48 -8 0 -6 -3 -10 -7 -10
-5 1 -12 0 -18 -1 -5 -1 -25 -1 -42 0 -28 1 -35 -3 -44 -27 -19 -50 -151 -476
-171 -555 l-20 -76 21 -57 c12 -30 21 -74 21 -95 0 -32 6 -45 31 -67 42 -38
57 -78 48 -128 -12 -64 -45 -85 -137 -87 -107 -2 -108 -2 -124 -15 -7 -7 -36
-10 -63 -9 -28 2 -55 -1 -62 -6 -7 -5 -18 -6 -25 -2 -25 16 -56 12 -79 -10
-21 -20 -25 -21 -35 -8 -8 11 -29 15 -72 15 -40 -1 -62 3 -66 12 -2 7 -23 13
-48 14 -24 0 -54 3 -68 6 -13 2 -33 -1 -45 -9 -25 -16 -120 -19 -191 -5 -48 9
-53 13 -79 60 -25 46 -27 57 -20 112 6 54 5 59 -9 48 -27 -23 -20 36 14 107
28 60 48 82 37 42 -6 -23 6 -26 25 -7 7 8 19 12 26 11 7 -1 8 0 2 3 -5 2 -7
10 -3 16 3 7 -4 3 -17 -8 -20 -17 -23 -18 -17 -3 4 10 2 18 -3 18 -6 0 -10 7
-10 15 0 8 5 15 10 15 6 0 10 9 10 20 0 11 6 20 13 20 7 0 14 10 14 22 1 13 8
27 16 33 12 9 12 12 1 23 -8 7 -14 9 -15 5 -1 -10 -27 58 -28 72 0 6 4 3 9 -5
8 -13 10 -13 10 2 0 33 -19 27 -64 -19 -30 -32 -46 -42 -46 -32 0 9 -7 19 -15
23 -8 3 -15 13 -15 23 0 15 -2 15 -14 -3 -13 -18 -15 -18 -21 -2 -7 18 15 48
35 48 6 0 9 4 6 9 -4 5 -3 11 1 13 12 5 44 78 34 78 -4 0 -23 -18 -42 -40 -19
-22 -40 -38 -46 -35 -7 2 -13 0 -13 -5 0 -6 -4 -10 -9 -10 -10 0 -9 19 2 37
14 22 -18 19 -36 -4 l-19 -24 -20 23 c-10 12 -17 30 -15 40 3 11 0 18 -10 18
-8 0 -11 -4 -8 -10 12 -20 -20 2 -37 24 -13 18 -15 31 -8 52 7 23 8 25 9 8 1
-22 25 -39 42 -28 15 9 10 44 -7 44 -9 0 -12 -5 -8 -12 4 -7 3 -8 -5 -4 -7 5
-9 12 -3 19 5 7 9 26 9 43 0 34 49 138 93 194 15 19 33 46 40 60 13 24 12 24
-6 10 -18 -15 -18 -14 -1 12 37 59 8 37 -50 -38 -33 -41 -30 -67 3 -29 l26 30
-22 -32 c-11 -18 -26 -30 -33 -28 -15 6 -29 -3 -50 -35 -15 -21 -17 -22 -14
-5 4 29 25 64 67 115 66 81 109 153 81 135 -5 -3 -12 -1 -16 5 -3 5 -10 10
-14 10 -4 0 -43 -44 -87 -97 -43 -53 -93 -112 -110 -130 -17 -18 -29 -36 -25
-40 3 -4 2 -5 -3 -1 -5 4 -16 2 -24 -5 -13 -11 -14 -9 -2 13 7 14 24 38 37 54
13 16 22 35 19 42 -3 8 0 13 7 11 6 -1 13 9 15 23 2 14 12 33 23 43 22 21 36
23 19 2 -7 -9 -10 -18 -7 -21 3 -3 11 5 17 18 7 12 23 35 37 49 13 14 23 32
21 40 -2 7 2 13 9 14 6 0 15 4 20 9 5 5 3 6 -4 2 -19 -11 -16 2 7 31 14 18 19
38 18 64 -2 22 -4 39 -6 39 -12 0 -242 -259 -274 -308 -18 -27 -46 -47 -54
-39 -3 3 25 41 63 84 171 200 248 295 267 332 16 31 16 32 -1 29 -17 -3 -103
-83 -149 -139 -11 -13 -35 -37 -53 -54 -32 -29 -33 -29 -26 -6 9 29 -11 25
-32 -6 -11 -16 -11 -23 -2 -29 7 -4 10 -3 5 4 -3 6 -2 13 4 17 11 7 13 -25 2
-40 -11 -15 -42 -15 -42 1 0 7 -30 -16 -66 -52 -62 -60 -84 -75 -84 -56 0 10
51 85 64 94 7 5 7 8 -2 8 -7 0 -15 -6 -18 -13 -3 -8 -19 -24 -36 -37 -17 -12
-28 -17 -23 -11 4 8 1 11 -10 9 -54 -10 -19 33 308 376 127 134 197 215 198
229 0 12 2 31 4 42 13 69 17 157 6 151 -14 -9 -15 26 0 41 6 6 9 19 7 28 -2
14 -11 10 -48 -22 -80 -68 -87 -69 -16 -1 38 36 67 71 65 77 -4 10 -60 -36
-279 -233 -65 -58 -295 -252 -307 -260 -9 -5 -11 -2 -7 9 4 9 9 14 12 11 3 -3
35 25 72 62 95 96 206 199 275 257 85 71 215 197 215 209 0 5 12 22 27 38 31
33 23 51 -10 21 -32 -29 -48 -37 -41 -20 3 8 18 24 34 36 38 27 57 74 54 129
-2 25 1 40 7 37 5 -4 10 11 10 32 3 66 4 69 18 86 11 14 11 18 -4 23 -10 4
-32 2 -49 -4 -61 -22 -132 -34 -193 -33 -49 1 -64 -2 -72 -16 -6 -10 -11 -13
-11 -6 0 6 5 15 10 18 17 10 11 73 -10 115 -34 66 -93 92 -109 48 -5 -13 -6
-29 -4 -35 3 -7 3 -13 -1 -13 -11 0 -37 62 -32 75 3 8 1 15 -5 17 -20 7 -22
135 -4 262 22 154 17 238 -19 327 -30 75 -79 139 -105 139 -10 0 -30 -9 -45
-21 -32 -25 -37 -86 -8 -112 26 -23 41 -21 54 8 9 20 8 28 -5 43 -20 22 -21
32 -4 32 16 0 60 -78 76 -135 25 -88 31 -191 16 -291 -8 -54 -15 -113 -15
-131 0 -20 -4 -32 -10 -28 -6 3 -10 19 -10 36 0 16 -4 29 -8 29 -12 0 -31 43
-47 109 -7 31 -27 94 -45 141 -17 47 -44 137 -59 200 -16 63 -32 124 -37 134
-6 15 -4 17 7 11 11 -7 12 -6 3 6 -14 17 -35 104 -34 139 0 14 -4 54 -10 89
-7 35 -9 78 -6 95 8 40 6 52 -6 48 -5 -1 -6 3 -2 9 14 24 132 -133 160 -213
27 -76 12 -151 -25 -128 -12 7 -12 14 -2 38 17 40 -2 74 -39 70 -20 -2 -26 -9
-28 -37 -6 -58 26 -110 76 -126 17 -5 29 1 52 24 61 60 31 172 -81 309 -33 40
-57 77 -54 82 3 5 0 12 -6 16 -8 5 -9 3 -4 -6 5 -9 4 -11 -3 -6 -18 11 -14 26
6 27 14 0 14 2 -3 8 -11 5 -24 6 -29 3 -5 -3 -6 0 -3 6 4 5 16 8 27 5 49 -13
65 47 28 107 -12 19 -23 44 -25 54 -5 28 -23 46 -45 46 -17 0 -18 3 -8 15 10
12 10 15 -3 15 -19 0 -52 45 -61 83 -3 15 -13 27 -21 27 -20 0 -38 69 -22 88
10 13 8 14 -17 8 -28 -7 -28 -6 -22 27 5 25 2 38 -9 47 -17 15 -20 71 -4 87 8
8 7 17 -5 34 -9 13 -16 33 -16 45 0 12 -7 27 -15 34 -13 11 -15 -91 -15 -909z"/>
<path d="M1041 4676 c-43 -11 -68 -36 -37 -36 10 0 22 -22 35 -68 32 -105 36
-132 20 -132 -9 0 -10 -3 -3 -10 7 -7 27 -5 62 5 57 17 81 39 36 33 -27 -3
-28 -1 -52 85 -13 49 -21 95 -18 102 6 16 40 9 57 -11 10 -12 14 -12 24 3 30
40 -31 54 -124 29z"/>
<path d="M840 4511 c0 -69 -4 -122 -10 -126 -5 -3 -10 -10 -10 -16 0 -12 41
-11 60 1 12 8 13 12 2 19 -23 14 -10 54 21 62 21 6 29 3 37 -11 5 -10 7 -26 4
-34 -7 -19 -3 -19 47 -4 34 10 54 28 31 28 -5 0 -39 45 -76 100 -47 71 -72
100 -86 100 -19 0 -20 -7 -20 -119z"/>
<path d="M648 4568 c-78 -20 -94 -31 -60 -40 23 -6 67 -162 57 -201 l-7 -26
69 19 c96 28 93 26 93 60 0 20 -5 30 -15 30 -8 0 -15 -9 -15 -20 0 -13 -10
-24 -26 -30 -33 -13 -31 -14 -38 18 -4 15 -9 35 -12 45 -4 12 0 17 15 17 12 0
21 -4 21 -10 0 -5 7 -10 16 -10 10 0 14 6 10 18 -3 9 -8 29 -12 45 -7 30 -34
37 -34 8 0 -10 -6 -21 -14 -24 -14 -6 -40 59 -30 75 7 11 52 10 59 -2 3 -5 13
-10 21 -10 13 0 12 4 -1 30 -9 17 -17 30 -18 29 -1 -1 -37 -10 -79 -21z"/>
<path d="M5350 4511 c-8 -5 -94 -13 -190 -17 -96 -4 -185 -10 -198 -13 -22 -6
-22 -8 22 -53 25 -25 46 -44 46 -41 0 2 21 -15 47 -39 26 -24 62 -56 81 -73
18 -16 54 -49 79 -72 25 -24 49 -43 54 -43 5 0 9 -6 9 -14 0 -15 30 -26 73
-26 l27 0 0 200 c0 184 -1 200 -17 200 -10 0 -25 -5 -33 -9z"/>
<path d="M395 4499 c-16 -5 -37 -8 -46 -5 -12 2 -15 -2 -12 -15 3 -11 11 -19
18 -19 8 0 16 -8 19 -17 2 -10 14 -51 26 -91 17 -58 19 -76 9 -88 -18 -22 -8
-24 47 -10 90 24 124 54 124 111 0 37 -34 113 -58 131 -20 15 -83 17 -127 3z"/>
<path d="M1186 4361 c-38 -8 -42 -22 -14 -52 14 -15 36 -70 57 -144 44 -152
60 -128 19 30 -30 116 -30 135 0 135 14 0 22 -15 36 -72 11 -40 25 -88 33
-107 13 -33 14 -33 28 -15 19 25 19 61 0 114 -14 41 -28 57 -74 89 -11 8 -18
18 -15 23 6 9 -26 9 -70 -1z"/>
<path d="M1040 4319 c-13 -6 -26 -11 -27 -13 -8 -7 10 -36 22 -36 7 0 28 -54
51 -137 22 -75 44 -138 51 -140 14 -5 10 25 -17 117 -22 72 -20 88 5 38 10
-18 33 -59 52 -91 l35 -58 14 27 c14 26 11 33 -62 166 -43 76 -82 138 -88 137
-6 0 -22 -5 -36 -10z"/>
<path d="M876 4274 c-9 -8 -19 -27 -22 -42 -3 -15 -8 -33 -10 -40 -11 -36 54
-313 74 -312 4 0 15 6 24 13 16 12 15 22 -13 131 -35 140 -37 221 -4 221 24 0
73 -92 94 -177 23 -90 29 -102 46 -88 8 6 19 9 25 5 14 -9 4 50 -21 120 -47
135 -85 185 -142 185 -20 0 -43 -7 -51 -16z"/>
<path d="M750 4241 c-29 -8 -29 -6 -5 -241 8 -74 13 -135 12 -137 -2 -1 -38
73 -81 166 l-77 169 -40 -10 c-43 -12 -50 -30 -19 -56 13 -12 35 -74 68 -197
65 -236 65 -237 52 -245 -6 -4 -8 -14 -4 -23 4 -12 13 -15 33 -11 14 4 29 9
34 11 13 7 8 32 -9 41 -10 5 -33 68 -59 163 -44 153 -51 194 -22 122 8 -21 43
-96 78 -168 56 -117 63 -127 71 -105 9 23 7 91 -7 274 l-5 61 25 -85 c14 -47
30 -102 36 -123 10 -38 11 -38 30 -21 10 9 19 26 19 37 0 10 -18 86 -41 168
-29 109 -38 158 -33 184 7 38 -1 42 -56 26z"/>
<path d="M692 3574 c-26 -18 -28 -41 -7 -71 14 -20 13 -21 -27 -27 l-42 -7 32
-19 c17 -10 38 -29 46 -42 30 -46 30 -122 0 -97 -19 15 -44 4 -44 -20 0 -22
31 -44 52 -36 7 3 18 -5 23 -17 7 -17 20 -24 47 -26 30 -3 40 1 54 22 12 19
13 30 6 39 -6 7 -13 28 -15 47 -10 78 -20 119 -28 114 -5 -3 -12 2 -16 11 -3
10 -1 20 5 24 16 10 -3 35 -21 28 -22 -8 -54 30 -39 45 9 9 12 7 12 -11 0 -17
4 -22 16 -17 9 3 18 6 20 6 2 0 4 9 4 19 0 17 -33 51 -50 51 -3 0 -16 -7 -28
-16z"/>
<path d="M5250 1619 c-124 -62 -140 -73 -134 -91 4 -14 2 -18 -5 -14 -18 12
-12 -9 11 -40 21 -27 20 -27 -17 5 -33 29 -41 32 -43 17 -3 -11 -10 -15 -21
-11 -15 4 -18 0 -16 -20 l3 -25 -25 20 c-30 23 -53 26 -53 6 0 -9 -7 -12 -19
-9 -23 6 -51 -22 -51 -50 0 -12 41 -94 92 -182 97 -170 228 -411 228 -420 0
-3 -4 -5 -10 -5 -5 0 -27 30 -49 68 -89 149 -112 159 -41 17 22 -44 40 -87 40
-95 -1 -8 -7 -1 -14 16 -8 18 -19 35 -26 39 -6 4 7 -30 30 -74 22 -45 44 -81
49 -81 5 0 11 -13 14 -30 6 -28 37 -105 57 -141 7 -14 5 -16 -12 -11 -16 4
-19 2 -13 -9 4 -8 -6 0 -21 16 -16 17 -41 53 -55 80 -15 28 -61 113 -104 190
-43 77 -93 169 -112 205 -71 132 -114 210 -118 210 -6 0 29 -74 135 -285 55
-110 98 -206 95 -213 -2 -7 -1 -10 4 -7 5 3 12 1 15 -4 4 -5 2 -12 -4 -16 -6
-4 -7 -12 -4 -18 4 -7 -5 0 -20 15 -14 15 -51 73 -82 130 -58 107 -83 144 -65
95 6 -16 11 -31 11 -33 0 -7 -35 28 -35 35 -1 6 -11 25 -118 231 -39 74 -79
149 -90 165 -17 27 -18 28 -12 5 4 -14 30 -72 57 -130 28 -58 67 -143 88 -190
21 -47 63 -138 94 -204 31 -65 55 -120 53 -122 -5 -5 -180 346 -293 586 -43
91 -88 178 -101 193 -12 16 -30 54 -39 85 -22 76 -45 122 -61 122 -15 0 -33
-32 -33 -60 0 -15 -5 -20 -14 -17 -37 14 -18 -47 115 -362 78 -185 155 -372
171 -416 44 -122 102 -236 140 -275 41 -42 51 -66 39 -88 -6 -11 -3 -53 6
-110 8 -52 11 -101 7 -110 -4 -9 -6 -20 -6 -24 4 -18 -15 -6 -31 19 -20 33
-62 84 -51 63 5 -11 2 -10 -13 3 -11 9 -23 14 -27 10 -10 -10 -125 -12 -132
-2 -10 16 -24 9 -24 -11 0 -11 -4 -20 -10 -20 -15 0 -12 -27 9 -68 16 -33 35
-122 25 -122 -7 0 -34 72 -34 91 0 10 -9 21 -21 24 -11 4 -34 29 -51 56 -28
47 -32 49 -48 34 -16 -14 -18 -14 -23 0 -5 12 -24 15 -88 15 -72 0 -81 -2 -86
-20 -6 -22 -18 -26 -29 -9 -5 8 -10 6 -16 -5 -5 -9 -13 -14 -19 -11 -11 8 -11
-1 0 -45 22 -87 23 -90 2 -90 -14 0 -23 11 -32 38 -6 20 -23 59 -36 85 -24 47
-25 48 -44 31 -10 -9 -19 -24 -19 -33 -1 -9 -9 0 -20 19 -18 33 -19 34 -20 10
l-1 -25 -11 25 c-5 14 -11 30 -12 35 -1 6 -7 19 -14 30 -10 18 -11 17 -12 -15
l-1 -35 -14 38 c-7 21 -16 41 -19 44 -10 10 -7 -50 5 -111 11 -50 8 -78 -6
-65 -2 3 -14 49 -24 103 -11 54 -27 109 -37 123 -9 14 -20 37 -24 52 -36 111
-37 110 -35 -36 2 -76 1 -132 -2 -125 -8 20 -26 14 -20 -8 4 -16 2 -18 -13
-10 -9 5 -20 6 -24 3 -3 -3 -6 0 -6 9 0 8 -6 15 -14 15 -11 0 -13 -13 -10 -56
2 -43 1 -49 -5 -26 -8 29 -5 -104 4 -147 2 -10 -1 -18 -6 -18 -5 0 -9 -9 -9
-20 0 -20 7 -20 840 -20 l840 0 0 845 c0 465 -2 845 -4 845 -3 0 -68 -32 -146
-71z"/>
<path d="M1786 1343 c-38 -79 -239 -530 -252 -565 -7 -21 -11 -38 -9 -38 14 0
121 77 146 103 48 53 99 166 110 243 5 38 11 76 14 84 2 8 7 40 10 70 3 30 8
74 10 98 6 52 -6 54 -29 5z"/>
<path d="M2947 1040 c-5 -63 -10 -149 -13 -190 -2 -41 -11 -178 -19 -305 -7
-126 -17 -279 -20 -340 -3 -60 -8 -131 -11 -157 -6 -47 -5 -48 23 -48 l28 0 2
308 c0 169 7 420 13 557 7 138 11 259 8 270 -2 11 -7 -32 -11 -95z"/>
<path d="M3504 130 l1 -130 103 0 c63 0 102 4 102 10 0 6 -6 13 -14 16 -8 3
-17 20 -20 38 -4 19 -18 46 -31 62 -14 16 -29 43 -34 59 -8 27 -9 25 -10 -22
-1 -29 -5 -53 -11 -53 -5 0 -7 -8 -3 -17 4 -13 3 -15 -5 -8 -7 6 -19 49 -29
95 -12 59 -19 78 -24 64 -7 -17 -8 -17 -8 -1 -1 9 -5 17 -10 17 -5 0 -8 -58
-7 -130z"/>
</g>
</svg>
