<?xml version="1.0" standalone="no"?>
<!DOCTYPE svg PUBLIC "-//W3C//DTD SVG 20010904//EN"
 "http://www.w3.org/TR/2001/REC-SVG-20010904/DTD/svg10.dtd">
<svg version="1.0" xmlns="http://www.w3.org/2000/svg" fill="#f38824"
 width="1200.000000pt" height="1800.000000pt" viewBox="0 0 1200.000000 1800.000000"
 preserveAspectRatio="xMidYMid meet">
<metadata>
Created by potrace 1.16, written by Peter Selinger 2001-2019
</metadata>
<g transform="translate(0.000000,1800.000000) scale(0.100000,-0.100000)"
 stroke="none">
<path d="M670 15585 l0 -1825 565 0 565 0 0 710 0 711 75 -51 c41 -28 75 -53
75 -56 0 -3 -4 -2 -10 1 -6 4 -10 -41 -10 -127 l1 -133 197 -64 c108 -35 203
-66 211 -69 10 -3 12 0 7 14 -8 22 -1 15 28 -25 11 -16 48 -64 82 -108 77 -99
236 -337 256 -383 9 -19 21 -51 29 -70 7 -19 25 -55 41 -79 21 -31 28 -51 23
-68 -6 -26 16 -68 30 -55 4 4 5 -2 1 -13 -4 -11 -4 -16 0 -12 10 10 34 -12 34
-32 0 -10 24 -42 53 -72 28 -31 92 -98 141 -150 48 -52 153 -160 233 -240
l145 -146 -89 18 c-195 39 -390 116 -460 182 -13 11 -23 17 -23 13 0 -4 -10 3
-22 14 -13 12 -35 28 -50 36 -25 13 -27 13 -21 -3 4 -10 26 -44 50 -75 46 -60
109 -114 211 -181 l63 -42 -98 -6 c-70 -5 -118 -14 -167 -33 -37 -14 -78 -27
-90 -27 -11 -1 4 -5 34 -10 34 -5 69 -4 91 3 21 6 88 8 170 4 133 -5 146 -6
224 -20 280 -50 407 -83 497 -126 21 -10 40 -14 44 -9 3 5 17 6 32 3 19 -5 24
-3 17 4 -5 6 -21 13 -35 15 -14 2 -42 12 -64 21 -21 10 -92 28 -157 40 -99 19
-128 29 -172 58 -28 20 -90 48 -136 62 -80 25 -243 105 -257 127 -3 6 11 2 32
-9 91 -45 262 -86 459 -108 22 -2 59 -11 83 -20 24 -9 45 -14 48 -11 8 8 -96
122 -191 208 -280 253 -274 248 -432 469 -81 114 -145 215 -195 308 -23 42
-49 88 -59 102 -10 14 -29 51 -43 83 -13 31 -51 94 -83 139 -32 46 -76 110
-98 143 -50 75 -56 83 -77 103 -10 9 -18 22 -18 29 0 7 -5 13 -10 13 -6 0 -14
9 -18 19 -4 11 -37 44 -74 73 -37 29 -105 86 -151 126 -47 39 -90 72 -96 72
-6 0 -11 3 -11 8 0 7 -77 65 -220 165 l-75 53 -3 79 -3 78 58 -6 c32 -3 78
-13 102 -22 24 -8 58 -15 76 -15 77 0 383 -121 446 -176 8 -8 20 -14 26 -14 6
0 13 -3 15 -7 2 -5 21 -16 43 -27 71 -33 137 -69 177 -97 14 -11 30 -19 36
-19 5 0 29 -15 53 -33 24 -19 68 -50 97 -70 78 -55 101 -78 95 -93 -3 -8 0
-14 7 -14 6 0 8 5 5 10 -15 25 24 7 55 -25 40 -41 29 -47 -14 -7 l-31 27 30
-33 c16 -18 35 -30 43 -27 16 6 47 -12 85 -49 30 -30 30 -49 0 -25 -16 13 -17
12 -4 -4 8 -10 21 -15 28 -12 8 2 23 0 33 -5 16 -8 18 -8 14 5 -4 8 -9 15 -13
15 -4 0 -29 21 -57 48 -28 26 -65 58 -84 72 -18 14 -45 34 -59 46 -14 12 -36
26 -48 33 -13 6 -23 18 -23 27 0 8 -13 17 -30 20 -16 4 -40 16 -52 28 -13 12
-52 42 -88 66 -85 58 -96 65 -150 93 -25 13 -67 37 -95 53 -27 17 -65 36 -83
43 -18 8 -30 16 -27 19 6 6 77 -14 125 -36 35 -16 42 -18 92 -26 40 -6 100
-27 123 -42 11 -8 26 -14 35 -14 9 0 51 -21 94 -47 60 -35 82 -44 94 -36 25
15 92 -14 93 -41 0 -12 3 -15 6 -8 7 18 29 15 71 -11 20 -13 55 -31 77 -41 22
-10 58 -33 80 -50 22 -18 54 -40 70 -51 26 -16 180 -135 239 -186 12 -9 52
-43 91 -76 38 -32 80 -70 92 -84 13 -15 34 -30 48 -33 14 -4 25 -13 25 -20 0
-14 69 -62 130 -90 19 -9 67 -35 105 -57 39 -22 144 -72 235 -110 91 -39 181
-80 200 -92 19 -13 55 -31 80 -42 50 -21 127 -72 122 -82 -2 -3 19 -15 45 -28
62 -29 181 -129 313 -263 77 -79 98 -97 80 -67 -12 22 -28 45 -35 50 -6 6 -20
26 -31 45 -10 19 -27 43 -37 54 -10 11 -15 26 -13 33 3 7 -10 36 -29 65 -19
29 -35 61 -35 71 0 11 -8 31 -19 45 -25 36 -111 208 -111 223 0 17 33 -29 61
-86 14 -27 52 -90 85 -140 33 -49 76 -117 94 -150 61 -107 132 -209 186 -265
29 -30 61 -66 72 -80 18 -23 92 -180 92 -194 0 -12 71 -189 102 -256 157 -337
244 -490 269 -474 5 3 21 -14 36 -37 16 -23 39 -53 52 -67 28 -30 141 -248
141 -271 0 -9 9 -41 21 -71 41 -110 76 -274 48 -227 -6 10 -9 21 -6 24 3 2 1
19 -5 36 -5 18 -12 45 -15 61 -2 16 -11 35 -18 43 -8 7 -11 21 -8 30 4 10 2
14 -5 9 -13 -8 -25 25 -17 47 4 8 2 18 -4 22 -6 3 -11 0 -11 -7 0 -7 -21 27
-46 76 -25 49 -62 114 -83 145 -21 31 -40 63 -43 71 -15 40 -178 258 -233 312
-17 16 -18 20 -5 29 12 8 11 9 -5 7 -14 -2 -20 2 -19 15 1 9 -3 17 -10 17 -6
0 -20 17 -31 37 -11 21 -47 66 -80 101 -33 35 -64 70 -68 78 -4 8 -14 14 -22
14 -9 0 -12 6 -9 15 4 8 1 15 -6 15 -7 0 -43 33 -81 72 -38 40 -69 69 -69 65
0 -4 -10 3 -22 17 -27 29 -82 50 -59 22 7 -9 9 -16 4 -16 -8 0 -52 28 -63 39
-3 4 -23 19 -45 36 -21 16 -46 36 -55 45 -9 8 -32 27 -52 43 -53 40 -59 14 -8
-35 34 -31 40 -42 29 -49 -8 -5 -18 -9 -24 -9 -5 0 -4 4 4 9 11 7 5 17 -25 47
-22 22 -39 45 -39 53 0 8 -6 16 -14 19 -9 3 -11 0 -6 -8 6 -10 4 -12 -8 -7
-28 10 -20 -3 28 -45 25 -22 45 -44 45 -49 0 -5 -8 -1 -18 9 -41 38 -62 51
-75 46 -7 -2 -22 4 -32 16 -10 11 -23 20 -29 20 -6 0 -44 32 -84 70 -40 39
-77 70 -82 70 -6 0 -10 6 -10 13 0 6 -11 17 -25 24 -14 6 -25 7 -25 2 0 -5
-16 -9 -35 -9 -24 0 -35 5 -35 15 0 8 -9 20 -20 27 -11 7 -20 17 -20 23 0 6
-8 15 -19 20 -10 6 -36 22 -59 37 -35 24 -43 26 -66 15 -33 -15 -26 -38 25
-88 22 -21 39 -42 39 -48 0 -6 11 -18 25 -27 14 -9 25 -24 25 -34 0 -10 7 -23
15 -30 11 -9 15 -9 15 -1 0 20 17 3 24 -23 10 -40 50 -95 69 -96 11 0 17 -8
17 -23 0 -13 9 -32 20 -42 11 -10 20 -22 20 -26 0 -16 95 -99 114 -99 15 0 17
-5 12 -27 -5 -20 -4 -24 3 -13 12 18 26 7 17 -15 -3 -9 -11 -13 -18 -9 -8 5
-9 2 -5 -9 3 -9 2 -19 -3 -22 -6 -4 -10 -2 -10 2 0 5 -18 28 -40 51 -22 22
-40 46 -40 52 0 5 -5 10 -11 10 -6 0 -8 -9 -4 -21 4 -11 -33 21 -82 72 -60 61
-95 90 -107 88 -15 -3 -12 -10 19 -44 20 -22 47 -52 61 -67 13 -15 24 -36 24
-47 0 -12 5 -21 10 -21 28 0 -3 -60 -32 -60 -9 -1 -7 -5 5 -14 9 -7 17 -25 17
-40 0 -14 5 -26 11 -26 16 0 65 -53 74 -79 5 -16 10 -20 15 -11 5 8 9 5 13 -9
3 -12 16 -25 29 -30 12 -6 17 -10 11 -10 -13 -1 -3 -14 50 -68 14 -15 20 -33
19 -55 -2 -23 5 -39 24 -60 15 -15 24 -31 20 -35 -4 -4 -11 -1 -16 7 -6 8 -10
11 -10 7 0 -12 37 -88 56 -114 11 -15 12 -23 5 -23 -7 0 -9 -5 -5 -12 4 -8 3
-9 -2 -5 -5 5 -9 14 -9 20 0 7 -10 27 -20 44 -15 24 -25 31 -40 28 -11 -3 -14
-2 -8 1 22 10 15 36 -7 29 -14 -5 -20 -2 -20 10 0 9 -9 25 -19 37 l-20 20 6
-22 c4 -15 -15 1 -58 46 -197 214 -223 241 -311 320 -32 28 -60 49 -63 46 -3
-3 -5 -1 -5 5 0 6 -9 13 -21 16 -20 5 -20 5 -3 -21 17 -28 76 -103 104 -134
23 -26 119 -171 175 -265 27 -46 53 -83 58 -83 5 0 3 -8 -4 -17 -12 -14 -12
-16 2 -11 18 7 53 -27 44 -43 -4 -5 -2 -8 4 -7 19 6 59 -62 56 -95 -1 -18 3
-38 8 -45 8 -10 7 -16 -2 -21 -9 -6 -6 -10 11 -14 14 -4 24 -14 25 -27 1 -11
22 -50 47 -86 46 -64 63 -105 57 -134 -2 -11 3 -10 19 5 l21 19 -6 -29 c-5
-23 -4 -26 4 -15 9 13 11 13 11 -3 0 -10 6 -20 14 -23 8 -3 12 -12 10 -19 -3
-7 2 -25 12 -40 13 -20 19 -23 26 -13 7 9 8 6 5 -10 -4 -15 2 -28 20 -42 14
-11 21 -20 15 -20 -21 0 -112 102 -108 122 0 3 -3 10 -8 15 -5 5 -6 2 -1 -6
18 -31 -15 -3 -56 48 -24 30 -74 79 -109 109 -36 30 -92 78 -124 106 -33 28
-69 58 -80 66 -12 8 -34 27 -51 42 -16 15 -37 28 -45 28 -12 -1 -12 -3 3 -14
9 -7 17 -17 17 -21 0 -5 -10 0 -22 11 -36 32 -160 111 -250 160 -46 25 -105
59 -133 76 -248 153 -453 249 -624 293 -69 18 -197 51 -284 74 -93 24 -180 41
-210 40 -64 -1 -59 -3 138 -64 220 -68 358 -117 380 -135 6 -5 12 -9 15 -9 35
-8 50 -15 50 -22 0 -5 6 -9 13 -9 7 0 37 -16 66 -36 30 -20 102 -63 160 -96
130 -73 205 -120 209 -130 2 -5 10 -8 18 -8 8 0 14 -5 14 -11 0 -6 7 -8 17 -5
10 4 14 4 11 0 -12 -11 211 -172 362 -263 30 -18 85 -56 122 -84 60 -46 66
-54 61 -79 -6 -30 12 -39 34 -17 9 9 28 -1 77 -40 36 -29 66 -59 66 -66 0 -8
8 -16 17 -19 24 -8 93 -70 93 -84 0 -5 -15 -26 -32 -44 -40 -42 -71 -95 -63
-107 3 -5 0 -13 -6 -17 -8 -5 -9 -3 -4 6 6 9 4 11 -4 6 -7 -5 -10 -15 -7 -23
3 -8 2 -12 -3 -9 -4 3 -16 -3 -25 -13 -19 -21 -56 -122 -55 -148 1 -12 4 -10
9 7 8 23 8 22 7 -7 -1 -18 -2 -33 -3 -33 -1 0 -26 11 -56 25 -29 14 -71 25
-93 25 -35 0 -42 -4 -56 -32 -23 -47 -174 -122 -243 -121 -51 1 -58 6 -116 79
-15 20 1 24 33 7 26 -13 32 -13 41 -2 6 8 24 13 40 11 l29 -4 -34 44 c-18 24
-52 66 -75 93 -46 56 -94 141 -94 167 0 10 -4 18 -9 18 -4 0 -11 21 -14 48 -5
40 -2 53 21 85 14 21 33 44 41 50 9 7 22 22 29 35 16 29 1 29 -61 3 -44 -19
-81 -57 -71 -73 3 -4 -1 -6 -8 -3 -8 3 -23 -11 -38 -35 -13 -22 -30 -42 -37
-44 -7 -3 -13 -11 -13 -19 0 -21 -55 -47 -103 -47 -42 0 -45 -2 -51 -31 -3
-17 -6 -41 -6 -54 0 -42 -32 -57 -117 -58 -94 -1 -159 27 -169 72 -3 14 -10
36 -16 47 -15 31 -6 59 20 62 26 4 27 6 5 31 -24 28 -55 115 -43 119 15 5 12
32 -3 32 -8 0 -24 -11 -37 -25 -13 -14 -27 -25 -31 -25 -4 0 -54 -48 -111
-106 -118 -121 -134 -133 -151 -109 -11 14 -15 14 -32 2 -18 -14 -19 -27 -17
-223 2 -206 4 -215 36 -227 5 -2 10 -34 10 -71 1 -57 -2 -71 -18 -80 -10 -6
-37 -25 -60 -43 -23 -17 -119 -91 -214 -164 -97 -74 -177 -142 -183 -155 -4
-13 -11 -24 -13 -24 -3 0 -3 7 0 15 9 23 -28 19 -54 -5 -12 -12 -22 -25 -22
-31 0 -6 -4 -7 -10 -4 -5 3 -10 13 -10 22 0 9 -8 26 -19 37 -33 37 -35 63 -7
81 34 23 19 55 -25 55 -26 0 -32 -6 -49 -46 -11 -25 -20 -62 -20 -81 0 -36
-35 -146 -53 -171 -6 -8 -21 -11 -38 -7 -21 5 -31 1 -43 -17 -20 -28 -21 -72
-1 -88 8 -7 15 -16 15 -21 0 -4 -25 -37 -56 -71 -31 -35 -73 -88 -93 -118 -20
-30 -47 -66 -60 -79 -13 -14 -32 -44 -43 -68 -16 -36 -22 -42 -34 -32 -28 23
-44 -7 -44 -80 0 -64 -8 -93 -62 -225 -7 -17 -29 -63 -49 -103 -23 -45 -32
-74 -25 -76 11 -4 -100 -236 -156 -324 l-30 -47 -19 25 c-10 13 -22 34 -25 47
-3 12 -14 22 -23 22 -15 0 -17 -9 -13 -62 2 -35 9 -67 16 -73 19 -16 5 -51
-48 -116 -59 -72 -108 -100 -179 -100 -70 0 -150 -25 -189 -57 -18 -15 -66
-79 -107 -142 -64 -98 -166 -231 -234 -305 -45 -49 -124 -152 -134 -176 -29
-69 -25 -191 15 -389 11 -58 26 -145 32 -195 20 -168 51 -303 94 -418 41 -111
131 -282 145 -279 8 2 11 -3 8 -12 -5 -14 72 -115 127 -165 14 -14 26 -30 26
-38 0 -7 9 -13 21 -13 12 0 23 -8 26 -20 3 -11 9 -17 13 -15 5 3 27 -2 49 -11
38 -15 46 -15 116 1 41 9 81 22 88 28 37 35 76 46 195 53 108 6 122 5 128 -10
11 -28 32 -17 76 41 24 32 53 60 63 62 11 2 38 16 59 32 42 31 53 34 74 21 15
-10 48 -96 57 -152 7 -40 35 -68 55 -55 6 3 10 2 10 -3 0 -12 87 -67 132 -83
30 -10 47 -10 89 -1 29 7 54 10 57 7 3 -3 -2 -5 -11 -5 -18 0 -23 -15 -8 -24
5 -4 44 7 88 23 43 16 98 36 123 44 25 9 83 29 130 46 115 41 133 41 154 -6
10 -21 33 -56 52 -77 l34 -39 0 29 c0 16 4 45 9 64 22 86 22 90 4 90 -10 0 0
8 22 18 69 31 140 51 162 46 11 -3 24 -1 27 5 8 13 64 -18 71 -41 3 -9 26 -35
50 -57 56 -52 72 -104 56 -182 -18 -88 -42 -309 -35 -320 3 -5 1 -15 -4 -22
-11 -14 -24 -157 -14 -157 4 0 8 -134 8 -298 2 -294 2 -298 33 -442 50 -226
117 -487 141 -545 5 -11 12 -31 15 -45 10 -42 38 -100 47 -100 5 0 8 -6 6 -12
-1 -7 8 -35 20 -62 12 -27 22 -51 22 -55 0 -3 6 -18 14 -32 7 -15 22 -51 31
-80 10 -30 40 -94 68 -144 105 -190 325 -533 349 -543 5 -2 13 -12 18 -23 8
-15 7 -17 -5 -13 -21 8 -19 -18 2 -39 10 -9 58 -54 106 -99 49 -46 94 -92 100
-103 5 -11 16 -51 23 -88 16 -85 67 -249 101 -325 22 -51 59 -111 144 -240 16
-23 29 -50 29 -59 0 -9 3 -14 6 -10 7 6 40 -36 67 -83 8 -14 20 -51 27 -84 17
-84 84 -258 137 -354 l45 -83 -11 -63 c-16 -90 -14 -271 4 -329 16 -53 51
-122 77 -151 17 -19 69 -123 82 -164 5 -15 1 -30 -13 -48 -25 -32 -101 -224
-101 -256 0 -13 -5 -40 -10 -60 -14 -49 20 -368 55 -523 36 -157 126 -452 150
-490 8 -11 21 -46 30 -77 9 -32 20 -58 25 -58 4 0 10 -10 13 -22 4 -12 9 -19
13 -15 4 4 2 17 -4 30 -17 34 -43 108 -49 142 -6 29 -5 30 14 12 28 -25 53
-22 53 7 0 26 -59 199 -90 261 -23 48 -70 196 -70 223 0 10 -4 22 -9 27 -15
15 -36 158 -24 162 6 2 3 34 -9 91 -33 153 -35 166 -32 216 3 43 60 190 86
221 4 5 8 -16 8 -47 0 -30 7 -71 14 -90 8 -19 13 -50 11 -69 -19 -145 81 -479
203 -679 12 -19 29 -48 38 -65 l17 -30 -40 35 c-22 19 -38 38 -36 42 2 5 -1 8
-6 8 -6 0 -11 7 -11 15 0 8 -4 15 -9 15 -4 0 -2 -26 5 -57 7 -31 12 -59 10
-61 -16 -16 -189 314 -212 402 -3 14 -10 29 -15 32 -12 7 -12 5 11 -61 11 -32
20 -69 20 -82 0 -12 5 -23 10 -23 6 0 16 -12 22 -27 29 -71 77 -165 120 -238
69 -118 172 -274 181 -275 4 0 27 -31 52 -70 l45 -70 2000 0 c1136 0 2000 4
2000 9 0 5 11 9 25 9 14 0 25 -5 25 -10 0 -11 53 -6 84 7 14 6 17 5 12 -3 -5
-9 288 -12 1198 -12 l1206 0 0 3323 0 3322 -116 -7 c-104 -7 -136 -14 -322
-74 -123 -39 -246 -86 -303 -115 -63 -32 -103 -47 -114 -42 -13 4 -16 3 -11
-5 12 -20 0 -13 -36 21 -38 36 -52 63 -37 72 5 4 7 11 3 16 -3 5 -9 7 -14 4
-4 -3 -11 3 -14 13 -3 9 -12 27 -20 40 -11 20 -14 21 -20 7 -10 -27 -6 -59 9
-79 20 -26 19 -50 0 -42 -25 9 -48 -38 -42 -87 2 -23 8 -49 11 -58 5 -12 -13
-29 -73 -68 -44 -29 -91 -62 -103 -73 -13 -12 -41 -33 -63 -47 -51 -33 -107
-84 -265 -240 -125 -124 -125 -124 -275 -197 -188 -92 -302 -158 -440 -255
-247 -174 -254 -178 -275 -139 -6 11 -20 20 -31 20 -24 0 -49 -53 -49 -104 0
-32 -9 -43 -102 -123 -144 -123 -370 -345 -437 -427 -150 -185 -196 -244 -220
-281 -14 -22 -64 -89 -111 -149 -47 -59 -106 -134 -131 -167 -26 -33 -62 -77
-80 -98 -112 -124 -158 -183 -200 -253 -13 -21 -26 -38 -31 -38 -4 0 -8 -5 -8
-11 0 -5 4 -7 10 -4 17 11 11 -11 -8 -28 -22 -20 -49 -21 -77 -4 -26 16 -28
28 -10 71 17 40 19 60 4 34 -15 -26 -27 -22 -32 10 -3 19 -4 14 -6 -16 0 -26
-5 -41 -11 -37 -6 3 -7 -1 -4 -9 3 -9 1 -16 -5 -16 -6 0 -11 4 -11 10 0 5 -6
9 -12 7 -8 -1 -14 12 -16 36 -2 20 -7 37 -13 37 -5 0 -9 -4 -9 -10 0 -5 -4
-10 -10 -10 -5 0 -10 5 -10 10 0 6 -9 20 -20 32 -21 23 -26 53 -10 63 6 3 10
11 10 17 0 6 -11 1 -24 -11 l-23 -22 -52 53 c-51 54 -71 54 -26 0 28 -33 33
-57 10 -48 -16 6 -22 -28 -6 -38 5 -3 12 -32 15 -63 10 -86 41 -153 76 -165
25 -8 -22 -27 -154 -63 -157 -44 -349 -100 -406 -121 -25 -9 -101 -35 -170
-59 -69 -24 -168 -59 -220 -78 -52 -19 -133 -42 -179 -52 -79 -18 -89 -18
-195 -2 -61 9 -169 24 -241 32 -71 9 -161 24 -199 35 l-70 18 -36 -37 c-33
-34 -66 -58 -132 -96 -26 -14 -28 -14 -60 16 -32 29 -32 30 -5 18 15 -7 27
-16 27 -21 0 -4 7 -8 15 -8 22 0 19 8 -26 66 -22 29 -51 74 -63 101 -59 121
-86 184 -86 201 0 9 -13 40 -29 69 -28 51 -28 53 -16 110 26 115 88 279 104
276 14 -3 24 33 16 57 -5 15 3 30 30 57 27 27 33 38 23 44 -19 13 -34 11 -48
-6 -19 -23 -35 -18 -37 12 0 15 -9 32 -18 39 -9 7 -18 25 -19 41 -4 32 -32 44
-40 16 -2 -10 -4 -3 -3 16 1 21 -3 36 -11 39 -7 2 -13 -2 -11 -9 1 -8 1 -27 0
-44 -2 -29 -2 -29 -16 -11 -8 11 -15 27 -15 36 0 9 -7 25 -15 36 -15 18 -15
16 -9 -24 l6 -44 -88 60 c-49 33 -97 62 -106 65 -25 9 -22 -10 3 -24 34 -18
111 -79 100 -79 -5 0 -13 5 -16 10 -3 6 -11 10 -16 10 -6 0 -8 -4 -4 -10 3 -5
-6 -5 -24 1 -21 8 -35 7 -48 -1 -16 -10 -16 -10 4 -5 16 4 25 -1 38 -23 10
-15 30 -37 45 -47 16 -11 26 -23 24 -27 -3 -4 3 -9 13 -9 62 -5 73 -4 77 8 3
7 -3 17 -13 23 -21 11 -36 40 -21 40 6 0 10 -7 10 -15 0 -8 6 -12 14 -9 15 6
21 -6 31 -68 5 -24 11 -35 20 -32 9 4 11 -2 8 -19 -3 -14 0 -28 6 -31 15 -10
14 -22 -5 -41 -11 -10 -16 -33 -16 -66 0 -28 -9 -73 -19 -100 -11 -27 -28 -73
-39 -101 -11 -29 -20 -69 -20 -88 0 -19 -4 -40 -8 -47 -4 -6 -7 20 -6 58 0 76
-9 107 -20 63 -4 -16 -13 -32 -19 -36 -8 -5 -13 -45 -15 -110 -4 -155 -9 -164
-74 -139 -13 5 -51 17 -85 26 -50 14 -65 15 -77 6 -25 -21 -51 -3 -76 49 -13
27 -31 58 -41 68 -38 41 -111 228 -145 370 -16 65 -20 72 -42 72 -17 0 -23 4
-18 15 3 8 1 15 -4 15 -15 0 -129 111 -151 147 -16 26 -18 36 -9 53 6 11 15
20 20 20 6 0 10 9 10 20 0 11 -5 20 -11 20 -6 0 -4 7 5 15 8 8 23 26 34 40 25
31 51 25 44 -11 -3 -17 0 -24 12 -24 20 0 31 24 20 47 -9 23 -11 29 -13 48 -1
9 -12 15 -28 16 -26 0 -26 1 -7 9 33 13 37 28 12 36 -29 9 -49 34 -42 55 6 22
-20 31 -51 17 -27 -12 -32 -37 -13 -56 7 -7 8 -12 3 -12 -4 0 0 -9 10 -20 10
-11 14 -20 9 -20 -15 1 -49 30 -49 43 0 23 -35 18 -61 -8 -20 -20 -29 -24 -35
-14 -6 10 -13 10 -36 0 -26 -12 -29 -11 -73 37 -64 70 -71 80 -75 102 -2 11
-12 33 -23 48 -10 15 -33 52 -50 83 -30 53 -31 57 -15 79 9 12 17 38 19 57 3
33 1 35 -21 30 -39 -7 -15 14 54 48 33 17 61 33 61 37 0 9 -53 2 -77 -10 -10
-5 -35 -12 -56 -15 l-39 -6 24 23 c12 13 33 26 45 30 11 4 29 22 38 42 10 22
22 34 33 32 19 -3 26 21 12 42 -8 13 -14 10 -35 -17 -32 -40 -142 -116 -150
-103 -3 6 -15 10 -26 10 -13 0 -25 13 -36 38 -9 20 -63 132 -119 247 -56 116
-122 253 -147 305 -26 52 -60 140 -77 195 -18 55 -37 116 -45 135 -12 33 -21
87 -65 385 -20 135 -37 600 -24 663 5 26 9 30 21 21 11 -10 12 -8 6 6 -5 14
-3 17 9 12 10 -3 19 0 22 9 3 8 11 14 18 14 9 0 9 -3 2 -8 -18 -12 -44 -73
-44 -103 0 -49 25 -23 73 74 49 102 128 261 159 320 11 22 21 37 23 35 7 -6
-8 -58 -16 -58 -5 0 -9 -12 -9 -26 0 -24 -57 -148 -113 -244 -26 -44 -35 -80
-19 -80 4 1 38 64 77 141 38 76 81 152 95 167 15 16 24 37 22 50 -2 14 2 22
11 22 17 0 12 -46 -8 -70 -7 -8 -15 -25 -19 -37 -3 -13 -9 -33 -12 -45 -5 -18
0 -15 22 13 16 19 38 52 49 72 11 20 23 37 27 37 17 0 16 -21 -5 -61 -12 -24
-28 -59 -34 -78 -12 -32 -11 -32 6 -17 9 9 27 36 40 61 12 25 25 45 27 45 9 0
-8 -93 -22 -129 -20 -47 -17 -60 6 -31 14 19 20 21 23 10 9 -27 26 -154 32
-225 5 -64 21 -139 75 -355 10 -41 26 -102 34 -135 8 -33 22 -80 30 -104 9
-24 14 -47 11 -51 -3 -5 -1 -11 5 -15 5 -3 10 -22 10 -41 0 -19 4 -34 8 -34 5
0 15 -19 22 -42 7 -24 16 -52 20 -63 7 -18 20 -65 51 -200 14 -60 14 -97 0
-123 -7 -13 -10 -30 -7 -39 5 -13 0 -14 -29 -9 -32 6 -48 -5 -26 -18 27 -17
16 -90 -15 -109 -25 -14 -16 -30 14 -22 27 6 27 6 7 -12 -11 -10 -36 -24 -55
-31 -34 -11 -33 -11 19 -6 60 6 60 6 4 -57 -21 -23 -22 -27 -8 -39 8 -7 15 -9
15 -6 0 4 9 -2 20 -12 18 -17 19 -23 9 -46 -7 -14 -18 -26 -25 -26 -7 0 -18
-10 -25 -21 -10 -20 -9 -21 25 -17 41 5 45 -1 15 -20 -12 -7 -18 -16 -15 -19
3 -3 0 -15 -5 -26 -10 -18 -9 -19 12 -14 13 4 30 7 37 7 6 0 12 6 12 14 0 8 9
22 21 30 12 8 18 19 15 25 -4 5 -1 13 7 18 7 4 18 20 24 36 10 22 10 27 -1 27
-8 0 -16 10 -20 22 -4 17 1 28 19 43 16 14 22 24 15 31 -6 6 3 23 26 47 26 27
34 43 29 57 -12 39 3 19 51 -65 99 -173 140 -241 183 -305 78 -113 207 -283
263 -345 l55 -59 106 2 c132 4 208 -5 185 -22 -14 -10 -14 -16 -4 -41 7 -17
20 -36 29 -44 9 -7 14 -17 11 -22 -3 -5 2 -9 10 -9 10 0 16 -9 16 -21 0 -14 5
-19 14 -16 7 3 13 0 12 -6 0 -7 4 -13 9 -15 6 -2 16 -14 23 -28 7 -13 19 -24
27 -24 8 0 15 -7 15 -15 0 -8 5 -15 11 -15 6 0 8 7 5 16 -4 12 -2 15 9 11 19
-8 31 11 16 26 -23 23 -13 40 21 33 35 -7 68 -32 68 -53 0 -7 5 -13 10 -13 6
0 9 -5 8 -11 -2 -6 3 -14 10 -16 6 -3 12 0 12 6 0 6 5 11 11 11 6 0 8 -9 3
-22 -6 -23 -6 -23 13 -3 21 21 26 45 10 45 -6 0 -7 3 -4 7 4 3 1 13 -6 21 -13
17 -18 18 103 -14 36 -10 67 -21 68 -26 2 -4 8 -8 13 -8 6 0 7 4 4 10 -8 12
35 13 54 1 7 -5 10 -14 6 -21 -6 -9 -9 -9 -16 1 -4 7 -11 10 -15 6 -11 -10 16
-36 32 -30 8 3 14 0 14 -5 0 -14 -9 -19 -50 -27 -30 -5 -40 -2 -69 24 -19 17
-40 31 -47 31 -7 0 -18 2 -26 5 -8 3 -21 -13 -36 -45 -23 -52 -28 -95 -12
-105 6 -3 10 -26 10 -50 0 -24 -4 -47 -10 -50 -15 -9 -13 -75 3 -76 6 0 3 -4
-8 -9 -19 -8 -19 -9 2 -9 30 -1 69 15 95 38 11 11 34 23 49 26 16 4 42 20 58
36 16 16 34 29 40 29 6 0 8 7 5 15 -4 9 0 15 9 15 8 0 18 12 21 26 5 20 10 23
20 15 11 -9 18 -4 35 25 14 24 26 34 36 30 8 -3 22 -9 32 -13 12 -5 14 -3 8 7
-6 10 -4 12 9 7 10 -4 20 -7 22 -7 3 0 2 -5 -1 -10 -3 -6 8 -22 26 -37 56 -48
177 -253 204 -348 17 -56 47 -95 73 -95 8 0 49 11 91 24 109 35 302 93 329 99
27 6 27 5 2 -63 -22 -59 -26 -100 -10 -100 6 0 10 9 10 20 0 20 43 147 54 157
15 15 15 -7 0 -51 -24 -70 -10 -67 17 3 20 52 29 63 57 72 39 13 51 6 35 -21
-10 -14 -9 -19 1 -23 10 -4 16 5 20 27 5 28 13 35 45 44 21 7 52 12 69 12 16
0 74 9 128 20 55 11 138 23 187 25 74 4 87 2 87 -11 0 -11 -6 -14 -16 -10 -11
4 -14 1 -12 -12 2 -9 10 -17 18 -17 11 0 15 -11 13 -43 -1 -23 2 -42 8 -42 5
0 9 6 9 14 0 7 12 34 26 60 14 25 21 46 15 46 -7 0 -14 -7 -17 -15 -8 -20 -20
-19 -28 1 -3 9 5 37 19 62 14 26 45 90 68 142 24 52 65 121 91 153 26 32 61
84 78 115 17 32 47 82 68 112 20 30 55 87 77 125 55 94 197 261 362 425 286
284 325 316 805 650 59 41 156 109 214 151 59 42 127 86 152 99 25 13 74 53
110 90 36 37 101 100 145 141 44 41 125 116 180 167 91 85 232 186 390 281 46
28 69 35 98 33 43 -4 49 -19 10 -28 -94 -19 -88 -45 7 -37 73 7 89 -11 31 -34
-54 -21 -47 -38 17 -38 38 0 48 -3 40 -12 -5 -6 -24 -13 -41 -15 -22 -2 -33
-9 -35 -21 -4 -18 2 -18 82 -12 56 5 86 4 86 -3 0 -5 -17 -13 -37 -18 -21 -4
-41 -8 -45 -9 -5 -2 -12 -3 -18 -4 -17 -2 -11 -30 9 -41 42 -22 133 -40 152
-29 25 13 15 29 -19 29 -34 0 -67 19 -37 21 80 5 101 3 117 -13 10 -10 13 -20
8 -23 -6 -4 -10 -15 -10 -26 0 -19 42 -44 68 -40 7 1 15 -5 18 -13 9 -25 63
-31 80 -9 12 16 15 16 24 3 7 -11 10 -12 10 -2 0 10 4 10 16 -2 22 -23 25 -20
8 12 -7 15 -14 35 -14 44 0 9 -4 20 -10 23 -6 4 -5 13 2 25 9 14 9 22 -2 35
-8 10 -13 31 -11 47 2 20 -4 35 -16 44 -17 14 -17 15 5 30 32 23 27 34 -14 34
-30 0 -34 3 -25 14 6 7 9 20 5 29 -3 8 1 26 10 39 11 16 14 40 11 83 -7 96
-14 115 -38 115 -22 1 -22 1 -3 15 28 22 2 20 -69 -5 -32 -11 -61 -18 -63 -15
-3 3 -3 5 0 5 3 0 43 14 89 31 77 28 191 53 132 29 -24 -10 -33 -33 -9 -24 9
3 38 -22 77 -68 69 -81 106 -115 131 -124 9 -2 26 -20 37 -39 11 -19 31 -37
45 -41 15 -3 26 -12 26 -18 0 -7 18 -25 40 -42 22 -16 40 -34 40 -41 0 -15 86
-32 128 -26 20 3 32 1 32 -6 0 -6 17 -11 40 -11 36 0 40 3 40 25 0 18 5 25 19
25 11 0 22 9 26 20 8 25 -11 94 -30 110 -8 7 -15 18 -15 25 0 20 -51 106 -66
112 -8 3 -14 13 -14 23 0 15 -30 54 -103 135 -9 10 -30 25 -45 31 l-27 12 30
1 c17 0 57 -6 90 -15 33 -8 98 -17 144 -20 60 -3 91 -10 109 -23 25 -18 27
-18 86 1 34 11 79 22 101 24 22 3 52 10 68 16 l27 10 0 177 0 177 -59 38 c-33
21 -72 55 -87 76 -16 21 -44 43 -64 50 -19 7 -62 25 -95 40 -33 15 -76 31 -95
35 -19 4 -37 11 -40 15 -9 12 -201 100 -220 100 -9 0 -29 9 -43 20 -29 23 -98
49 -220 81 -102 28 -136 46 -165 90 -37 55 -132 148 -207 201 -38 27 -115 91
-169 141 -143 133 -183 160 -361 248 -88 43 -200 100 -250 126 -49 27 -113 58
-142 71 -67 30 -103 59 -103 82 0 24 -80 230 -113 292 -22 42 -24 52 -14 79 8
21 24 37 46 46 18 8 51 25 71 38 21 13 85 36 142 50 186 47 185 47 163 55 -17
6 -14 9 20 19 22 6 46 11 53 11 6 0 12 5 12 10 0 6 -6 10 -14 10 -7 0 -19 6
-25 14 -7 8 -42 26 -78 41 -103 41 -283 127 -283 135 0 4 32 27 71 50 48 29
115 87 214 186 80 79 139 144 132 144 -7 0 -23 -9 -37 -20 -14 -11 -33 -20
-42 -20 -9 0 -19 -4 -22 -9 -8 -13 -165 -54 -182 -47 -7 3 -16 1 -19 -5 -4 -5
-11 -7 -16 -4 -5 4 -9 1 -9 -5 0 -6 -5 -8 -10 -5 -6 4 -8 11 -5 16 4 5 -2 9
-12 9 -10 0 -24 -10 -32 -22 -13 -21 -13 -21 63 -15 43 4 87 12 99 19 12 7 30
11 39 9 10 -1 26 3 38 9 35 19 22 -4 -22 -38 -28 -22 -48 -30 -62 -26 -16 4
-18 3 -6 -5 17 -12 19 -10 -43 -39 -63 -29 -74 -27 -17 3 27 15 38 24 26 25
-12 0 -16 5 -12 15 7 19 4 19 -105 -5 -50 -11 -118 -21 -152 -23 -91 -3 -217
19 -242 43 -12 11 -28 20 -37 20 -11 0 -15 6 -11 20 7 25 37 26 131 6 37 -8
91 -17 120 -19 43 -3 52 -1 52 13 0 11 15 20 51 29 31 8 75 32 114 61 69 53
115 94 115 103 0 11 -174 30 -189 20 -9 -5 -33 -8 -54 -5 -34 4 -36 6 -20 18
16 12 13 13 -27 15 l-45 1 49 13 c121 34 278 27 349 -15 42 -25 124 -43 144
-31 12 6 1 16 -50 41 -67 33 -102 60 -77 60 7 0 -5 12 -26 26 -21 14 -55 40
-74 58 -55 51 -160 129 -225 169 -33 20 -65 45 -72 56 -11 17 -7 23 35 50 83
54 161 139 202 221 25 50 170 263 182 268 4 2 8 12 8 22 0 9 7 23 15 30 16 13
20 30 7 30 -5 0 -27 -16 -49 -35 -42 -36 -65 -47 -43 -20 26 31 3 29 -80 -9
-14 -6 -29 -17 -33 -23 -4 -7 -12 -13 -16 -13 -5 0 -40 -19 -77 -42 -38 -22
-103 -54 -144 -69 -41 -15 -103 -39 -138 -53 -35 -14 -84 -28 -109 -32 l-47
-7 68 64 c73 68 132 144 117 153 -8 6 -58 -13 -201 -74 -116 -49 -118 -49 -91
-12 36 51 141 129 306 227 44 26 89 59 100 73 30 39 113 179 149 252 41 82 86
156 153 246 29 40 53 74 53 77 0 13 -138 -76 -213 -136 -27 -23 -59 -39 -75
-40 -57 -2 -146 5 -132 10 8 3 52 28 97 55 110 66 122 84 33 53 -24 -9 -58
-13 -79 -9 -23 3 -57 -2 -95 -15 -33 -12 -61 -19 -63 -17 -10 9 19 46 85 108
69 65 202 154 307 205 30 15 55 31 55 35 0 12 -34 10 -47 -3 -14 -14 -330 -22
-406 -9 -32 5 -93 27 -139 51 -56 28 -97 42 -128 43 -28 1 -57 10 -75 24 -30
21 -137 44 -162 35 -25 -10 -13 21 52 132 36 62 65 118 65 125 0 6 9 23 20 37
37 48 19 70 -30 36 -38 -27 -203 -113 -207 -109 -3 2 16 46 40 97 24 52 47
107 51 123 4 15 15 40 26 55 15 21 21 57 30 190 6 90 13 168 16 173 3 5 7 44
9 86 4 66 32 215 52 270 6 15 4 15 -15 -2 -12 -11 -32 -24 -45 -30 -12 -7 -43
-43 -69 -81 -26 -38 -60 -83 -77 -99 -45 -46 -91 -99 -107 -120 -21 -30 -27
-13 -15 42 6 28 15 110 21 183 10 137 18 200 26 232 3 9 1 17 -5 17 -6 0 -11
-5 -11 -12 0 -6 -6 -19 -13 -27 -7 -9 -19 -34 -26 -56 -13 -42 -104 -228 -147
-305 -15 -25 -60 -106 -102 -180 -82 -143 -166 -247 -186 -231 -7 6 -13 29
-14 53 -7 120 -23 311 -32 373 -6 39 -17 133 -24 210 l-15 140 47 70 c25 38
54 86 64 105 16 31 39 49 120 97 11 6 38 27 60 47 l39 36 -30 0 c-16 0 -42 -7
-57 -15 -16 -8 -37 -15 -46 -15 -11 0 -15 -5 -12 -14 3 -8 1 -17 -5 -21 -6 -3
-11 -2 -11 4 0 6 -11 -1 -25 -14 -13 -14 -29 -25 -34 -25 -6 0 -13 -11 -17
-25 -3 -14 -10 -25 -14 -25 -5 0 -11 -13 -15 -29 -5 -23 -54 -81 -69 -81 -8 0
-26 59 -36 120 -21 139 -88 341 -125 379 -9 9 -24 31 -33 49 -66 127 -117 221
-133 241 -11 13 -19 29 -19 36 0 7 -36 49 -80 94 l-79 81 170 0 170 0 -22 -32
c-28 -41 -87 -115 -117 -148 -20 -23 -21 -26 -6 -37 14 -10 23 -5 58 40 22 29
43 54 46 57 3 3 24 31 48 63 23 31 47 57 52 57 6 0 10 35 10 79 0 63 4 87 21
116 12 20 24 34 26 31 3 -3 5 -49 4 -102 l-2 -98 -53 -65 c-30 -36 -83 -100
-120 -142 -56 -65 -63 -79 -51 -89 12 -10 19 -7 38 16 14 16 45 54 71 84 25
30 68 81 94 112 l47 58 217 0 217 0 -22 -23 c-12 -12 -67 -61 -122 -107 -55
-47 -120 -103 -145 -126 -25 -23 -73 -65 -106 -93 l-62 -51 -82 0 c-51 0 -79
-4 -75 -10 3 -5 44 -10 90 -10 l83 0 53 45 53 45 127 0 128 0 3 -42 3 -43 200
-3 c140 -2 209 1 229 10 23 9 31 9 34 0 3 -9 103 -12 407 -12 335 0 409 3 438
15 20 8 39 15 42 15 3 0 5 -7 5 -15 0 -13 29 -15 203 -15 l202 0 667 222 667
223 1 153 0 152 -35 0 c-40 0 -28 -35 -116 330 -62 258 -63 262 -44 277 11 8
32 17 48 20 l27 6 0 153 0 154 -405 0 c-223 0 -405 -4 -405 -8 0 -8 -193 -152
-204 -152 -3 0 -6 36 -6 80 0 69 -2 80 -17 81 -20 1 94 58 117 59 9 0 61 46
118 103 l102 102 0 426 0 425 -104 102 -103 102 -370 0 -369 0 -152 -152 -152
-153 0 55 0 55 -98 98 -97 97 -235 0 -236 0 -13 -32 -14 -33 -6 30 -6 30 -268
3 c-197 2 -267 -1 -267 -9 0 -7 -10 -32 -22 -57 l-23 -45 -5 54 -5 54 -540 0
-540 0 -3 -45 c-2 -25 -23 -201 -47 -391 -25 -191 -45 -383 -45 -428 0 -73 -2
-81 -19 -81 -16 0 -19 5 -15 33 29 209 68 617 71 750 l5 167 -312 0 -312 0 6
-177 c3 -98 8 -199 12 -225 6 -46 5 -48 -19 -48 -27 0 -27 3 -73 328 l-17 122
-306 -2 -306 -3 -3 -147 c-2 -116 1 -153 12 -170 29 -46 76 -180 76 -218 0
-37 -1 -39 -22 -31 -13 5 -22 14 -20 21 1 7 -32 92 -74 189 -128 293 -144 332
-144 347 0 12 -46 14 -290 14 l-290 0 0 -52 0 -53 -20 25 c-11 14 -25 37 -32
53 l-13 27 -622 0 c-394 0 -624 -4 -628 -10 -3 -5 -9 -32 -12 -60 -3 -27 -9
-50 -13 -50 -4 0 -36 27 -71 60 l-64 60 -362 0 -363 0 0 -154 0 -154 45 -22
45 -22 0 -299 0 -299 -45 0 -45 0 0 -155 c0 -132 2 -155 15 -155 13 0 285
-106 449 -175 l39 -16 -37 -38 c-20 -20 -36 -47 -36 -59 l0 -21 -32 22 c-44
30 -168 121 -246 179 l-63 48 -390 0 -389 0 0 -154 c0 -151 0 -154 23 -159 12
-4 30 -12 40 -19 17 -13 16 -19 -14 -139 -30 -123 -32 -127 -57 -125 -15 1
-32 4 -38 8 -5 4 -41 12 -80 19 -38 6 -73 17 -77 23 -6 8 -10 7 -14 -2 -4 -10
-8 -10 -21 0 -8 7 -18 12 -21 10 -3 -1 -7 423 -9 943 l-2 945 -565 0 -565 0 0
-1825z m528 1773 c6 -17 9 -34 6 -37 -3 -3 -73 -6 -155 -6 -82 0 -149 -3 -149
-7 0 -4 10 -13 23 -19 12 -7 39 -26 61 -43 l38 -31 -33 -5 -34 -5 38 -26 38
-27 -103 -54 c-57 -30 -129 -66 -160 -79 -32 -13 -58 -27 -58 -31 0 -8 56 -25
113 -34 42 -7 48 -18 15 -29 l-23 -8 25 -4 c24 -5 23 -6 -10 -21 -37 -16 -35
-17 43 -27 l48 -6 -63 -65 c-35 -36 -62 -71 -61 -78 2 -6 -18 -23 -45 -37
l-47 -24 108 -3 c59 -1 107 -6 107 -10 0 -8 -25 -107 -37 -147 -5 -18 -3 -17
22 5 l27 25 -13 -30 c-8 -16 -29 -57 -47 -89 -18 -32 -31 -61 -29 -63 3 -2 35
12 72 32 37 19 72 35 76 35 5 0 4 -12 -1 -26 -13 -32 -13 -54 0 -34 15 24 23
4 12 -32 -6 -18 -13 -52 -16 -76 -5 -40 -4 -42 14 -32 24 13 25 6 7 -46 -8
-22 -17 -52 -21 -69 l-7 -30 25 30 c24 29 23 24 -14 -90 -22 -66 -39 -123 -38
-127 2 -4 43 13 91 38 83 42 88 44 82 22 -4 -13 -14 -34 -22 -46 -16 -26 -10
-43 9 -24 30 30 38 0 13 -48 -17 -32 -14 -36 16 -20 24 14 24 13 -11 -100 -17
-51 -30 -98 -30 -102 0 -17 27 -6 112 47 48 30 93 55 98 55 6 0 6 -9 0 -26 -6
-14 -10 -30 -10 -35 0 -16 26 -10 54 12 31 24 34 17 6 -18 -11 -14 -20 -32
-20 -40 0 -12 -9 -14 -43 -9 -39 6 -45 4 -72 -24 -16 -17 -50 -37 -77 -45 -26
-7 -107 -39 -180 -69 -73 -30 -153 -58 -176 -62 -44 -7 -55 -20 -76 -86 -23
-75 -26 39 -26 1037 l0 1055 248 0 248 0 12 -32z m2266 -40 c3 -13 8 -54 11
-93 3 -38 12 -110 20 -160 8 -49 17 -121 20 -160 4 -38 14 -117 24 -175 l17
-105 17 90 c10 50 19 104 21 120 2 17 11 71 20 120 8 50 25 146 37 215 11 69
23 135 25 148 l4 22 590 0 590 0 0 -119 0 -120 -45 -3 -44 -3 75 -135 c145
-259 254 -486 254 -530 l0 -40 75 0 75 0 0 -115 0 -115 -335 0 -335 0 0 115 0
115 75 0 75 0 0 51 c0 47 -11 72 -125 280 -69 126 -125 233 -125 238 0 5 -6
16 -12 23 -7 8 -25 36 -39 64 l-26 49 -82 3 -81 3 0 -356 0 -355 45 0 45 0 0
-115 0 -115 -250 0 -250 0 0 115 0 115 35 0 35 0 0 235 c0 136 -4 235 -9 235
-5 0 -16 3 -24 6 -16 6 -28 -38 -42 -146 -3 -25 -12 -81 -20 -125 -8 -44 -17
-96 -20 -115 -3 -19 -13 -72 -22 -118 l-16 -82 -206 2 -205 3 -7 40 c-19 106
-52 290 -70 382 -10 56 -19 113 -19 127 0 21 -5 26 -25 26 l-25 0 0 -235 0
-235 35 0 35 0 0 -115 0 -115 -230 0 -230 0 0 115 0 115 45 0 45 0 0 355 0
355 -45 0 -45 0 0 120 0 120 330 0 330 0 4 -22z m2036 -98 l0 -120 -34 0 c-30
0 -37 -6 -60 -44 -14 -25 -26 -51 -26 -59 0 -9 -4 -17 -9 -19 -5 -1 -37 -57
-71 -123 -98 -188 -124 -235 -133 -232 -5 1 -43 70 -86 152 l-77 150 48 83
c26 46 48 87 48 90 0 4 -21 7 -47 7 l-48 0 -3 104 c-1 58 0 111 2 118 4 10 57
13 251 13 l245 0 0 -120z m790 0 l0 -120 -40 0 -40 0 0 -286 0 -285 -32 22
c-18 13 -38 28 -44 34 -37 34 -67 56 -96 71 -18 9 -40 23 -49 31 -9 7 -45 29
-80 48 l-64 34 0 163 0 163 -42 3 -43 3 0 120 0 119 265 0 265 0 0 -120z m710
0 l0 -120 -45 0 -45 0 0 -355 0 -355 45 0 45 0 0 -115 0 -115 -192 -1 c-106 0
-205 -2 -219 -4 -19 -2 -30 3 -42 23 -9 15 -32 44 -52 64 -31 33 -35 42 -35
92 l0 56 45 0 46 0 -3 91 -3 91 -105 1 -105 2 -3 158 -3 157 111 0 110 0 0
105 0 105 -45 0 -45 0 0 120 0 120 270 0 270 0 0 -120z m1138 -63 l2 -178
-152 3 -153 3 1 58 1 57 -124 0 -123 0 0 -100 0 -100 170 0 170 0 0 -135 0
-135 -170 0 -170 0 0 -120 0 -120 123 0 122 0 0 78 0 77 153 3 152 3 0 -196 0
-195 -499 0 -500 0 -3 105 c-2 58 -1 110 0 115 2 6 21 10 43 10 l39 0 0 355 0
355 -40 0 -40 0 0 120 0 120 498 -2 497 -3 3 -178z m589 -72 l-2 -255 168 0
167 0 0 135 0 134 -107 3 -108 3 -2 118 -2 117 207 0 207 0 88 -88 87 -87 0
-150 0 -149 -66 -67 -65 -66 58 -62 58 -63 5 -107 5 -106 28 -3 27 -3 0 -115
0 -114 -154 0 -155 0 -53 56 -53 56 -5 167 -5 166 -165 0 -164 0 -1 -108 0
-107 53 0 52 0 0 -115 0 -115 -280 0 -280 0 0 115 0 115 45 0 45 0 0 354 0
355 -42 3 -43 3 -3 118 -3 117 230 0 229 0 -1 -255z m1860 163 l93 -93 0 -405
0 -406 -89 -92 -88 -92 -359 0 -359 0 -92 92 -93 93 0 405 0 405 92 92 93 93
355 0 355 0 92 -92z m-6988 -21 c9 -13 9 -33 2 -75 -6 -31 -15 -92 -22 -134
-6 -43 -16 -78 -22 -78 -5 0 -7 8 -5 18 3 10 -3 67 -13 127 -10 61 -18 134
-19 163 l0 54 34 -29 c18 -15 38 -36 45 -46z m1980 -47 c13 -30 50 -117 83
-193 34 -75 59 -140 56 -143 -9 -9 -96 39 -92 50 2 7 -16 53 -41 104 -42 87
-45 99 -45 175 0 89 5 90 39 7z m3964 -848 c-17 -12 -18 -9 -21 43 -3 51 -5
55 -27 55 -25 0 -25 1 -25 100 l0 100 -55 53 -55 52 55 55 55 54 0 95 0 95 43
44 42 43 3 -388 c2 -361 1 -389 -15 -401z m-4646 702 c10 -14 29 -38 41 -55
13 -16 22 -35 19 -41 -2 -7 40 -101 94 -208 72 -144 110 -208 145 -245 45 -47
47 -50 25 -53 -37 -6 -61 28 -172 248 -57 113 -106 207 -109 210 -3 3 -12 19
-20 35 -8 17 -27 52 -42 78 -32 56 -33 57 -13 57 8 0 22 -12 32 -26z m1407 18
c3 -5 8 -34 11 -65 6 -53 5 -57 -14 -57 -20 0 -21 -5 -21 -194 0 -152 3 -200
15 -222 19 -37 19 -54 0 -54 -31 0 -35 39 -35 319 0 271 1 281 19 281 11 0 22
-4 25 -8z m866 -19 c0 -16 -7 -66 -15 -113 -9 -47 -25 -137 -37 -200 -52 -291
-61 -331 -72 -319 -16 16 -11 62 60 524 20 132 21 135 45 135 14 0 19 -7 19
-27z m1140 -288 l0 -315 -40 0 c-34 0 -42 -4 -55 -31 -9 -17 -19 -28 -22 -25
-3 3 -6 52 -7 108 l-1 103 -103 5 -103 5 54 90 c93 157 194 329 206 353 8 15
21 22 41 22 l30 0 0 -315z m700 220 l0 -96 -117 3 -118 3 -3 60 c-2 53 0 64
24 93 27 32 27 32 120 32 l94 0 0 -95z m-4495 -178 c6 -12 23 -42 37 -67 88
-159 128 -240 128 -263 0 -27 -1 -27 -70 -27 l-70 0 0 -70 c0 -83 3 -84 -107
9 -62 53 -77 61 -112 61 l-41 0 0 306 0 305 112 -116 c61 -64 117 -126 123
-138z m-2754 148 c18 6 19 -7 19 -359 0 -223 -4 -367 -10 -371 -6 -4 -6 -15 0
-31 6 -14 10 -56 10 -94 l0 -69 -32 -11 -33 -10 33 5 32 5 0 -130 c0 -148 6
-141 -89 -115 -66 17 -138 61 -230 140 -56 48 -79 76 -111 139 -22 43 -40 84
-40 91 0 7 -11 24 -25 39 -14 15 -25 38 -25 51 0 13 -3 31 -6 39 -4 12 -2 15
9 10 15 -6 16 -5 32 283 2 40 11 86 20 102 8 17 15 40 15 53 0 23 71 108 89
108 13 0 25 39 23 70 -2 23 -1 24 11 8 15 -19 43 -25 32 -8 -3 6 1 10 9 10 9
0 16 5 16 10 0 6 8 5 19 -2 16 -10 23 -9 39 5 10 9 24 17 31 17 7 0 9 5 5 13
-6 8 -3 8 9 -1 21 -18 40 -5 33 22 -4 18 -2 17 20 -7 32 -38 56 -30 48 15 l-5
33 17 -33 c12 -24 21 -31 35 -27z m3717 -31 c12 -13 22 -27 22 -32 0 -5 16
-22 36 -37 19 -15 61 -61 92 -104 31 -42 60 -77 64 -79 4 -2 8 -8 8 -14 0 -5
20 -35 44 -66 27 -35 47 -72 52 -97 9 -52 3 -46 -45 50 -22 44 -55 96 -72 115
-17 19 -40 52 -51 73 -11 22 -21 37 -24 35 -2 -3 31 -75 74 -161 75 -149 78
-157 55 -157 -22 0 -23 -2 -23 -92 0 -91 -1 -93 -52 -195 -28 -57 -55 -103
-58 -103 -11 0 -45 40 -137 161 -172 227 -216 284 -245 315 l-28 30 106 198
c90 170 103 200 92 214 -19 23 61 -25 90 -54z m2647 26 c4 -6 -7 -32 -23 -58
-16 -26 -51 -85 -78 -132 l-49 -85 -3 129 c-1 72 0 136 2 143 7 16 142 18 151
3z m-2202 -370 c11 0 241 -156 256 -173 7 -10 19 -17 25 -17 7 0 28 -16 47
-36 18 -20 46 -42 62 -50 15 -8 37 -30 50 -48 33 -50 102 -133 168 -204 33
-35 85 -98 116 -140 31 -42 59 -79 62 -82 4 -3 18 -21 33 -42 15 -20 35 -44
44 -53 22 -22 179 -261 221 -337 12 -22 39 -67 61 -101 21 -34 48 -76 58 -93
34 -57 100 -137 190 -234 49 -52 103 -110 119 -129 17 -19 73 -79 125 -133 52
-54 101 -109 109 -123 9 -14 19 -25 23 -25 5 0 8 -11 8 -24 0 -13 6 -29 13
-35 8 -6 22 -30 32 -53 10 -24 24 -50 30 -58 11 -15 48 -102 80 -192 10 -27
21 -48 25 -48 7 0 12 -12 39 -85 34 -90 77 -251 86 -323 5 -41 3 -58 -10 -78
-9 -15 -21 -22 -25 -18 -5 5 -26 61 -48 124 -63 182 -126 314 -209 443 -66
103 -93 72 -33 -37 15 -28 35 -76 45 -106 9 -30 21 -64 26 -75 27 -59 54 -155
61 -212 1 -7 5 -13 9 -13 11 0 17 -60 8 -94 -6 -28 -7 -26 -9 19 l-2 50 -12
-40 -12 -40 2 68 c1 37 -2 67 -7 67 -5 0 -10 19 -10 43 -2 39 -2 40 -9 12 -7
-28 -7 -27 -5 7 3 38 -8 59 -19 36 -4 -7 -4 4 -2 25 3 20 1 37 -5 37 -5 0 -9
-4 -9 -10 0 -5 -4 -10 -10 -10 -5 0 -10 7 -10 15 0 8 4 15 9 15 4 0 8 13 7 29
-1 22 -4 27 -16 21 -19 -10 -40 -2 -40 15 0 7 -5 15 -12 17 -8 3 -8 9 -1 22
12 23 -7 84 -33 103 -9 7 -14 16 -9 20 4 5 10 2 12 -4 3 -7 9 -13 14 -13 6 0
6 7 0 18 -5 9 -11 32 -14 50 -8 51 -17 51 -18 1 0 -39 -1 -41 -10 -19 -6 13
-13 27 -17 30 -23 17 -62 83 -62 104 0 14 -4 26 -9 26 -5 0 -13 10 -16 23 -4
12 -23 37 -43 55 -20 17 -33 32 -29 32 11 0 -16 65 -34 83 -21 20 -25 73 -6
81 6 3 0 3 -15 0 -22 -5 -30 -1 -46 25 -10 17 -22 28 -27 23 -5 -4 -5 -1 -1 5
4 8 -5 25 -24 43 -27 26 -34 41 -32 61 1 4 -8 5 -18 2 -18 -5 -20 0 -20 36 0
34 -3 41 -19 41 -14 0 -18 5 -14 20 7 27 -26 67 -39 48 -7 -10 -8 -9 -7 2 3
29 -1 40 -16 40 -8 0 -17 11 -21 25 -3 14 -9 25 -13 25 -6 0 -13 16 -42 90
-13 34 -13 34 -20 10 l-6 -25 -11 28 c-11 27 -32 37 -32 16 0 -8 -5 -8 -15 1
-8 7 -15 16 -15 21 0 4 -11 20 -25 35 -24 26 -25 26 -25 5 0 -11 4 -21 10 -21
5 0 14 -17 19 -38 6 -21 20 -48 31 -60 11 -11 20 -25 20 -31 0 -5 6 -12 13
-15 10 -5 10 -7 0 -12 -16 -7 -17 -84 -2 -84 14 0 69 -55 69 -69 0 -6 7 -11
15 -11 8 0 15 -6 15 -13 0 -7 9 -18 20 -25 11 -7 20 -18 20 -25 0 -6 16 -29
35 -50 19 -21 35 -47 35 -58 0 -10 5 -19 10 -19 6 0 10 -11 10 -25 0 -29 -25
-34 -34 -7 -3 9 -10 24 -15 32 -5 8 -14 27 -21 42 -7 14 -23 29 -36 32 -13 4
-24 13 -24 21 0 8 -7 15 -15 15 -8 0 -15 7 -15 15 0 11 -11 15 -40 15 -29 0
-40 -4 -40 -15 0 -9 9 -15 25 -15 14 0 25 -4 25 -9 0 -5 -11 -18 -25 -29 -14
-11 -25 -25 -25 -31 0 -6 -7 -11 -15 -11 -11 0 -15 11 -15 39 0 22 -5 41 -11
43 -6 2 -14 19 -18 38 -4 19 -12 34 -18 33 -6 -1 -9 6 -6 16 6 24 -31 38 -52
21 -18 -15 -10 -59 12 -77 9 -7 13 -19 9 -28 -7 -20 11 -58 25 -50 5 4 8 -17
7 -52 -1 -42 -2 -48 -5 -20 -5 46 -23 49 -24 5 l0 -33 -15 40 c-8 22 -16 61
-16 88 -1 26 -5 47 -10 47 -4 0 -8 9 -8 20 0 11 -4 20 -10 20 -15 0 -12 -47 3
-53 9 -4 8 -8 -3 -16 -10 -7 -11 -11 -2 -11 6 0 12 -4 12 -10 0 -5 -7 -7 -15
-4 -8 3 -17 0 -20 -8 -6 -14 20 -182 30 -198 3 -5 1 -19 -4 -32 -6 -16 -2
-114 10 -279 25 -313 37 -903 21 -998 -7 -36 -23 -138 -37 -226 -34 -207 -71
-322 -150 -470 -35 -66 -114 -220 -175 -342 -61 -123 -115 -223 -120 -223 -6
0 -10 2 -10 5 0 11 38 94 88 194 51 100 91 229 148 471 51 217 54 240 54 459
0 218 -12 451 -30 551 -43 255 -54 310 -62 310 -5 0 -7 4 -4 9 3 4 -2 35 -10
67 -9 33 -22 82 -29 109 -8 28 -22 82 -32 121 -10 39 -24 78 -30 86 -7 8 -10
17 -7 20 3 3 -4 32 -16 64 -11 33 -30 84 -40 114 -27 77 -65 152 -73 143 -4
-3 -7 1 -7 10 0 9 -20 55 -45 103 -25 47 -45 91 -45 98 0 7 -9 23 -19 35 -11
13 -17 29 -14 37 3 8 -1 14 -8 14 -17 0 -57 57 -73 103 -6 19 -19 42 -29 51
-9 10 -17 21 -17 26 0 5 -6 15 -12 22 -7 7 -33 54 -58 103 -25 50 -51 96 -57
103 -7 7 -13 22 -13 32 0 10 -4 21 -9 24 -5 3 -11 15 -14 26 -8 31 12 13 28
-26 15 -37 95 -138 204 -259 15 -16 49 -57 76 -90 79 -95 168 -183 198 -194
19 -8 27 -18 27 -35 0 -14 9 -33 19 -43 10 -10 23 -34 29 -54 10 -37 52 -90
52 -66 0 7 -11 51 -24 97 -13 47 -27 101 -31 120 -4 19 -16 53 -26 75 -21 46
-56 181 -62 240 -2 22 -8 49 -12 60 -4 11 -13 37 -21 58 -8 20 -14 49 -14 63
0 14 -5 34 -11 45 -5 11 -19 54 -30 96 -11 41 -31 108 -45 147 -14 39 -35 103
-46 141 -11 39 -37 111 -57 160 -21 50 -44 108 -51 130 -10 34 -40 96 -148
310 -18 34 -32 66 -51 110 -2 6 7 0 21 -12 13 -13 27 -23 31 -23z m1867 15 c0
-3 -16 -37 -35 -75 -35 -69 -36 -70 -75 -70 l-40 0 0 75 0 75 75 0 c41 0 75
-2 75 -5z m1220 -169 l0 -153 54 -59 c30 -32 53 -61 50 -65 -13 -22 -102 -69
-129 -69 -26 0 -37 -7 -56 -35 -20 -30 -87 -85 -103 -85 -3 0 -8 21 -12 48 -3
26 -10 55 -15 64 -7 13 0 22 36 45 l44 28 1 152 0 152 -52 3 -53 3 -3 49 c-5
77 -7 76 123 76 l115 0 0 -154z m-2512 72 l3 -48 -40 0 -41 0 0 -45 c0 -25 -2
-45 -5 -45 -3 0 -19 14 -35 30 -28 29 -35 42 -31 64 1 4 -3 23 -9 42 -6 18 -8
38 -5 44 4 7 37 10 83 8 l77 -3 3 -47z m-628 -90 c20 -32 110 -211 110 -220 0
-5 -49 -8 -110 -8 l-110 0 0 115 0 115 40 0 c22 0 40 5 40 10 0 17 15 11 30
-12z m-1401 -94 l71 -57 0 -56 c0 -54 2 -57 43 -86 l42 -30 -67 -3 c-63 -3
-70 -1 -120 35 -29 20 -56 42 -60 48 -4 5 -8 57 -8 114 0 84 3 102 14 98 8 -3
46 -31 85 -63z m913 -58 c26 -33 55 -71 65 -84 10 -13 23 -29 28 -35 6 -7 38
-48 72 -92 33 -44 68 -86 77 -94 12 -10 16 -31 16 -87 0 -41 -4 -74 -10 -74
-19 0 -79 93 -121 189 l-44 101 -51 0 c-47 0 -55 3 -88 40 l-36 40 1 108 0
107 22 -29 c12 -16 43 -56 69 -90z m4341 -104 c-10 -8 -44 -27 -75 -43 -50
-25 -68 -29 -143 -29 -47 0 -85 4 -85 8 0 5 23 19 50 32 l50 23 0 76 c0 72 1
77 27 93 l27 16 84 -81 c76 -75 81 -83 65 -95z m-6230 16 l162 -83 -85 -3
c-79 -3 -90 0 -155 31 -39 19 -80 37 -92 41 -19 6 -23 14 -23 52 0 33 4 44 15
44 9 0 89 -37 178 -82z m288 65 c1 -10 1 -34 1 -53 0 -34 3 -37 61 -65 l61
-30 -55 -3 c-30 -2 -58 -7 -63 -12 -5 -5 -16 -5 -25 0 -9 5 -77 39 -151 76
-188 94 -190 95 -190 100 0 2 81 4 180 4 164 0 180 -2 181 -17z m-453 -121
c34 -15 62 -29 62 -32 0 -3 -24 -28 -53 -57 l-52 -52 -130 53 c-72 29 -148 60
-169 70 -22 9 -50 19 -63 22 -13 4 -23 10 -23 16 0 6 72 9 183 8 172 -2 185
-3 245 -28z m1085 -22 l77 -49 0 -120 0 -119 -88 49 c-67 37 -109 70 -176 139
l-87 90 -74 0 c-56 0 -86 5 -120 22 -25 12 -45 25 -45 30 0 4 98 7 218 7 l219
0 76 -49z m863 29 c13 -13 24 -26 24 -31 0 -4 -138 -8 -308 -8 l-307 0 -28 25
c-15 14 -27 27 -27 29 0 2 140 5 311 5 309 2 312 2 335 -20z m1718 13 c3 -5 2
-18 -1 -30 -4 -17 -13 -22 -38 -22 l-32 0 -9 -132 c-12 -196 -12 -210 14 -242
l22 -29 0 34 c0 43 12 62 36 57 16 -3 19 -14 22 -81 2 -42 0 -77 -3 -77 -14 0
-112 117 -165 197 -32 48 -67 97 -79 107 -11 11 -21 24 -21 30 0 5 23 -12 50
-39 28 -27 50 -55 50 -62 0 -18 30 -63 41 -63 5 0 9 21 9 47 0 47 -1 49 -102
150 -72 73 -110 103 -126 103 -23 0 -64 38 -56 52 6 10 382 10 388 0z m1116 0
c0 -4 -23 -32 -50 -62 l-49 -55 -1 33 0 32 -445 0 -445 0 0 24 c0 13 6 27 13
29 19 8 977 7 977 -1z m673 2 c4 -4 -8 -18 -25 -31 -31 -23 -35 -23 -285 -23
-162 0 -253 4 -253 10 0 6 9 19 19 29 18 18 37 19 278 20 142 1 262 -1 266 -5z
m637 1 c0 -3 -18 -16 -40 -30 -39 -24 -46 -25 -167 -23 l-127 3 40 27 c37 26
45 27 167 27 70 1 127 -1 127 -4z m984 -3 c-5 -5 -33 -18 -63 -30 -51 -21 -70
-22 -332 -22 -152 0 -279 -3 -281 -7 -2 -5 -15 -19 -31 -32 l-27 -24 0 31 c0
28 6 35 45 54 25 12 45 26 45 30 0 4 147 8 327 8 180 0 323 -4 317 -8z m-7554
-184 c29 -124 168 -692 182 -745 6 -24 17 -43 24 -43 8 0 14 -5 14 -11 0 -7
-7 -8 -17 -4 -10 4 -36 13 -58 20 -22 7 -78 29 -125 49 -46 20 -90 36 -98 36
-7 0 -34 8 -60 19 -26 10 -94 33 -152 51 -58 18 -119 39 -137 46 -17 8 -37 14
-45 14 -20 0 -138 40 -180 61 -10 5 -27 9 -37 9 -37 0 -37 1 19 230 35 145 37
130 -20 130 l-50 0 0 115 0 115 359 0 359 0 22 -92z m860 -38 l0 -130 -55 0
-55 0 0 -335 0 -335 55 0 55 0 0 -125 0 -124 -57 -3 c-63 -3 -97 10 -200 78
-28 19 -56 34 -61 34 -6 0 -17 6 -24 13 -15 13 -38 27 -99 59 l-39 20 0 396 0
397 92 92 93 93 147 0 148 0 0 -130z m497 38 l93 -93 0 -127 0 -128 -180 0
-180 0 0 90 0 90 -55 0 c-30 0 -55 3 -55 8 -1 12 -1 226 -1 240 1 9 36 12 143
12 l143 0 92 -92z m1223 -23 l0 -115 -55 0 c-33 0 -55 -4 -55 -11 0 -6 18 -84
39 -172 22 -89 56 -229 76 -312 58 -242 52 -225 85 -225 l30 0 0 -115 0 -115
-245 0 -245 0 0 115 0 115 26 0 c25 0 25 2 19 47 -3 26 -8 50 -11 55 -3 4 -64
8 -135 8 -144 0 -142 1 -151 -76 -3 -26 0 -29 32 -34 l35 -5 0 -113 0 -112
-232 0 -232 0 -3 115 -3 115 32 0 c27 0 34 4 39 28 3 15 14 61 25 102 10 41
36 152 59 245 22 94 49 204 60 246 11 42 20 81 20 88 0 7 -20 11 -50 11 l-50
0 0 115 0 115 445 0 445 0 0 -115z m637 15 c58 -164 94 -302 82 -316 -6 -8 -9
-57 -7 -127 l3 -115 -38 34 c-20 19 -41 34 -46 34 -11 0 -157 190 -173 225 -6
14 -18 24 -26 23 -9 -2 -16 6 -17 20 -1 12 -9 28 -18 35 -8 6 -23 38 -32 70
-13 44 -21 57 -35 57 -16 0 -18 -5 -13 -30 4 -23 2 -30 -8 -28 -10 2 -13 -18
-12 -92 1 -77 0 -87 -7 -53 -5 23 -14 51 -20 63 -8 16 -8 21 3 26 16 6 12 44
-4 44 -5 0 -9 52 -9 115 l0 115 171 -2 172 -3 34 -95z m1903 -80 l0 -180 -155
0 -155 0 0 65 0 65 -120 0 -120 0 0 -105 0 -105 168 -2 167 -3 0 -130 0 -130
-168 -3 -168 -2 3 -118 3 -117 118 -3 117 -3 0 75 c0 55 4 75 14 79 8 3 78 6
155 6 l141 1 0 -195 0 -195 -211 0 -212 0 -111 113 c-61 61 -127 132 -147 157
-47 60 -169 239 -169 250 0 4 -15 30 -34 58 -38 54 -43 69 -32 93 4 8 5 73 4
145 l-3 129 -42 3 -43 3 0 115 0 114 500 0 500 0 0 -180z m812 40 c35 -269 58
-446 64 -507 3 -35 10 -63 14 -63 4 0 11 24 15 53 3 28 15 99 25 157 10 58 28
159 39 225 11 66 26 154 33 195 l13 75 323 3 322 2 0 -114 0 -115 -47 -3 -48
-3 0 -355 0 -355 48 -3 47 -3 0 -115 0 -114 -250 0 -250 0 0 115 0 115 30 0
c29 0 30 1 30 50 2 391 2 395 -18 398 -17 3 -21 -8 -35 -85 -9 -48 -19 -106
-22 -128 -4 -22 -17 -105 -31 -185 -13 -80 -24 -148 -24 -152 0 -5 -94 -8
-209 -8 l-209 0 -17 93 c-9 50 -26 142 -36 202 -32 181 -52 280 -56 288 -2 4
-13 2 -23 -3 -18 -10 -19 -23 -17 -238 l2 -227 33 -3 32 -3 0 -115 0 -114
-224 0 c-199 0 -225 2 -228 16 -2 9 -2 61 0 115 l3 99 40 0 39 0 0 360 0 360
-40 0 -40 0 0 115 0 115 327 -2 327 -3 18 -135z m1578 25 l0 -115 -55 0 -55 0
0 -355 0 -355 85 0 c74 0 85 2 85 18 0 9 50 221 112 470 l112 452 368 0 368 0
0 -115 0 -115 -55 0 c-31 0 -55 -4 -55 -10 0 -10 137 -575 160 -662 9 -33 15
-38 40 -38 l30 0 0 -120 0 -120 -250 0 -250 0 0 120 0 120 29 0 28 0 -10 50
-10 50 -132 0 -133 0 -6 -36 c-4 -19 -10 -42 -13 -50 -4 -10 4 -14 31 -14 l36
0 0 -120 0 -120 -525 0 -525 0 0 120 0 120 49 0 c42 0 49 3 55 23 8 29 8 635
0 665 -5 19 -13 22 -54 22 l-48 0 -1 115 -1 115 295 0 295 0 0 -115z m129
-345 c-59 -239 -109 -436 -109 -437 0 -2 -20 -3 -45 -3 l-45 0 0 315 0 315 55
0 55 0 0 54 0 54 97 71 c53 39 98 70 99 68 1 -1 -47 -198 -107 -437z m-7464
328 c44 -33 88 -65 97 -73 9 -7 28 -21 42 -30 l26 -17 0 -340 c0 -294 -2 -339
-14 -329 -8 7 -20 11 -28 10 -22 -5 -69 11 -63 21 3 5 -3 45 -14 87 -11 43
-38 155 -61 248 -22 94 -49 204 -60 245 -24 90 -60 246 -60 262 0 12 23 -3
135 -84z m6705 -12 l0 -103 -75 -62 -75 -62 0 50 0 51 45 0 45 0 0 95 c0 82 3
98 20 115 11 11 25 20 30 20 6 0 10 -41 10 -104z m-4150 -161 c51 -115 104
-232 117 -260 22 -45 42 -185 28 -185 -3 0 -61 113 -130 251 l-125 250 0 87
c0 47 4 82 8 77 5 -6 50 -104 102 -220z m-3929 29 c24 -8 62 -19 84 -22 l40
-8 2 -109 c2 -82 0 -105 -8 -89 -6 11 -32 31 -57 43 -26 13 -84 46 -129 74
l-82 51 -6 51 c-3 27 -9 63 -11 78 l-6 29 64 -41 c36 -22 85 -48 109 -57z
m2799 -64 l93 -101 -18 -79 c-10 -44 -21 -80 -24 -80 -3 0 -38 33 -78 72 l-73
72 0 108 c0 60 2 108 4 108 2 0 45 -45 96 -100z m1130 -207 c127 -251 169
-353 144 -353 -10 0 -23 24 -111 190 -31 58 -59 110 -63 115 -4 6 -29 51 -55
100 -26 50 -63 117 -81 151 -19 33 -34 64 -34 67 0 4 13 7 30 7 28 0 33 -9
170 -277z m2030 267 c0 -5 -9 -34 -21 -65 l-20 -55 -50 0 -49 0 0 65 0 65 70
0 c39 0 70 -4 70 -10z m520 1 c0 -10 -37 -79 -138 -261 -101 -181 -121 -212
-133 -205 -6 4 8 40 34 88 25 45 80 151 123 234 56 109 84 153 97 153 9 0 17
-4 17 -9z m-6605 -94 c25 -17 81 -51 123 -74 42 -24 70 -43 62 -43 -8 0 -25
-15 -37 -33 -65 -98 -117 -184 -125 -209 -6 -15 -13 -28 -17 -28 -9 0 -77 175
-96 246 -9 34 -12 81 -8 131 6 106 10 114 33 75 11 -18 40 -47 65 -65z m8315
-222 l0 -305 -49 0 c-39 0 -56 -5 -77 -25 -33 -31 -44 -32 -44 -2 0 19 -5 22
-42 22 l-43 0 -3 206 -2 206 122 101 c68 56 126 101 131 102 4 0 7 -137 7
-305z m-6136 233 c22 -18 48 -40 56 -49 8 -9 40 -36 70 -60 30 -24 57 -46 60
-49 3 -3 46 -38 96 -77 136 -108 135 -103 10 -103 l-106 0 0 -89 0 -90 -52 -3
c-36 -2 -52 -7 -50 -15 1 -7 -5 -13 -13 -13 -8 0 -15 7 -15 15 0 12 -13 15
-60 15 l-60 0 0 275 c0 194 3 275 11 275 6 0 30 -15 53 -32z m4446 -264 c0
-266 -1 -285 -17 -283 -42 4 -73 -2 -73 -13 -1 -7 -12 -26 -25 -43 l-25 -30 0
126 0 126 -39 -4 c-21 -3 -41 -1 -44 4 -3 4 20 51 50 103 30 52 72 127 93 165
51 94 74 135 78 135 1 0 2 -129 2 -286z m-170 219 c0 -9 -160 -316 -171 -327
-5 -6 -9 56 -9 162 l0 172 90 0 c50 0 90 -3 90 -7z m-2400 -320 c0 -2 21 -40
46 -85 41 -73 45 -83 30 -93 -9 -7 -16 -26 -16 -44 0 -41 -16 -39 -31 4 -11
30 -17 35 -45 35 -38 0 -37 -3 -84 195 -17 72 -37 155 -45 185 -30 115 -24
111 60 -39 47 -84 85 -156 85 -158z m-4220 258 c0 -11 5 -32 12 -48 6 -15 10
-36 9 -47 -2 -10 1 -16 6 -13 5 3 7 -9 5 -26 -2 -18 1 -58 6 -89 l9 -58 -60
-51 -59 -52 -35 37 c-19 20 -38 34 -41 31 -3 -3 11 -22 31 -43 l37 -38 -27
-26 -27 -27 33 -118 c18 -65 44 -146 57 -181 l23 -62 -242 2 -242 3 2 23 c2
15 -1 21 -8 16 -6 -3 -8 -15 -6 -26 3 -11 1 -18 -6 -15 -16 5 -58 154 -96 331
-17 82 -36 153 -43 157 -15 9 17 49 39 49 7 0 13 4 13 9 0 4 26 16 58 25 31 9
117 37 189 61 73 24 135 40 138 35 3 -5 3 -27 -1 -49 -7 -47 10 -57 26 -16 5
14 14 25 20 25 6 0 17 15 25 34 22 51 110 119 90 69 -36 -93 -75 -209 -71
-217 2 -6 6 -4 10 4 42 109 106 286 106 297 0 7 5 13 10 13 6 0 10 -9 10 -19z
m3042 -93 c87 -80 89 -83 83 -118 -13 -77 -51 -215 -60 -223 -5 -4 -22 -6 -37
-4 -26 3 -27 1 -31 -47 -2 -28 -4 18 -5 102 l-2 152 -62 0 c-57 0 -66 3 -98
33 -19 18 -57 50 -85 72 -27 22 -63 52 -79 67 -17 16 -33 28 -38 28 -4 0 -8 5
-8 10 0 6 62 10 166 10 l166 0 90 -82z m1391 -35 c3 -10 8 -31 12 -48 11 -51
95 -225 144 -299 14 -21 33 -51 41 -65 8 -15 27 -43 41 -62 15 -19 36 -51 48
-71 l21 -38 -205 0 -205 0 0 115 0 115 40 0 40 0 0 185 c0 108 4 185 9 185 5
0 12 -8 14 -17z m-4280 -161 c24 -42 25 -43 31 -18 3 14 25 56 48 94 l41 70
24 -28 c13 -15 23 -31 23 -35 0 -3 12 -31 26 -62 l27 -55 -21 -97 c-12 -53
-31 -152 -42 -221 -30 -186 -23 -170 -80 -170 -48 0 -49 1 -59 38 -20 70 -79
474 -88 597 l-3 50 24 -60 c13 -33 35 -79 49 -103z m2787 -109 l0 -128 -92
-92 -93 -93 -142 0 -143 0 0 125 0 125 55 0 55 0 0 95 0 95 180 0 180 0 0
-127z m3315 107 c7 -11 -43 -131 -60 -143 -5 -4 -26 -6 -45 -5 l-35 3 -3 64
c-2 35 -1 70 2 77 6 17 131 20 141 4z m3345 -309 l0 -118 -147 -56 c-653 -248
-975 -368 -979 -365 -2 2 58 28 134 57 75 30 238 93 362 142 421 165 511 199
520 199 6 0 10 46 10 110 l0 111 43 19 c23 11 45 20 50 20 4 0 7 -53 7 -119z
m-8891 39 c44 -36 141 -130 141 -136 0 -2 -54 -4 -120 -4 l-120 0 0 105 0 105
28 -18 c15 -9 47 -33 71 -52z m2899 17 l42 -43 0 -87 c0 -53 4 -87 10 -87 6 0
89 -73 185 -162 134 -124 175 -167 175 -186 0 -23 -2 -22 -52 19 -29 24 -64
55 -78 70 -14 14 -65 60 -115 101 -49 42 -119 102 -154 136 l-64 60 -2 111
c-1 61 1 111 5 111 3 0 25 -19 48 -43z m-3518 -8 c-18 -16 -24 -29 -21 -52 1
-18 6 -36 10 -42 4 -5 8 -24 9 -42 1 -17 11 -51 22 -75 l19 -43 -56 -3 c-31
-2 -62 -1 -69 2 -7 3 -23 36 -35 75 -27 82 -28 80 71 153 66 48 95 64 50 27z
m4190 -126 c0 -46 4 -83 9 -83 8 0 231 -323 231 -335 0 -3 -4 -5 -8 -5 -8 0
-32 31 -147 190 -37 52 -81 112 -97 132 -27 35 -28 42 -28 140 l0 103 20 -30
c16 -24 20 -47 20 -112z m-1282 9 c2 -79 5 -92 20 -93 9 0 31 -10 48 -22 190
-133 267 -181 275 -172 3 2 5 -13 5 -33 0 -20 8 -54 18 -75 10 -21 16 -40 13
-43 -3 -3 -8 3 -11 13 -5 16 -54 51 -125 90 -22 12 -141 86 -256 158 -27 17
-78 48 -112 69 -35 21 -63 40 -63 44 0 15 156 162 170 160 12 -3 16 -23 18
-96z m4632 11 c-14 -9 -56 -40 -95 -68 -38 -29 -159 -118 -268 -199 l-199
-146 -101 0 -102 0 30 28 c17 15 62 54 101 87 39 33 104 90 145 126 41 36 82
69 92 72 13 5 17 18 17 62 l0 55 202 0 c192 0 201 -1 178 -17z m100 -26 l0
-43 -281 -190 c-154 -104 -294 -197 -310 -207 l-29 -19 0 29 c0 25 16 40 136
128 74 55 153 114 174 130 21 17 82 62 136 100 53 39 109 80 123 92 39 34 51
29 51 -20z m1645 -67 c-3 -5 -10 -10 -15 -10 -10 0 -175 -64 -824 -320 l-180
-70 -363 2 -362 3 177 95 c97 52 244 130 325 173 82 42 172 91 200 107 l52 30
498 0 c330 0 496 -3 492 -10z m659 1 c-5 -5 -275 -97 -600 -205 l-591 -197
-149 3 -149 3 140 52 c187 70 818 310 875 333 39 15 76 18 264 19 126 1 216
-3 210 -8z m-7499 -88 c211 -116 273 -149 417 -224 190 -99 190 -98 96 -99
-75 0 -79 1 -230 75 -84 42 -172 88 -194 103 -51 33 -224 156 -243 173 -7 7
-31 20 -52 31 -22 10 -39 20 -39 21 0 2 26 0 58 -3 45 -5 84 -21 187 -77z
m313 33 c37 -24 81 -52 99 -62 63 -37 180 -109 290 -178 62 -39 121 -75 132
-81 12 -5 23 -15 25 -22 4 -10 -12 -13 -63 -13 -53 0 -78 5 -112 24 -24 13
-170 93 -324 178 -154 86 -298 165 -320 176 l-40 21 123 1 122 0 68 -44z m754
-12 c35 -30 119 -103 187 -162 69 -59 143 -124 165 -144 l41 -37 -155 -1 -155
0 -50 33 c-28 18 -87 58 -132 89 -62 43 -80 51 -73 35 10 -20 9 -20 -2 -3 -7
11 -26 33 -41 48 -22 22 -32 26 -42 18 -10 -8 -15 -6 -20 9 -3 11 -51 50 -105
86 -55 36 -102 70 -105 75 -4 6 75 10 209 10 l215 0 63 -56z m646 9 c18 -27
64 -91 102 -143 39 -52 88 -121 110 -152 l41 -58 -174 0 -175 0 -53 51 c-30
28 -117 110 -194 182 -77 71 -149 138 -160 148 -19 19 -14 19 225 19 l245 0
33 -47z m586 -63 c31 -61 54 -116 50 -122 -4 -6 -3 -8 4 -4 13 8 27 -48 16
-65 -4 -7 -3 -9 3 -6 10 6 17 -2 23 -28 1 -5 11 -27 22 -49 34 -67 68 -186 93
-331 34 -196 44 -248 50 -253 3 -3 5 5 5 18 0 13 3 20 7 16 19 -19 22 -782 3
-887 -12 -66 -41 -131 -84 -188 -30 -40 -32 -36 -41 69 -3 41 -10 109 -14 150
-5 41 -14 120 -21 175 -11 97 -34 165 -58 173 -7 2 -12 -5 -12 -15 0 -10 -7
-26 -15 -36 -7 -10 -19 -42 -26 -70 -16 -69 -58 -161 -121 -266 -71 -119 -158
-235 -168 -225 -15 16 -197 388 -204 418 -4 16 -47 110 -96 210 -68 140 -100
194 -140 236 -29 30 -77 89 -108 130 -31 41 -70 91 -87 111 -55 65 -70 85 -89
120 -36 65 -76 108 -94 103 -14 -5 -14 -4 -3 4 12 9 12 13 2 26 -7 9 -18 13
-24 9 -5 -3 -7 -1 -4 4 4 6 -1 17 -10 24 -14 12 -16 12 -8 0 6 -10 4 -12 -4
-7 -7 5 -10 14 -7 22 3 8 1 13 -5 11 -10 -2 -141 200 -173 268 -8 17 -25 46
-37 65 l-23 35 28 -27 c16 -16 31 -28 35 -28 3 0 12 -4 19 -9 12 -7 12 -12 1
-29 -19 -30 -3 -39 24 -14 l23 22 50 -35 49 -35 195 2 195 3 5 33 5 33 34 -35
35 -36 208 0 208 0 0 28 1 27 22 -27 23 -28 182 0 183 0 -12 21 c-7 15 -13 18
-18 10 -5 -8 -54 -11 -167 -9 l-159 3 -42 65 c-23 36 -47 72 -53 80 -5 8 -44
64 -85 125 -41 60 -75 113 -75 117 0 4 96 8 213 8 l214 0 57 -110z m3251 44
c-66 -37 -230 -127 -364 -200 l-245 -134 -159 0 c-157 0 -159 0 -136 19 13 10
145 100 294 200 l270 181 230 0 230 0 -120 -66z m-7665 -322 l0 -317 -545 0
-545 0 0 318 0 317 545 -1 545 0 0 -317z m2912 -32 l76 0 27 -72 c15 -40 39
-101 52 -136 14 -35 23 -66 20 -68 -2 -3 -38 20 -78 51 -79 59 -193 118 -274
142 -27 8 -57 21 -65 27 -8 7 -33 21 -55 32 l-40 19 110 6 c61 3 119 4 130 2
11 -1 54 -3 97 -3z m-2912 -445 l0 -145 -545 0 -545 0 0 145 0 145 545 0 545
0 0 -145z m6265 -368 c4 -28 11 -59 16 -68 4 -9 11 -72 15 -140 4 -68 8 -137
9 -154 2 -16 9 -107 16 -201 11 -152 10 -181 -5 -274 -10 -58 -19 -106 -20
-108 -2 -1 -6 62 -9 140 -20 443 -38 638 -73 770 -15 61 -15 62 7 79 13 10 27
16 30 13 4 -2 10 -28 14 -57z m525 -306 c-11 -35 -29 -79 -40 -99 -11 -21 -36
-93 -55 -162 -44 -153 -101 -304 -164 -430 -50 -101 -240 -400 -255 -400 -4 0
-6 6 -3 13 80 183 144 325 211 462 108 222 126 260 126 268 0 4 24 57 54 119
29 62 72 155 96 206 24 51 45 91 47 89 2 -2 -6 -32 -17 -66z m230 -23 c-10
-46 -21 -117 -25 -158 -5 -59 -14 -87 -41 -133 -19 -32 -34 -62 -34 -67 0 -5
-16 -29 -35 -54 -19 -26 -35 -53 -35 -61 0 -8 -4 -15 -8 -15 -5 0 -14 -11 -20
-25 -6 -14 -10 -25 -8 -25 9 0 101 127 128 175 19 35 28 44 28 29 0 -30 -62
-132 -132 -216 -10 -12 -18 -27 -18 -35 0 -7 -4 -13 -9 -13 -11 0 -36 -59 -28
-66 3 -3 12 7 21 23 26 47 18 6 -9 -47 -30 -60 -30 -60 -2 -54 12 2 49 9 82
15 33 6 84 23 113 39 28 15 52 24 52 18 0 -10 -44 -76 -98 -147 -18 -24 -45
-67 -58 -94 -14 -27 -34 -52 -45 -54 -11 -3 -18 -11 -16 -18 3 -6 -6 -20 -19
-30 -13 -10 -24 -24 -24 -31 0 -7 -9 -16 -20 -19 -11 -3 -20 -11 -20 -16 0 -5
-4 -9 -10 -9 -17 0 -85 -52 -83 -64 2 -6 -6 -17 -17 -24 -25 -15 -25 -12 -1
41 37 81 112 337 137 464 14 70 31 189 39 263 28 270 21 245 84 309 31 32 67
75 81 95 33 49 61 86 64 86 2 0 -5 -37 -14 -82z m-2551 -190 c1 -37 -7 -60
-40 -118 -23 -39 -39 -74 -35 -77 3 -3 9 3 12 13 4 10 18 32 31 47 13 16 23
35 23 43 0 8 5 14 11 14 11 0 2 -41 -11 -50 -19 -13 -105 -218 -96 -228 2 -2
25 38 51 90 58 115 65 123 65 73 0 -27 -11 -58 -33 -95 -35 -59 -71 -140 -64
-147 5 -4 42 55 51 83 4 11 15 30 25 44 19 24 19 24 1 -30 -18 -53 -18 -76 1
-65 5 4 9 -1 9 -10 0 -9 -7 -16 -17 -14 -34 3 -42 -1 -36 -17 3 -9 13 -14 24
-11 30 8 22 -2 -13 -17 -18 -8 -26 -15 -18 -15 8 -1 28 6 44 14 15 8 41 15 56
15 15 0 43 6 61 14 19 7 45 17 58 21 22 7 23 5 16 -27 -10 -43 -34 -90 -35
-65 0 9 -6 17 -14 17 -43 0 -111 -119 -128 -225 l-11 -70 -32 30 c-17 17 -60
68 -95 115 -35 47 -73 94 -84 105 -31 30 -96 121 -96 135 0 6 31 43 70 81 79
79 146 193 201 341 30 81 35 88 40 62 4 -16 7 -50 8 -76z m336 -814 c-17 -57
-91 -215 -207 -444 -98 -195 -184 -359 -189 -365 -13 -13 18 88 50 165 87 205
152 348 204 450 61 121 160 290 165 285 2 -2 -8 -43 -23 -91z m2310 -19 c88
-9 159 -26 255 -61 103 -37 230 -66 258 -59 14 3 22 1 22 -7 0 -9 2 -10 8 -2
7 12 72 30 72 20 0 -3 -15 -13 -32 -22 -44 -22 -107 -80 -136 -124 -31 -46
-125 -134 -165 -153 -32 -16 -53 -13 -27 3 9 6 10 10 3 10 -6 0 -18 -7 -27
-15 -15 -16 -36 -20 -36 -7 0 4 9 13 20 20 12 7 18 17 15 22 -4 6 1 7 11 3 11
-4 15 -2 11 4 -3 5 6 16 21 24 51 25 82 51 76 61 -4 6 -10 5 -15 -3 -8 -12
-10 -12 -18 0 -7 11 -15 11 -37 2 l-29 -11 28 4 c41 5 32 -16 -15 -38 -44 -21
-98 -63 -98 -78 0 -30 -104 -97 -177 -113 -18 -3 -33 -10 -33 -15 0 -9 -82
-52 -87 -46 -8 7 132 159 207 224 42 38 75 73 73 78 -2 6 15 19 37 29 36 16
38 19 22 31 -14 11 -14 14 -2 14 19 2 -59 38 -82 39 -10 1 -18 5 -18 10 0 12
-83 24 -152 22 -31 0 -60 4 -63 9 -3 6 -21 11 -38 11 -24 1 -26 3 -9 6 15 3
22 11 22 29 0 13 5 24 11 24 5 0 7 5 3 12 -4 6 1 17 11 25 17 12 13 13 -31 14
-45 2 -47 2 -14 8 38 7 51 7 155 -4z m-3875 -412 c0 -7 4 -13 8 -13 4 0 24
-25 45 -55 37 -55 40 -85 8 -85 -28 0 -30 -8 -14 -67 16 -61 11 -79 -13 -45
-8 12 -21 22 -27 22 -21 0 -77 103 -77 141 0 10 -5 19 -11 19 -6 0 -9 -6 -7
-12 3 -7 18 -56 33 -108 16 -52 40 -112 53 -134 19 -31 21 -40 10 -47 -7 -5
-16 -9 -19 -9 -12 0 -29 -50 -18 -50 6 0 9 -9 6 -20 -3 -11 -1 -20 4 -20 5 0
9 -7 9 -15 0 -10 -11 -15 -35 -15 -25 0 -35 -4 -35 -15 0 -9 7 -18 15 -21 8
-3 17 -26 21 -50 4 -29 11 -44 21 -44 10 0 13 -6 9 -16 -4 -9 -1 -23 5 -30 9
-11 6 -14 -15 -14 -31 0 -32 -5 -6 -64 10 -25 15 -46 10 -46 -5 0 -12 5 -15
10 -4 6 -10 8 -14 5 -5 -2 -6 7 -3 20 2 14 0 25 -6 25 -16 0 -20 -22 -10 -46
6 -13 6 -34 0 -58 -9 -30 -8 -38 4 -42 8 -2 21 -6 29 -9 17 -5 20 -24 5 -26
-5 -1 -14 -3 -20 -4 -5 -1 -13 -3 -16 -4 -14 -3 20 -31 37 -31 17 0 17 -1 1
-30 -9 -16 -25 -30 -34 -30 -9 0 -23 -3 -32 -6 -13 -5 -14 -8 -1 -20 8 -8 18
-14 22 -13 33 6 57 -14 45 -37 -15 -30 -42 -117 -42 -137 0 -11 -7 -44 -16
-74 -13 -45 -31 -70 -100 -143 -46 -49 -84 -93 -84 -98 0 -5 -17 -28 -39 -51
l-38 -41 -15 22 c-8 13 -27 46 -41 73 -27 55 -80 115 -100 115 -7 0 -21 14
-30 30 -16 26 -16 30 -3 30 18 0 21 22 6 49 -10 20 9 78 63 192 15 31 27 61
27 66 0 6 6 16 14 22 8 7 18 25 21 41 3 16 13 34 21 41 8 6 14 19 14 28 0 9 7
30 16 46 8 17 19 48 24 70 11 50 32 108 46 126 6 8 23 50 38 94 14 44 36 100
49 125 19 39 26 45 50 43 15 -1 27 3 27 8 0 6 7 6 19 0 16 -9 18 -7 16 28 -1
21 -5 44 -10 51 -6 9 -3 10 14 1 29 -16 19 8 -14 32 l-25 18 6 -31 c4 -19 2
-30 -5 -30 -6 0 -11 9 -11 20 0 21 -15 27 -25 10 -3 -5 -15 -10 -27 -10 -18 0
-19 -2 -7 -17 12 -15 12 -16 -7 -11 -17 4 -20 1 -17 -16 3 -12 -8 -40 -26 -66
-17 -25 -31 -49 -31 -54 0 -5 -10 -30 -22 -55 l-23 -46 -3 33 c-2 20 3 41 11
50 27 32 30 59 6 75 -17 13 -20 21 -14 44 4 15 9 38 10 50 10 75 20 114 41
159 13 28 24 58 24 67 0 12 9 17 29 17 17 0 33 5 36 10 3 6 -3 10 -14 10 -12
0 -21 5 -21 11 0 6 6 9 14 6 8 -3 20 1 26 9 11 13 7 18 -12 15 -5 0 -8 5 -8
12 0 7 9 13 20 13 14 0 20 -7 20 -21 0 -24 30 -129 35 -123 5 5 -30 172 -39
187 -9 13 11 71 25 71 4 0 11 10 15 22 6 20 11 17 60 -38 29 -32 53 -65 54
-71z m3732 75 c-25 -25 -11 -29 24 -8 25 16 39 19 46 12 7 -7 -2 -17 -31 -32
-23 -11 -68 -38 -99 -58 -31 -20 -60 -37 -64 -37 -10 0 -32 -24 -27 -29 2 -3
30 6 62 18 68 28 74 15 14 -29 -24 -18 -42 -39 -42 -50 0 -13 -23 -31 -83 -61
-45 -23 -82 -41 -82 -40 0 2 9 14 21 27 47 54 74 92 74 103 0 6 22 43 48 83
35 52 58 77 90 92 47 23 67 27 49 9z m-5413 -91 c6 -7 16 -36 24 -64 7 -31 22
-59 37 -71 25 -20 23 -41 -2 -26 -7 5 -23 7 -35 6 -11 -2 -24 2 -28 7 -10 17
-45 13 -45 -4 0 -9 8 -18 18 -21 9 -3 26 -9 37 -14 19 -7 18 -8 -7 -18 -14 -6
-29 -16 -33 -21 -3 -6 -33 -29 -66 -51 -60 -42 -92 -85 -89 -123 3 -36 1 -40
-16 -26 -11 9 -18 9 -22 2 -5 -8 -13 -7 -27 3 -16 12 -20 29 -23 89 -4 64 -2
74 11 69 10 -3 18 2 22 15 9 28 -3 61 -21 61 -11 0 -10 5 6 22 l20 22 -21 22
-21 23 21 22 c14 15 21 18 21 9 0 -11 3 -11 12 -2 19 19 56 14 63 -8 9 -27 23
-25 31 5 8 31 20 32 27 4 3 -12 10 -18 16 -15 6 4 8 13 4 21 -3 8 0 15 6 15 6
0 11 6 11 14 0 8 9 18 20 21 11 3 20 11 20 16 0 13 16 11 29 -4z m6234 -3 c7
-7 -90 -98 -142 -134 -20 -13 -45 -32 -56 -42 -25 -24 -172 -98 -193 -98 -9 0
-30 -9 -46 -19 -20 -13 -39 -18 -58 -14 -15 3 -65 -4 -110 -15 -95 -24 -228
-38 -228 -25 0 5 41 29 92 53 50 25 125 66 165 93 40 26 75 47 78 47 3 0 23
12 45 26 24 16 48 24 60 21 11 -3 23 -1 26 5 13 21 95 66 113 61 10 -2 34 4
53 15 24 14 54 20 97 20 34 0 65 3 68 6 8 8 28 8 36 0z m-5658 -24 c16 0 40
-28 31 -37 -3 -4 -13 2 -20 13 -18 24 -37 8 -26 -21 10 -27 62 -55 67 -37 3 6
9 12 15 12 13 0 47 -41 48 -57 0 -6 9 -19 21 -27 22 -15 18 -36 -5 -36 -8 0
-21 -16 -30 -35 -17 -35 -31 -49 -20 -20 4 8 3 15 -2 15 -9 0 -84 -50 -84 -56
0 -8 46 2 52 11 5 6 14 3 25 -8 16 -15 16 -19 3 -27 -8 -6 -25 -8 -36 -5 -13
3 -27 -2 -35 -11 -14 -17 -89 -58 -89 -49 0 4 5 15 11 26 9 19 9 19 -10 10
-28 -16 -36 -32 -20 -42 12 -8 11 -11 -3 -20 -10 -5 -18 -17 -18 -26 0 -13 2
-13 16 -2 32 26 80 37 100 22 26 -19 48 -16 73 11 20 21 26 23 57 13 44 -14
43 -25 -3 -32 -81 -13 -153 -68 -221 -170 -22 -33 -49 -71 -61 -84 -12 -13
-21 -29 -21 -36 0 -13 -78 -138 -103 -166 -8 -9 -28 -45 -45 -79 l-29 -62 -7
63 -7 62 71 71 c93 94 120 146 83 160 -12 5 -14 9 -5 18 16 16 15 28 -3 28
-21 0 -31 30 -14 40 22 14 1 24 -29 14 -17 -6 -27 -17 -27 -29 0 -11 -3 -25
-8 -32 -7 -11 9 -28 28 -28 6 0 11 -10 13 -22 2 -13 8 -23 13 -23 6 0 -14 -27
-43 -60 -29 -33 -61 -60 -70 -60 -10 0 -19 -10 -22 -22 -5 -30 -24 -244 -24
-283 0 -63 -36 -184 -82 -276 -26 -52 -52 -111 -58 -129 -18 -51 -24 -30 -13
46 22 153 42 626 28 641 -4 3 -8 22 -8 42 -1 23 -3 28 -6 14 -2 -13 -11 -23
-19 -23 -8 0 -14 -9 -14 -21 0 -11 -6 -27 -14 -34 -8 -8 -20 -69 -31 -152 -24
-195 -30 -208 -39 -78 -12 202 -23 241 -47 178 -10 -27 -11 -27 -21 -8 -6 11
-17 25 -25 32 -12 9 -12 19 -4 50 6 21 11 50 11 66 0 15 5 27 10 27 6 0 10 7
10 16 0 9 10 27 23 40 43 45 55 60 86 110 17 28 31 59 31 68 0 10 5 14 10 11
6 -3 10 1 10 9 0 21 -21 31 -31 15 -7 -11 -9 -11 -9 2 0 9 7 19 15 23 8 3 15
1 15 -4 0 -6 5 -10 11 -10 8 0 7 5 -1 15 -21 26 -53 13 -78 -30 l-24 -40 6 63
c4 42 13 73 26 90 55 72 90 123 90 131 0 5 23 23 50 40 28 17 50 35 50 41 0 5
16 10 35 10 55 0 135 -20 135 -34 0 -7 15 -25 32 -40 29 -24 31 -29 20 -47
-12 -19 -11 -20 10 -14 l23 7 -20 -23 c-25 -30 -48 -70 -43 -75 2 -2 21 10 41
27 43 36 47 31 12 -15 -30 -39 -31 -46 -7 -46 9 0 23 13 30 29 17 38 109 108
147 113 23 2 31 9 33 28 l4 24 12 -23 13 -23 26 32 c15 17 36 33 48 35 31 6
33 11 13 34 l-18 20 -31 -23 c-41 -32 -53 -33 -97 -11 -36 18 -68 15 -68 -6 0
-9 4 -9 14 0 8 7 16 8 19 4 3 -5 -5 -13 -18 -19 -21 -10 -24 -9 -30 15 -21 75
-12 131 20 131 17 0 20 -16 5 -25 -7 -4 -7 -13 0 -26 13 -23 30 -16 30 12 0
11 9 29 20 41 10 12 17 25 14 30 -3 4 -2 13 2 20 6 9 9 9 12 0 2 -7 9 -12 17
-12z m699 -423 c0 -9 -1 -37 -2 -61 -2 -44 -4 -46 -99 -125 -54 -43 -120 -105
-147 -136 -26 -31 -50 -54 -53 -51 -6 6 -19 -11 -101 -129 -101 -144 -201
-375 -242 -555 -7 -30 -18 -75 -25 -100 -10 -30 -10 -47 -3 -51 7 -4 7 -9 -1
-13 -6 -4 -11 -16 -11 -27 0 -14 4 -18 13 -13 8 5 8 2 -2 -9 -7 -9 -19 -17
-27 -17 -10 0 -11 6 -2 31 16 46 2 46 -22 -1 -11 -22 -27 -43 -35 -47 -8 -3
-15 -10 -15 -17 0 -6 -13 -18 -29 -27 l-29 -17 -5 32 c-3 17 1 92 9 166 7 74
14 162 14 196 0 114 53 266 127 372 16 21 44 61 63 88 65 93 276 306 385 391
73 57 216 143 230 139 6 -1 10 -10 9 -19z m4600 -28 c-3 -5 -22 -18 -43 -29
-82 -41 -222 -183 -259 -260 -9 -19 -18 -39 -20 -44 -7 -13 94 0 171 23 37 11
67 16 67 12 0 -13 -90 -51 -123 -51 -17 0 -61 -9 -95 -20 -76 -24 -82 -24 -82
-5 0 8 -7 15 -15 15 -17 0 1 22 83 103 53 52 65 77 37 77 -31 0 -13 21 58 66
39 26 74 50 77 54 3 4 17 10 33 14 15 3 27 12 27 18 0 9 -3 9 -12 0 -7 -7 -17
-12 -22 -12 -6 0 2 11 18 24 18 14 38 21 49 18 12 -3 18 -1 14 5 -4 6 3 8 18
5 14 -2 22 -8 19 -13z m-3880 -48 c25 -28 31 -71 9 -71 -20 0 -93 -68 -93 -87
0 -7 -4 -13 -10 -13 -5 0 -10 -9 -10 -19 0 -10 -7 -21 -15 -25 -17 -6 -18 5
-9 54 5 23 9 28 16 18 7 -9 7 -7 2 7 -4 11 -8 40 -8 64 -1 41 2 46 39 67 49
28 57 29 79 5z m4534 -60 c-1 -5 -66 -75 -143 -156 -119 -125 -175 -174 -200
-176 -8 0 -115 -48 -265 -119 -176 -83 -223 -100 -256 -91 -22 5 -12 13 75 56
94 48 113 65 70 65 -10 0 -19 4 -19 8 0 4 -33 5 -72 1 -40 -4 -74 -6 -76 -4
-3 3 33 27 80 53 45 25 225 92 378 141 160 50 213 77 330 161 100 73 104 75
98 61z m-4305 -68 c9 -27 18 -70 22 -98 3 -27 14 -74 22 -102 13 -40 14 -58 6
-75 -6 -13 -19 -45 -30 -71 -10 -27 -22 -48 -27 -47 -8 1 -57 -72 -57 -85 0
-2 -13 -26 -29 -52 -29 -46 -56 -100 -102 -206 -30 -66 -42 -47 -43 66 0 50
-1 82 -3 70 -2 -13 -8 -23 -13 -23 -10 0 -9 6 17 145 7 38 11 71 10 73 -5 4
-23 -46 -36 -97 -10 -39 -12 -41 -25 -25 -12 16 -18 17 -44 7 -34 -12 -38 -8
-17 16 8 9 17 31 21 49 7 32 6 33 -14 23 -32 -18 -27 10 9 44 28 27 29 30 13
47 -9 10 -22 18 -30 18 -17 0 -16 10 2 34 18 24 19 53 3 59 -10 3 -10 10 2 33
8 16 18 31 22 34 4 3 3 12 -2 20 -7 11 -11 11 -24 1 -10 -8 -16 -9 -16 -3 0
12 90 102 102 102 4 0 8 -5 8 -11 0 -8 15 -10 44 -7 25 3 48 2 53 -3 11 -11
53 18 53 36 0 15 34 30 49 21 5 -4 12 7 16 24 9 43 21 37 38 -17z m-1160 -146
c-41 -47 -75 -121 -71 -154 7 -59 73 -17 198 124 30 34 57 60 59 57 3 -3 1 -8
-4 -12 -6 -4 -26 -27 -46 -52 -20 -25 -64 -73 -97 -107 -34 -35 -72 -84 -85
-110 -13 -26 -38 -75 -55 -109 -17 -34 -38 -90 -47 -125 -9 -35 -21 -80 -26
-99 -5 -19 -25 -55 -44 -79 -41 -51 -46 -44 -10 14 28 46 32 63 9 44 -14 -11
-16 -10 -12 11 2 21 -1 24 -18 22 -12 -2 -24 4 -27 13 -8 20 -44 19 -55 -1 -6
-10 -12 -13 -16 -6 -7 11 35 135 64 192 10 19 27 53 36 75 41 92 101 174 201
277 67 69 100 87 46 25z m1812 -144 c5 -10 7 -29 6 -42 -2 -14 1 -21 8 -17 6
4 11 13 11 21 0 17 20 24 51 18 l25 -5 -33 -34 c-18 -20 -33 -40 -33 -45 0 -5
-4 -9 -10 -9 -5 0 -10 6 -10 14 0 23 -19 29 -27 9 -4 -10 -15 -27 -25 -37 -10
-11 -18 -28 -18 -39 0 -10 -9 -21 -20 -24 -11 -3 -20 -8 -20 -12 0 -4 -8 -16
-18 -27 -11 -11 -22 -26 -25 -34 -4 -12 -6 -12 -6 2 -1 9 10 29 23 45 13 15
27 39 31 53 12 37 15 90 5 90 -13 0 -31 -36 -22 -44 3 -4 0 -4 -9 -1 -20 8
-59 -63 -49 -90 4 -11 3 -28 -2 -39 -7 -13 -6 -21 2 -26 9 -6 9 -9 0 -15 -6
-4 -17 -2 -23 4 -15 15 -27 14 -27 -1 0 -7 -6 -24 -13 -38 -8 -14 -12 -38 -10
-53 2 -15 -1 -35 -6 -45 -9 -15 -10 -14 -11 6 0 14 -4 21 -11 16 -6 -3 -8 -17
-5 -30 5 -17 2 -26 -9 -30 -23 -9 -19 -37 5 -31 13 3 20 0 20 -9 0 -17 45 -36
74 -32 40 6 45 -20 16 -77 -15 -29 -37 -63 -49 -76 -13 -14 -21 -34 -20 -49 4
-38 -18 -94 -83 -212 -32 -59 -58 -112 -58 -119 0 -18 -112 -119 -132 -119
-11 0 -18 -7 -18 -18 0 -31 -45 -135 -103 -238 -65 -118 -67 -125 -68 -252
l-1 -99 -28 10 c-34 13 -40 30 -40 122 1 46 6 77 15 89 8 11 15 30 15 42 0 13
7 29 15 37 8 8 12 17 9 19 -8 9 86 217 116 255 11 14 19 40 19 61 0 20 8 73
19 117 11 44 20 108 20 142 1 42 7 74 21 102 12 22 21 58 21 81 0 22 4 48 10
58 5 9 19 45 30 79 11 34 33 82 49 105 67 100 111 171 111 179 0 13 -24 11
-38 -3 -7 -7 -12 -9 -12 -5 0 10 38 47 48 47 4 0 15 13 24 28 9 15 28 39 41
53 13 13 37 42 53 64 35 48 45 62 60 78 6 7 9 18 6 25 -2 6 1 12 7 12 6 0 11
-5 11 -11 0 -8 5 -8 15 1 8 7 15 9 15 6 0 -4 8 -2 18 3 25 15 39 13 47 -6z
m-3622 -155 c27 -13 35 -32 17 -43 -21 -13 -8 -20 36 -22 26 -1 54 -9 64 -18
20 -18 54 -10 46 11 -6 15 3 18 28 8 11 -4 16 -19 16 -45 0 -21 6 -41 14 -46
7 -4 18 -26 24 -48 l10 -40 1 34 c1 43 31 111 48 111 23 0 33 -38 33 -122 0
-73 -5 -96 -36 -174 -20 -49 -40 -93 -46 -99 -6 -7 -8 25 -4 95 6 111 4 108
-31 -35 -20 -86 -38 -115 -70 -115 -27 0 -83 37 -83 55 0 7 -11 24 -25 39 -14
15 -25 31 -25 37 0 5 -7 9 -16 9 -11 0 -13 6 -9 19 6 19 -22 91 -36 91 -4 0
-14 35 -23 78 -9 42 -21 94 -27 115 -12 46 -3 62 41 71 31 6 42 26 15 26 -8 0
-15 5 -15 10 0 14 20 13 53 -2z m6707 -91 c8 -3 41 -8 73 -11 32 -2 68 -11 80
-19 12 -8 38 -18 57 -22 37 -8 100 -41 164 -87 21 -15 44 -28 51 -28 7 0 20
-10 31 -22 l19 -21 -35 7 c-19 4 -53 10 -75 12 -22 3 -51 8 -65 12 -21 5 -17
7 20 11 l45 6 -50 17 c-64 21 -143 31 -222 29 -33 -1 -107 3 -164 9 -72 8
-104 8 -109 1 -4 -7 -24 -9 -53 -5 -26 4 -44 10 -41 15 2 4 11 6 19 2 9 -3 15
1 15 10 0 8 29 28 68 46 37 17 74 35 82 39 15 9 64 8 90 -1z m-4115 -144 c-8
-32 4 -71 16 -52 14 23 17 6 8 -51 -27 -173 -18 -374 23 -495 30 -89 29 -154
-2 -185 -21 -21 -37 -58 -45 -102 -3 -21 -10 -38 -15 -38 -6 0 -10 -7 -10 -15
0 -8 -4 -15 -10 -15 -5 0 -10 -17 -10 -39 0 -21 -7 -52 -15 -67 -8 -16 -12
-38 -9 -49 3 -12 2 -15 -3 -8 -5 7 -9 -18 -9 -57 0 -57 2 -67 15 -62 14 5 14
4 1 -11 -14 -15 -16 -15 -32 3 -11 14 -18 16 -21 8 -2 -7 -8 -10 -12 -5 -5 4
-3 13 3 19 7 7 12 28 12 48 0 20 4 61 10 91 5 30 12 70 14 89 21 167 25 209
20 241 -4 21 1 65 10 102 12 47 14 72 6 91 -16 43 -45 30 -55 -26 -4 -21 -20
-52 -36 -70 -16 -18 -34 -47 -39 -65 -13 -38 -27 -35 -58 11 -20 29 -22 37
-10 55 10 16 10 27 1 51 -7 20 -8 32 -1 36 6 4 7 22 4 43 -4 20 -8 49 -10 64
-2 16 -7 44 -10 62 -4 19 -2 36 4 40 5 3 10 19 10 34 0 16 14 60 31 97 17 38
37 84 45 103 12 27 18 32 25 20 8 -12 12 -11 25 6 8 11 20 39 26 63 11 45 34
60 26 17 -3 -14 -2 -28 2 -30 7 -5 7 -15 -5 -166 -10 -115 5 -145 28 -57 35
132 40 165 38 237 -2 53 1 71 9 66 7 -4 9 -17 5 -32z m-2821 -18 c-4 -9 0 -15
10 -15 20 0 22 7 -18 -72 -18 -37 -37 -64 -41 -60 -5 4 -5 -2 0 -13 10 -27 7
-78 -6 -86 -6 -3 -9 -10 -8 -15 2 -5 -10 -15 -26 -23 -57 -26 -73 -48 -73
-103 0 -27 -5 -55 -11 -61 -15 -15 -14 -24 5 -31 8 -3 22 1 30 9 9 8 22 15 29
15 20 0 30 -21 15 -30 -18 -11 -3 -30 25 -30 28 0 65 47 65 83 0 14 11 38 24
54 12 15 27 42 33 58 15 46 37 38 43 -15 4 -35 10 -46 25 -49 42 -7 46 -45 9
-101 -38 -57 -47 -107 -24 -130 29 -29 39 -53 29 -71 -4 -9 -42 -37 -83 -63
-42 -26 -103 -77 -141 -118 l-66 -71 -47 12 c-56 15 -184 38 -264 47 -34 4
-58 12 -58 19 0 6 8 29 19 51 10 21 33 98 51 169 35 136 60 193 135 310 25 39
52 84 61 100 17 32 41 54 89 86 20 12 24 19 13 19 -9 0 -30 -11 -46 -25 -36
-30 -42 -31 -35 -6 2 10 15 24 27 30 12 7 27 24 34 39 20 45 105 96 169 101 7
1 10 -6 7 -14z m2078 -62 c8 -10 24 -34 34 -53 10 -19 23 -38 27 -41 5 -4 14
-17 21 -30 7 -13 18 -23 24 -22 6 2 9 -3 6 -10 -2 -7 5 -25 16 -40 11 -14 42
-68 69 -119 46 -89 49 -98 60 -215 13 -148 14 -170 2 -157 -7 7 -40 82 -104
237 -6 15 -15 27 -20 27 -12 0 -1 -70 23 -150 11 -35 18 -65 16 -67 -9 -9 -87
130 -105 187 -35 113 -73 215 -83 225 -6 6 -8 -17 -4 -68 7 -104 -9 -97 -68
32 -27 58 -16 144 31 243 20 42 33 47 55 21z m4845 -79 c56 -26 96 -37 143
-41 79 -5 150 -22 168 -40 7 -7 33 -13 58 -13 24 0 44 -3 44 -8 0 -10 -136
-59 -185 -65 -22 -3 -66 -10 -98 -16 -32 -6 -68 -6 -80 -2 -16 6 -5 10 47 16
110 11 117 17 64 48 -47 27 -140 39 -169 22 -12 -7 -12 -6 -1 7 9 11 10 18 2
23 -21 13 -9 24 20 19 19 -4 30 -2 30 5 0 6 -3 11 -7 11 -10 0 -130 69 -121
70 4 0 42 -16 85 -36z m-3006 -271 c-14 -28 -52 -164 -56 -205 -2 -21 -14 -56
-26 -79 -19 -37 -20 -47 -9 -80 7 -20 10 -43 7 -50 -4 -10 -6 -8 -6 4 -1 10
-6 27 -12 38 -10 20 -11 19 -30 -5 -11 -14 -19 -28 -19 -32 1 -4 -4 -10 -10
-14 -9 -6 -9 -13 -1 -28 8 -15 7 -23 -3 -31 -17 -14 -101 -30 -129 -24 -17 4
-19 2 -8 -5 12 -9 10 -12 -12 -17 -15 -4 -24 -11 -21 -16 3 -5 -1 -11 -8 -13
-7 -2 -52 -16 -100 -31 -59 -18 -97 -25 -118 -20 -35 8 -37 23 -12 75 14 29
27 38 72 53 50 17 62 28 133 115 42 54 96 118 120 143 23 25 53 59 67 77 14
17 37 34 52 38 16 3 31 11 35 19 5 7 26 33 48 59 41 46 63 60 46 29z m-2380
-45 c-15 -29 -38 -80 -51 -113 -13 -33 -43 -102 -67 -153 -24 -50 -43 -98 -43
-106 0 -7 -6 -19 -13 -25 -11 -8 -16 -5 -25 15 -7 14 -17 22 -22 19 -15 -9
-12 -55 3 -53 9 2 11 -12 9 -52 -3 -55 -12 -95 -52 -225 -29 -96 -41 -159 -43
-230 -1 -33 -5 -62 -8 -65 -11 -9 -20 -92 -9 -85 6 4 10 -5 10 -20 0 -14 -7
-28 -15 -32 -13 -4 -15 -19 -10 -82 4 -42 13 -111 21 -154 19 -96 21 -140 6
-145 -21 -7 -13 -32 13 -42 23 -9 25 -14 19 -45 -4 -22 -2 -35 4 -35 15 0 55
-120 132 -392 18 -65 38 -201 23 -160 -4 10 -8 10 -19 1 -11 -9 -14 -8 -14 6
0 25 -48 85 -63 79 -8 -3 -23 19 -42 61 -15 36 -33 68 -38 72 -5 3 -4 -4 2
-15 14 -26 14 -55 1 -47 -5 3 -21 45 -36 93 -14 48 -38 125 -54 172 -54 159
-64 207 -87 405 -12 107 -9 402 6 470 35 168 95 394 114 430 11 22 22 50 23
62 1 13 16 50 33 83 41 79 39 87 -4 23 -19 -29 -35 -55 -35 -58 0 -7 -60 -138
-66 -144 -11 -12 -15 11 -4 24 9 10 9 15 1 15 -10 0 8 41 58 127 30 54 71 103
83 100 9 -2 35 32 54 72 4 7 27 31 51 53 23 23 43 46 43 52 0 11 17 25 84 73
49 35 56 27 27 -29z m865 -78 c4 1 13 -15 20 -36 7 -20 24 -48 38 -63 18 -19
26 -38 26 -63 0 -20 4 -39 9 -42 12 -8 33 -130 25 -150 -8 -21 -24 -20 -24 2
-1 9 -7 28 -16 42 -14 24 -14 24 -8 -15 4 -22 11 -50 15 -63 11 -29 11 -32 1
-32 -10 0 -27 45 -53 146 -11 43 -25 81 -30 84 -9 6 -49 187 -49 219 1 13 5
11 20 -7 10 -13 22 -22 26 -22z m4394 -217 l45 -24 -40 6 c-36 6 -38 5 -23 -8
10 -8 50 -17 89 -21 39 -3 83 -13 99 -21 42 -22 119 -17 105 6 -3 5 4 11 17
14 90 20 118 25 160 25 58 0 148 -18 148 -31 0 -5 19 -9 43 -9 23 0 67 -9 97
-19 l55 -19 -40 -7 c-78 -13 -197 -46 -243 -66 -26 -12 -56 -25 -67 -29 -11
-5 -45 -19 -75 -33 -96 -43 -133 -55 -198 -67 -94 -17 -85 -6 11 14 101 22
122 32 84 41 -15 4 -34 5 -42 2 -19 -8 -31 13 -14 24 11 7 9 9 -6 9 -31 1 135
76 231 106 47 14 84 27 82 29 -7 7 -151 -26 -196 -44 -67 -28 -192 -44 -273
-36 -60 6 -72 11 -104 42 -26 25 -35 42 -33 61 2 21 -1 27 -17 27 -11 0 -25
-3 -31 -7 -6 -4 -21 3 -34 17 -15 15 -18 25 -10 25 7 0 19 -8 27 -17 14 -17
14 -17 9 0 -4 11 -1 17 7 15 6 -1 25 1 41 6 24 6 27 9 15 17 -26 19 33 -2 81
-28z m-4771 -126 c1 -24 -4 -40 -13 -43 -26 -10 -1 -145 44 -235 27 -54 27
-57 9 -62 -25 -7 -25 -47 1 -80 14 -18 19 -34 14 -51 -4 -18 1 -38 16 -63 30
-51 36 -109 12 -122 -14 -8 -19 -24 -20 -73 -1 -35 -7 -75 -13 -91 -9 -20 -9
-31 1 -42 9 -11 10 -49 5 -152 -6 -116 -10 -141 -26 -156 -11 -10 -19 -31 -19
-47 0 -36 -39 -87 -52 -68 -6 10 -11 9 -22 -4 -7 -10 -16 -18 -20 -18 -9 0 0
200 9 208 3 3 5 -8 5 -24 1 -27 2 -27 12 -9 13 23 -1 137 -31 257 -11 41 -22
98 -25 127 -3 29 -9 57 -12 62 -3 5 -7 39 -9 77 -2 37 -7 93 -13 125 -5 32 -8
100 -8 150 l2 92 68 140 c41 83 64 141 57 143 -8 3 -8 10 1 25 l12 22 7 -25
c4 -14 7 -42 8 -63z m2105 -133 c-43 -45 -69 -64 -79 -60 -11 4 -51 -29 -130
-104 -62 -61 -119 -110 -126 -110 -7 0 7 21 33 48 89 92 203 244 192 255 -3 3
21 10 53 17 32 6 63 13 68 15 6 2 20 4 32 4 17 1 9 -11 -43 -65z m-234 -16
c-44 -53 -230 -237 -290 -288 l-65 -55 62 75 c59 73 103 143 103 166 0 6 11
23 24 37 14 15 29 34 34 43 8 14 89 40 134 43 16 1 16 -1 -2 -21z m-4162 -118
c12 -11 26 -20 32 -20 13 0 13 -13 -1 -27 -7 -7 -3 -19 15 -40 l26 -30 -28
-51 c-23 -42 -30 -48 -43 -39 -18 13 -44 110 -34 126 3 6 1 27 -4 47 -15 56
-1 69 37 34z m-89 -346 c15 -94 18 -144 10 -144 -4 0 -12 -44 -19 -98 -10 -86
-10 -110 5 -183 10 -46 19 -100 22 -119 5 -43 -9 -112 -23 -117 -6 -2 -24 25
-39 59 -16 35 -34 68 -40 73 -27 23 -93 338 -94 448 -1 61 1 67 19 67 13 0 24
-10 30 -25 9 -25 48 -73 51 -64 1 2 3 52 4 110 1 59 6 112 9 118 14 22 53 -55
65 -125z m355 54 c30 -32 66 -86 66 -101 0 -19 60 -107 72 -107 4 0 8 -7 8
-16 0 -8 5 -12 10 -9 6 3 10 5 11 3 0 -2 4 -37 8 -79 5 -42 18 -96 29 -120 16
-35 22 -72 27 -172 l6 -127 -27 -10 c-28 -11 -63 -47 -64 -66 0 -7 -12 -14
-26 -17 -23 -4 -28 1 -46 42 -35 81 -41 96 -44 109 -5 24 -14 26 -14 3 0 -26
-27 -81 -39 -81 -5 0 -12 -12 -16 -27 -3 -14 -15 -38 -26 -51 -10 -14 -19 -31
-19 -38 0 -7 -9 -28 -20 -46 -11 -18 -20 -26 -20 -18 0 11 -3 11 -12 2 -7 -7
-15 -12 -20 -12 -5 0 -5 304 1 452 1 19 18 44 56 82 58 57 64 75 43 132 -11
30 -16 33 -57 36 -34 2 -47 7 -49 20 -5 28 27 128 44 135 20 8 54 -25 54 -53
0 -34 19 -39 30 -8 9 24 15 104 10 129 -6 27 4 32 24 13z m5458 -119 c2 -103
2 -105 -31 -153 -19 -27 -41 -57 -50 -67 -9 -9 -24 -29 -34 -43 -10 -14 -31
-33 -47 -41 -29 -15 -30 -15 -30 5 0 11 7 23 15 26 8 4 15 17 15 30 0 16 4 22
14 18 15 -6 32 29 21 46 -7 12 10 117 32 187 13 45 17 50 30 38 18 -19 36 -3
47 39 12 46 16 25 18 -85z m1140 52 c36 -16 79 -32 96 -36 40 -8 41 -20 7
-175 -14 -63 -29 -135 -35 -160 -13 -66 -37 -128 -59 -156 l-20 -25 -6 43 c-3
24 -5 59 -4 78 3 34 -6 112 -37 324 -18 121 -17 109 -15 124 1 16 -1 16 73
-17z m-7283 -47 c24 -27 45 -64 51 -88 24 -97 103 -280 140 -321 10 -11 23
-45 30 -75 7 -30 19 -71 26 -90 l14 -35 -5 35 -6 35 16 -30 c21 -39 22 -40 12
-42 -14 -3 -36 -37 -37 -56 0 -17 -1 -17 -16 -3 -18 19 -26 20 -42 4 -14 -14
-42 6 -42 29 0 11 -7 13 -26 9 -19 -5 -33 -2 -48 13 -11 10 -44 35 -73 54 -47
32 -54 34 -72 20 -24 -17 -23 -22 -28 87 -9 182 -3 333 16 368 6 11 11 32 11
45 0 45 12 87 25 87 7 0 32 -21 54 -46z m3151 -25 c0 -6 -9 -22 -20 -36 -11
-14 -17 -30 -14 -35 4 -6 -6 -21 -22 -34 -43 -35 -8 -30 52 7 27 17 67 45 88
62 29 23 54 33 93 37 57 7 68 1 58 -29 -4 -12 -12 -17 -24 -14 -10 3 -22 0
-25 -6 -4 -6 -17 -11 -29 -11 -25 0 -87 -57 -87 -81 0 -9 7 -22 15 -29 13 -11
13 -14 -1 -27 -22 -22 -10 -27 19 -8 21 13 25 13 30 2 6 -16 -50 -37 -98 -37
-15 0 -39 -9 -55 -20 -44 -31 -80 -43 -80 -25 0 13 -4 13 -27 -2 -16 -9 -38
-25 -50 -36 -11 -10 -29 -17 -40 -15 -15 3 -18 14 -19 68 -2 79 21 186 44 208
42 42 65 56 100 62 57 12 92 11 92 -1z m457 -27 c29 -4 32 -7 27 -28 -6 -23
-4 -24 40 -24 43 0 46 -2 36 -19 -5 -11 -20 -23 -32 -27 -34 -10 -79 -44 -73
-55 4 -5 22 -9 42 -9 l35 0 -6 -42 c-4 -24 -20 -83 -36 -133 -28 -88 -29 -90
-59 -88 -16 2 -33 -2 -36 -7 -3 -6 -15 -10 -25 -10 -29 0 -33 -34 -10 -77 11
-21 20 -47 20 -58 0 -12 5 -26 11 -32 7 -7 6 -22 -5 -49 -19 -53 -26 -73 -25
-80 0 -4 -4 -10 -9 -13 -13 -9 -53 -89 -67 -136 -12 -39 -14 -40 -58 -39 -66
0 -89 20 -115 101 l-23 70 27 59 c38 84 74 203 63 209 -5 3 -3 14 3 25 7 10
15 17 19 14 4 -2 11 6 14 18 4 13 19 48 32 78 14 30 32 76 39 102 8 26 19 50
24 53 6 3 10 15 10 25 0 31 31 100 45 100 7 0 16 19 20 46 5 38 9 44 23 38 9
-4 32 -9 49 -12z m3364 -148 c14 -13 29 -24 35 -24 5 0 38 -32 73 -71 79 -87
157 -232 143 -263 -5 -12 -53 -68 -105 -126 -53 -58 -115 -126 -138 -152 -23
-27 -48 -48 -56 -48 -8 0 -12 3 -10 8 3 4 -17 18 -44 31 -55 28 -79 67 -77
125 1 21 -4 41 -10 45 -6 3 -14 27 -18 51 -4 25 -12 52 -20 60 -7 8 -16 47
-19 86 -7 70 -7 71 26 110 61 70 55 70 94 12 19 -29 35 -58 35 -64 0 -6 7 -17
15 -24 8 -6 30 -46 50 -87 20 -42 38 -73 42 -70 3 4 -5 28 -17 54 -65 138 -72
167 -26 119 30 -34 43 -18 15 18 -24 30 -44 102 -53 189 -6 57 -6 58 16 52 13
-4 34 -18 49 -31z m-7703 -44 c1 -21 -2 -50 -8 -64 -10 -28 -8 -30 32 -40 24
-5 27 -3 30 23 3 27 5 28 22 15 19 -13 19 -14 -2 -33 -25 -21 -29 -56 -8 -64
9 -4 12 -14 9 -27 -3 -12 -1 -25 6 -29 6 -4 16 -36 22 -72 15 -88 32 -102 24
-19 -8 73 -8 94 -3 164 2 33 -1 51 -9 53 -7 3 -13 11 -13 19 0 9 4 12 10 9 6
-3 7 1 4 9 -4 10 -1 16 9 16 9 0 22 3 31 6 12 5 16 0 16 -21 0 -15 7 -41 15
-58 8 -18 20 -50 27 -72 10 -29 19 -40 33 -40 11 0 20 -7 21 -15 1 -8 2 -27 2
-42 3 -39 20 -35 24 5 l3 32 29 -45 c16 -25 35 -49 43 -53 7 -4 23 -26 34 -49
17 -33 19 -51 14 -92 -9 -74 -7 -165 6 -187 29 -55 55 -378 31 -393 -21 -13
-129 69 -153 116 -12 24 -36 63 -54 89 -42 59 -57 106 -64 204 -6 86 -20 100
-36 38 -5 -21 -13 -41 -17 -44 -4 -3 -11 -33 -14 -67 -4 -34 -10 -62 -14 -62
-4 0 -12 26 -19 58 -26 116 -65 238 -85 260 -13 14 -26 20 -38 16 -11 -3 -30
2 -43 10 -25 16 -25 16 -25 -13 0 -41 -15 -47 -45 -17 -21 21 -23 29 -15 51 5
14 16 68 24 121 8 57 24 116 40 148 32 65 34 86 6 61 -16 -15 -20 -15 -20 -3
0 12 104 138 114 138 2 0 3 -18 4 -40z m5138 10 c69 -55 104 -99 104 -130 0
-32 -100 20 -173 91 l-59 57 55 -2 c31 -1 63 -8 73 -16z m1966 -132 c-16 -18
-55 -60 -87 -93 -32 -33 -68 -77 -81 -97 -30 -47 -69 -53 -84 -13 -11 28 -37
33 -46 10 -4 -8 -15 -15 -26 -15 -17 0 -20 5 -15 29 3 15 9 51 13 79 5 40 11
52 33 63 44 22 46 23 33 7 -9 -12 -8 -49 2 -48 13 1 102 32 110 39 6 5 34 16
61 24 28 8 64 22 80 31 41 22 41 21 7 -16z m-3059 -80 c22 -13 -68 -308 -93
-308 -4 0 -18 25 -30 55 -17 42 -21 68 -18 107 3 29 11 54 17 56 6 2 11 10 11
18 0 8 6 14 14 14 14 0 26 29 26 68 0 12 4 22 9 22 5 0 12 -10 16 -22 7 -21 8
-21 12 7 7 51 17 63 21 25 2 -19 9 -38 15 -42z m874 -5 c37 -25 50 -39 46 -50
-4 -11 -3 -14 6 -9 15 10 61 -1 61 -13 0 -6 -10 -12 -22 -14 -18 -3 -17 -5 7
-6 37 -2 60 -15 51 -30 -4 -6 -2 -11 4 -11 6 0 19 -7 27 -16 14 -13 14 -17 2
-25 -12 -7 -12 -9 1 -9 8 -1 26 -15 40 -32 14 -18 62 -71 107 -119 75 -79 112
-134 99 -147 -3 -2 -17 5 -32 17 -32 25 -69 29 -60 6 10 -26 0 -16 -35 35 -19
27 -39 50 -46 50 -7 0 -25 17 -40 37 -15 21 -38 49 -50 63 -11 14 -36 45 -55
70 -19 25 -56 60 -83 78 -28 17 -47 32 -43 32 8 0 -18 27 -80 83 -38 33 -42
42 -19 38 4 -1 10 6 13 14 7 17 18 12 101 -42z m-1138 -96 c-7 -12 -25 -41
-41 -64 -41 -60 -85 -179 -93 -248 -3 -33 -13 -94 -21 -135 -32 -170 -44 -248
-44 -295 0 -60 22 -166 44 -215 15 -33 15 -28 9 102 -4 99 -2 146 7 168 17 41
34 27 27 -23 -3 -23 -2 -35 2 -29 4 7 8 -11 9 -40 0 -29 4 -92 7 -140 l7 -86
-42 -41 c-23 -22 -39 -45 -35 -50 9 -15 12 -81 4 -81 -4 0 -7 -20 -7 -44 1
-34 -6 -54 -30 -87 -18 -24 -32 -50 -32 -58 0 -9 -3 -11 -9 -6 -11 12 -28 131
-37 268 -4 53 -10 97 -13 97 -8 0 -4 105 9 310 6 85 12 189 15 230 9 152 18
223 31 249 8 14 14 32 14 39 0 16 17 16 22 0 5 -15 58 64 58 86 0 8 9 18 20
21 11 3 20 12 20 19 0 23 25 37 39 23 11 -10 12 -7 6 12 -5 17 -4 21 5 16 7
-4 18 2 26 14 20 28 38 17 23 -12z m-3984 -153 c14 -9 25 -23 25 -30 0 -8 4
-14 9 -14 5 0 13 -10 17 -22 3 -13 15 -35 25 -50 11 -14 19 -33 19 -41 0 -9
19 -66 42 -129 48 -132 53 -184 21 -246 -22 -41 -33 -83 -14 -53 6 9 11 2 15
-25 13 -76 18 -206 8 -216 -11 -11 -4 -48 9 -48 5 0 9 -7 9 -15 0 -8 5 -15 10
-15 6 0 10 -6 10 -12 -1 -28 -84 83 -131 175 -44 86 -51 109 -59 190 -9 91
-31 241 -50 346 -14 79 -14 87 7 70 15 -13 16 -11 10 26 -16 90 -19 125 -13
125 4 0 18 -7 31 -16z m3629 -6 c24 -25 27 -55 25 -258 -1 -113 -1 -245 0
-293 1 -48 -3 -95 -8 -104 -5 -10 -5 -29 0 -46 8 -29 5 -46 -7 -35 -17 18 -44
203 -44 303 1 137 2 133 -10 115 -6 -8 -7 -27 -4 -42 3 -16 1 -28 -4 -28 -14
0 -26 177 -18 252 6 50 41 148 54 148 2 0 9 -6 16 -12z m3886 -53 c-15 -18 4
-55 29 -55 12 0 21 -10 25 -25 4 -16 13 -25 26 -25 11 0 20 -6 20 -13 0 -7 9
-18 20 -25 15 -9 20 -23 20 -53 0 -25 8 -52 20 -69 19 -26 19 -60 0 -60 -4 0
-33 -26 -64 -57 -54 -56 -56 -57 -56 -30 0 35 -28 48 -46 22 -19 -25 -18 -62
2 -73 14 -8 12 -14 -14 -43 -28 -31 -31 -33 -37 -14 -4 11 -10 29 -15 40 -23
57 -40 113 -40 130 0 36 103 374 112 369 5 -3 4 -12 -2 -19z m-6638 -56 c32
-8 36 -14 48 -63 7 -29 10 -60 8 -67 -3 -8 0 -18 6 -24 8 -7 8 -47 1 -145 -9
-115 -12 -132 -23 -113 -6 12 -12 28 -12 35 0 8 -9 31 -20 53 -31 60 -40 94
-58 222 -19 128 -18 159 3 129 7 -9 28 -21 47 -27z m1009 -49 c6 0 20 -64 34
-157 6 -40 5 -43 -22 -55 -15 -7 -33 -19 -39 -27 -9 -12 -14 -10 -29 12 -12
20 -16 43 -15 89 4 88 2 98 -17 98 -13 0 -14 3 -5 12 7 7 12 20 12 29 0 14 5
16 38 8 20 -5 40 -9 43 -9z m-251 -10 c0 -14 58 -12 62 2 2 6 21 -10 41 -37
26 -33 37 -59 38 -84 2 -58 6 -99 12 -115 4 -9 -4 -21 -20 -31 -23 -16 -25
-21 -21 -83 l3 -67 -33 -3 c-24 -2 -34 1 -38 15 -3 10 -14 38 -24 63 -22 55
-43 167 -35 181 4 5 1 17 -6 25 -9 11 -9 18 -2 22 22 14 20 92 -2 92 -18 0
-20 16 -2 23 20 9 27 8 27 -3z m2420 -71 c0 -6 9 -9 19 -6 21 5 30 -22 32 -92
l1 -36 9 31 c21 74 63 65 71 -14 5 -51 27 -105 43 -104 6 0 14 19 18 42 5 23
16 44 24 47 18 7 58 -35 100 -104 14 -24 29 -43 33 -43 5 0 16 13 26 29 52 88
158 76 185 -22 l11 -41 19 24 c10 14 19 28 19 31 0 3 13 15 30 27 50 38 101 2
103 -74 1 -44 11 -43 38 5 25 45 61 64 110 59 34 -3 34 -3 37 -60 2 -32 6 -58
10 -58 4 0 18 14 32 31 37 45 97 74 127 60 22 -10 23 -16 19 -62 -3 -29 -8
-55 -13 -59 -20 -19 -90 -50 -113 -50 -14 0 -31 -4 -39 -9 -9 -6 -21 -5 -32 2
-14 9 -26 7 -58 -11 -28 -16 -57 -23 -98 -23 -32 -1 -78 -1 -103 -2 -78 -2
-202 13 -275 34 -116 33 -138 41 -180 68 -22 14 -44 27 -50 27 -32 5 -53 19
-69 44 -9 16 -29 38 -45 49 -19 14 -33 36 -41 68 -7 26 -19 55 -27 64 -8 9
-13 40 -13 77 0 55 2 62 20 62 11 0 20 -5 20 -11z m-2899 -96 c0 -32 2 -67 4
-78 2 -11 7 -47 10 -81 7 -61 7 -62 -28 -90 -34 -27 -36 -32 -43 -106 -4 -43
-12 -82 -18 -87 -38 -32 -84 5 -90 72 -2 21 -6 40 -10 44 -3 3 -6 45 -6 92 0
82 2 89 51 188 l50 103 40 0 39 0 1 -57z m1560 -251 c-11 -27 -43 -163 -61
-257 -8 -44 -30 -329 -30 -392 0 -23 -1 -23 -19 -6 -36 34 -42 71 -40 238 2
157 4 164 45 288 4 9 10 17 14 17 4 0 12 17 18 38 7 21 23 49 37 62 14 13 25
31 25 40 0 9 3 20 8 24 12 13 14 -24 3 -52z m-2066 -71 c-3 -6 11 -22 31 -38
52 -40 94 -82 95 -96 1 -7 0 -27 -1 -44 -1 -18 2 -38 6 -44 13 -22 7 -99 -10
-117 -9 -10 -16 -26 -16 -34 0 -9 -15 -29 -32 -44 l-33 -27 -6 34 c-6 36 -52
126 -74 144 -12 9 -16 25 -31 120 -3 22 -10 48 -15 57 -13 25 -11 45 8 68 21
25 32 25 50 3 8 -10 11 -12 7 -4 -3 7 0 17 7 22 18 11 22 11 14 0z m3337 -210
c-11 -32 -5 -40 16 -19 9 9 12 8 12 -4 0 -9 6 -23 13 -30 6 -7 18 -25 26 -39
11 -23 11 -30 -3 -51 -12 -18 -14 -32 -8 -48 8 -23 9 -22 15 8 6 28 27 46 27
23 0 -5 11 -23 25 -39 20 -24 22 -31 10 -36 -22 -8 -18 -28 4 -21 14 4 25 -3
40 -24 21 -28 114 -81 144 -81 20 0 38 -23 41 -54 4 -38 14 -43 25 -13 10 26
11 26 52 12 45 -16 106 -19 242 -13 70 4 92 9 110 25 29 27 87 56 95 48 4 -4
0 -12 -8 -18 -8 -7 -16 -28 -18 -47 -2 -19 -12 -53 -22 -75 -10 -22 -22 -49
-26 -60 -6 -18 -7 -19 -11 -2 -7 26 -27 15 -31 -16 -5 -38 -22 -34 -23 6 l-1
32 -17 -38 c-22 -46 -87 -117 -107 -117 -9 0 -25 23 -37 50 l-23 51 -22 -31
c-20 -26 -29 -30 -71 -30 -53 0 -65 9 -76 58 -8 37 -14 39 -38 12 -23 -27 -82
-27 -97 -1 -5 11 -14 44 -18 73 -9 51 -12 51 -27 3 -6 -21 -41 -19 -65 5 -10
10 -25 46 -31 79 -7 34 -16 56 -20 49 -26 -41 -67 64 -101 259 -18 101 -19
124 -8 138 18 22 24 11 12 -24z m-1897 -41 c-3 -11 -3 -20 2 -20 15 1 43 27
36 34 -4 4 3 3 17 -2 16 -6 27 -22 37 -54 7 -25 31 -70 53 -99 39 -52 39 -53
23 -80 -15 -24 -33 -35 -108 -65 -5 -2 -10 12 -11 31 0 20 -10 49 -23 66 -12
16 -31 57 -42 89 -18 56 -18 60 -1 89 20 36 26 40 17 11z m1840 -67 c4 -27 9
-76 11 -110 2 -34 10 -86 18 -115 8 -29 18 -73 21 -98 4 -25 11 -49 15 -55 4
-5 10 -26 14 -46 4 -20 20 -54 37 -75 17 -22 40 -57 51 -79 24 -47 66 -95 85
-95 9 0 7 11 -8 40 -12 22 -25 43 -30 46 -5 3 -9 10 -9 16 0 6 15 -1 33 -14
41 -31 144 -83 181 -92 32 -8 106 -73 106 -94 0 -7 4 -11 10 -7 10 6 80 -35
80 -47 0 -9 -46 -10 -78 -2 -12 4 -22 11 -21 18 3 24 -1 37 -10 31 -6 -3 -8
-14 -6 -25 2 -11 -1 -22 -7 -26 -7 -4 -5 -10 3 -16 9 -6 -1 -7 -31 -3 -24 3
-52 12 -61 20 -8 8 -21 15 -27 15 -7 0 -12 4 -12 10 0 5 -12 12 -27 16 -43 9
-135 46 -160 63 -13 9 -31 43 -44 81 -12 36 -29 72 -39 80 -22 18 -48 78 -80
180 -13 41 -29 89 -37 107 -7 17 -13 52 -13 77 0 34 -4 46 -15 46 -12 0 -15
-18 -17 -92 -1 -51 0 -111 1 -133 4 -60 37 -208 71 -312 34 -103 34 -103 21
-103 -5 0 -21 30 -35 68 -49 126 -64 121 -23 -7 28 -84 22 -81 -28 14 -75 145
-108 249 -100 312 11 82 36 178 50 188 12 10 30 55 26 65 -1 2 6 7 15 11 12 4
19 16 19 35 0 16 4 34 8 41 4 6 4 18 1 26 -3 8 -1 18 5 22 6 3 11 19 11 36 0
46 17 34 25 -18z m-2295 -28 c0 -7 3 -15 8 -17 14 -6 54 -70 63 -100 7 -25 4
-40 -17 -78 -23 -43 -31 -49 -82 -64 -67 -19 -94 -16 -98 10 -2 10 -9 38 -16
62 -10 34 -10 46 0 60 7 9 17 29 23 45 6 15 18 27 27 27 10 0 31 9 49 19 25
16 30 25 26 42 -4 15 -3 20 5 15 7 -4 12 -13 12 -21z m2505 -770 c37 -4 75
-33 75 -55 0 -5 -8 -10 -17 -13 -21 -5 -9 -11 40 -21 l28 -7 -18 -27 c-18 -26
-20 -82 -4 -82 5 0 14 7 21 15 7 8 21 15 31 15 12 0 19 7 19 20 0 16 7 20 35
20 29 0 35 4 35 21 0 19 4 20 35 15 71 -14 124 -43 131 -73 4 -15 11 -34 17
-41 8 -10 6 -21 -6 -41 -9 -15 -19 -47 -23 -69 -5 -30 -11 -42 -24 -42 -23 0
-54 -36 -47 -55 4 -8 1 -15 -6 -15 -46 1 -267 68 -267 81 0 5 5 9 12 9 6 0 4
8 -7 20 -14 15 -16 29 -11 65 4 25 3 45 -1 45 -12 0 -78 -70 -92 -97 -28 -54
-95 5 -106 93 -12 96 12 213 47 227 7 3 24 4 38 1 14 -2 43 -6 65 -9z m59
-4322 c4 -38 20 -107 36 -155 17 -48 30 -102 30 -120 1 -29 15 -79 45 -153 4
-11 -18 15 -49 58 -82 114 -96 156 -96 303 0 66 3 124 7 127 15 16 21 3 27
-60z m4661 -1515 c-8 -27 -16 -75 -19 -103 -1 -14 6 -21 22 -23 12 -2 27 -12
32 -23 6 -10 17 -19 25 -19 16 0 18 -23 6 -73 -5 -25 -17 -33 -91 -63 -47 -18
-86 -34 -88 -34 -6 0 10 64 18 75 19 25 60 160 60 198 0 24 7 53 16 65 20 28
28 28 19 0z m412 -151 c37 -41 88 -87 113 -104 25 -17 55 -42 68 -56 l23 -25
-33 -23 -33 -23 23 26 c21 23 21 26 6 32 -11 4 -22 -1 -31 -14 -13 -18 -63
-50 -79 -50 -3 0 -3 7 0 16 5 14 4 15 -9 4 -8 -7 -13 -15 -11 -19 3 -4 -3 -7
-12 -8 -10 -1 -25 12 -35 29 -14 24 -22 29 -41 24 -28 -7 -58 16 -50 38 6 17
-21 40 -40 33 -9 -4 -16 5 -21 26 -9 37 -8 52 6 88 9 22 17 27 42 25 29 -1 32
2 32 27 -1 15 2 27 6 27 4 0 38 -33 76 -73z m-342 -189 c-1 -13 -3 -29 -4 -35
-1 -16 -79 -96 -107 -111 -10 -5 -37 -11 -59 -13 -37 -3 -40 -2 -38 21 8 83
10 86 81 118 113 51 130 53 127 20z"/>
<path d="M10220 17105 l-55 -55 -50 40 c-27 21 -51 37 -53 35 -2 -2 -8 -36
-13 -76 -5 -40 -11 -74 -13 -76 -2 -2 -38 17 -80 43 -43 25 -78 45 -80 43 -2
-2 8 -48 21 -103 13 -54 22 -100 20 -102 -2 -2 -29 5 -60 15 -32 11 -57 18
-57 16 0 -3 12 -29 27 -60 l27 -55 -26 -27 c-37 -39 -37 -48 -1 -76 l32 -23
-54 -85 c-65 -100 -68 -113 -22 -95 17 7 44 16 59 20 25 6 28 3 39 -34 7 -22
14 -40 17 -40 2 0 17 9 33 21 16 11 33 18 37 15 5 -3 17 -32 27 -66 19 -63 29
-73 40 -39 4 12 18 46 32 77 l25 56 30 -52 c16 -29 34 -52 39 -52 4 0 15 13
24 29 8 17 19 32 25 36 5 3 35 -10 65 -30 l56 -36 -6 46 c-4 25 -5 45 -1 45 3
0 35 -11 71 -25 36 -13 65 -22 65 -19 0 3 -9 22 -20 44 l-20 39 38 12 c20 6
41 14 45 17 5 2 -15 29 -45 59 -58 60 -59 54 7 97 18 12 18 14 -18 45 -20 18
-37 37 -37 41 0 4 30 33 68 65 37 32 68 61 70 65 1 3 -31 15 -73 25 -60 15
-74 22 -69 35 18 45 42 120 38 120 -2 0 -32 -11 -66 -25 -34 -14 -62 -24 -63
-22 -1 1 -8 30 -15 65 -7 34 -16 62 -19 62 -3 0 -31 -25 -61 -55z m54 -80 c8
-50 9 -51 59 -30 20 8 39 15 41 15 3 0 -1 -19 -9 -41 -8 -23 -15 -45 -15 -49
0 -4 28 -13 62 -20 l62 -14 -64 -58 -64 -58 34 -36 c23 -23 31 -38 23 -41 -7
-3 -23 -13 -35 -23 l-23 -19 48 -48 c26 -27 47 -51 47 -55 0 -3 -16 -9 -36
-13 -32 -5 -35 -9 -30 -30 l6 -24 -46 19 c-63 28 -71 26 -66 -12 l5 -32 -37
22 -37 22 -17 -30 c-9 -16 -19 -30 -22 -30 -3 0 -19 25 -35 55 -17 30 -33 55
-36 55 -4 0 -18 -28 -33 -62 -29 -65 -36 -66 -56 -5 l-12 37 -28 -20 c-37 -26
-48 -25 -56 6 -6 23 -10 26 -41 21 -24 -4 -31 -3 -26 6 4 7 22 36 41 66 l34
54 -31 24 -32 25 26 34 c21 28 24 37 15 55 -16 29 -9 31 40 14 24 -8 45 -14
46 -12 2 2 -7 43 -20 93 -13 49 -23 90 -21 92 1 1 30 -14 63 -34 34 -19 65
-33 70 -30 5 3 12 33 15 67 3 33 8 63 11 66 3 3 22 -7 42 -22 l36 -28 41 41
c22 23 44 39 48 37 4 -3 10 -25 13 -50z"/>
<path d="M1419 16535 c-1 -6 -1 -14 0 -18 1 -5 -20 -7 -46 -5 -53 3 -56 -3
-28 -67 12 -28 13 -28 21 -10 4 11 12 23 18 27 16 11 95 10 137 -2 36 -10 36
-11 32 -53 -4 -31 -1 -46 11 -56 22 -19 38 -10 51 29 l11 33 22 -23 c12 -13
22 -19 22 -12 0 6 -19 32 -42 56 -43 44 -93 66 -150 66 -16 0 -33 9 -42 22 -9
12 -17 18 -17 13z"/>
<path d="M2530 15778 c0 -3 -18 -85 -40 -183 -22 -98 -40 -184 -40 -191 0 -11
19 -14 79 -14 44 0 82 3 85 8 2 4 -4 48 -15 97 -39 183 -49 231 -52 252 -3 20
-17 45 -17 31z"/>
<path d="M4955 15749 c-6 -31 -19 -89 -59 -261 -25 -103 -28 -98 69 -98 84 0
85 0 80 23 -3 12 -9 45 -14 72 -16 97 -54 270 -61 284 -5 10 -10 4 -15 -20z"/>
<path d="M10906 15753 c-9 -31 -76 -332 -76 -343 0 -6 32 -10 80 -10 44 0 80
2 80 4 0 11 -72 361 -75 364 -2 2 -6 -5 -9 -15z"/>
<path d="M1080 14638 c-19 -11 -25 -21 -25 -48 0 -43 31 -63 92 -57 53 6 73
21 73 57 0 15 -7 33 -15 40 -22 18 -96 23 -125 8z"/>
<path d="M930 14421 c0 -63 2 -71 26 -90 21 -16 41 -21 91 -21 55 0 67 4 88
25 22 21 25 33 25 90 l0 65 -35 0 -35 0 0 -54 c0 -75 -6 -86 -45 -86 -39 0
-45 11 -45 86 l0 54 -35 0 -35 0 0 -69z"/>
<path d="M1215 14478 c-4 -12 -25 -150 -25 -162 0 -3 15 -6 33 -6 32 0 34 2
43 48 l9 47 28 -42 c15 -24 32 -43 37 -43 5 0 22 18 36 40 31 47 44 44 44 -11
0 -38 1 -39 36 -39 l35 0 -6 54 c-15 116 -17 121 -57 124 -33 3 -38 0 -59 -37
-12 -23 -26 -41 -29 -41 -3 0 -16 18 -29 40 -19 35 -27 40 -57 40 -19 0 -36
-6 -39 -12z"/>
<path d="M1530 14400 l0 -90 34 0 c32 0 35 3 38 32 2 20 9 34 18 35 69 9 91
16 100 34 27 50 -17 79 -120 79 l-70 0 0 -90z"/>
<path d="M929 14241 c-35 -36 -36 -45 -4 -76 41 -42 140 -33 165 15 15 27 -6
67 -43 80 -52 18 -86 12 -118 -19z"/>
<path d="M1124 14205 l-10 -65 28 0 c24 0 28 4 28 30 0 39 10 38 33 -2 l19
-33 29 35 28 35 1 -32 c0 -29 3 -33 28 -33 l29 0 -9 57 c-5 31 -11 60 -14 65
-10 16 -53 8 -59 -11 -3 -11 -12 -24 -20 -31 -10 -9 -17 -5 -31 19 -13 22 -26
31 -45 31 -24 0 -26 -4 -35 -65z"/>
<path d="M1003 13975 c-27 -11 -33 -20 -33 -44 0 -69 125 -86 160 -21 14 25 3
48 -31 65 -34 18 -55 18 -96 0z"/>
<path d="M2084 9990 c-22 -9 -106 -153 -118 -202 -11 -46 12 -41 38 9 26 52
55 93 56 80 0 -4 -17 -40 -37 -79 -20 -39 -38 -83 -39 -97 l-2 -26 12 27 c19
45 47 70 63 57 10 -9 15 -5 24 20 6 17 15 31 20 31 5 0 14 11 19 25 5 14 15
25 21 25 7 0 10 2 7 5 -9 9 -38 -6 -38 -20 0 -6 -9 -20 -20 -30 -18 -17 -20
-17 -20 -1 0 20 26 74 48 99 13 14 13 17 1 17 -8 0 -20 -5 -27 -12 -9 -9 -12
-9 -12 0 0 7 5 12 10 12 6 0 9 3 9 8 -3 18 2 32 17 46 18 18 4 21 -32 6z"/>
<path d="M2490 11423 c2 -21 2 -44 1 -50 -2 -18 -21 -16 -21 1 0 23 -28 40
-44 27 -18 -15 -19 -90 0 -118 29 -45 103 -18 122 45 20 68 13 92 -37 120 -22
13 -23 12 -21 -25z"/>
<path d="M11618 9657 c-31 -29 -44 -78 -28 -108 10 -18 18 -20 48 -15 47 7 72
37 72 87 0 28 -5 41 -19 49 -29 15 -46 12 -73 -13z"/>
<path d="M11985 7128 c-2 -7 -7 -31 -11 -53 -6 -29 -9 -34 -11 -18 -3 14 -9
20 -18 17 -9 -4 -15 4 -17 23 -2 23 -8 28 -31 28 -32 1 -57 -26 -57 -63 0 -16
4 -21 13 -15 6 4 4 -5 -6 -20 -16 -24 -16 -28 -2 -33 8 -4 24 -4 35 -1 22 6
26 -3 9 -20 -16 -16 -1 -36 23 -30 11 3 21 0 25 -9 3 -8 14 -14 24 -14 12 0
19 -7 19 -19 0 -11 4 -22 9 -26 6 -3 9 48 8 130 -1 129 -3 150 -12 123z"/>
<path d="M5092 4037 c29 -29 74 -67 98 -83 59 -40 195 -101 243 -108 l38 -6
-7 37 c-7 38 -21 56 -36 47 -4 -3 -8 0 -8 5 0 6 -8 11 -18 11 -34 0 -118 37
-178 78 -89 61 -107 53 -34 -14 33 -31 58 -59 56 -62 -8 -7 -100 64 -140 108
-20 22 -43 40 -52 40 -10 0 4 -20 38 -53z"/>
<path d="M7021 3914 c-23 -30 -27 -44 -10 -44 7 0 10 -12 7 -32 -7 -45 -1 -58
28 -58 13 0 24 -4 24 -10 0 -19 19 -10 52 23 18 19 40 36 49 40 23 8 33 55 17
79 -11 16 -28 21 -80 25 -62 4 -67 3 -87 -23z"/>
<path d="M1132 1509 c-53 -16 -108 -78 -121 -138 -12 -59 -6 -101 22 -154 54
-97 219 -124 315 -50 85 64 96 207 23 291 -46 52 -153 75 -239 51z m125 -94
c40 -28 51 -123 20 -166 -45 -60 -129 -38 -143 37 -19 104 53 178 123 129z"/>
<path d="M660 1320 l0 -191 58 3 57 3 5 89 5 90 60 -92 60 -91 63 -1 c36 0 62
4 62 10 0 6 -29 54 -64 106 l-64 96 50 70 c71 100 71 98 -4 98 l-63 0 -50 -79
c-27 -44 -52 -78 -54 -75 -2 2 -3 38 -2 79 l2 75 -60 0 -61 0 0 -190z"/>
<path d="M1442 1323 l3 -188 57 -3 57 -3 3 78 3 78 50 0 50 0 5 -75 5 -75 58
-3 57 -3 0 191 0 191 -57 -3 -58 -3 -3 -62 -3 -63 -54 0 -55 0 0 65 0 65 -60
0 -60 0 2 -187z"/>
<path d="M1830 1320 l0 -190 115 0 115 0 25 40 c14 22 25 42 25 45 0 3 -36 5
-80 5 l-80 0 0 30 c0 30 1 30 55 30 l55 0 0 45 0 45 -55 0 c-52 0 -55 1 -55
25 0 24 2 25 65 25 l65 0 0 45 0 45 -125 0 -125 0 0 -190z"/>
<path d="M2124 1497 c-2 -7 -3 -91 -2 -187 l3 -175 54 -3 c30 -2 57 1 60 6 3
6 5 91 3 191 l-3 181 -55 0 c-35 0 -56 -5 -60 -13z"/>
<path d="M1190 981 c-101 -21 -160 -93 -160 -193 1 -115 90 -198 212 -198 99
0 174 57 199 153 15 55 3 120 -33 170 -36 51 -142 84 -218 68z m101 -110 c24
-25 29 -38 29 -79 0 -89 -67 -139 -127 -97 -54 38 -46 160 12 193 32 18 55 14
86 -17z"/>
<path d="M2489 977 c-86 -24 -134 -79 -146 -166 -12 -89 50 -187 132 -210 165
-46 302 61 281 219 -17 119 -140 192 -267 157z m94 -88 c67 -31 61 -188 -8
-205 -62 -16 -105 27 -105 105 0 85 49 129 113 100z"/>
<path d="M2874 979 c-72 -21 -109 -95 -81 -161 12 -27 28 -42 72 -63 31 -16
59 -35 62 -42 14 -37 -58 -49 -116 -19 l-31 17 0 -50 c0 -49 1 -50 38 -60 94
-27 192 2 217 63 19 45 19 60 -1 101 -12 26 -31 41 -75 61 -48 22 -59 32 -57
48 2 17 10 21 43 20 22 -1 50 -5 63 -9 20 -7 22 -4 22 33 0 29 -5 44 -17 50
-29 15 -106 21 -139 11z"/>
<path d="M660 790 l0 -190 60 0 60 0 0 75 0 75 55 0 55 0 0 -75 0 -75 60 0 60
0 0 190 0 190 -60 0 -60 0 0 -70 0 -70 -55 0 -54 0 -3 68 -3 67 -57 3 -58 3 0
-191z"/>
<path d="M1470 791 l0 -191 60 0 60 0 0 81 c0 100 8 99 71 -2 l46 -74 127 -3
126 -3 0 191 0 191 -57 -3 -58 -3 -5 -185 -5 -185 -47 81 c-49 82 -56 104 -37
104 5 0 17 17 25 37 13 30 14 44 5 75 -19 61 -45 72 -187 76 l-124 4 0 -191z"/>
<path d="M2000 790 l0 -190 55 0 55 0 0 90 c0 50 3 90 8 90 4 0 33 -41 64 -90
l58 -90 65 0 c36 0 65 2 65 5 0 3 -26 45 -58 93 -32 48 -61 92 -65 98 -3 6 18
46 48 89 30 43 55 82 55 87 0 5 -28 8 -62 6 l-63 -3 -50 -77 c-27 -43 -53 -78
-57 -78 -5 0 -8 36 -8 80 l0 80 -55 0 -55 0 0 -190z"/>
<path d="M3070 790 l0 -190 60 0 60 0 0 75 0 75 55 0 55 0 0 -75 0 -75 60 0
60 0 -2 188 -3 187 -57 3 -58 3 0 -71 0 -70 -55 0 -54 0 -3 68 -3 67 -57 3
-58 3 0 -191z"/>
<path d="M3450 790 l0 -190 60 0 60 0 0 190 0 190 -60 0 -60 0 0 -190z"/>
</g>
</svg>
