<?xml version="1.0" standalone="no"?>
<!DOCTYPE svg PUBLIC "-//W3C//DTD SVG 20010904//EN"
 "http://www.w3.org/TR/2001/REC-SVG-20010904/DTD/svg10.dtd">
<svg version="1.0" xmlns="http://www.w3.org/2000/svg" fill="#f38824"
 width="1280.000000pt" height="720.000000pt" viewBox="0 0 1280.000000 720.000000"
 preserveAspectRatio="xMidYMid meet">
<metadata>
Created by potrace 1.16, written by Peter Selinger 2001-2019
</metadata>
<g transform="translate(0.000000,720.000000) scale(0.100000,-0.100000)"
 stroke="none">
<path d="M0 7125 c0 -70 10 -95 24 -59 3 8 11 12 16 9 7 -4 1 -16 -15 -30 -14
-13 -25 -29 -25 -35 0 -20 102 -16 135 6 15 10 30 11 52 5 20 -6 35 -5 41 1 5
5 20 7 32 3 17 -5 19 -9 9 -16 -10 -6 -7 -10 13 -18 14 -5 28 -15 30 -21 2 -6
19 -15 38 -20 l35 -8 -32 -1 c-17 -1 -35 4 -39 10 -3 6 -22 18 -41 26 -32 13
-38 12 -74 -6 -22 -12 -49 -21 -61 -21 -23 0 -86 -35 -105 -58 -8 -10 -13 -11
-13 -4 0 7 -5 12 -10 12 -7 0 -10 -66 -10 -192 2 -187 2 -194 25 -220 19 -22
32 -27 61 -26 27 1 41 -4 48 -17 6 -10 21 -29 33 -42 l22 -25 40 23 c35 19 43
21 71 9 27 -11 33 -10 53 6 l22 18 -21 -23 c-18 -19 -26 -21 -55 -14 -27 7
-41 5 -67 -10 -45 -27 -96 -14 -100 26 -3 23 -8 27 -35 27 -24 0 -35 -6 -44
-25 -6 -14 -7 -27 -2 -31 5 -3 9 -16 9 -29 0 -13 8 -28 18 -33 41 -20 162 12
162 43 0 8 5 15 10 15 6 0 10 -7 10 -15 0 -8 16 -19 40 -25 43 -12 55 -26 63
-80 6 -32 15 -71 32 -127 4 -13 11 -21 15 -18 4 2 13 -13 20 -34 9 -27 23 -45
46 -57 19 -10 34 -22 34 -26 0 -5 7 -8 15 -8 47 0 154 -73 155 -106 0 -6 13
-9 30 -6 17 2 37 -1 44 -8 12 -9 20 -8 39 4 21 15 28 15 66 1 23 -8 48 -12 55
-9 8 3 17 1 20 -4 3 -6 15 -8 25 -5 29 8 89 -16 96 -37 10 -32 55 -29 101 7
45 36 93 43 114 18 18 -22 35 -18 50 10 14 27 25 31 35 15 4 -7 12 -7 25 0 10
5 27 10 37 10 22 -1 -42 -30 -66 -30 -9 0 -22 -9 -29 -20 -7 -11 -19 -20 -28
-20 -8 0 -12 -5 -9 -10 11 -17 -47 0 -70 21 -20 18 -21 18 -48 -7 -21 -19 -25
-29 -17 -38 8 -11 1 -11 -39 -2 -28 6 -57 21 -67 33 -24 28 -80 36 -78 11 2
-22 0 -22 -19 -3 -13 13 -16 11 -21 -10 -7 -28 29 -79 51 -71 7 3 19 -1 27
-10 9 -9 17 -10 21 -4 9 15 -3 30 -24 30 -10 0 -25 7 -32 17 -13 15 -12 15 8
5 12 -7 34 -12 50 -12 15 0 35 -5 43 -11 12 -9 11 -10 -7 -6 -13 3 -23 1 -23
-4 0 -5 4 -9 9 -9 5 0 11 -7 14 -14 4 -11 1 -13 -11 -9 -16 6 -16 5 -1 -13 9
-10 19 -26 22 -34 3 -9 6 -10 6 -2 1 18 21 15 21 -4 0 -8 5 -12 10 -9 6 3 10
1 10 -5 0 -14 41 -3 55 14 13 16 58 14 79 -3 9 -8 14 -16 11 -19 -3 -3 -14 3
-25 13 -20 19 -29 8 -9 -12 8 -8 7 -13 -2 -18 -8 -5 -10 -4 -5 3 4 7 1 12 -8
12 -9 0 -16 -5 -16 -10 0 -6 -10 -8 -24 -4 -16 4 -25 1 -30 -12 -4 -9 -4 -19
-1 -22 3 -3 5 0 5 7 0 7 5 9 11 6 6 -5 4 -12 -8 -20 -17 -13 -17 -14 1 -28 15
-11 17 -21 12 -43 -14 -58 -14 -89 0 -111 8 -12 14 -30 14 -39 0 -14 3 -14 15
-4 9 7 18 10 22 7 3 -3 19 1 36 9 29 15 31 15 54 -10 13 -15 42 -38 64 -53 21
-14 39 -30 39 -34 0 -18 77 -91 84 -80 4 6 13 11 19 11 7 0 5 -6 -5 -13 -16
-12 -15 -16 8 -55 28 -47 53 -53 86 -22 12 10 26 16 32 12 7 -4 4 -8 -6 -10
-22 -4 -24 -22 -3 -22 8 0 15 -5 15 -10 0 -7 -7 -7 -21 0 -14 8 -24 8 -33 1
-20 -17 -50 -2 -76 37 -14 20 -44 57 -67 82 -24 24 -43 50 -43 57 0 7 -5 13
-10 13 -12 0 -17 4 -76 54 l-40 35 -43 -25 c-54 -30 -59 -30 -67 4 -4 15 -10
32 -14 37 -15 20 -22 106 -9 121 7 9 8 14 1 14 -6 0 -14 9 -17 21 -4 11 -22
27 -40 35 -33 14 -61 40 -30 28 11 -5 14 -2 9 9 -3 9 -12 13 -20 10 -8 -3 -14
1 -14 11 0 16 -10 20 -43 16 -11 -1 -22 10 -30 29 -7 16 -25 39 -39 51 -15 11
-32 36 -38 54 -13 40 -60 67 -101 59 -15 -3 -29 0 -33 5 -4 7 -16 6 -36 -1
-24 -9 -32 -8 -49 8 -12 10 -21 23 -21 30 0 23 -49 57 -106 72 -33 8 -62 20
-66 26 -6 9 -8 9 -8 0 0 -7 -6 -10 -14 -7 -10 4 -13 -4 -10 -31 1 -20 4 -38 6
-38 58 -29 63 -36 63 -84 0 -26 -3 -69 -7 -95 -7 -43 -6 -48 11 -48 10 0 27
-12 37 -27 9 -16 25 -34 35 -41 10 -6 20 -26 24 -43 4 -17 13 -33 21 -36 19
-7 18 -23 -1 -23 -8 0 -15 5 -15 10 0 6 -6 10 -12 10 -7 -1 -1 -11 14 -23 19
-15 28 -32 28 -51 0 -16 7 -34 16 -41 14 -9 15 -21 10 -60 -5 -33 -11 -44 -18
-37 -8 8 -7 20 2 42 11 26 10 33 -2 43 -9 7 -19 25 -23 42 -3 16 -15 35 -25
42 -10 7 -26 39 -35 69 -20 69 -42 104 -64 104 -9 0 -22 5 -29 12 -7 7 -12 8
-12 2 0 -5 9 -18 21 -27 12 -11 18 -25 15 -33 -3 -9 -6 -20 -6 -25 0 -5 -5 -9
-11 -9 -6 0 -9 9 -6 20 3 11 0 26 -7 33 -17 16 -12 58 9 90 11 18 15 42 13 81
-3 52 -5 57 -35 71 -18 9 -33 21 -33 27 0 6 -18 27 -39 48 -28 27 -41 50 -46
79 -4 23 -11 38 -17 35 -5 -3 -8 0 -7 7 1 8 -3 27 -9 42 -7 16 -12 35 -12 44
0 8 -10 33 -22 55 l-23 40 -55 -7 c-71 -8 -90 -14 -90 -27 0 -7 -4 -7 -12 0
-7 5 -30 12 -51 14 l-37 4 0 -40 c0 -35 6 -46 40 -77 35 -32 40 -42 40 -82 0
-25 3 -54 6 -64 5 -16 4 -16 -10 1 -21 26 -20 17 4 -39 24 -55 25 -66 6 -40
-13 18 -15 16 -22 -30 -15 -94 -6 -159 17 -125 7 11 8 8 4 -10 -4 -19 0 -31
14 -44 22 -20 28 -46 11 -46 -5 0 -10 6 -10 14 0 8 -5 18 -12 22 -7 4 -8 3 -4
-4 4 -7 2 -12 -4 -12 -19 0 -4 -72 21 -99 13 -14 28 -35 34 -46 6 -11 19 -21
29 -23 11 -2 31 -15 45 -28 l26 -25 -45 23 c-25 13 -64 43 -88 68 l-43 45 16
-40 c10 -22 24 -48 33 -58 9 -10 16 -36 17 -57 1 -26 9 -48 24 -64 13 -14 23
-37 23 -53 0 -15 5 -37 11 -48 6 -11 13 -36 16 -55 5 -30 11 -36 38 -40 26 -4
31 -8 23 -20 -6 -10 -10 -11 -10 -2 0 15 -26 16 -36 0 -5 -8 -2 -9 9 -5 11 4
17 1 17 -9 0 -11 -4 -12 -19 -5 -20 11 -41 60 -41 96 0 11 -6 30 -14 41 -9 10
-12 29 -9 42 4 17 -2 31 -22 52 -21 22 -26 35 -21 54 4 17 -1 32 -18 53 -13
15 -33 57 -46 93 -12 36 -26 74 -30 85 -5 11 -11 27 -13 35 -3 8 -6 -260 -6
-596 l-1 -612 32 -13 c29 -12 123 -94 123 -108 1 -6 15 -30 59 -98 23 -35 78
-63 126 -63 17 0 29 -3 29 -7 -3 -20 2 -33 14 -33 7 0 18 -9 25 -20 7 -11 17
-20 23 -20 7 0 17 -6 23 -13 6 -8 40 -24 76 -37 80 -28 174 -71 178 -82 5 -12
42 -10 42 2 0 6 3 9 8 8 4 -1 17 3 30 10 12 7 38 14 57 16 19 2 40 8 47 14 16
13 149 32 163 23 6 -3 -6 -9 -25 -12 l-35 -6 33 -2 c17 0 32 -6 32 -12 0 -5 5
-7 10 -4 6 4 8 10 5 15 -3 5 3 11 12 14 10 3 26 19 35 36 12 22 24 30 45 30
21 0 24 3 15 12 -7 7 -12 17 -12 22 1 6 10 0 20 -13 14 -16 20 -19 20 -8 0 18
39 11 55 -9 20 -25 78 -21 106 7 15 15 19 28 14 47 -4 18 -3 24 3 17 6 -5 12
-19 14 -30 3 -21 52 -32 63 -14 4 5 14 9 24 9 10 0 26 9 36 20 10 11 23 20 29
20 6 0 27 14 46 30 19 16 41 30 47 30 7 0 15 11 19 25 4 18 13 25 29 25 14 0
35 14 53 34 17 19 39 35 49 35 46 2 86 10 101 23 32 25 63 39 73 32 6 -3 20 2
32 13 21 18 21 18 7 -2 -22 -29 -33 -35 -45 -25 -7 6 -24 -1 -48 -21 -20 -17
-45 -29 -54 -28 -33 3 -43 -1 -43 -18 0 -14 -2 -14 -20 2 -11 10 -20 13 -20 7
0 -18 -38 -52 -76 -68 -19 -8 -34 -21 -34 -29 0 -8 -12 -21 -27 -29 -16 -8
-36 -24 -45 -35 -10 -12 -25 -21 -34 -21 -9 0 -22 -8 -29 -17 -11 -15 -10 -22
7 -45 23 -33 17 -37 -13 -7 -13 13 -24 17 -32 11 -7 -5 -34 -13 -62 -17 -37
-5 -45 -9 -31 -15 17 -6 16 -8 -12 -18 -30 -10 -31 -12 -20 -39 7 -15 16 -34
21 -40 6 -9 6 -13 -2 -13 -6 0 -17 16 -25 35 -17 39 -44 46 -67 18 -12 -14
-12 -16 0 -8 10 5 12 4 7 -4 -4 -6 -3 -17 2 -24 13 -17 21 -67 11 -67 -15 0
-69 56 -62 63 3 4 -2 7 -13 8 -10 0 -33 2 -50 4 -27 4 -33 1 -38 -19 -3 -12
-16 -28 -28 -35 -13 -6 -15 -9 -5 -7 9 3 17 1 17 -4 0 -6 -5 -10 -11 -10 -5 0
-7 -5 -3 -12 5 -8 2 -9 -10 -5 -10 4 -15 3 -11 -3 3 -6 16 -10 28 -10 18 0 19
-2 7 -10 -13 -8 -13 -10 2 -10 9 0 22 -8 27 -17 6 -11 11 -13 11 -5 0 7 5 10
11 7 6 -4 8 -13 5 -20 -5 -14 14 -25 44 -25 10 0 22 -10 25 -21 7 -21 8 -21
33 7 20 21 26 38 26 69 l-1 40 10 -32 c7 -24 16 -33 31 -32 20 0 20 1 2 8 -19
7 -19 8 -1 15 17 6 17 7 -1 20 -17 13 -17 14 9 9 28 -6 30 -2 28 47 0 14 2 20
5 13 6 -14 34 -5 51 16 6 9 15 16 20 16 4 0 20 8 34 18 24 16 29 16 65 1 43
-18 55 -30 47 -51 -4 -11 6 -14 48 -12 78 2 146 -18 179 -52 15 -17 32 -28 36
-27 5 2 11 -1 13 -7 2 -5 10 -19 17 -30 8 -11 14 -28 14 -38 0 -10 14 -26 30
-35 17 -9 33 -25 36 -35 4 -14 12 -17 31 -12 18 4 23 3 17 -7 -5 -9 -4 -10 4
-3 5 6 12 19 14 30 2 14 12 21 35 23 19 2 32 9 35 20 2 9 4 77 3 150 0 82 4
132 10 132 6 0 6 3 -1 8 -7 5 -11 160 -12 490 -1 447 0 483 16 489 26 9 52 35
46 44 -3 5 -1 9 3 9 13 0 83 68 83 80 0 5 5 10 10 10 6 0 10 5 10 12 0 13 136
148 150 148 4 0 23 17 42 38 18 20 50 49 70 62 21 14 38 30 38 37 0 6 13 21
28 31 15 11 34 32 41 45 7 14 21 27 31 30 14 3 17 16 17 58 0 30 -4 60 -10 67
-15 19 25 47 61 43 7 -1 12 10 12 29 0 16 5 30 10 30 15 0 11 52 -5 74 -18 24
-20 45 -3 28 7 -7 22 -12 33 -12 44 0 195 -184 171 -208 -9 -9 25 -42 44 -42
27 0 59 42 55 72 -2 16 1 30 6 34 5 3 9 14 9 25 0 12 7 19 20 19 14 0 21 9 26
38 4 20 14 45 23 54 34 36 42 49 36 58 -3 6 -1 10 4 10 6 0 11 15 11 34 0 18
7 39 15 46 8 7 15 23 15 36 0 14 4 32 9 42 5 9 15 31 22 47 8 17 20 34 26 38
7 4 13 15 13 22 0 8 5 15 11 15 5 0 8 4 4 9 -3 6 0 13 8 18 7 4 20 19 29 33 8
14 50 61 92 104 42 44 76 83 76 88 0 4 9 8 21 8 18 0 20 -4 15 -26 -5 -19 -3
-25 6 -22 7 3 14 16 15 29 6 63 12 109 16 116 9 14 21 116 22 175 0 32 3 58 6
58 3 0 12 42 19 93 7 50 17 100 22 110 12 23 28 22 28 -2 0 -10 7 -31 14 -47
8 -15 13 -31 10 -36 -3 -4 0 -8 5 -8 6 0 11 -8 11 -18 0 -10 5 -23 12 -30 7
-7 8 -13 3 -13 -6 -1 -16 -2 -24 -3 -8 0 -16 -7 -19 -15 -3 -10 3 -12 26 -6
18 3 33 2 37 -4 4 -7 -5 -11 -23 -11 -27 0 -51 -24 -38 -38 9 -8 37 8 31 18
-3 5 -1 10 4 10 6 0 11 -6 11 -14 0 -8 6 -17 13 -19 6 -3 -5 -6 -25 -6 -27 -1
-38 -5 -38 -16 0 -8 9 -15 19 -15 33 0 33 -18 1 -25 -36 -8 -37 -11 -7 -35 23
-19 21 -30 -7 -34 -9 -1 -16 -5 -16 -9 0 -4 0 -11 0 -17 0 -5 7 -10 15 -10 8
0 15 -4 15 -10 0 -5 -9 -10 -21 -10 -11 0 -17 -4 -14 -10 4 -6 16 -8 28 -5 12
2 16 2 9 -1 -6 -3 -9 -10 -6 -16 4 -6 -1 -8 -15 -3 -12 4 -21 2 -21 -4 0 -6 8
-11 18 -12 14 0 14 -2 -3 -9 l-20 -9 20 0 c17 -1 18 -3 5 -11 -13 -9 -13 -11
0 -20 13 -8 12 -10 -5 -11 -11 0 -14 -3 -7 -6 10 -4 10 -8 1 -20 -10 -12 -10
-16 2 -24 10 -6 10 -9 2 -9 -20 0 -15 -40 5 -41 11 -1 9 -4 -8 -9 -14 -4 -20
-8 -15 -9 10 -1 15 -71 5 -71 -3 0 -5 -26 -5 -58 0 -31 -2 -61 -5 -67 -2 -5
-6 -30 -8 -55 -1 -25 -4 -60 -5 -77 -1 -19 -7 -33 -15 -33 -9 0 -10 5 -3 18 7
13 7 22 0 29 -6 6 -11 24 -11 42 -1 19 -6 31 -15 31 -11 0 -11 -4 -3 -20 6
-11 7 -20 3 -20 -10 0 -11 -56 -1 -65 4 -4 4 -17 0 -29 -4 -11 -7 -43 -6 -71
3 -77 4 -148 3 -165 -1 -18 9 -213 12 -226 9 -50 -35 14 -46 67 -4 19 -11 39
-15 44 -4 6 -10 19 -13 30 -5 23 -9 -39 -11 -173 -1 -52 2 -99 6 -105 10 -16
-2 -37 -23 -37 -30 0 -22 -20 9 -21 l27 -1 -30 -13 c-25 -12 -26 -14 -9 -15
12 0 27 -6 33 -14 9 -11 7 -12 -13 -9 -20 4 -23 1 -23 -21 0 -19 5 -26 26 -29
l26 -4 -27 -2 c-17 0 -28 -7 -28 -15 0 -9 7 -12 20 -9 11 3 20 0 20 -6 0 -6
-7 -11 -15 -11 -8 0 -15 -4 -15 -10 0 -5 11 -10 25 -10 27 0 34 -15 10 -24 -8
-3 -15 -1 -15 5 0 6 -4 8 -9 5 -9 -6 -8 -56 1 -72 3 -5 4 -21 2 -36 -1 -16 0
-28 4 -28 4 0 6 -15 6 -32 -1 -18 3 -39 9 -46 5 -7 7 -15 4 -19 -4 -3 -1 -15
5 -27 7 -11 12 -27 13 -35 0 -8 6 -16 13 -18 9 -4 10 2 1 24 -6 15 -16 77 -23
136 -12 108 -12 108 12 134 17 18 20 29 13 36 -16 16 -13 27 8 27 26 0 78 23
79 35 0 6 -11 25 -24 43 -29 37 -25 38 61 17 86 -21 86 -20 59 31 -14 26 -23
52 -21 58 2 6 -3 17 -10 25 -31 30 0 21 58 -18 34 -23 68 -40 74 -37 7 2 27
34 45 71 18 37 39 69 47 72 7 3 10 9 7 14 -10 17 26 61 46 56 10 -2 25 4 34
14 15 18 14 19 -7 19 -20 1 -20 2 -4 11 23 14 58 2 50 -17 -9 -24 10 -15 56
26 25 22 51 40 58 40 8 0 11 5 7 11 -4 8 1 9 16 4 15 -5 20 -4 16 4 -4 6 -4
16 0 22 5 8 8 8 14 0 3 -7 14 -9 23 -5 19 7 23 24 6 24 -5 0 -7 5 -4 11 5 6
13 3 22 -10 16 -24 38 -28 29 -6 -5 13 -2 14 15 5 11 -6 25 -9 32 -6 9 3 9 5
0 5 -10 1 -10 7 -2 25 8 16 17 22 30 19 10 -3 16 -10 13 -15 -3 -5 -12 -7 -20
-4 -8 3 -14 1 -14 -3 0 -5 6 -11 13 -14 9 -3 9 -8 -2 -21 -23 -27 -5 -30 56
-8 61 22 218 38 208 21 -4 -5 1 -9 9 -9 28 0 17 -20 -11 -21 -25 -2 -26 -2 -5
-6 14 -3 32 3 42 12 18 16 20 16 36 0 11 -10 27 -15 42 -12 14 3 40 -3 59 -14
22 -12 44 -17 65 -13 28 5 30 4 14 -6 -11 -8 -38 -10 -70 -6 -34 3 -44 2 -31
-4 11 -5 52 -9 90 -10 39 -1 62 -4 52 -7 -24 -6 -3 -33 27 -33 11 -1 44 -7 71
-15 48 -13 49 -14 15 -14 -20 -1 -41 4 -48 11 -15 15 -24 6 -17 -15 6 -15 55
-30 55 -17 0 4 11 7 24 6 26 -1 25 -16 0 -16 -8 0 -12 -4 -9 -10 4 -6 -6 -11
-22 -11 -23 -1 -24 -3 -6 -6 12 -2 30 0 40 5 25 13 64 -3 57 -23 -4 -9 -16
-15 -28 -14 -41 3 -99 -1 -94 -7 3 -3 25 -5 49 -6 24 0 56 -7 72 -14 32 -17
35 -24 7 -17 -11 3 -26 0 -34 -6 -7 -6 -22 -9 -32 -5 -15 5 -16 4 -4 -4 8 -6
28 -9 45 -6 24 4 26 3 10 -5 -16 -8 -11 -10 26 -10 28 -1 51 -7 59 -16 10 -13
9 -15 -11 -15 -19 0 -21 2 -9 10 13 8 12 10 -2 10 -10 0 -18 -5 -18 -11 0 -7
-10 -9 -24 -7 -14 3 -31 1 -38 -3 -9 -6 -3 -9 17 -9 24 0 27 -2 15 -11 -12 -8
-9 -10 13 -6 15 2 30 0 33 -4 3 -5 0 -9 -7 -9 -9 0 -9 -3 0 -14 10 -12 8 -15
-11 -19 -18 -4 44 -2 85 2 5 1 5 6 2 11 -4 6 -15 8 -26 5 -11 -4 -19 -2 -19 4
0 20 38 12 67 -14 l28 -24 -45 -2 c-41 -1 -43 -2 -15 -9 27 -7 25 -8 -17 -9
-29 -1 -48 4 -51 12 -4 9 -8 8 -16 -3 -9 -12 -3 -16 32 -20 26 -3 37 -8 30
-13 -16 -10 -17 -27 -2 -27 6 0 17 -6 24 -12 34 -31 45 -38 57 -38 9 0 9 3 -2
10 -11 7 2 10 43 10 53 0 71 -10 47 -25 -6 -3 -10 0 -10 7 0 9 -3 10 -8 2 -4
-6 -34 -15 -67 -19 -47 -6 -55 -10 -35 -15 14 -3 27 -3 30 0 3 4 34 7 70 7 36
0 77 1 92 3 l27 3 -22 18 -22 18 28 1 c15 0 27 5 27 11 0 5 -4 7 -10 4 -22
-14 -27 7 -10 43 40 82 104 125 188 126 47 1 57 -2 76 -26 12 -16 25 -28 28
-28 4 0 23 28 44 63 42 69 99 144 129 168 11 9 31 26 45 37 93 76 -152 -16
-278 -104 -35 -25 -67 -43 -69 -40 -3 3 32 43 78 90 94 95 197 166 241 166 15
0 28 3 28 8 0 4 -55 7 -123 7 -93 1 -145 7 -219 25 -54 13 -96 26 -93 28 2 3
29 15 59 27 66 27 181 99 251 158 105 87 137 111 202 149 36 21 87 43 112 49
72 15 78 18 61 29 -29 19 -243 10 -370 -15 -33 -7 -34 -6 -15 8 32 24 200 107
216 107 8 0 21 5 29 11 11 7 6 8 -19 4 -20 -4 -32 -3 -30 3 6 13 67 87 116
139 l41 44 -51 29 c-29 17 -57 30 -63 30 -6 0 -17 6 -23 14 -9 11 5 14 86 20
54 3 132 8 173 12 128 10 257 -35 342 -120 l45 -44 0 43 c0 60 42 141 111 212
60 62 124 113 141 113 6 0 11 4 11 8 0 7 100 62 113 62 4 0 -2 -14 -13 -32
-10 -17 -17 -35 -14 -40 3 -4 0 -8 -5 -8 -6 0 -11 -9 -11 -20 0 -11 -5 -20
-11 -20 -6 0 -9 -7 -5 -15 3 -8 2 -15 -3 -15 -4 0 -14 -19 -21 -42 -8 -24 -17
-48 -22 -54 -5 -6 0 -18 11 -28 19 -17 22 -15 82 44 34 34 72 66 83 71 12 5
35 18 51 28 26 17 58 35 122 70 10 5 45 19 78 31 33 13 67 26 75 30 9 4 30 11
48 15 18 3 32 10 32 15 0 4 15 11 34 14 73 14 215 132 238 199 12 34 28 35 29
2 1 -23 3 -33 9 -52 10 -36 -28 -221 -52 -250 -6 -8 -9 -16 -6 -19 3 -3 -6
-18 -21 -33 -14 -16 -30 -35 -36 -43 -5 -8 -19 -25 -30 -38 l-20 -23 20 8
c103 41 173 65 208 70 23 4 47 11 52 15 26 20 410 46 420 29 7 -10 -39 -24
-144 -44 -89 -17 -158 -40 -258 -86 -24 -10 -45 -19 -49 -19 -3 0 -17 -9 -31
-20 -14 -11 -22 -20 -17 -20 24 1 101 34 117 51 20 21 37 25 37 8 0 -8 29 -9
97 -4 177 14 370 5 357 -16 -3 -5 12 -9 32 -9 65 0 30 -10 -47 -14 -94 -4
-206 -24 -242 -43 -41 -20 -31 -23 36 -10 32 7 55 15 51 20 -4 4 2 7 13 7 11
0 23 -8 25 -17 3 -11 27 -26 59 -37 30 -10 63 -24 74 -30 54 -29 226 -87 237
-80 6 4 13 2 17 -4 17 -27 253 -38 361 -16 19 4 3 -16 -66 -83 -87 -84 -205
-165 -258 -179 -14 -3 -30 -12 -36 -19 -21 -25 69 1 96 29 31 30 42 32 58 10
10 -14 19 -13 86 9 41 14 77 23 79 21 9 -8 -131 -114 -152 -114 -7 0 -17 -4
-23 -9 -5 -5 -26 -14 -46 -21 -35 -11 -37 -13 -21 -28 9 -9 19 -17 22 -18 34
-3 89 -24 155 -59 58 -30 103 -46 161 -55 79 -12 189 -14 233 -3 34 8 28 -20
-11 -53 -73 -63 -85 -71 -123 -92 -21 -12 -63 -31 -92 -41 -49 -17 -52 -19
-28 -25 27 -7 36 -25 14 -28 -7 0 -24 -3 -38 -4 -231 -30 -403 -17 -435 32 -8
13 -20 24 -25 24 -10 0 47 -89 65 -102 6 -4 11 -11 11 -15 4 -23 17 -53 23
-53 4 0 15 -23 25 -50 18 -49 32 -68 43 -56 3 3 2 13 -2 23 -5 10 -7 21 -7 26
1 4 -3 7 -9 7 -5 0 -7 5 -4 10 3 6 23 11 43 11 33 2 34 2 7 6 -57 7 -76 14
-73 26 2 12 -28 65 -47 80 -5 5 15 5 45 2 30 -4 94 -7 143 -6 49 2 87 -2 87
-7 0 -5 18 -21 39 -35 35 -23 136 -146 136 -165 0 -8 31 -85 46 -114 5 -10 5
-19 0 -22 -5 -3 -27 18 -48 47 -55 72 -116 129 -200 187 -85 59 -125 68 -67
15 21 -19 42 -35 46 -35 4 0 8 -6 8 -13 0 -7 9 -19 20 -27 28 -20 77 -144 85
-215 3 -33 8 -71 10 -85 4 -32 -26 -132 -42 -137 -7 -3 -15 7 -19 21 -3 14
-10 26 -16 26 -5 0 -6 4 -3 10 3 5 -2 22 -12 37 -25 39 -109 123 -122 123 -6
0 -11 17 -11 39 0 29 5 41 18 44 14 4 13 5 -4 6 -16 1 -21 9 -22 41 l-3 40 47
0 c26 0 44 3 41 7 -13 12 -127 9 -127 -4 0 -7 3 -13 8 -13 11 0 15 -189 4
-203 -5 -7 -9 -24 -8 -39 1 -20 -3 -28 -15 -28 -12 0 -16 7 -14 25 1 15 -4 29
-13 34 -9 5 -13 16 -10 29 4 12 0 26 -8 33 -8 6 -11 15 -8 20 3 5 0 9 -5 9
-22 0 -10 20 12 21 22 0 22 0 1 9 -23 9 -40 50 -21 50 6 0 3 6 -8 13 -10 8
-15 19 -12 24 4 6 0 13 -8 17 -8 3 -21 21 -29 41 -9 20 -20 34 -26 30 -7 -4
-4 -16 8 -33 11 -15 17 -33 15 -39 -3 -7 0 -13 6 -13 6 0 11 -8 11 -18 0 -10
3 -22 7 -26 4 -3 8 -14 9 -24 1 -9 6 -39 10 -67 11 -68 7 -217 -7 -255 -1 -3
-1 -8 0 -12 0 -5 -4 -8 -10 -8 -5 0 -7 -5 -4 -10 4 -6 1 -17 -5 -25 -6 -8 -9
-19 -5 -26 6 -8 -2 -9 -25 -4 -23 5 -30 4 -26 -4 4 -6 16 -11 26 -11 17 0 18
-4 9 -30 -6 -16 -15 -30 -19 -30 -4 0 -6 -8 -3 -19 3 -10 0 -22 -7 -26 -8 -5
-10 8 -7 45 2 28 0 53 -5 56 -18 11 -8 41 13 40 12 -1 24 5 26 12 3 7 1 12 -4
11 -4 -1 -18 -1 -30 0 -34 2 -28 21 7 21 18 0 30 5 30 13 0 13 -11 16 -52 18
-9 0 -19 7 -22 16 -9 23 1 28 20 9 18 -19 65 -18 71 1 3 7 -13 15 -39 21 -42
9 -42 9 -15 17 25 7 26 9 10 20 -11 8 -26 10 -45 4 -16 -4 -30 -4 -33 2 -4 5
3 9 14 9 12 0 21 7 21 15 0 9 6 12 15 9 8 -4 15 -1 15 5 0 6 -19 12 -42 12
l-43 2 40 7 c31 6 34 7 13 9 -16 0 -28 5 -28 11 0 5 7 7 15 4 8 -4 15 -1 15 5
0 6 -11 11 -25 11 -19 0 -25 5 -23 18 2 12 -4 17 -19 17 -12 0 -25 4 -29 8 -4
4 0 7 9 7 10 0 17 5 17 11 0 6 -9 9 -20 6 -11 -3 -18 -1 -14 4 3 5 -3 9 -13
10 -10 0 -13 3 -5 6 19 7 14 23 -7 23 -16 0 -23 14 -38 82 -10 47 -24 83 -32
86 -11 4 -12 -2 -6 -24 22 -88 25 -177 7 -200 -14 -18 -14 -18 -8 0 5 14 2 17
-9 12 -9 -3 -15 0 -15 8 0 8 6 16 13 19 16 6 -30 57 -52 58 -9 1 -5 5 9 9 22
7 22 8 5 10 -11 1 -26 2 -32 1 -7 -1 -13 3 -13 9 0 5 8 10 18 10 31 1 -72 90
-105 90 -22 1 -34 10 -57 46 -45 71 -42 44 6 -48 24 -45 50 -101 57 -123 8
-22 21 -56 29 -75 8 -19 16 -47 17 -62 2 -25 0 -28 -29 -27 -17 1 -24 3 -15 6
17 4 15 43 -2 43 -5 0 -8 3 -8 8 4 23 -4 32 -26 32 -26 0 -35 24 -13 34 7 3 2
3 -12 0 -18 -4 -34 2 -55 20 -18 16 -42 26 -61 26 -26 0 -39 11 -83 65 -54 67
-78 82 -65 43 4 -13 8 -32 9 -43 3 -40 16 -102 30 -141 10 -30 18 -39 37 -39
13 0 22 -5 20 -12 -1 -10 18 -13 70 -13 64 0 70 -1 52 -14 -10 -8 -16 -18 -11
-22 4 -4 7 -2 7 4 0 18 42 14 69 -7 24 -19 37 -51 21 -51 -15 0 -140 -124
-140 -138 0 -9 -7 -11 -19 -7 -16 5 -19 1 -18 -16 2 -28 43 -74 52 -59 3 5 1
10 -5 10 -6 0 -8 5 -4 11 3 6 0 15 -7 20 -11 6 0 23 46 69 64 66 119 105 134
96 21 -14 18 -45 -6 -61 -35 -23 -74 -63 -109 -110 -16 -22 -31 -42 -35 -45
-11 -10 -18 -40 -9 -45 9 -6 17 1 73 69 38 45 60 56 72 35 20 -31 -42 -97 -79
-83 -20 8 -28 -23 -17 -65 6 -20 12 -47 15 -61 8 -40 42 -70 80 -70 36 0 62
23 90 80 18 36 38 194 29 228 -3 12 2 22 13 26 10 4 15 4 11 -1 -4 -4 11 -12
35 -18 l43 -10 -2 -69 c-2 -59 -1 -67 12 -56 8 7 15 18 15 24 0 19 66 140 78
144 7 2 12 -1 12 -7 0 -6 -3 -11 -7 -11 -7 0 -12 -31 -13 -89 0 -13 -4 -29 -9
-35 -8 -10 -15 -41 -27 -116 -2 -14 -7 -36 -10 -50 -8 -32 -12 -61 -19 -140
-13 -154 -18 -187 -35 -220 -25 -48 -141 -171 -220 -233 -85 -68 -85 -68 -118
-97 -16 -14 -48 -41 -72 -60 -24 -19 -61 -50 -83 -67 -26 -22 -49 -33 -71 -33
-31 0 -212 50 -306 84 -25 9 -74 26 -109 37 -35 12 -89 32 -120 46 -31 14 -76
35 -101 46 -25 11 -47 24 -50 27 -3 4 -18 14 -35 23 -16 8 -66 45 -110 82 -72
60 -82 66 -113 60 -18 -3 -48 -15 -65 -26 -18 -10 -39 -19 -47 -19 -20 0 -221
65 -252 81 -28 15 -88 66 -89 76 -1 5 -14 26 -29 48 -15 22 -31 51 -35 63 -14
45 -13 123 1 150 8 15 14 37 14 50 0 30 39 44 104 36 68 -8 126 -46 140 -90
11 -35 166 -188 178 -176 12 12 2 32 -17 32 -20 0 -107 100 -134 154 -17 35
-23 65 -23 109 0 34 4 63 8 64 5 2 8 25 7 53 0 28 3 52 8 55 4 3 6 12 2 20 -3
9 0 21 6 29 7 8 10 20 9 27 -2 8 4 14 12 14 12 0 15 -12 14 -50 -1 -28 3 -53
10 -57 8 -6 8 -8 -1 -8 -7 0 -13 -9 -13 -20 0 -11 5 -20 11 -20 8 0 8 -4 0
-14 -9 -11 -9 -16 0 -21 8 -6 7 -10 -2 -16 -11 -7 -11 -9 -1 -9 9 0 12 -10 8
-30 -2 -16 -1 -32 4 -35 4 -3 6 -13 3 -24 -3 -13 2 -20 19 -26 l23 -7 -25 -8
-25 -8 23 -7 c18 -6 20 -10 11 -21 -9 -11 -7 -15 6 -20 13 -5 14 -9 3 -15 -11
-8 -11 -10 0 -18 8 -4 13 -12 13 -17 -1 -17 10 -44 19 -44 13 0 19 25 10 41
-6 8 -4 16 2 20 9 6 8 11 -1 22 -6 9 -8 17 -4 20 4 3 8 30 8 61 0 31 1 56 3
56 1 0 16 -10 33 -22 26 -19 31 -20 39 -8 7 11 5 16 -7 19 -11 2 -12 5 -4 10
8 6 9 15 2 34 -6 16 -7 29 -1 32 5 3 7 11 4 19 -3 9 3 11 23 9 21 -4 39 -21
72 -69 45 -66 78 -101 86 -93 2 3 -7 33 -21 68 -28 70 -25 82 28 100 30 11 30
10 26 -19 -3 -17 -1 -30 3 -30 4 0 15 -24 23 -53 9 -30 25 -66 37 -81 26 -33
89 -66 125 -66 32 0 86 32 107 63 16 25 38 117 31 129 -3 4 0 8 6 8 8 0 10 12
5 39 l-6 39 40 -8 c45 -8 89 -33 98 -56 3 -8 14 -14 24 -14 28 0 13 24 -66
103 -36 36 -65 67 -65 70 0 9 109 0 122 -10 7 -6 30 -16 51 -23 21 -6 51 -23
68 -37 16 -14 33 -22 37 -18 4 4 -4 16 -18 26 -56 44 -140 123 -140 131 0 4 7
8 15 8 8 0 15 -4 15 -10 0 -5 5 -10 11 -10 8 0 8 5 -1 15 -7 8 -26 15 -42 15
-22 0 -29 4 -25 14 4 9 -2 17 -14 21 -10 4 -17 10 -14 15 3 5 -1 12 -8 17 -13
8 -123 152 -125 163 0 3 -5 16 -10 30 -21 51 -25 65 -23 78 1 6 -3 12 -9 12
-5 0 -10 9 -10 20 0 11 -4 20 -8 20 -12 0 -11 -41 4 -92 13 -49 13 -65 1 -85
-5 -8 -3 -13 7 -13 9 0 16 -4 16 -10 0 -5 -4 -10 -10 -10 -5 0 -10 -4 -10 -10
0 -5 7 -10 16 -10 11 0 13 -6 9 -19 -8 -26 14 -107 33 -123 13 -11 14 -10 8
10 -6 16 -3 22 9 22 11 0 15 -7 12 -27 -4 -31 -28 -33 -58 -7 -14 12 -15 12
-14 -6 1 -11 4 -23 8 -26 4 -4 7 -14 7 -23 0 -9 -3 -12 -8 -6 -4 6 -20 11 -37
11 -16 1 -24 -1 -17 -3 6 -3 10 -9 6 -14 -3 -5 15 -9 39 -9 29 0 49 -6 58 -16
12 -15 11 -16 -8 -10 -12 4 -55 7 -95 8 -40 0 -78 3 -85 5 -6 2 -14 20 -17 39
-4 19 -11 34 -16 34 -9 0 -6 -50 6 -89 6 -21 5 -22 -13 -12 -21 11 -36 37 -29
50 3 4 1 24 -4 44 -8 39 4 49 28 25 10 -10 15 -10 22 2 8 12 13 13 30 3 24
-15 70 -17 70 -3 0 6 -8 10 -19 10 -10 0 -32 5 -49 11 -25 9 -30 16 -30 40 1
16 5 32 9 35 5 2 6 11 3 18 -3 8 0 17 5 21 6 3 9 11 5 16 -3 5 -1 16 6 24 9
10 7 16 -7 24 -17 10 -17 10 0 11 12 0 16 5 11 13 -6 10 -4 10 7 0 27 -26 37
-15 27 30 -5 23 -10 64 -12 91 -2 52 -18 70 -34 39 -22 -41 -50 -201 -49 -271
l2 -74 -25 6 c-30 5 -61 -10 -45 -21 6 -5 12 -21 13 -37 1 -16 7 -35 13 -42 9
-11 8 -14 -4 -14 -21 0 -97 100 -141 189 -26 50 -43 127 -42 180 1 40 -20 40
-28 0 -3 -16 -13 -37 -22 -46 -15 -15 -15 -18 2 -31 16 -12 16 -14 2 -9 -13 5
-19 -2 -24 -28 -3 -19 -10 -35 -15 -35 -5 0 -9 -11 -9 -25 0 -14 -4 -25 -8
-25 -4 0 -9 -19 -11 -42 -1 -23 -4 -44 -6 -48 -2 -4 -7 -29 -11 -56 -3 -27 -8
-52 -10 -56 -2 -4 0 -10 6 -13 8 -5 7 -12 -2 -22 -10 -13 -9 -15 7 -12 13 3
19 13 20 31 0 15 5 32 10 37 7 7 10 -31 10 -114 0 -69 -2 -125 -5 -125 -6 0
-21 23 -51 77 -31 54 -62 181 -64 263 -3 90 -3 88 -14 72 -5 -8 -8 -38 -7 -68
1 -50 -1 -54 -21 -54 -13 0 -23 -2 -23 -5 0 -3 -11 -43 -25 -89 -13 -47 -25
-103 -27 -126 -2 -44 -24 -56 -33 -17 -32 144 -37 264 -13 376 10 46 15 87 13
92 -3 4 -1 10 5 14 5 3 10 19 10 36 0 16 5 29 11 29 6 0 9 7 6 15 -4 8 -2 17
3 20 6 4 10 15 10 27 0 37 -25 3 -39 -54 -8 -29 -17 -57 -21 -63 -4 -5 -6 -18
-5 -27 2 -12 -4 -18 -18 -19 -21 0 -21 -1 -2 -9 19 -8 16 -12 -12 -14 -7 -1
-12 -6 -11 -11 1 -6 8 -9 15 -7 7 2 13 -2 13 -9 0 -7 -10 -9 -24 -7 -22 4 -30
-3 -33 -32 -1 -3 -17 -22 -37 -43 -20 -21 -36 -45 -36 -53 0 -8 -6 -14 -12
-14 -7 0 -24 -16 -38 -34 -14 -19 -37 -42 -52 -51 -40 -23 -27 -49 21 -41 35
6 35 6 11 -8 -18 -10 -30 -11 -43 -4 -19 10 -75 2 -64 -9 8 -7 -18 -33 -34
-33 -7 0 -4 -6 7 -15 10 -8 26 -14 34 -14 10 0 11 2 3 6 -31 12 2 55 36 46 11
-3 21 -10 21 -15 0 -5 -9 -7 -20 -3 -29 9 -45 -4 -23 -20 17 -13 17 -14 1 -19
-52 -17 -54 -19 -34 -24 10 -2 36 4 58 14 31 14 41 15 51 5 10 -11 8 -12 -10
-6 -13 3 -23 2 -23 -3 0 -6 -19 -14 -42 -18 -35 -5 -39 -8 -23 -15 11 -4 14
-8 7 -8 -7 -1 -23 6 -36 14 -18 12 -32 13 -62 6 l-39 -9 50 -2 c35 -2 41 -4
21 -7 -16 -3 -25 -8 -19 -11 16 -10 114 -2 107 9 -3 5 5 9 18 9 13 0 40 6 60
13 l38 13 -20 22 c-12 12 -15 22 -9 22 6 0 18 -8 25 -17 11 -15 15 -16 23 -4
7 10 15 11 37 3 l29 -10 -32 -1 c-18 -1 -33 -5 -33 -11 0 -5 5 -10 12 -10 6 0
2 -10 -10 -23 -12 -13 -22 -31 -22 -40 0 -9 -8 -17 -17 -18 -12 0 -13 -2 -5
-6 16 -6 -3 -33 -24 -33 -8 0 -14 -7 -14 -16 0 -10 6 -14 15 -11 8 4 17 2 20
-2 7 -12 -22 -34 -34 -27 -5 4 -12 2 -15 -3 -3 -5 4 -12 17 -16 19 -6 19 -8 5
-12 -16 -4 -16 -6 -3 -20 18 -17 11 -51 -14 -70 -19 -15 -78 -33 -108 -33 -27
0 -89 -33 -125 -67 -38 -36 -53 -21 -28 27 11 22 20 48 20 60 0 11 5 20 10 20
6 0 10 6 10 13 0 13 10 28 59 88 13 17 22 31 20 33 -2 2 -42 -1 -89 -8 -91
-12 -153 -13 -210 -2 -34 7 -55 14 -115 42 -16 7 -43 16 -60 20 -69 14 -98 26
-84 35 8 5 23 9 35 9 25 0 140 68 214 127 164 130 169 142 35 83 -38 -16 -90
-31 -165 -46 -41 -8 -83 -17 -92 -20 -13 -4 -16 -1 -12 9 3 9 17 18 31 22 14
3 40 16 57 28 17 12 38 27 47 32 49 31 144 102 177 132 20 19 -3 24 -49 9 -24
-8 -65 -17 -92 -21 -39 -5 -46 -9 -39 -22 18 -31 -34 -122 -71 -123 -8 0 13
40 29 55 7 5 14 25 16 43 4 27 1 33 -18 38 -12 3 -30 4 -40 3 -33 -5 -244 13
-244 20 0 12 23 31 37 31 36 0 236 161 220 177 -4 3 -14 0 -22 -7 -12 -10 -21
-10 -38 -2 -27 14 -66 12 -61 -3 3 -6 -9 -26 -26 -43 -16 -18 -27 -32 -24 -32
4 0 1 -6 -5 -13 -6 -8 -9 -16 -6 -19 3 -2 -6 -11 -20 -18 -14 -7 -25 -17 -25
-22 0 -4 -14 -8 -31 -8 -18 0 -28 -4 -24 -10 5 -8 -36 -11 -127 -11 -152 0
-184 -1 -193 -10 -3 -4 59 -5 139 -2 109 3 146 1 146 -8 0 -8 -16 -10 -56 -5
-32 4 -53 3 -50 -3 7 -10 -23 -20 -42 -14 -6 3 -9 9 -6 14 3 6 -5 7 -23 3 -15
-4 -29 -11 -31 -16 -2 -4 -24 -8 -48 -8 -45 0 -53 -13 -14 -23 13 -3 18 -1 13
6 -4 7 0 8 13 3 10 -5 27 -11 37 -13 9 -3 17 -9 17 -14 0 -5 7 -9 16 -9 8 0
12 -5 8 -11 -4 -8 -9 -8 -17 0 -6 6 -25 11 -42 10 l-30 -1 35 -10 c19 -5 39
-13 44 -18 11 -11 38 -1 30 11 -3 5 2 9 12 9 14 0 14 -2 3 -16 -10 -13 -10
-17 1 -24 8 -5 18 -6 23 -3 7 4 109 5 175 0 7 0 11 -7 10 -16 -2 -10 -12 -15
-26 -13 -12 2 -22 -2 -22 -7 0 -6 7 -11 15 -11 8 0 19 -8 24 -19 9 -16 7 -18
-15 -19 -14 0 -30 -4 -36 -10 -8 -8 5 -11 42 -10 36 0 56 -5 61 -15 6 -10 22
-13 61 -9 29 2 60 8 70 13 13 7 15 5 11 -11 -9 -35 -30 -43 -94 -37 -33 4 -58
3 -55 -1 2 -4 19 -9 38 -10 33 -3 66 -22 38 -22 -28 0 -90 21 -90 30 0 5 -10
10 -22 12 -12 2 -23 8 -25 14 -2 7 8 9 27 6 18 -3 30 0 30 7 0 7 -29 11 -84
11 -46 0 -91 3 -100 6 -9 3 -16 1 -16 -5 0 -6 7 -11 16 -11 25 0 10 -25 -17
-28 -13 -2 -28 -8 -34 -14 -18 -19 58 1 87 22 33 24 74 26 82 4 9 -23 8 -27
-9 -20 -14 5 -134 -20 -145 -31 -2 -2 17 -3 43 -2 25 2 50 0 53 -4 4 -4 -23
-7 -61 -7 -38 0 -65 -3 -61 -7 3 -4 26 -6 51 -4 25 1 54 -3 65 -9 21 -11 21
-11 -4 -31 -13 -10 -29 -19 -35 -19 -6 0 -11 -4 -11 -9 0 -6 -9 -8 -20 -6 -11
2 -39 0 -63 -4 l-42 -9 55 -1 c39 -1 51 -4 40 -11 -8 -5 -26 -7 -40 -4 l-25 4
23 -11 c18 -10 29 -9 58 4 40 19 54 21 54 7 0 -5 -3 -9 -7 -9 -13 3 -73 -25
-73 -33 0 -11 34 -10 46 2 6 6 10 3 10 -10 0 -17 -5 -20 -28 -15 -15 4 -35 2
-45 -4 -15 -9 -11 -10 20 -11 21 0 36 -4 33 -9 -4 -5 0 -12 6 -14 7 -3 -7 -6
-31 -6 -42 -1 -44 -2 -25 -17 18 -15 18 -15 -11 -9 -20 4 -27 3 -20 -4 6 -5
23 -11 39 -13 30 -3 50 -28 23 -28 -9 0 -17 6 -20 13 -3 9 -7 9 -18 0 -8 -6
-30 -13 -49 -16 -27 -3 -24 -4 17 -5 57 -2 71 -17 40 -44 -19 -17 -19 -18 -1
-18 18 -1 18 -1 1 -11 -9 -5 -22 -7 -27 -4 -16 10 -12 -5 7 -23 16 -16 15 -17
-3 -21 -10 -2 -22 -9 -26 -16 -5 -7 -16 -12 -25 -11 -10 2 -13 1 -6 -1 7 -2
10 -10 7 -18 -3 -7 0 -15 8 -18 7 -2 6 -3 -3 -2 -21 3 -53 -21 -45 -34 4 -6
-6 -18 -21 -28 -15 -10 -39 -28 -53 -40 -14 -12 -36 -31 -50 -42 -24 -21 -76
-67 -190 -171 -30 -27 -64 -53 -75 -56 -11 -4 -22 -10 -25 -14 -3 -4 -22 -17
-43 -28 l-39 -20 -95 34 c-53 19 -100 33 -105 32 -15 -5 71 -48 96 -48 12 0
26 -4 32 -9 5 -6 29 -14 53 -20 38 -8 51 -7 84 10 47 24 56 19 29 -15 -19 -25
-20 -76 -1 -76 5 0 6 7 3 15 -3 8 11 41 31 72 42 65 286 313 331 336 16 8 74
45 129 81 54 37 110 69 122 72 13 4 23 10 23 15 0 5 12 9 26 9 23 0 19 -4 -24
-27 -28 -16 -63 -38 -77 -50 -14 -13 -31 -23 -38 -23 -7 0 -19 -9 -27 -20 -8
-11 -23 -20 -33 -20 -10 0 -16 -4 -13 -9 3 -4 -5 -13 -17 -19 -36 -16 -137
-99 -130 -106 4 -3 1 -6 -6 -6 -18 0 -43 -28 -36 -40 3 -5 -2 -10 -12 -10 -26
0 -100 -76 -81 -83 9 -4 9 -6 1 -6 -7 -1 -22 -22 -33 -48 -11 -27 -27 -60 -34
-75 -11 -20 -11 -28 -3 -32 7 -2 4 -5 -7 -5 -12 -1 -16 -6 -12 -16 3 -9 0 -15
-9 -15 -8 0 -15 -4 -15 -10 0 -5 8 -10 18 -10 16 -1 16 -1 0 -11 -10 -5 -18
-17 -18 -24 0 -8 -7 -15 -16 -15 -12 0 -14 -3 -6 -13 13 -16 5 -29 -28 -44
-14 -6 -19 -12 -12 -12 6 -1 12 -5 12 -11 0 -13 -59 -65 -73 -65 -13 0 -46
-61 -47 -84 0 -8 -37 -50 -82 -93 -67 -63 -89 -78 -113 -77 -29 0 -29 1 -7 10
13 5 20 13 17 19 -3 5 -2 10 4 10 16 0 -9 48 -28 53 -14 4 -13 5 2 6 20 1 23
17 5 24 -10 3 -10 7 0 20 11 13 10 16 -10 20 -21 4 -21 4 3 6 34 1 53 23 36
40 -10 11 -7 12 12 6 20 -6 23 -4 18 9 -5 13 1 16 35 16 60 0 38 13 -28 16
-30 1 -58 5 -61 8 -6 6 46 10 81 6 10 -1 16 3 12 8 -5 9 -83 23 -133 24 -13 0
-20 4 -17 10 10 17 -38 48 -74 48 -20 0 -32 -3 -29 -7 4 -3 2 -12 -4 -20 -6
-7 -7 -13 -2 -13 5 0 10 -8 10 -17 -1 -65 4 -83 21 -84 13 0 12 -3 -6 -11 -15
-8 -21 -17 -16 -30 3 -10 0 -18 -6 -18 -16 0 -10 -69 8 -99 11 -18 12 -26 3
-29 -6 -2 -8 -8 -5 -13 3 -6 -1 -18 -9 -27 -12 -15 -30 -52 -28 -60 1 -1 -5
-18 -13 -37 -8 -19 -12 -35 -8 -36 4 0 -3 -4 -15 -9 -13 -5 -23 -18 -23 -28 0
-15 -10 -21 -40 -26 -23 -4 -38 -11 -35 -16 8 -13 -80 -51 -100 -44 -8 4 -15
1 -15 -6 0 -6 4 -9 9 -5 5 3 12 1 16 -5 4 -6 -7 -10 -27 -10 -18 0 -58 -3 -88
-7 -50 -6 -52 -7 -26 -14 17 -5 35 -4 41 1 12 10 75 10 75 0 0 -4 -18 -10 -40
-14 -39 -6 -52 -20 -27 -29 6 -3 -1 -6 -18 -6 -20 0 -26 2 -16 8 21 13 1 17
-54 10 -45 -5 -46 -6 -12 -7 20 -1 37 -6 37 -11 0 -5 8 -12 18 -14 9 -2 6 -3
-8 -1 -14 2 -36 6 -50 9 l-25 6 25 -15 c14 -8 19 -15 12 -16 -7 0 -11 -4 -7
-9 3 -5 -5 -12 -17 -14 -18 -3 -17 -5 7 -6 17 -1 37 -6 45 -12 11 -8 5 -9 -26
-5 -52 7 -65 -5 -22 -20 31 -12 30 -13 -37 -14 -38 0 -89 -3 -113 -5 -24 -2
-40 1 -36 6 3 5 -7 9 -21 9 -14 0 -24 -4 -20 -10 3 -5 -7 -3 -21 5 -21 11 -32
11 -48 2 -12 -6 -30 -10 -41 -8 -17 3 -17 1 5 -18 19 -15 21 -20 9 -21 -9 0
-22 7 -29 15 -14 17 -55 21 -45 4 4 -6 13 -8 21 -5 8 3 14 1 14 -4 0 -6 -9
-10 -20 -10 -11 0 -20 -4 -20 -10 0 -5 -10 -10 -21 -10 -18 0 -19 -2 -9 -15
11 -13 8 -14 -19 -9 -28 6 -31 4 -31 -19 0 -18 -8 -29 -29 -38 -19 -9 -26 -16
-18 -21 8 -5 6 -13 -7 -27 -13 -15 -15 -21 -6 -21 8 0 4 -7 -8 -19 -12 -10
-19 -21 -15 -25 3 -3 1 -6 -6 -6 -7 0 -10 -3 -8 -8 6 -11 -25 -37 -45 -38 -68
-3 -73 -4 -58 -14 11 -7 -3 -10 -47 -10 -49 0 -63 -3 -63 -15 0 -8 7 -15 15
-15 8 0 15 5 15 10 0 6 5 10 11 10 5 0 8 -4 5 -9 -3 -5 5 -12 19 -15 14 -4 25
-11 25 -17 0 -6 9 -8 22 -3 20 6 21 5 6 -10 -21 -21 -30 -20 -59 5 -15 13 -25
16 -27 9 -2 -6 5 -18 16 -26 32 -22 54 -46 47 -52 -3 -3 -11 0 -17 6 -19 19
-30 14 -17 -9 9 -18 8 -20 -8 -15 -10 3 -57 8 -104 10 -48 2 -97 9 -109 16
-20 11 -22 10 -16 -5 6 -17 -6 -18 -69 -5 -30 7 -188 -1 -179 -9 14 -13 87
-21 104 -11 8 5 19 5 25 0 9 -7 101 -15 115 -10 14 6 220 4 220 -1 0 -10 -28
-19 -56 -19 -14 0 -23 -4 -20 -8 3 -5 -3 -18 -14 -30 -14 -14 -16 -22 -7 -25
7 -3 2 -6 -10 -6 -24 -1 -28 -8 -15 -27 13 -19 44 -25 132 -26 58 -1 76 -3 55
-8 -20 -5 0 -8 61 -9 75 -1 93 -4 98 -17 4 -9 5 -18 4 -19 -36 -26 -82 -35
-185 -35 -94 0 -122 4 -160 21 -25 11 -47 29 -50 39 -5 17 -96 70 -121 70 -6
0 -12 4 -14 10 -1 5 -37 14 -78 20 -104 14 -100 13 -150 37 -49 24 -90 56 -90
71 0 5 -14 19 -30 32 -17 13 -30 28 -30 34 0 6 -16 22 -35 36 -19 14 -35 29
-35 34 0 4 -11 21 -25 38 -14 16 -25 36 -25 44 0 8 -4 14 -9 14 -5 0 -48 49
-96 110 -48 60 -94 110 -102 110 -11 0 -14 18 -12 93 1 52 6 95 12 99 6 4 25
5 42 2 l30 -4 -29 10 c-16 5 -33 7 -37 5 -4 -3 -9 2 -13 10 -3 8 -1 15 4 15 6
0 6 9 0 25 -8 21 -7 25 9 25 10 0 18 6 18 14 0 7 -7 13 -16 12 -17 -1 -17 36
0 42 5 2 1 11 -8 20 -16 16 -14 17 23 23 40 6 38 10 -6 12 -23 2 -25 7 -28 53
-3 45 0 52 17 57 12 3 24 13 27 24 3 10 10 26 15 35 5 10 9 25 9 33 0 9 7 18
15 21 8 4 15 17 15 30 0 13 6 34 12 45 10 17 11 23 1 26 -7 3 -13 18 -13 34 0
29 -64 127 -84 128 -5 1 -18 9 -29 19 -11 9 -17 12 -14 5 4 -6 3 -15 -3 -18
-6 -4 -10 -3 -9 2 5 30 -4 33 -17 6 -9 -18 -24 -33 -33 -33 -17 0 -83 40 -66
40 6 0 -4 7 -21 16 -18 9 -36 29 -44 49 -7 19 -16 34 -19 33 -19 -2 -24 4 -11
12 12 8 12 10 -3 16 -22 8 -129 -5 -123 -15 3 -4 -1 -19 -9 -34 -11 -22 -11
-27 0 -27 17 0 26 -26 19 -56 -4 -14 -2 -24 5 -24 6 0 8 -7 4 -16 -5 -13 -7
-13 -14 -2 -6 9 -9 7 -9 -9 0 -13 5 -23 11 -23 5 0 7 -4 4 -10 -3 -5 -1 -19 5
-31 13 -24 4 -41 -10 -19 -7 11 -10 11 -10 2 0 -7 7 -15 15 -18 8 -4 15 -14
15 -23 -1 -12 -5 -10 -21 9 -17 20 -20 36 -18 91 2 38 -1 72 -7 80 -6 8 -10
39 -8 70 3 54 3 56 -29 67 -18 6 -49 14 -69 17 -21 4 -35 11 -32 16 3 5 -4 9
-15 9 -11 0 -23 4 -26 10 -3 5 -27 8 -53 7 -38 -3 -46 -7 -44 -20 2 -10 -4
-17 -13 -17 -9 0 -13 -5 -10 -10 4 -6 -5 -20 -18 -31 -23 -17 -44 -70 -39 -92
2 -5 -2 -6 -8 -2 -10 6 -14 -12 -12 -46 1 -12 -7 -15 -31 -12 -25 2 -28 1 -12
-5 18 -8 17 -9 -10 -13 -17 -2 -48 -1 -70 2 -22 3 -32 7 -23 8 19 1 41 34 31
45 -3 3 -14 6 -24 6 -10 0 -23 8 -29 18 -10 14 -11 13 -7 -10 2 -16 0 -28 -4
-28 -5 0 -9 5 -9 10 0 6 -8 10 -17 11 -16 0 -15 2 2 10 16 7 12 8 -17 6 -40
-3 -46 1 -27 20 9 9 2 13 -25 18 -20 4 -33 11 -30 16 3 5 0 9 -5 9 -6 0 -11
-5 -11 -10 0 -6 -11 -3 -26 6 -19 13 -28 14 -37 5 -17 -17 -91 -15 -84 3 3 8
-2 16 -13 19 -17 4 -17 2 -7 -17 7 -11 14 -23 17 -26 30 -30 42 -50 29 -50 -8
0 -25 16 -38 35 -13 20 -29 34 -34 32 -6 -2 -23 8 -38 22 -21 19 -38 26 -68
25 -22 0 -38 3 -35 8 3 4 -6 8 -20 8 -13 0 -26 4 -28 10 -1 5 -21 11 -43 14
-22 2 -42 5 -45 6 -3 2 -8 2 -12 1 -5 0 -8 4 -8 9 0 6 -7 10 -15 10 -8 0 -15
-7 -15 -16 0 -12 -6 -15 -24 -10 -31 8 -38 -16 -21 -82 17 -63 40 -108 79
-153 17 -19 36 -44 41 -53 6 -10 33 -24 60 -31 28 -8 43 -14 35 -15 -28 -1 21
-30 54 -31 l31 -1 -30 -8 c-29 -7 -29 -8 -5 -10 14 -1 31 -2 37 -1 8 1 10 -5
7 -14 -4 -10 0 -15 11 -15 9 0 14 4 10 9 -3 6 3 9 14 8 10 0 17 -6 14 -13 -2
-7 1 -15 7 -19 9 -6 9 -10 -1 -16 -10 -6 -5 -9 16 -9 21 0 26 -3 16 -9 -7 -5
-10 -14 -7 -20 4 -6 11 -9 16 -6 5 3 11 1 15 -5 3 -5 -1 -10 -9 -10 -23 0 -19
-17 5 -23 12 -3 18 -10 14 -16 -3 -6 2 -14 11 -18 16 -6 16 -7 -2 -14 -14 -6
-9 -8 18 -8 37 -1 59 -16 36 -23 -8 -3 -2 -12 15 -22 19 -13 35 -16 54 -10 16
4 33 6 38 5 23 -6 72 -12 100 -13 25 0 27 -1 10 -8 -11 -4 -36 -6 -55 -5 -19
1 -29 1 -22 -2 6 -3 10 -9 7 -14 -3 -4 11 -7 32 -5 21 2 46 1 55 -3 17 -6 16
-7 -2 -19 -12 -7 -20 -8 -20 -2 0 5 -15 10 -34 10 -18 0 -39 6 -45 14 -9 10
-28 14 -63 11 -61 -4 -75 -15 -22 -16 21 -1 31 -3 21 -6 -9 -2 -15 -9 -12 -14
4 -5 -10 -9 -30 -9 -24 0 -34 -4 -29 -11 3 -6 17 -9 30 -6 25 4 33 -8 12 -16
-7 -3 -4 -6 6 -6 11 -1 17 -4 13 -7 -10 -11 20 -34 45 -34 18 0 20 -2 8 -10
-13 -9 -7 -14 13 -11 16 2 6 -10 -16 -19 -21 -8 -21 -9 -1 -9 11 -1 25 4 32
11 9 9 12 8 12 -5 0 -9 -7 -17 -16 -17 -24 0 26 -49 51 -50 17 -1 17 -3 -5
-12 l-25 -11 34 -9 c20 -6 50 -6 77 0 24 5 41 6 39 2 -3 -5 1 -11 7 -13 7 -3
0 -6 -16 -6 -28 -1 -29 -2 -10 -16 12 -9 31 -12 54 -9 23 4 31 2 22 -4 -20
-14 26 -24 52 -11 18 9 17 6 -4 -13 -16 -15 -24 -31 -22 -46 3 -20 1 -22 -15
-14 -10 5 -29 6 -43 1 l-25 -7 28 -1 c45 -2 67 -18 67 -51 0 -20 -5 -30 -15
-30 -8 0 -15 -8 -15 -17 0 -12 3 -14 8 -6 5 8 15 2 33 -20 33 -42 48 -67 28
-49 -17 16 -29 15 -29 -2 0 -21 -20 -30 -33 -17 -8 8 -7 11 3 11 7 0 11 3 8 6
-4 3 -16 1 -27 -6 -14 -7 -21 -7 -21 0 0 5 -9 10 -20 10 -11 0 -20 5 -20 11 0
7 13 9 38 5 l37 -7 -30 16 c-22 12 -48 16 -97 13 -38 -2 -68 0 -68 5 0 4 -5 5
-10 2 -6 -3 -7 -17 -4 -30 3 -13 1 -32 -6 -42 -9 -14 -10 -14 -6 -1 3 10 -2
18 -15 21 -10 3 -19 11 -19 17 0 10 3 10 15 0 8 -7 15 -8 15 -3 0 5 -9 16 -20
26 -11 9 -20 12 -20 6 0 -5 -4 -7 -10 -4 -5 3 -10 2 -10 -4 0 -5 4 -12 10 -16
6 -3 6 -15 0 -29 -11 -30 -2 -66 21 -89 16 -14 17 -21 7 -43 -10 -21 -9 -27 2
-34 27 -15 63 -50 52 -50 -6 0 -14 5 -17 11 -4 5 -18 15 -32 20 -22 8 -24 13
-19 44 5 27 3 37 -8 41 -20 8 -41 83 -27 97 6 6 6 17 -1 31 -6 11 -14 27 -18
35 -11 25 -50 20 -66 -8 l-14 -26 6 27 c4 18 1 33 -9 43 -11 10 -14 26 -10 51
5 30 3 36 -16 41 -18 5 -27 26 -22 56 0 4 -6 7 -14 7 -8 0 -12 6 -9 14 4 10 0
13 -13 10 -11 -3 -25 2 -32 10 -8 9 -20 16 -29 16 -8 0 -12 3 -9 7 11 10 -13
33 -34 33 -11 0 -19 7 -19 17 0 9 -11 31 -25 48 -13 18 -21 36 -17 39 3 4 -2
4 -12 0 -14 -5 -17 -4 -12 4 4 7 1 12 -8 12 -9 0 -16 7 -16 15 0 8 5 15 10 15
19 0 10 19 -12 26 -12 3 -28 13 -36 20 -7 8 -18 11 -24 8 -7 -4 -7 -9 0 -13 6
-4 15 -18 21 -32 11 -30 -2 -51 -25 -42 -8 3 -17 -2 -20 -11 -3 -9 -10 -16
-15 -16 -4 0 1 15 12 34 l20 35 -23 12 c-13 6 -33 21 -46 32 -19 18 -24 19
-32 7 -11 -19 -22 -8 -14 14 3 9 18 17 33 17 25 1 25 2 -4 9 l-30 7 35 5 35 5
-32 1 c-18 1 -33 7 -33 13 0 7 10 9 25 7 14 -3 22 -1 18 5 -3 5 1 14 8 19 10
7 8 8 -9 5 -22 -5 -27 3 -24 43 0 8 -3 17 -7 20 -13 8 -23 80 -11 80 5 0 9 -3
9 -7 -4 -27 5 -33 11 -8 l8 30 1 -27 c1 -31 11 -40 31 -27 10 5 11 9 3 9 -18
0 -5 28 15 33 15 4 15 5 0 6 -10 0 -18 6 -18 12 0 19 -30 41 -47 35 -14 -6
-14 -8 2 -20 17 -12 17 -13 -3 -18 -28 -8 -56 33 -50 73 3 16 1 29 -3 29 -5 0
-6 6 -3 13 2 7 -3 31 -12 53 -10 21 -19 45 -20 53 -1 7 -7 18 -13 24 -6 6 -11
17 -11 25 0 8 -25 39 -55 69 -30 30 -55 58 -55 62 0 5 -11 13 -25 19 -14 6
-25 19 -25 27 0 9 -3 14 -8 12 -4 -3 -14 2 -22 11 -8 9 -13 17 -11 17 3 0 -1
16 -9 35 -17 45 -20 55 -26 113 -3 26 -10 47 -15 47 -5 0 -9 14 -9 30 0 17 -4
30 -10 30 -5 0 -10 5 -10 12 0 12 -27 76 -63 146 l-22 43 -3 -662 c-2 -550 0
-665 12 -678 7 -9 14 -23 14 -31 5 -60 28 -225 31 -225 2 0 4 -9 6 -19 2 -10
10 -23 17 -27 7 -5 9 -9 3 -9 -14 0 34 -41 75 -65 28 -15 57 -20 143 -21 l109
-2 61 -58 c34 -32 84 -90 110 -129 50 -73 66 -88 131 -125 31 -17 49 -20 82
-15 23 3 48 13 54 20 7 8 18 15 24 15 6 0 35 11 64 25 30 14 59 22 65 18 7 -4
17 -8 22 -9 15 -3 57 -22 79 -36 31 -20 86 -76 86 -88 0 -5 5 -10 10 -10 6 0
18 -18 27 -40 10 -22 21 -40 25 -40 4 0 5 -7 2 -15 -4 -8 -1 -15 5 -15 6 0 11
-5 11 -10 0 -6 12 -24 27 -40 24 -28 31 -30 69 -24 40 6 45 4 88 -40 26 -25
45 -49 44 -53 0 -5 5 -21 12 -38 7 -16 14 -32 15 -35 0 -3 5 -14 11 -25 6 -11
17 -54 24 -95 7 -41 15 -79 18 -85 3 -5 7 -18 8 -30 3 -28 37 -105 46 -105 5
0 8 -6 8 -14 0 -8 14 -17 30 -21 17 -4 35 -16 41 -27 9 -17 17 -19 53 -14 33
5 46 3 56 -9 7 -9 19 -14 26 -11 8 3 13 0 11 -6 -1 -7 24 -29 55 -50 51 -35
58 -43 63 -83 5 -29 19 -57 40 -83 31 -35 39 -39 86 -41 54 -2 107 -26 132
-60 22 -32 100 -75 132 -73 41 3 65 -16 68 -55 2 -27 9 -35 52 -57 28 -15 55
-26 61 -26 6 0 19 -9 29 -20 10 -11 22 -20 27 -20 5 0 16 -7 24 -15 8 -8 34
-20 57 -27 23 -6 45 -17 49 -23 5 -6 8 -6 8 3 0 7 13 12 29 12 16 0 34 6 40
14 7 8 22 17 35 20 12 3 27 16 33 29 6 13 31 34 54 45 40 20 45 20 67 6 23
-15 26 -14 51 9 29 29 48 34 75 22 11 -5 26 -4 36 3 14 9 22 7 36 -9 23 -25
36 -24 73 7 39 33 62 28 84 -18 10 -21 25 -38 32 -38 8 0 17 -9 20 -21 6 -17
14 -20 48 -18 63 3 65 2 83 -37 12 -25 21 -33 33 -29 13 5 14 4 3 -7 -14 -14
-15 -12 -57 46 -16 22 -65 15 -65 -9 0 -8 -6 -15 -12 -16 -7 0 0 -5 16 -11 22
-8 30 -7 37 3 7 11 9 11 9 -2 0 -18 73 -54 100 -50 12 1 12 0 1 -7 -17 -12 1
-24 23 -16 19 7 20 16 4 32 -20 20 4 13 27 -8 11 -11 39 -24 60 -29 l40 -9
-34 -1 c-28 -1 -32 -3 -21 -16 7 -9 23 -13 36 -11 14 3 22 1 19 -4 -9 -15 41
-23 65 -10 31 17 34 7 6 -23 -14 -15 -20 -29 -15 -32 5 -4 9 -13 9 -21 0 -12
-4 -12 -22 -2 -13 7 -27 19 -31 26 -11 16 -86 52 -111 52 -17 0 -18 2 -6 10
12 8 10 10 -10 10 -14 0 -35 6 -46 13 -85 49 -83 48 -106 33 -28 -18 -40 -17
-101 13 -45 22 -52 23 -90 11 -23 -8 -46 -17 -52 -22 -15 -14 -47 -9 -64 10
-15 16 -41 22 -51 12 -3 -3 -27 -16 -55 -30 -61 -31 -162 -35 -193 -7 -10 9
-26 17 -36 17 -9 0 -14 5 -11 10 4 6 -8 10 -29 10 -20 0 -36 5 -36 10 0 6 -7
6 -19 -2 -15 -9 -35 -5 -114 28 -53 21 -93 43 -90 48 4 5 1 6 -6 2 -7 -5 -21
0 -32 10 -10 9 -36 20 -56 23 -23 4 -41 14 -48 26 -29 57 -41 66 -71 55 -15
-6 -24 -14 -19 -18 15 -11 18 -30 21 -122 1 -75 22 -162 43 -180 3 -3 13 -18
21 -35 8 -16 22 -41 31 -55 9 -14 19 -43 23 -65 4 -22 13 -49 20 -60 6 -11 11
-42 10 -70 -2 -29 2 -53 9 -57 9 -6 9 -8 0 -8 -20 0 -15 -30 5 -31 9 0 12 -3
5 -5 -8 -4 -9 -13 -3 -30 5 -13 7 -24 5 -24 -3 0 9 -15 26 -32 33 -35 66 -99
76 -148 l6 -30 641 3 c574 2 648 4 706 20 36 10 75 20 88 24 12 3 22 8 22 12
0 4 10 7 22 8 11 1 64 15 117 31 208 64 235 72 256 72 11 0 25 4 30 9 8 7 139
41 159 41 4 0 6 -4 6 -10 0 -5 -7 -10 -15 -10 -8 0 -15 -3 -15 -8 0 -4 -15
-13 -32 -21 -18 -8 -47 -29 -65 -48 -17 -18 -34 -33 -37 -33 -9 0 -87 -82 -82
-87 2 -3 22 1 43 7 64 21 86 31 80 36 -3 3 -14 0 -26 -7 -11 -7 -24 -10 -28
-5 -4 5 1 13 11 20 11 6 34 23 51 39 18 15 37 27 43 27 5 0 12 7 16 15 3 8 21
23 40 32 19 9 33 20 31 24 -3 4 2 10 11 13 8 3 13 10 10 14 -8 13 60 31 160
41 49 6 116 19 149 31 33 11 69 22 80 24 11 2 34 9 50 16 17 7 46 19 65 27 19
8 42 18 50 22 9 5 31 12 50 16 30 7 33 6 22 -7 -18 -22 -5 -28 47 -21 54 7 84
20 76 34 -4 5 0 9 8 9 30 0 29 39 -4 115 -7 17 -13 32 -14 35 -7 20 -18 48
-27 67 -15 31 -13 66 11 159 13 48 23 125 26 192 2 62 7 117 9 121 5 8 98 17
268 27 52 3 69 0 80 -13 10 -13 10 -17 0 -20 -6 -3 -9 -9 -6 -15 7 -10 -47 -5
-80 8 -10 4 -12 -2 -9 -20 3 -15 10 -23 18 -20 7 3 16 1 20 -5 3 -6 18 -11 33
-11 15 0 36 -6 47 -13 31 -20 134 -52 142 -43 4 4 1 11 -7 17 -13 8 -12 12 4
24 11 8 28 15 39 15 33 0 -6 29 -69 50 -30 11 -79 33 -107 49 -47 27 -59 29
-124 26 -43 -3 -73 0 -73 5 0 6 8 10 17 10 13 0 14 3 6 11 -6 6 -9 18 -6 25 3
8 0 14 -7 14 -6 0 -14 -9 -17 -20 -3 -11 -10 -20 -15 -20 -5 0 -7 -4 -4 -9 16
-25 -150 -52 -255 -41 -201 22 -418 136 -419 222 0 70 148 111 305 83 39 -7
92 -19 118 -26 43 -12 50 -12 60 2 17 23 131 69 169 69 18 0 72 66 61 73 -5 3
-35 10 -67 17 -41 8 -55 15 -45 21 10 6 6 9 -14 9 -16 0 -26 5 -25 12 2 7 -17
19 -42 27 -25 7 -54 18 -65 22 -11 5 -42 15 -70 23 -27 8 -41 15 -30 15 16 1
17 3 6 10 -16 10 -59 -5 -78 -27 -7 -9 -40 -18 -75 -22 -35 -4 -57 -8 -50 -9
6 0 12 -5 12 -10 0 -5 -29 -8 -65 -7 -36 0 -65 4 -65 9 0 4 8 7 18 7 16 1 15
2 -2 15 -18 14 -18 15 8 25 15 5 33 10 39 11 7 0 -10 8 -38 17 l-50 16 80 7
c44 3 92 9 108 14 18 5 27 3 27 -4 0 -6 13 -11 29 -11 17 0 33 -5 36 -10 4 -6
11 -8 16 -4 15 9 80 -6 74 -17 -4 -5 3 -9 14 -9 19 0 25 10 23 31 -2 13 40 -4
45 -17 3 -8 17 -14 32 -14 14 0 41 -9 59 -20 39 -24 68 -25 88 -5 20 20 40 20
24 0 -11 -13 -6 -15 36 -15 32 0 57 -7 73 -19 22 -17 26 -17 115 1 125 27 191
21 287 -25 42 -21 87 -37 99 -37 12 0 70 -14 128 -31 105 -31 105 -32 121 -11
22 28 55 35 97 22 43 -14 57 -6 20 11 l-27 13 33 11 c32 10 82 -1 72 -16 -7
-11 22 -18 37 -8 11 7 11 9 1 9 -8 0 -12 6 -9 13 2 6 0 24 -4 40 -7 26 -7 27
35 27 23 0 46 -4 52 -9 5 -6 33 -7 64 -3 44 6 55 11 54 25 -1 9 5 17 13 17 10
0 14 -7 10 -20 -6 -22 8 -26 33 -10 12 7 12 10 1 10 -7 0 -11 6 -7 15 3 8 0
18 -7 22 -7 5 -20 21 -30 36 -10 15 -22 25 -27 22 -6 -3 -18 -1 -27 4 -16 9
-15 10 5 11 l24 0 -20 31 c-10 17 -32 39 -48 50 -21 14 -24 19 -11 19 9 0 17
3 17 6 0 9 -24 30 -45 38 -19 8 -19 9 5 15 17 5 21 9 12 15 -6 4 -12 16 -12
27 0 11 -7 19 -17 20 -10 0 -13 3 -7 5 18 8 4 44 -17 44 -10 0 -21 5 -25 11
-4 8 0 9 15 4 15 -5 21 -2 21 9 0 9 -8 16 -17 16 -15 0 -15 2 -4 9 11 7 12 13
3 23 -9 11 -9 17 1 27 9 10 8 14 -5 22 -10 5 -15 18 -13 29 3 14 -2 20 -13 20
-14 0 -14 2 -3 9 7 5 11 13 7 19 -3 6 2 13 11 15 11 3 8 5 -9 6 -16 0 -28 6
-28 12 0 7 11 8 32 3 27 -5 31 -4 21 7 -6 8 -24 16 -39 17 -43 3 -42 12 2 12
37 1 38 1 19 17 -19 15 -18 15 18 10 20 -3 37 -2 37 3 0 5 -16 10 -35 12 -53
5 -29 31 32 34 26 2 74 5 106 8 32 3 57 1 57 -5 0 -5 -19 -9 -42 -10 l-43 -1
35 -16 35 -16 -45 -7 c-41 -5 -38 -6 30 -9 41 -2 62 -5 47 -7 -27 -4 -28 -5
-10 -19 17 -14 15 -15 -19 -10 -27 3 -36 1 -32 -8 3 -8 26 -12 67 -12 55 1 62
3 62 21 0 11 -6 23 -15 27 -10 5 -8 7 10 8 24 1 24 1 6 15 -17 13 -18 15 -3
15 20 0 23 16 5 23 -10 4 -9 8 2 16 13 9 13 14 2 32 -11 17 -11 23 -2 29 7 4
9 13 6 19 -4 6 -2 11 3 11 6 0 11 6 11 13 0 7 9 23 19 34 11 12 17 24 14 27
-4 3 3 14 14 23 20 18 21 49 1 37 -7 -4 -8 -2 -4 4 4 7 13 12 19 12 20 0 18
40 -1 41 -10 1 -8 4 7 8 24 6 24 7 5 26 -14 14 -15 17 -3 13 8 -3 26 0 40 7
21 12 22 14 6 20 -26 11 -3 33 28 27 19 -3 25 0 25 13 0 14 -3 15 -15 5 -12
-10 -15 -10 -15 4 0 11 9 16 29 16 17 0 33 5 36 10 3 6 0 10 -8 10 -10 0 -4
12 17 34 47 51 60 68 63 85 1 8 11 27 22 42 12 16 21 33 21 39 0 5 14 10 30
10 17 0 30 5 30 11 0 6 -10 8 -23 5 -12 -3 -16 -3 -9 0 6 3 12 14 12 25 0 10
4 19 9 19 5 0 11 13 13 30 7 46 -19 38 -43 -13 -21 -45 -21 -46 -86 -149 -43
-69 -98 -127 -120 -128 -9 0 -10 7 -3 25 6 17 6 25 -1 25 -6 0 -7 5 -2 13 4 6
9 21 10 32 6 71 11 104 19 116 10 17 10 18 27 93 10 44 10 66 3 83 -16 34 -22
28 -18 -21 4 -51 -3 -78 -86 -306 -3 -8 -6 -19 -8 -25 -1 -5 -16 -48 -32 -95
-17 -47 -33 -97 -36 -112 -8 -36 -19 -35 -77 7 -27 19 -51 35 -54 35 -23 0
-141 111 -130 122 3 2 -10 22 -29 44 -18 21 -44 57 -59 80 -46 74 -153 107
-317 98 -144 -8 -180 -6 -215 12 -51 26 -113 35 -241 35 -143 0 -194 -7 -194
-27 0 -8 -7 -14 -15 -14 -42 0 17 68 129 150 110 80 123 91 124 104 3 51 24
90 74 140 54 54 77 104 87 185 10 77 37 127 103 191 59 56 174 133 248 166 19
8 44 19 55 24 103 46 134 55 197 55 38 0 68 3 68 6 0 8 -38 19 -67 19 -28 0
-29 10 -2 44 24 31 30 31 75 10 37 -18 43 -38 17 -66 -15 -17 -15 -18 1 -18
41 0 206 -100 271 -165 47 -46 113 -139 129 -182 8 -21 17 -83 20 -137 7 -109
24 -163 27 -86 1 25 3 54 4 65 1 11 3 26 4 33 1 14 41 17 41 3 0 -5 22 -36 50
-69 27 -32 47 -62 43 -66 -3 -3 -1 -6 5 -6 6 0 13 -9 17 -19 3 -11 13 -22 22
-25 14 -6 14 -4 -1 19 -9 14 -14 25 -11 25 7 0 -134 208 -163 239 -13 14 -30
39 -38 57 -8 17 -35 53 -59 80 -24 27 -40 50 -35 52 18 7 140 -61 203 -113 95
-78 157 -162 207 -279 24 -56 59 -133 77 -173 18 -40 33 -77 33 -83 0 -12 28
-57 47 -78 28 -29 80 -99 91 -122 7 -14 25 -45 41 -70 26 -43 63 -136 66 -170
3 -30 26 -89 41 -100 18 -16 18 -5 -2 24 -10 16 -12 26 -4 31 6 3 8 10 5 15
-3 5 6 65 19 132 14 68 28 137 31 153 2 17 8 41 11 55 3 14 7 62 9 107 2 84
-8 131 -53 233 -19 45 -19 46 -1 69 23 28 24 51 3 51 -8 0 -13 -4 -10 -9 3 -5
-2 -15 -11 -22 -15 -12 -16 -11 -11 9 5 19 3 22 -13 17 -10 -4 -19 -2 -19 3 0
6 -10 8 -22 4 -14 -3 -19 -1 -14 6 3 6 -2 13 -11 15 -10 3 0 6 22 7 22 1 49 5
60 9 18 7 18 9 -9 34 l-29 27 26 0 c25 0 67 -42 48 -48 -5 -2 -7 -12 -4 -23 4
-13 11 -18 21 -14 25 9 102 -49 102 -77 0 -9 22 -13 78 -15 101 -1 159 -8 202
-23 127 -44 220 -114 294 -222 20 -29 27 -33 63 -30 47 4 92 -28 118 -81 34
-70 77 -96 169 -104 73 -7 89 -19 116 -91 37 -99 49 -112 97 -112 24 0 43 -4
43 -8 0 -9 44 -32 61 -32 6 0 7 5 4 10 -4 7 2 9 19 4 15 -3 32 -1 39 5 8 6 36
12 63 14 31 3 65 14 90 29 27 17 50 25 70 22 l29 -4 -30 12 -30 12 25 7 c21 6
19 7 -15 9 -30 1 -35 3 -20 9 11 4 22 17 25 28 4 17 9 19 30 11 25 -9 25 -10
5 -24 l-20 -16 20 2 c37 4 42 0 37 -29 -3 -23 0 -29 19 -34 28 -8 26 -9 30 33
2 19 7 40 11 46 5 7 2 14 -9 19 -17 6 -17 7 0 20 16 11 16 15 3 28 -11 11 -12
17 -3 26 8 8 6 15 -9 26 -18 14 -18 14 6 15 23 1 23 2 5 10 -11 5 -15 9 -10
10 6 0 -1 7 -15 15 -21 12 -22 14 -6 15 31 0 96 22 90 31 -2 4 -21 6 -42 4
-20 -3 -29 -2 -20 1 11 3 15 11 11 22 -5 14 -3 15 8 5 18 -18 30 -16 22 3 -4
10 -14 14 -29 11 -13 -2 -29 2 -35 10 -7 7 -20 11 -30 8 -11 -4 -19 -2 -19 4
0 10 20 15 48 12 6 -1 12 3 12 9 0 6 9 4 23 -4 24 -16 40 -11 50 17 3 9 16 17
27 17 11 0 28 7 38 15 9 9 32 27 50 41 17 14 32 32 32 40 0 8 7 14 15 14 23 0
65 30 65 46 0 8 10 14 25 14 14 0 30 9 37 20 7 11 18 20 24 20 6 0 17 6 23 14
8 9 26 12 61 8 49 -4 50 -4 50 22 0 40 21 117 31 111 4 -3 11 1 16 8 4 8 18
19 31 26 16 9 22 21 22 46 0 19 9 50 19 68 11 19 25 45 33 58 7 13 15 26 18
29 18 18 41 89 45 135 1 17 5 36 8 42 4 6 1 13 -5 16 -15 5 -58 -13 -58 -23 0
-10 -47 -60 -56 -60 -4 0 -15 7 -24 15 -14 13 -20 11 -51 -13 -36 -30 -74 -49
-64 -32 3 6 11 10 18 10 6 0 29 17 50 38 37 36 39 36 53 17 14 -18 16 -17 58
28 28 30 51 47 66 47 19 0 21 3 12 12 -7 7 -12 20 -12 31 0 20 -22 47 -40 47
-6 0 -25 15 -43 33 -38 37 -132 102 -176 120 -16 7 -48 33 -70 59 -40 45 -43
46 -126 59 -65 9 -114 10 -206 2 -144 -13 -240 -8 -285 13 -42 20 -275 17
-296 -4 -9 -9 -9 -12 5 -12 9 0 17 -7 17 -16 0 -11 6 -13 19 -9 40 12 -2 -63
-42 -78 -7 -2 -9 -8 -5 -12 4 -4 17 2 29 14 23 21 69 29 69 12 0 -5 15 -13 33
-16 17 -4 37 -11 43 -17 7 -5 16 -7 20 -6 5 2 20 -5 33 -14 22 -15 22 -18 8
-33 -9 -8 -35 -24 -59 -35 -28 -13 -33 -17 -16 -14 15 4 39 6 53 5 14 -1 36
-1 50 -2 14 -1 25 -5 25 -10 0 -5 7 -9 15 -9 8 0 15 -4 15 -10 0 -5 7 -10 16
-10 11 0 4 -10 -20 -29 -35 -28 -68 -32 -82 -10 -3 5 -17 9 -31 9 -15 0 -43
15 -67 36 -53 45 -58 49 -78 57 -10 3 -18 13 -18 22 0 8 -4 15 -10 15 -14 0
-13 -27 1 -32 8 -3 6 -10 -5 -21 -19 -19 -71 -23 -81 -7 -3 6 -15 10 -25 10
-17 0 -18 3 -9 27 6 15 14 30 19 33 5 3 5 12 0 20 -7 10 -10 11 -10 3 0 -7 -7
-13 -16 -13 -14 0 -14 3 -4 15 11 13 10 18 -6 30 -29 22 -47 19 -34 -5 9 -17
8 -20 -9 -20 -22 0 -32 -20 -24 -50 6 -22 6 -22 -16 -4 -11 10 -21 26 -21 36
0 9 -4 20 -10 23 -6 4 -10 -10 -10 -36 0 -25 -7 -50 -16 -60 -15 -16 -13 -19
33 -40 41 -19 67 -22 183 -24 77 -1 147 -7 163 -13 16 -7 42 -12 59 -12 25 0
42 -11 79 -50 48 -49 80 -56 35 -7 l-24 26 39 25 c38 26 86 36 74 16 -3 -6 0
-10 7 -10 29 0 14 -38 -19 -49 -35 -13 -46 -37 -13 -28 11 3 20 1 20 -4 0 -5
11 -9 25 -9 14 0 25 -5 25 -11 0 -6 7 -9 15 -5 8 3 15 1 15 -4 0 -6 11 -10 24
-10 14 0 28 -5 32 -11 4 -8 -1 -9 -17 -4 l-24 7 22 -24 c13 -13 23 -34 23 -47
0 -12 4 -19 10 -16 6 3 10 -4 10 -17 0 -18 -2 -20 -10 -8 -6 10 -10 11 -10 3
0 -24 2 -28 12 -25 5 1 7 -2 3 -8 -11 -18 -35 -11 -68 20 -18 17 -45 35 -62
40 -28 8 -28 9 12 7 57 -1 60 6 13 27 -37 16 -41 16 -57 1 -13 -14 -27 -15
-77 -9 -34 4 -81 7 -106 5 -25 -1 -91 -3 -147 -4 -55 -1 -99 -5 -96 -9 2 -5
21 -8 41 -9 36 0 36 -1 12 -12 -14 -6 -34 -22 -45 -34 -11 -13 -24 -23 -28
-23 -3 0 -31 16 -61 35 -30 19 -60 35 -65 35 -6 0 -30 11 -53 24 -33 18 -51
38 -76 87 -18 35 -44 81 -57 101 -37 56 -40 82 -15 118 13 18 31 53 40 78 22
59 47 65 84 21 15 -17 28 -30 29 -28 59 89 89 119 121 119 9 0 16 11 18 27 4
35 67 70 98 53 10 -5 34 -10 52 -10 47 0 218 33 218 42 0 4 17 11 39 14 21 3
49 16 63 29 13 12 42 28 64 35 52 17 83 41 84 63 0 37 85 88 137 83 71 -7 86
-26 62 -80 -19 -40 1 -54 72 -54 33 1 62 5 65 9 8 14 93 10 117 -5 12 -8 39
-17 59 -20 38 -7 78 -48 78 -79 0 -9 5 -19 10 -22 6 -3 10 -23 10 -43 0 -20 7
-46 15 -56 8 -11 15 -28 15 -38 0 -10 5 -18 10 -18 6 0 10 -6 10 -12 0 -7 14
-21 31 -31 17 -9 33 -26 36 -37 3 -11 10 -20 17 -20 11 0 19 -12 50 -75 36
-74 116 -107 169 -70 13 9 28 10 55 3 20 -6 51 -10 67 -10 37 1 118 -15 167
-33 39 -15 63 -14 98 5 12 6 24 9 27 7 2 -3 21 6 40 19 43 29 48 29 98 4 47
-24 64 -25 110 -6 28 12 35 21 36 43 l1 28 10 -28 c9 -25 14 -27 45 -22 19 3
47 14 62 24 27 19 122 54 181 66 19 4 40 11 46 16 6 5 46 16 90 25 43 9 88 23
99 30 25 18 65 17 88 -1 19 -14 81 -11 102 5 14 11 81 -13 77 -28 -1 -7 10
-12 30 -11 28 0 30 2 13 9 -19 8 -19 9 2 9 13 1 28 10 35 20 9 15 19 18 40 14
21 -4 28 -2 26 8 -5 21 71 41 157 40 62 0 74 2 56 10 -37 15 -20 21 63 20 41
0 78 4 81 9 3 6 1 10 -4 10 -21 0 -11 29 12 33 l22 4 -22 8 c-13 4 -20 11 -17
16 3 5 -5 9 -18 10 -13 0 -17 3 -10 6 18 7 15 21 -8 28 -27 9 -25 25 3 26 22
0 21 1 -3 12 -40 19 -56 37 -40 47 11 7 10 11 -3 25 -10 9 -15 21 -12 26 4 5
-2 9 -11 9 -16 0 -16 1 2 15 18 13 16 14 -23 15 -25 0 -43 -5 -43 -11 0 -8 -5
-7 -15 1 -13 11 -13 15 -3 22 8 6 2 7 -18 3 -17 -3 -44 0 -65 9 -18 8 -27 16
-19 17 8 0 -7 7 -35 14 -27 8 -51 19 -53 25 -2 5 -8 10 -13 10 -6 0 -7 -4 -4
-10 3 -5 1 -10 -4 -10 -6 0 -11 5 -11 11 0 8 -4 8 -14 0 -11 -9 -17 -8 -29 3
-8 8 -28 18 -43 20 -16 3 -34 13 -40 21 -12 17 -83 22 -139 10 l-30 -6 28 18
c30 20 35 44 12 63 -8 7 -15 18 -14 24 3 26 -2 36 -20 36 -16 0 -17 5 -11 40
7 36 4 45 -27 88 -25 35 -33 54 -29 75 10 51 -34 105 -51 61 -3 -8 -12 -13
-21 -9 -8 3 -21 0 -29 -6 -11 -9 -19 -7 -36 10 -13 11 -26 21 -30 21 -4 0 -16
9 -26 19 -23 23 -98 38 -114 22 -6 -6 -21 -11 -33 -11 -12 0 -27 -7 -34 -15
-7 -8 -20 -15 -29 -14 -11 0 -9 3 7 9 12 5 22 14 22 20 0 5 13 10 29 10 16 0
34 7 42 16 10 12 25 14 68 9 83 -9 112 -16 105 -26 -3 -5 -1 -9 4 -9 17 0 21
28 6 41 -9 7 -22 26 -31 43 l-16 31 27 -28 c39 -42 46 -61 37 -94 -8 -28 -7
-29 15 -25 14 2 27 8 30 13 22 36 84 -25 84 -83 0 -20 8 -43 19 -55 27 -28 53
-82 46 -93 -7 -11 80 -102 89 -93 3 4 1 12 -5 20 -17 19 -5 16 21 -7 13 -11
33 -20 45 -20 12 0 33 -10 47 -22 38 -35 64 -47 85 -42 25 7 74 -12 71 -28 -2
-6 16 -15 42 -21 25 -5 48 -14 51 -19 3 -5 44 -12 90 -15 48 -4 75 -9 64 -13
-16 -5 -13 -8 14 -13 24 -5 32 -11 27 -22 -3 -9 0 -15 9 -15 20 0 30 -21 14
-31 -11 -7 -10 -9 5 -9 11 0 16 -3 13 -6 -3 -4 -1 -16 4 -27 8 -14 8 -22 -1
-27 -8 -5 -3 -10 14 -14 15 -4 24 -11 21 -16 -3 -6 4 -10 17 -10 17 0 19 -3
10 -9 -10 -6 -5 -11 19 -20 34 -12 53 -6 29 9 -10 7 -11 10 -2 10 9 0 12 266
12 1295 l0 1295 -6400 0 -6400 0 0 -75z m5009 19 c2 -2 -8 -8 -21 -13 -14 -5
-45 -29 -69 -52 -39 -37 -41 -41 -19 -36 14 3 32 2 40 -3 11 -7 1 -10 -33 -10
-45 0 -51 -3 -112 -65 -36 -36 -63 -65 -61 -65 3 0 -13 -18 -35 -40 -22 -22
-45 -40 -50 -40 -5 0 -9 -3 -9 -7 0 -5 -21 -30 -45 -56 -25 -26 -45 -50 -45
-53 0 -2 -17 -22 -37 -42 -21 -21 -51 -54 -67 -75 -48 -60 -58 -39 -13 26 31
45 13 42 -32 -5 -53 -56 -53 -36 1 33 42 54 240 262 288 303 13 12 45 40 70
63 25 23 63 56 85 73 22 16 46 35 54 42 29 26 57 37 81 31 14 -3 27 -7 29 -9z
m-1663 -116 c18 -30 38 -214 24 -223 -7 -4 -29 15 -58 50 -8 9 -11 23 -8 31 4
10 -1 18 -14 21 -19 5 -27 33 -13 47 4 3 8 16 10 27 8 50 41 76 59 47z m602
-116 c10 -7 10 -18 0 -58 -7 -27 -15 -51 -19 -54 -12 -10 -16 -47 -8 -63 6
-10 5 -18 -1 -22 -5 -3 -10 -17 -10 -30 0 -13 -5 -27 -11 -30 -6 -4 -8 -13 -5
-21 3 -8 1 -14 -4 -14 -6 0 -13 0 -17 0 -5 0 -9 5 -9 10 -1 6 -2 12 -3 15 0 3
-1 7 -1 10 0 3 -8 20 -18 37 -28 50 -36 88 -17 88 8 0 15 8 15 18 0 26 29 83
53 105 22 19 35 21 55 9z m2582 -32 c0 -6 -12 -15 -27 -20 -16 -6 -35 -14 -43
-20 -8 -5 -42 -23 -75 -40 -65 -32 -97 -51 -105 -61 -3 -4 -16 -10 -29 -14
-14 -4 -33 -16 -44 -26 -11 -10 -33 -21 -48 -24 -16 -4 -29 -10 -29 -15 0 -10
-68 -42 -81 -38 -5 2 9 16 33 31 23 15 38 27 33 28 -6 0 1 5 14 10 35 14 19
22 -20 10 -19 -5 -27 -10 -19 -11 8 -1 -3 -6 -25 -11 -67 -15 -85 -17 -85 -8
0 5 5 9 12 9 6 0 34 11 62 25 28 13 110 47 181 75 72 28 139 55 150 60 43 20
121 49 133 49 6 1 12 -4 12 -9z m-3257 -118 c3 -35 7 -66 11 -69 3 -4 6 -21 6
-39 0 -18 4 -35 9 -38 5 -4 8 -12 7 -19 -16 -84 -32 -137 -47 -159 -11 -14
-19 -33 -19 -41 0 -9 -4 -18 -9 -21 -12 -8 -12 -86 0 -86 17 0 9 -19 -10 -25
-12 -4 -17 -12 -14 -24 7 -28 -33 -38 -57 -16 -11 10 -17 22 -14 26 3 5 -4 9
-14 9 -20 0 -29 22 -39 105 -12 94 -7 129 32 210 21 44 42 82 47 83 4 2 8 19
8 38 0 24 5 34 15 34 10 0 15 10 15 31 0 17 10 44 21 61 30 41 47 22 52 -60z
m826 -279 c-5 -13 -10 -44 -11 -68 -2 -25 -7 -45 -11 -45 -5 0 -6 -3 -4 -7 3
-5 1 -35 -3 -68 -11 -81 -23 -204 -23 -237 0 -16 -4 -28 -8 -28 -5 0 -6 -8 -2
-17 5 -15 3 -15 -13 2 -13 13 -19 33 -19 60 1 22 -1 44 -4 49 -2 5 -5 24 -7
42 -2 26 1 34 14 34 16 1 16 1 0 11 -24 13 -23 29 2 29 21 0 27 15 10 25 -6 4
-7 12 -3 18 4 7 8 21 9 32 3 54 29 151 47 173 5 6 6 12 2 12 -4 0 -2 7 5 15
18 22 31 -1 19 -32z m-1609 -424 c0 -7 20 -32 45 -56 25 -24 46 -51 46 -61 7
-96 -2 -108 -65 -91 -47 13 -77 45 -70 75 3 12 1 25 -6 29 -8 5 -8 11 1 21 9
11 9 21 0 40 -9 20 -9 30 0 40 14 17 49 19 49 3z m4844 -1404 c21 -14 27 -14
59 1 45 22 69 13 65 -23 -4 -43 -50 -81 -90 -75 -50 7 -98 47 -98 83 0 34 25
39 64 14z m-1706 -554 l37 -9 -35 -1 -35 -2 35 -19 c19 -11 43 -19 54 -20 16
0 16 -2 -5 -20 -21 -17 -22 -19 -6 -20 10 0 15 5 12 10 -10 16 24 12 56 -7 30
-18 40 -37 14 -27 -8 4 -15 1 -15 -4 0 -6 17 -14 38 -18 20 -4 31 -9 25 -11
-21 -7 -15 -23 8 -23 11 0 18 -4 15 -9 -3 -5 -53 -9 -111 -9 -58 0 -109 -2
-112 -6 -4 -3 25 -6 63 -6 41 -1 79 -7 94 -15 24 -14 16 -20 -19 -16 -7 2 -10
-3 -6 -9 4 -7 18 -9 35 -5 16 3 31 2 35 -4 3 -6 15 -11 26 -11 11 0 17 -5 14
-10 -4 -6 -15 -8 -25 -5 -10 3 -25 -2 -35 -11 -12 -12 -19 -14 -28 -5 -6 6
-22 12 -36 12 -25 1 -24 2 4 9 30 8 30 8 -7 9 -47 1 -49 -15 -3 -35 40 -16 89
-19 80 -4 -3 6 1 10 9 10 21 0 9 -30 -13 -31 -9 -1 -42 -1 -74 -1 -33 0 -56
-3 -52 -6 7 -8 14 -8 93 -11 28 0 52 -5 52 -10 0 -5 -28 -7 -62 -4 -46 3 -59
2 -48 -6 12 -9 9 -11 -15 -13 -16 -1 -48 0 -70 1 -31 2 -37 0 -28 -9 6 -7 36
-13 67 -14 62 -1 69 -7 31 -24 -32 -15 -38 -15 -29 0 5 8 -5 9 -37 4 -55 -9
-75 -26 -30 -26 19 0 30 4 26 10 -3 6 -1 10 4 10 13 0 14 -10 2 -29 -7 -10
-33 -14 -97 -14 -53 0 -68 -2 -36 -4 30 -2 50 -8 47 -14 -8 -12 2 -12 26 1 24
13 63 -17 50 -39 -7 -10 -9 -10 -13 1 -5 12 -37 14 -142 9 -28 -1 -29 -2 -10
-15 14 -11 21 -11 26 -3 5 9 15 9 38 0 16 -6 30 -8 30 -4 0 5 12 6 28 3 27 -5
27 -6 -8 -14 -19 -5 -42 -12 -50 -15 -30 -12 -143 -13 -156 -2 -11 9 -14 9
-14 0 0 -7 -17 -10 -45 -9 -28 2 -45 8 -45 16 0 6 -7 12 -15 12 -8 0 -15 4
-15 9 0 14 -38 24 -100 26 -30 1 -65 6 -78 10 -29 10 -27 -16 3 -27 13 -5 8
-6 -15 -4 -19 2 -43 7 -52 11 -28 11 -21 -10 7 -23 14 -6 44 -9 67 -6 49 7 47
7 72 5 11 0 17 -3 15 -5 -6 -6 -122 -25 -171 -28 -37 -2 -37 -2 -18 -20 11
-11 20 -23 20 -28 0 -6 6 -10 14 -10 8 0 16 -3 18 -7 7 -17 116 -90 154 -105
25 -9 82 -16 145 -18 57 -1 115 -3 129 -5 14 -1 53 -3 88 -3 36 -1 62 -6 62
-13 0 -6 -9 -8 -20 -4 -21 7 -28 -10 -7 -18 6 -3 2 -6 -10 -6 -13 -1 -23 4
-23 10 0 8 -5 7 -15 -1 -13 -11 -13 -15 -3 -22 8 -5 -20 -8 -67 -7 -106 2
-346 -8 -353 -16 -3 -3 45 -4 107 -2 62 1 115 -1 117 -5 3 -4 -9 -8 -26 -8
-18 0 -29 -4 -25 -10 7 -12 -64 -8 -84 4 -11 7 -13 4 -9 -12 4 -12 2 -22 -4
-22 -15 0 -38 27 -30 35 4 5 1 5 -6 1 -7 -4 -10 -12 -7 -17 4 -5 -17 -9 -49
-9 -30 0 -56 4 -58 10 -2 8 -29 16 -61 19 -5 1 -5 6 -2 11 4 6 -5 10 -19 10
-16 0 -26 6 -26 15 0 9 -9 15 -25 15 -17 0 -29 8 -37 24 -16 38 -34 38 -52 3
l-15 -32 42 -6 42 -6 -44 -1 c-33 -2 -42 -5 -38 -16 3 -8 1 -17 -6 -20 -7 -4
-2 -4 11 -2 12 2 22 0 22 -5 0 -5 -10 -9 -22 -9 -13 0 -29 -4 -36 -9 -10 -6
-8 -10 10 -16 22 -7 22 -7 -7 -15 l-30 -8 33 -1 c17 0 32 -5 32 -10 0 -9 72
-27 97 -24 7 0 10 -4 7 -9 -3 -5 -19 -6 -35 -3 -40 9 -30 -17 13 -33 27 -10
29 -13 17 -28 -12 -15 -11 -16 9 -10 24 8 56 -9 46 -25 -3 -5 7 -9 21 -9 15 0
33 -6 40 -14 12 -11 7 -15 -27 -25 -23 -7 -48 -19 -55 -27 -8 -8 -26 -14 -39
-14 -14 0 -23 -4 -20 -9 7 -11 -68 -35 -93 -28 -12 3 -21 1 -21 -3 0 -4 17
-12 38 -18 31 -8 33 -10 12 -12 -14 -1 -33 -1 -44 0 -11 1 -15 -3 -12 -9 8
-12 108 -15 120 -4 4 4 23 8 43 10 20 1 39 6 42 11 3 6 51 15 106 21 60 6 104
16 110 24 16 21 84 59 98 54 7 -2 -1 -10 -17 -19 -35 -18 -23 -29 44 -39 l45
-6 -58 -2 c-42 -1 -59 -5 -64 -17 -3 -8 -12 -13 -19 -10 -8 3 -14 1 -14 -4 0
-6 -6 -10 -12 -10 -35 0 -88 -22 -88 -37 0 -13 -3 -13 -16 -2 -13 10 -20 10
-44 -4 -15 -10 -35 -14 -43 -11 -8 3 -18 1 -22 -5 -3 -6 -17 -11 -30 -11 -13
0 -27 -4 -30 -10 -8 -12 44 -13 63 -1 14 8 83 -7 98 -22 10 -10 -14 -9 -57 3
-28 8 -43 7 -64 -4 -20 -10 -34 -12 -46 -5 -23 12 -70 11 -89 -1 -13 -9 -13
-10 0 -11 8 -1 24 -1 35 0 12 1 32 -3 45 -8 23 -10 21 -11 -15 -10 -69 2 -131
-3 -111 -8 11 -3 26 -11 34 -19 7 -8 19 -11 25 -7 7 4 4 9 -9 14 -27 11 28 10
81 0 l40 -9 -37 -1 c-21 0 -38 -6 -38 -12 0 -8 -17 -10 -50 -7 -27 3 -50 2
-50 -2 0 -13 -63 -1 -80 15 -9 8 -20 15 -25 15 -5 0 7 -14 25 -30 21 -19 37
-27 43 -21 5 5 16 7 23 4 12 -4 12 -8 2 -22 -12 -15 -11 -15 7 0 25 20 75 33
75 19 0 -5 -8 -11 -17 -11 -17 -1 -17 -2 0 -6 25 -7 21 -26 -5 -20 -13 2 -48
1 -78 -3 l-55 -7 47 -2 c26 0 50 -5 53 -11 3 -5 5 -10 3 -10 -2 -1 -64 -4
-138 -7 -74 -3 -137 -7 -139 -9 -2 -2 37 -4 88 -4 59 0 90 -4 86 -10 -3 -6 1
-13 11 -17 13 -5 9 -9 -17 -18 -19 -6 -38 -9 -43 -6 -6 2 -19 5 -30 6 -12 1
-30 6 -41 10 l-20 8 20 -17 c20 -17 19 -17 -7 -13 -15 2 -25 0 -22 -4 3 -5 31
-9 62 -10 46 -1 52 -2 30 -9 -15 -4 -56 -7 -92 -6 -36 1 -74 -3 -85 -9 -16 -8
-6 -10 49 -8 39 1 70 -3 70 -8 0 -10 -14 -11 -113 -10 -45 0 -66 -3 -61 -10 3
-6 19 -9 34 -6 15 4 40 3 56 -2 l29 -7 -34 -12 c-19 -7 -46 -13 -60 -13 -15
-1 -19 -3 -9 -6 19 -5 32 -31 15 -30 -7 0 -25 -1 -40 -1 -36 -2 -26 -22 11
-22 20 0 23 -3 13 -9 -8 -5 -30 -7 -49 -4 -23 4 -37 2 -42 -8 -11 -17 -80 -15
-92 3 -6 9 -7 6 -3 -9 6 -21 3 -23 -27 -23 -28 -1 -30 -2 -14 -11 13 -8 25 -8
42 0 13 6 31 8 39 5 8 -4 26 1 40 10 25 16 75 13 75 -4 0 -5 50 -8 110 -8 61
1 114 -2 118 -6 4 -4 3 -7 -3 -6 -26 6 -75 -1 -75 -10 0 -5 8 -7 18 -3 13 4
14 3 6 -6 -11 -12 -44 -5 -44 10 0 5 -31 8 -70 7 -44 -2 -74 2 -82 10 -7 7
-19 12 -28 12 -13 0 -13 -1 0 -10 13 -8 12 -10 -5 -11 -11 -1 -26 -2 -32 -2
-30 1 -3 -26 32 -33 52 -10 75 -34 34 -34 -11 0 -17 5 -14 10 3 6 -3 11 -14
12 -12 0 -27 1 -33 2 -7 1 -22 9 -32 19 -21 18 -51 24 -41 7 9 -14 -4 -12 -52
8 -29 11 -41 22 -38 31 3 8 0 18 -7 23 -9 5 -7 8 7 9 14 1 10 4 -10 9 -28 7
-28 8 -5 9 l25 2 -25 14 -25 14 25 0 c14 0 34 -6 44 -14 11 -8 31 -15 45 -14
l26 0 -25 11 c-14 5 -44 19 -68 29 l-44 20 24 19 c14 12 17 18 7 14 -25 -8
-32 12 -12 32 16 16 16 18 1 28 -15 9 -15 11 0 22 13 10 14 15 5 25 -9 9 -8
15 4 27 14 14 14 16 -3 22 -16 6 -14 8 11 18 18 6 23 11 13 11 -25 1 -22 24 5
36 12 6 21 16 19 23 -1 7 5 12 14 12 9 0 14 6 11 13 -2 6 -11 10 -18 8 -8 -2
-25 -6 -39 -9 l-25 -5 27 22 c14 11 31 21 36 21 14 0 144 89 159 109 7 9 18
28 25 44 7 15 16 27 19 27 4 0 9 10 13 23 6 24 76 96 114 116 12 6 22 16 22
20 0 8 139 151 146 151 2 0 17 13 34 30 20 20 34 46 41 77 22 108 26 114 134
180 11 7 38 21 60 32 22 11 34 20 27 20 -8 1 -11 11 -8 29 2 15 5 28 6 30 3 2
4 6 14 47 30 117 47 151 112 218 36 37 68 67 71 67 4 0 16 8 27 19 41 37 228
124 286 133 35 5 134 -1 178 -11z m4096 -252 c-2 -4 10 -22 26 -40 16 -19 30
-40 30 -46 0 -7 4 -13 9 -13 9 0 23 -41 25 -70 1 -8 6 -14 13 -13 7 2 10 -4 7
-12 -4 -8 -13 -15 -22 -15 -13 0 -12 -3 4 -14 19 -15 19 -15 -1 -52 -13 -25
-28 -38 -42 -39 -31 -2 -29 3 5 16 l27 11 -32 16 c-40 19 -43 42 -5 43 23 2
24 2 5 6 -13 2 -23 9 -23 14 0 5 10 14 23 19 l22 9 -22 0 c-25 1 -31 16 -10
24 9 4 9 8 -2 15 -8 6 -16 18 -17 28 -2 9 -8 21 -15 25 -7 4 -14 19 -15 33 0
13 -8 36 -17 50 -22 33 -21 36 7 23 13 -7 22 -15 20 -18z m-94 -201 c0 -5 -12
-8 -26 -8 -14 0 -23 -4 -19 -9 3 -5 22 -8 43 -5 31 3 33 2 12 -5 -21 -8 -22
-9 -5 -10 22 -1 64 -81 42 -81 -8 0 -7 -4 1 -12 20 -20 14 -28 -22 -28 -40 0
-66 8 -66 21 0 6 -9 19 -20 31 -11 12 -20 28 -20 35 0 7 -4 13 -10 13 -5 0
-10 5 -10 11 0 6 8 8 19 4 11 -3 22 -1 26 5 4 7 -10 10 -39 8 -26 0 -49 2 -53
5 -3 4 9 7 28 8 27 0 30 2 14 9 -18 7 -16 8 10 12 45 6 95 4 95 -4z m-5533
-875 c-12 -3 -16 -10 -12 -24 4 -13 2 -19 -9 -19 -9 0 -15 -3 -14 -7 3 -13
-25 -63 -34 -63 -5 0 -6 -5 -3 -11 4 -5 0 -18 -8 -27 -18 -21 -48 -79 -46 -89
1 -5 -8 -13 -19 -19 -21 -10 -21 -11 6 -21 l27 -11 -30 -1 c-21 -1 -26 -4 -16
-10 10 -7 8 -12 -10 -25 -13 -9 -18 -16 -11 -16 6 0 11 -5 10 -12 -2 -7 2 -12
9 -13 19 0 28 -15 9 -15 -17 0 -17 -1 0 -17 16 -17 16 -18 -7 -24 -15 -4 -17
-7 -7 -8 26 -2 33 -23 13 -38 -17 -12 -17 -13 -2 -13 9 0 17 -4 17 -9 0 -5 8
-12 18 -14 9 -2 4 -5 -13 -5 -16 0 -50 -3 -74 -8 -32 -5 -42 -4 -37 4 4 8 0
12 -11 12 -15 0 -16 2 -3 10 12 8 11 13 -8 33 -12 13 -22 29 -22 35 0 7 -6 12
-12 12 -9 0 -8 4 2 10 11 7 11 10 2 10 -7 0 -10 5 -6 12 4 6 8 25 10 41 1 16
6 32 10 36 5 3 23 32 39 65 17 32 36 61 43 63 6 3 12 9 12 14 0 6 34 45 76 87
55 56 84 78 103 79 15 0 18 -1 8 -4z m2404 -573 c27 -15 24 -30 -7 -30 -14 0
-23 -4 -20 -9 3 -5 15 -7 27 -4 25 7 69 -15 63 -32 -3 -7 3 -15 13 -19 15 -6
15 -8 3 -16 -13 -8 -13 -10 1 -10 19 0 28 -42 24 -115 -7 -118 -7 -183 -1
-203 8 -25 -6 -29 -27 -7 -8 7 -27 17 -43 21 l-27 7 22 19 c13 10 19 18 13 18
-18 0 -37 94 -23 115 13 18 13 85 1 85 -6 0 -8 5 -4 11 3 6 0 15 -7 20 -19 12
-31 11 -23 -2 5 -8 1 -8 -12 0 -50 28 -50 32 -1 27 26 -3 47 -1 47 5 0 5 -5 9
-11 9 -14 0 -55 51 -52 65 2 6 -11 16 -27 23 -17 8 -30 18 -30 23 0 12 77 11
101 -1z m-3007 -228 c34 -37 98 -65 211 -91 120 -27 333 -126 245 -113 -17 2
-33 8 -36 13 -3 5 -14 9 -25 9 -11 0 -40 9 -65 20 -24 12 -49 18 -54 15 -6 -3
-20 1 -32 9 -12 9 -32 16 -43 16 -26 1 -148 53 -190 81 -17 12 -37 35 -43 51
-14 37 -9 35 32 -10z m583 -267 c0 -8 -6 -16 -14 -19 -7 -3 -18 -16 -23 -28
-6 -13 -19 -37 -29 -54 -10 -16 -22 -41 -26 -54 -8 -27 -19 -28 130 24 55 19
101 33 103 31 8 -8 -10 -25 -25 -25 -36 0 -261 -107 -276 -132 -7 -10 -15 -18
-20 -18 -10 0 3 50 19 75 8 11 14 27 14 37 0 10 4 18 10 18 5 0 7 7 4 15 -4 8
-1 15 5 15 6 0 11 4 11 9 0 5 14 34 32 65 26 46 37 56 58 56 17 0 27 -6 27
-15z m278 -365 c3 -5 -2 -10 -12 -10 -15 0 -16 -2 -3 -10 11 -7 12 -12 3 -21
-6 -6 -9 -18 -6 -25 3 -8 0 -14 -7 -14 -6 0 -8 -4 -5 -10 3 -5 19 -10 35 -10
16 0 32 5 35 10 10 15 35 12 35 -5 0 -8 -4 -15 -9 -15 -4 0 -27 -27 -51 -61
-34 -49 -40 -63 -29 -70 12 -7 11 -9 -1 -9 -11 0 -15 -11 -14 -37 0 -21 -3
-43 -9 -50 -5 -7 -6 -17 -2 -23 4 -6 1 -17 -5 -25 -7 -8 -10 -21 -7 -29 3 -7
1 -18 -3 -22 -5 -5 -12 -30 -14 -54 -3 -25 -8 -71 -12 -102 -6 -51 -4 -62 17
-92 22 -33 48 -52 94 -67 19 -7 19 -7 1 -8 -38 -2 -8 -11 66 -21 88 -11 181
-51 218 -94 39 -46 33 -60 -25 -66 -70 -7 -105 -1 -98 16 3 8 1 14 -4 14 -15
0 -48 -28 -41 -35 3 -3 47 -6 96 -6 81 0 91 -2 95 -20 6 -23 -6 -32 -32 -24
-11 3 -22 1 -26 -5 -4 -6 -1 -9 6 -8 6 2 13 -2 16 -8 5 -15 -181 -45 -357 -58
-46 -4 -87 -10 -90 -15 -3 -4 -10 -10 -17 -12 -8 -2 -9 -9 -4 -18 7 -11 13
-11 32 0 27 15 152 13 157 -2 2 -5 13 -9 25 -10 15 0 17 -2 7 -6 -8 -3 -17 -9
-20 -14 -3 -4 -19 -9 -35 -11 -17 -2 -35 -8 -42 -14 -6 -6 -31 -14 -55 -18
-24 -4 -52 -13 -64 -21 -11 -7 -40 -19 -65 -25 -24 -7 -68 -23 -97 -36 -81
-37 -82 -36 -76 54 7 85 11 95 93 196 31 37 61 76 66 85 6 9 20 29 33 44 29
37 29 58 -1 24 -12 -15 -26 -27 -30 -27 -8 0 -7 11 13 120 6 36 13 74 15 85 1
11 5 27 8 35 4 12 18 123 22 185 0 6 3 15 6 20 3 6 6 26 7 45 2 19 7 50 13 68
8 24 8 36 -1 47 -17 21 -1 62 44 108 20 21 36 43 36 48 0 5 7 9 16 9 9 0 12 5
8 12 -10 16 -10 50 0 66 4 8 5 16 2 19 -3 3 -1 14 5 24 11 21 34 25 44 9z
m143 -117 c-10 -12 -7 -13 18 -7 28 6 28 6 9 -9 -19 -16 -18 -16 25 -18 41 -1
42 -2 15 -9 l-30 -7 38 -7 c20 -5 54 -5 75 -2 27 5 33 4 22 -3 -15 -11 -8 -15
23 -12 19 3 23 -15 5 -22 -7 -2 -1 -4 14 -3 16 0 28 6 28 11 0 6 9 -1 20 -15
17 -21 21 -23 30 -10 5 8 22 16 37 17 15 1 65 5 111 10 45 5 88 5 95 1 8 -5 3
-8 -13 -9 -14 -1 -1 -6 28 -11 63 -11 71 -32 10 -24 -24 3 -34 2 -24 -1 15 -4
16 -7 5 -14 -11 -7 -11 -9 4 -9 9 0 17 -5 17 -10 0 -7 13 -8 35 -4 23 4 35 2
35 -5 0 -6 -22 -12 -52 -12 -30 -1 -41 -4 -25 -6 17 -3 25 -9 21 -15 -5 -7 -2
-9 8 -6 8 4 21 2 29 -3 10 -6 4 -9 -19 -9 -18 0 -41 5 -52 12 -15 10 -22 9
-38 -5 -15 -14 -25 -16 -46 -7 -15 5 -39 11 -54 11 -24 2 -24 2 -4 6 12 2 22
9 22 14 0 10 -50 32 -57 25 -3 -2 5 -7 17 -11 20 -6 21 -7 3 -21 -10 -7 -28
-14 -40 -14 -13 0 -23 -4 -23 -10 0 -5 20 -7 49 -3 33 4 51 2 56 -7 6 -9 -2
-11 -33 -5 -43 7 -68 -9 -29 -19 36 -10 75 -7 79 6 3 7 9 8 18 3 8 -5 28 -10
44 -12 17 -2 35 -8 41 -14 12 -13 -65 -1 -79 11 -4 5 -22 0 -39 -10 -26 -16
-34 -17 -56 -6 -36 17 -61 10 -61 -19 0 -22 6 -25 52 -31 39 -5 48 -9 33 -15
-15 -6 -11 -8 18 -8 23 -1 36 -5 32 -11 -9 -14 -81 -7 -77 8 1 7 -7 12 -18 12
-11 0 -20 -4 -20 -10 0 -5 -10 -10 -22 -11 -13 0 -17 -3 -10 -6 17 -7 15 -23
-3 -23 -8 0 -15 -4 -15 -10 0 -5 7 -7 15 -4 8 4 15 1 15 -5 0 -6 -9 -11 -20
-11 -14 0 -20 -6 -18 -17 2 -10 -4 -19 -14 -21 -15 -3 -17 2 -12 30 3 18 8 40
11 48 3 8 7 24 9 35 2 11 9 52 17 92 14 72 13 123 -4 123 -5 0 -9 -9 -9 -20 0
-59 -43 -87 -119 -75 -27 5 -32 4 -20 -4 20 -13 67 -17 96 -7 18 6 20 4 16
-13 -5 -19 -43 -36 -53 -23 -6 8 -30 14 -30 8 0 -17 35 -35 56 -30 14 4 24 2
24 -5 0 -6 -5 -11 -11 -11 -5 0 -7 -4 -4 -10 4 -6 -5 -10 -20 -10 -15 0 -24 4
-20 10 4 6 -7 10 -27 9 -20 -1 -26 -3 -14 -6 11 -3 26 -11 34 -19 7 -8 23 -14
35 -14 16 0 18 -3 9 -9 -7 -4 -24 -6 -38 -3 -35 7 -29 -6 9 -17 l32 -9 -32 -1
c-18 -1 -33 -6 -33 -11 0 -6 11 -8 25 -4 15 4 25 2 25 -5 0 -6 -10 -11 -22
-12 l-23 0 23 -10 c40 -16 16 -25 -75 -28 -107 -3 -124 -11 -24 -11 42 0 70
-4 66 -9 -3 -6 3 -14 12 -20 16 -9 16 -10 1 -11 -9 0 -20 5 -23 10 -10 17 -38
12 -31 -5 3 -10 1 -15 -7 -13 -23 4 -88 -13 -82 -23 4 -5 -25 -8 -72 -8 -43 1
-65 4 -49 6 l29 5 -29 15 c-16 8 -43 15 -60 15 l-31 0 2 87 c2 47 6 97 10 111
3 14 8 34 10 45 2 11 11 48 19 83 9 35 13 68 10 74 -4 6 -2 13 3 17 5 3 20 23
32 44 18 29 29 37 43 34 14 -4 18 -1 13 12 -4 14 1 18 25 18 24 0 28 -3 18
-14z m339 -538 c24 1 40 -2 37 -7 -3 -5 18 -6 50 -4 30 3 58 1 61 -4 4 -6 -43
-8 -122 -5 -111 4 -124 3 -98 -8 21 -9 72 -12 171 -10 111 2 144 0 160 -12 17
-13 14 -14 -39 -15 -38 0 -56 4 -52 10 7 11 -115 7 -168 -6 -17 -4 -38 -1 -52
6 -20 11 -27 11 -40 0 -17 -14 -10 -36 8 -22 7 5 21 6 32 1 18 -7 17 -8 -7 -8
-35 -1 -47 -21 -17 -29 l24 -6 -25 -7 c-17 -5 -7 -7 35 -8 33 -1 65 -5 72 -9
6 -4 -22 -6 -64 -4 -54 3 -74 1 -69 -7 4 -6 1 -11 -6 -11 -9 0 -13 17 -11 62
2 92 6 102 39 108 16 3 31 3 34 -1 3 -4 24 -5 47 -4z"/>
<path d="M4606 5442 c-25 -6 -38 -26 -105 -157 -112 -219 -140 -267 -168 -293
-29 -26 -24 -40 10 -25 28 13 69 15 62 2 -4 -5 -1 -9 4 -9 6 0 11 4 11 9 0 25
33 17 62 -14 34 -38 55 -31 36 11 -6 12 -7 31 -3 41 4 10 7 28 6 40 -1 11 3
24 9 28 5 3 8 11 5 16 -4 5 1 9 10 9 9 0 13 5 10 10 -4 6 5 10 21 10 22 0 25
2 14 15 -8 9 -8 15 -2 15 6 0 19 3 29 7 16 6 16 5 4 -10 -20 -25 -6 -33 23
-13 34 22 39 21 59 -13 22 -37 21 -70 -2 -98 -24 -29 -39 -29 -67 -2 -21 20
-24 20 -39 5 -14 -13 -14 -16 -2 -16 14 0 40 -53 31 -62 -2 -3 11 -29 29 -58
81 -136 233 -159 291 -45 28 54 27 145 -2 202 -12 23 -22 49 -22 57 0 8 -6 17
-12 19 -10 4 -9 8 2 17 13 10 13 11 -2 7 -9 -3 -31 5 -49 19 -29 21 -30 24
-12 24 12 0 28 -7 37 -15 8 -8 21 -15 29 -15 8 0 22 -9 32 -20 16 -18 14 -25
-7 -21 -5 0 -8 -3 -8 -9 0 -5 7 -10 15 -10 23 0 49 -35 60 -83 13 -51 31 -47
28 7 -3 55 -50 142 -100 183 -51 42 -129 73 -183 73 -40 0 -145 -34 -166 -54
-29 -27 -55 -46 -64 -46 -6 0 -10 -7 -10 -15 0 -8 -4 -15 -10 -15 -5 0 -10 9
-10 20 0 11 4 20 8 20 5 0 9 6 9 13 0 12 11 35 67 144 30 59 55 70 167 78 72
4 91 15 27 15 -25 0 -65 2 -89 4 -24 3 -57 2 -73 -2z"/>
<path d="M7627 5420 c3 -14 7 -36 8 -50 1 -25 20 -101 32 -130 3 -8 8 -21 10
-27 1 -7 5 -19 6 -25 2 -7 9 -26 15 -41 7 -15 15 -39 18 -52 3 -13 13 -30 22
-37 12 -10 14 -10 8 0 -4 7 -2 12 6 12 7 0 19 -9 26 -20 6 -11 28 -26 47 -34
19 -8 52 -30 72 -50 21 -19 52 -45 68 -58 17 -12 32 -26 33 -30 2 -5 13 -8 23
-8 11 0 17 -4 14 -10 -3 -5 -1 -10 5 -10 7 0 26 -10 42 -22 l30 -21 -12 23
c-7 12 -21 25 -31 27 -16 5 -17 8 -7 21 10 12 10 14 1 9 -12 -7 -73 17 -73 29
0 3 16 2 35 -2 30 -5 34 -4 29 10 -5 13 -15 15 -43 11 -29 -4 -31 -3 -11 4 26
9 23 11 -24 15 -15 1 -34 9 -41 19 -7 9 -16 17 -21 17 -17 0 -204 195 -204
212 0 9 -4 19 -9 22 -4 3 -14 26 -21 51 -7 25 -15 45 -19 45 -3 0 -7 13 -8 29
-1 16 -9 44 -17 62 -10 22 -13 25 -9 9z"/>
<path d="M3006 5401 c-4 -5 -3 -16 0 -25 3 -8 -3 -32 -14 -53 -37 -73 -45 -93
-39 -99 3 -4 1 -16 -6 -28 -6 -11 -12 -25 -13 -31 -5 -50 -66 -104 -102 -90
-20 7 -102 -33 -110 -55 -3 -8 -8 -17 -11 -20 -3 -3 -14 -20 -23 -38 -20 -38
-25 -147 -7 -158 6 -3 9 -19 7 -35 -3 -16 -1 -29 4 -29 4 0 8 -6 8 -13 0 -19
40 -40 93 -48 82 -13 98 -5 131 64 17 35 47 77 70 97 108 94 122 114 117 157
-1 6 18 21 43 32 42 21 43 23 41 64 -2 56 -27 167 -37 167 -4 0 -8 9 -8 19 0
11 -5 23 -11 26 -6 4 -8 14 -5 22 7 17 -31 52 -57 53 -10 0 -20 7 -23 15 -7
16 -39 20 -48 6z"/>
<path d="M3706 4931 c-14 -27 -22 -51 -19 -55 11 -11 23 -6 23 8 0 8 10 26 23
40 l22 25 83 -39 c46 -22 88 -40 93 -40 6 0 7 -4 4 -10 -3 -5 -19 -10 -34 -10
-61 0 -100 -74 -87 -167 12 -90 97 -226 164 -262 35 -19 26 1 -24 49 -45 45
-79 103 -88 153 -2 15 -7 31 -11 37 -3 5 -2 10 3 10 5 0 7 11 4 25 -2 14 0 25
7 25 5 0 8 7 5 15 -4 10 0 15 11 15 9 0 14 4 11 9 -3 5 11 8 31 8 43 -2 65
-32 61 -82 -2 -24 -9 -31 -30 -35 l-27 -5 19 -40 c11 -22 20 -44 20 -50 1 -24
80 -94 120 -106 41 -13 43 -12 66 14 31 36 26 89 -14 166 -16 31 -32 73 -36
94 -4 23 -20 51 -42 72 -23 23 -29 35 -19 35 35 0 11 18 -47 34 -74 21 -128
45 -188 86 -62 41 -75 39 -104 -19z"/>
<path d="M6541 4564 c-12 -14 -20 -32 -18 -39 3 -7 2 -16 -3 -21 -4 -5 -3 -20
2 -34 l11 -25 10 35 c14 45 32 58 82 58 30 0 35 -2 20 -8 -21 -9 -13 -13 20
-11 26 2 69 -34 60 -49 -5 -8 -11 -8 -21 1 -23 19 -64 -4 -64 -35 0 -14 -5
-28 -10 -31 -6 -4 -7 -12 -3 -18 7 -12 9 -17 11 -49 2 -19 138 -88 174 -88 38
0 89 36 81 57 -9 23 -44 52 -62 53 -8 0 -31 11 -52 25 -37 26 -40 37 -23 92 4
16 -1 29 -21 48 -16 14 -33 25 -39 25 -7 0 -29 9 -51 20 -52 27 -77 25 -104
-6z"/>
<path d="M3775 4514 c-22 -24 -44 -44 -49 -44 -5 0 -14 -7 -21 -16 -10 -14
-28 -16 -103 -15 -65 2 -92 -1 -92 -10 0 -8 16 -10 53 -7 35 3 57 0 65 -8 9
-10 2 -14 -36 -17 -35 -2 -28 -4 27 -5 41 -1 71 -5 68 -9 -4 -3 -2 -12 4 -19
6 -8 11 -29 11 -49 0 -19 4 -35 9 -35 5 0 8 -11 7 -25 -1 -14 -9 -25 -17 -25
-11 0 -12 3 -4 11 7 7 7 17 -1 35 -9 20 -18 24 -58 24 -58 0 -72 -15 -16 -17
23 -1 45 -6 50 -11 4 -4 -23 -6 -62 -4 -45 2 -70 -1 -70 -7 0 -11 57 -16 115
-12 17 2 27 0 24 -3 -4 -4 -24 -8 -45 -10 -39 -4 -62 -26 -26 -26 11 0 23 -6
25 -12 4 -10 7 -10 15 0 5 7 32 14 61 16 28 2 58 9 65 15 8 7 16 8 18 3 1 -5
20 -12 41 -16 30 -6 37 -4 37 9 0 8 5 15 10 15 6 0 10 -4 10 -10 0 -5 10 -10
21 -10 19 0 20 2 8 18 -11 15 -11 15 2 2 9 -8 20 -27 26 -41 11 -26 11 -27
-25 -27 -33 0 -35 1 -13 9 32 13 23 19 -30 20 -60 2 -71 -2 -29 -11 l35 -7
-32 -2 c-32 -1 -48 -21 -18 -21 8 0 15 -4 15 -10 0 -5 9 -10 19 -10 11 0 23 5
26 10 8 13 35 13 35 -1 0 -5 -4 -7 -10 -4 -5 3 -10 1 -10 -4 0 -6 7 -11 15
-11 8 0 15 7 15 15 0 13 4 14 20 5 40 -21 24 -29 -64 -30 -26 0 -43 6 -51 17
-12 16 -15 15 -32 -15 -13 -24 -25 -32 -46 -32 -18 0 -26 -4 -21 -11 5 -8 1
-8 -14 0 -11 6 -35 11 -53 11 -18 0 -29 3 -26 7 4 3 28 6 54 5 54 -2 90 12 61
23 -9 4 -14 13 -11 21 3 9 -2 14 -13 15 -11 0 -14 3 -7 5 7 3 9 12 6 20 -3 9
-19 14 -47 13 -32 0 -37 -2 -21 -9 15 -6 6 -9 -32 -9 -56 -1 -67 -12 -33 -33
11 -7 20 -15 20 -18 0 -8 -74 -5 -88 4 -21 13 -26 -1 -8 -20 13 -13 22 -14 39
-7 16 8 26 7 35 -3 11 -12 7 -14 -20 -16 -18 0 -40 -1 -48 0 -20 1 -31 -19
-19 -34 15 -19 21 -64 8 -64 -8 0 -8 -4 -1 -13 6 -7 13 -25 16 -40 2 -15 12
-34 20 -43 9 -8 16 -22 16 -31 0 -12 7 -14 33 -10 17 3 26 3 20 0 -24 -9 -13
-23 17 -23 22 0 28 4 24 15 -5 13 -2 14 20 5 27 -10 56 -4 68 14 4 6 8 1 8
-11 0 -13 6 -23 13 -23 17 0 15 33 -2 54 -12 14 -10 16 15 17 17 1 22 3 12 6
-10 2 -18 8 -18 13 0 5 13 5 29 0 19 -5 43 -4 67 5 30 10 34 14 18 18 -16 4
-16 5 4 6 13 0 20 6 17 11 -3 6 1 10 9 10 9 0 16 7 16 16 0 8 5 12 10 9 6 -3
10 -1 10 4 0 6 -19 11 -42 10 -24 0 -37 -3 -30 -6 6 -2 12 -9 12 -14 0 -6 -5
-7 -11 -4 -17 11 -143 13 -156 3 -11 -9 -30 8 -21 18 9 8 73 12 88 4 20 -10
82 0 77 13 -2 6 -21 16 -43 22 -39 11 -39 11 21 9 33 -1 64 1 70 6 5 5 26 10
45 13 24 3 17 4 -25 6 -33 1 -78 6 -100 11 -37 9 -37 9 13 4 32 -3 52 -1 52 6
0 12 37 13 44 1 3 -5 14 -7 25 -4 10 2 24 -1 32 -9 8 -7 26 -19 42 -27 15 -8
27 -18 27 -23 0 -4 8 -8 18 -8 9 0 26 -7 36 -15 11 -8 28 -15 39 -15 10 0 16
-4 13 -9 -4 -5 8 -12 26 -16 18 -4 42 -9 53 -12 16 -4 18 -3 8 8 -7 7 -20 13
-30 14 -10 1 -34 10 -53 20 -19 11 -51 27 -70 36 -41 19 -140 106 -140 122 0
7 -6 24 -14 38 -14 28 -30 80 -28 92 1 4 -2 7 -6 7 -4 0 -14 21 -22 47 -7 26
-19 59 -27 73 -7 14 -13 29 -13 34 0 7 -61 107 -64 105 -1 0 -19 -20 -41 -45z"/>
<path d="M12770 4361 c0 -10 -7 -24 -15 -31 -9 -7 -14 -19 -11 -27 3 -7 -1
-13 -11 -13 -9 0 -14 -3 -10 -6 11 -11 -17 -30 -43 -30 -14 0 -28 5 -32 10 -5
7 -8 7 -8 -1 0 -7 -4 -13 -10 -13 -5 0 -10 7 -10 15 0 11 -12 15 -47 15 -30 0
-43 -3 -35 -9 16 -9 -30 -21 -84 -21 -18 0 -36 -4 -39 -10 -3 -5 -12 -10 -18
-10 -7 0 -6 4 3 10 13 9 13 10 0 9 -22 -1 -67 -17 -52 -18 25 -2 11 -21 -15
-21 -22 0 -25 -2 -13 -10 11 -7 6 -10 -20 -11 -28 0 -31 -2 -15 -8 17 -7 16
-9 -10 -12 -17 -3 -59 -2 -95 2 -36 3 -57 7 -47 7 9 1 17 7 17 13 0 7 -9 9
-22 6 -13 -3 -43 -2 -68 3 -25 5 -46 5 -48 0 -2 -5 -10 -6 -18 -3 -11 4 -12 8
-4 13 6 4 -13 7 -43 6 -46 0 -53 -3 -50 -17 4 -15 -1 -17 -38 -12 -31 5 -40 3
-35 -6 4 -6 12 -8 18 -5 6 4 8 2 5 -3 -4 -6 -22 -8 -47 -3 -22 4 -40 3 -40 -1
0 -5 -4 -9 -10 -9 -5 0 -9 6 -7 13 1 6 -6 11 -16 11 -10 -1 -23 6 -29 15 -10
16 -15 16 -57 3 -25 -8 -52 -16 -58 -18 -7 -2 -22 -18 -32 -36 -32 -55 -61
-76 -111 -83 -36 -5 -55 -2 -81 12 -26 14 -44 17 -74 12 -22 -4 -48 -3 -57 2
-15 8 -18 5 -18 -13 0 -40 -16 -51 -17 -12 -1 50 -11 56 -67 39 -27 -8 -52
-13 -56 -10 -5 3 -10 1 -12 -5 -1 -5 -19 -10 -38 -11 -19 -2 -45 -11 -57 -22
-22 -19 -22 -19 -58 3 -35 22 -37 22 -50 4 -10 -15 -16 -16 -26 -7 -6 6 -25 9
-43 6 -35 -6 -71 19 -62 43 7 19 -33 9 -51 -13 -8 -10 -11 -12 -7 -4 4 7 3 12
-2 9 -5 -2 -22 -10 -38 -18 -25 -13 -29 -12 -42 4 -24 34 -44 12 -44 -48 0
-30 -4 -57 -9 -61 -5 -3 -10 -97 -10 -214 0 -195 1 -209 20 -229 11 -12 26
-22 34 -22 8 0 15 -6 15 -12 0 -13 62 -58 80 -58 5 0 15 -8 21 -19 14 -21 43
-17 73 10 10 10 22 17 25 14 4 -2 13 0 21 6 13 7 12 9 -1 9 -9 0 -22 13 -28
29 -7 16 -22 33 -34 39 -17 8 -18 11 -5 11 9 1 26 -12 38 -29 12 -16 28 -30
36 -30 8 0 17 -7 20 -15 4 -8 16 -15 28 -15 22 0 34 -20 65 -101 14 -39 45
-43 65 -8 16 27 31 34 66 29 19 -2 60 -40 60 -55 0 -10 40 -61 75 -95 11 -11
42 -15 112 -17 86 -1 103 1 150 24 29 15 53 30 53 35 0 5 4 7 9 3 5 -3 12 -1
15 4 4 5 24 12 46 16 22 4 40 11 40 17 0 5 5 8 12 6 6 -2 22 16 34 41 23 44
23 45 3 59 -28 20 -60 55 -54 60 3 3 15 -6 28 -19 13 -13 34 -32 46 -42 17
-14 20 -22 12 -30 -12 -12 -15 -48 -3 -46 24 5 94 -17 114 -35 12 -11 26 -21
29 -21 4 0 11 -3 15 -7 4 -4 13 -3 21 3 7 7 26 9 43 5 25 -5 36 0 66 29 20 19
30 35 23 35 -8 0 -5 7 7 19 10 10 26 28 34 40 14 20 57 31 45 11 -3 -5 1 -10
9 -10 21 0 20 10 -1 26 -16 12 -14 13 18 14 19 0 41 6 48 13 11 10 13 10 7 0
-5 -9 1 -13 21 -13 27 1 27 1 8 16 -19 15 -18 15 15 14 59 -3 79 1 45 10 -25
6 -26 8 -7 9 13 0 33 6 45 13 21 11 21 11 2 19 -14 5 -8 8 24 8 40 1 42 3 30
18 -9 10 -9 14 -2 10 19 -12 54 14 41 30 -8 10 -7 13 3 13 11 0 11 2 -1 10
-12 8 -12 10 -1 10 8 0 20 -8 28 -17 13 -16 14 -16 8 10 -4 21 -2 27 12 28 11
0 13 3 6 6 -7 2 -13 9 -13 14 0 6 4 8 9 5 5 -3 14 1 21 9 15 18 34 20 24 3 -4
-7 -3 -8 4 -4 6 4 9 13 5 21 -3 10 1 15 13 15 16 0 17 2 4 10 -13 9 -13 11 0
20 10 6 17 5 20 -3 3 -7 10 -12 15 -11 39 5 77 19 93 34 12 11 28 17 40 13 12
-3 31 2 44 11 12 9 19 16 15 16 -14 0 21 30 35 30 8 1 6 6 -6 15 -16 12 -17
15 -4 15 9 0 18 12 21 28 8 39 9 455 1 475 -8 23 -24 21 -24 -2z"/>
<path d="M12722 3718 c-11 -13 -36 -31 -54 -41 -23 -13 -27 -13 -14 -3 11 9
15 16 8 16 -18 0 -43 -42 -32 -55 5 -6 5 -17 0 -25 -12 -19 6 -50 30 -50 11 0
20 -4 20 -10 0 -25 78 8 99 42 18 28 23 130 7 140 -20 14 -42 8 -64 -14z"/>
<path d="M12474 3434 c-21 -22 -50 -56 -64 -77 -14 -20 -33 -37 -42 -37 -10 0
-18 -4 -18 -10 0 -5 -8 -10 -19 -10 -10 0 -31 -12 -46 -27 -26 -26 -28 -26
-23 -6 4 16 2 20 -8 16 -8 -3 -14 -9 -14 -14 0 -5 -11 -9 -25 -9 -14 0 -28 -7
-31 -15 -4 -8 -13 -15 -20 -15 -22 0 -64 -30 -64 -46 0 -15 -65 -84 -80 -84
-15 0 -70 -51 -65 -60 3 -5 -1 -12 -8 -17 -8 -4 -22 -25 -32 -46 -10 -21 -27
-43 -39 -49 -20 -11 -20 -11 -1 -19 18 -7 17 -9 -12 -20 -18 -8 -33 -17 -33
-22 0 -4 5 -5 10 -2 6 3 10 1 10 -4 0 -6 -4 -11 -9 -11 -5 0 -8 -11 -7 -24 3
-21 -2 -26 -34 -31 -36 -6 -50 -22 -54 -62 -1 -6 -11 -22 -24 -35 -12 -14 -22
-31 -22 -40 0 -9 -8 -19 -17 -23 -15 -5 -16 -4 -5 6 6 7 12 23 12 36 0 13 9
28 20 35 11 7 20 22 20 34 0 22 32 56 65 69 11 4 15 9 9 12 -8 3 -7 16 3 46
16 47 39 77 60 77 7 0 13 8 13 18 0 14 -2 15 -10 2 -7 -11 -10 -12 -10 -2 0
15 97 113 138 140 40 25 72 54 72 65 0 5 -16 6 -37 3 -21 -4 -74 -11 -118 -16
-74 -8 -82 -8 -110 13 -31 22 -200 51 -234 40 -31 -10 -81 -38 -81 -45 0 -5
-3 -7 -7 -6 -5 0 -15 -1 -23 -5 -23 -8 -112 -29 -140 -32 -14 -2 -53 -6 -86
-10 -56 -7 -63 -6 -72 12 -15 27 -78 74 -120 88 -18 7 -48 9 -65 5 -18 -3 -58
-1 -90 6 -36 7 -59 8 -63 2 -4 -5 -16 -7 -28 -3 -72 23 -97 23 -120 1 -12 -11
-28 -36 -36 -54 -7 -18 -26 -40 -41 -48 -16 -8 -29 -19 -29 -24 0 -6 -5 -10
-11 -10 -19 0 -38 -33 -39 -65 -1 -33 -23 -67 -57 -84 -13 -7 -23 -20 -23 -31
0 -10 -9 -26 -21 -34 -12 -8 -18 -19 -14 -26 9 -15 -12 -30 -42 -30 -14 0 -23
-6 -23 -15 0 -8 7 -15 15 -15 9 0 15 -9 15 -25 0 -16 6 -25 15 -25 42 0 155
-164 155 -225 0 -51 -73 -115 -131 -115 -28 0 -79 18 -89 32 -3 4 -27 13 -53
19 -38 11 -54 11 -84 0 -46 -17 -54 -27 -42 -58 5 -13 10 -49 11 -79 2 -44 -1
-58 -15 -65 -9 -6 -17 -21 -17 -34 0 -24 -62 -94 -85 -95 -5 -1 -26 -14 -45
-30 -19 -17 -40 -30 -47 -30 -7 0 -13 -4 -13 -8 0 -5 -17 -18 -37 -31 -21 -12
-53 -33 -72 -47 -19 -13 -42 -24 -51 -24 -10 0 -31 -7 -46 -15 -16 -8 -46 -15
-68 -15 -44 0 -113 35 -122 62 -3 11 -15 18 -30 18 -13 0 -24 5 -24 10 0 6
-12 10 -28 10 -38 0 -112 54 -112 82 0 14 77 9 90 -7 7 -8 23 -15 36 -15 36 0
117 -30 141 -52 11 -11 37 -23 57 -28 32 -7 38 -5 48 14 30 58 146 179 212
221 43 27 56 41 56 60 0 13 -4 27 -10 30 -25 16 -2 118 30 129 21 8 53 29 65
44 6 7 30 16 53 19 23 3 45 10 48 14 8 14 118 10 150 -5 26 -13 68 -20 102
-17 8 1 12 18 12 49 0 40 -5 54 -33 84 -18 19 -57 47 -87 60 -54 25 -56 25
-80 8 -14 -10 -42 -21 -62 -25 -21 -4 -42 -13 -49 -21 -6 -8 -18 -14 -25 -14
-8 0 -13 -6 -12 -12 2 -9 -9 -12 -35 -10 -25 2 -50 -4 -71 -16 -17 -10 -56
-22 -85 -26 -46 -6 -53 -5 -48 8 5 12 -1 16 -23 16 -23 0 -31 -5 -36 -25 -3
-14 -4 -31 -1 -38 3 -8 -3 -20 -13 -27 -18 -13 -18 -14 -2 -26 15 -12 16 -13
1 -14 -9 0 -20 -11 -23 -24 -3 -13 -9 -31 -12 -40 -4 -11 0 -16 12 -16 12 0
15 -3 8 -8 -7 -4 -11 -19 -9 -33 4 -37 -39 -89 -73 -88 l-27 0 25 11 25 10
-22 11 c-31 14 -29 33 5 42 l27 8 -25 7 -25 8 25 2 c14 1 19 4 12 7 -6 2 -9
10 -6 15 4 6 7 26 6 45 -1 25 3 33 16 34 12 0 10 3 -7 10 -18 7 -21 12 -12 23
8 10 9 16 1 21 -5 3 -7 17 -4 30 3 12 1 26 -5 29 -5 4 -8 13 -4 21 4 11 -2 15
-23 15 -28 1 -28 1 -10 15 25 19 9 19 -24 0 -14 -8 -37 -14 -52 -15 -21 0 -25
-4 -21 -20 7 -26 -11 -26 -36 1 -14 15 -27 19 -51 15 -32 -5 -54 -16 -31 -16
7 0 10 -4 6 -9 -6 -11 15 -61 27 -61 4 0 8 -5 8 -11 0 -6 -6 -7 -12 -2 -18 10
-52 10 -60 -2 -4 -5 -15 -2 -27 9 -15 13 -24 16 -33 9 -7 -6 -25 -13 -40 -17
-16 -3 -28 -11 -28 -16 0 -6 -10 -10 -23 -10 -36 0 -155 -54 -190 -87 -18 -16
-54 -42 -82 -58 -46 -26 -161 -133 -152 -142 10 -9 -70 -83 -90 -83 -12 0 -24
-4 -27 -9 -3 -4 -23 -5 -43 -2 -21 4 -71 4 -112 1 -57 -4 -81 -2 -102 10 -41
22 -119 93 -119 107 0 24 -17 13 -29 -17 -21 -57 -30 -85 -37 -120 -4 -19 -17
-58 -30 -87 -13 -28 -24 -61 -24 -72 0 -10 -3 -21 -7 -23 -9 -4 -53 -94 -53
-108 0 -6 7 -10 15 -10 8 0 15 5 15 10 0 12 58 4 100 -13 14 -6 29 -9 34 -8 4
1 14 -3 22 -10 9 -7 38 -8 89 -4 65 6 79 5 95 -10 11 -10 20 -29 20 -42 0 -26
-45 -72 -70 -73 -9 0 -21 -5 -27 -11 -5 -5 -60 -13 -121 -16 -94 -5 -113 -4
-127 11 -9 9 -22 16 -28 16 -13 0 -21 -70 -18 -150 4 -139 6 -150 19 -145 8 3
17 5 22 5 5 0 10 12 12 28 3 25 8 28 63 37 33 6 68 15 78 19 11 5 28 4 43 -3
31 -14 91 -14 99 -1 8 13 132 13 140 0 3 -5 17 -10 31 -10 23 0 87 -26 124
-50 8 -6 28 -15 43 -20 16 -6 31 -19 34 -30 3 -11 12 -20 19 -20 8 0 14 -7 14
-16 0 -9 9 -18 21 -21 13 -4 19 -12 17 -27 -1 -11 1 -27 6 -34 4 -7 8 -50 8
-97 1 -62 -3 -90 -15 -109 -9 -14 -17 -37 -17 -51 0 -14 -4 -25 -10 -25 -5 0
-10 -7 -10 -15 0 -9 -11 -20 -25 -25 -14 -5 -25 -14 -25 -20 0 -5 -7 -10 -15
-10 -9 0 -15 -9 -15 -25 0 -14 -4 -25 -10 -25 -5 0 -10 -7 -10 -15 0 -9 -9
-15 -22 -15 -25 -1 -58 -22 -58 -37 0 -5 -16 -15 -35 -23 -19 -8 -35 -19 -35
-26 0 -14 -23 -24 -55 -24 -13 0 -27 -4 -30 -10 -3 -5 -28 -10 -56 -10 -36 0
-49 -4 -49 -14 0 -8 5 -18 10 -21 6 -4 8 -11 5 -16 -12 -18 46 -107 79 -120
38 -15 76 -48 76 -66 0 -8 7 -16 15 -19 10 -4 13 -14 9 -29 -3 -13 -1 -26 5
-29 5 -4 8 -13 5 -21 -4 -9 1 -18 12 -22 11 -3 31 -19 47 -35 28 -29 77 -39
77 -15 0 6 18 20 39 30 21 9 51 29 67 42 16 14 35 25 42 25 6 0 22 11 34 25
12 14 28 25 35 25 8 0 14 14 14 38 3 64 4 70 12 78 4 4 7 17 7 30 0 12 11 36
25 52 14 17 25 35 25 41 0 6 3 11 8 11 4 0 12 10 17 22 6 11 26 29 45 39 19
10 45 30 57 44 14 16 33 25 50 25 17 0 43 12 63 30 19 16 40 29 45 30 12 0 38
25 113 103 42 46 52 63 52 91 0 19 5 38 10 41 6 3 10 24 10 45 0 21 5 42 10
45 6 3 10 19 10 35 0 16 4 40 9 53 8 20 5 29 -15 48 -39 37 -90 49 -211 49
-80 0 -115 -4 -125 -13 -18 -19 -93 -27 -158 -18 -67 9 -110 41 -110 82 0 30
34 69 60 69 8 0 26 7 39 16 26 19 124 13 176 -10 35 -16 127 -36 203 -43 28
-3 52 -9 52 -14 0 -4 21 -11 48 -15 26 -3 52 -11 59 -16 7 -5 21 -7 33 -3 11
3 20 3 20 -2 0 -5 20 -17 45 -28 25 -11 45 -24 45 -29 0 -11 40 -46 52 -46 13
0 48 -39 48 -54 0 -7 7 -31 17 -52 16 -40 25 -184 11 -184 -5 0 -8 -6 -8 -14
0 -7 -32 -40 -71 -72 -111 -91 -119 -99 -125 -133 -4 -17 -11 -34 -15 -37 -5
-3 -9 -14 -9 -25 0 -10 -4 -19 -10 -19 -19 0 -10 -46 13 -67 21 -20 59 -25 73
-10 9 9 130 8 218 -2 48 -5 71 -12 78 -24 5 -10 13 -15 18 -12 5 3 24 -4 42
-15 18 -11 40 -23 48 -27 8 -4 21 -15 28 -25 7 -10 22 -18 33 -18 13 0 24 -10
30 -30 6 -16 17 -30 23 -30 7 0 27 -7 44 -16 25 -12 32 -22 32 -45 0 -33 -17
-68 -43 -87 -25 -19 -45 -63 -41 -93 3 -15 -3 -33 -16 -47 -11 -11 -20 -30
-20 -41 0 -14 -5 -19 -15 -15 -11 5 -15 -1 -15 -24 0 -21 -6 -32 -17 -35 -10
-3 54 -5 142 -5 153 0 162 1 208 26 39 21 51 23 71 14 29 -13 79 7 96 39 6 10
17 19 26 19 8 0 18 10 23 23 5 12 20 33 34 46 15 14 28 40 33 64 5 34 20 55
76 110 l70 69 76 -7 c42 -4 79 -11 83 -16 14 -22 76 14 146 86 64 65 78 75
109 75 20 0 55 11 81 27 37 21 59 26 123 28 61 2 84 7 108 24 17 11 34 21 39
22 19 2 85 91 102 138 11 27 17 52 14 54 -7 8 33 70 70 110 34 35 77 115 77
141 0 6 16 45 36 86 33 67 37 84 39 165 2 79 5 96 28 130 15 22 40 49 57 60
16 11 30 23 30 27 0 4 18 12 41 18 25 7 52 25 72 47 18 20 39 44 48 52 30 31
47 68 55 117 15 105 71 220 144 297 49 52 58 69 82 150 15 51 27 102 28 113 0
12 8 25 17 28 14 6 15 9 4 15 -10 7 -9 9 3 14 32 12 49 77 50 185 0 80 -3 105
-14 113 -13 7 -13 10 -1 18 9 6 10 11 2 15 -6 4 -9 12 -5 17 3 5 0 16 -6 24
-10 12 -10 15 0 15 10 0 10 3 1 14 -9 11 -9 15 1 19 8 3 6 6 -5 6 -14 1 -16 5
-8 20 6 10 7 21 4 25 -4 3 2 13 13 22 16 13 17 15 2 10 -21 -6 -25 19 -5 27 9
4 8 8 -3 16 -13 9 -13 11 3 11 27 0 20 17 -10 24 -39 10 -83 30 -83 38 0 3 9
4 20 1 11 -3 20 -9 20 -13 0 -11 50 -19 56 -9 3 5 -7 10 -23 10 -21 1 -23 3
-8 6 31 8 40 20 25 38 -8 10 -9 15 -1 15 6 0 11 -4 11 -10 0 -5 8 -10 18 -10
14 1 14 3 -6 20 l-23 19 28 4 c26 4 26 4 -5 6 -18 0 -31 5 -27 11 3 5 12 7 20
3 9 -3 15 1 15 11 0 9 8 16 18 16 14 0 15 2 2 10 -13 8 -12 10 4 10 15 0 16 3
6 15 -7 8 -17 12 -22 8 -6 -3 -8 0 -6 8 3 8 10 13 16 12 5 -1 12 7 15 17 4 17
0 20 -36 22 -37 1 -38 2 -9 5 32 4 46 23 17 23 -8 0 -15 5 -15 10 0 6 11 10
25 10 29 0 32 8 8 26 -11 8 -13 13 -5 14 6 0 12 6 12 14 0 8 6 17 13 19 6 3 3
6 -8 6 -16 1 -17 3 -5 11 24 15 -22 50 -83 61 -134 24 -130 25 -173 -17z
m-3499 -1195 c4 -5 17 -9 31 -9 13 0 24 -4 24 -10 0 -5 13 -10 29 -10 17 0 33
-4 36 -10 3 -5 18 -10 33 -10 15 0 34 -5 42 -10 11 -7 8 -9 -15 -9 -63 1 -170
-12 -179 -21 -8 -8 14 -10 69 -8 44 2 82 5 85 8 3 3 34 3 70 0 58 -5 61 -6 31
-13 -18 -4 -75 -7 -125 -7 -84 -1 -89 -2 -66 -15 29 -17 44 -19 35 -5 -10 17
211 12 226 -6 9 -11 7 -14 -15 -14 -25 0 -25 -1 -8 -18 17 -19 38 -19 27 -1
-10 15 5 10 26 -10 21 -19 21 -19 -35 -32 -72 -16 -66 -22 9 -11 53 9 63 7
103 -14 25 -13 53 -24 63 -24 39 0 65 -23 37 -33 -7 -2 -5 -3 4 -2 21 4 34
-12 16 -18 -7 -2 -3 -2 9 -1 12 2 25 0 28 -6 7 -11 -12 -14 -62 -11 -18 2 -33
-2 -33 -8 0 -16 45 -24 93 -18 l42 6 -25 -19 c-26 -21 -55 -27 -45 -10 3 6 -4
10 -17 10 l-23 -1 23 -19 c17 -14 32 -18 53 -13 18 3 29 1 29 -6 0 -6 -10 -11
-22 -11 -17 0 -19 -3 -9 -9 9 -6 2 -10 -23 -13 -20 -2 -42 0 -49 4 -7 5 2 8
23 9 l35 1 -30 7 c-16 4 -35 4 -40 0 -6 -4 -17 -4 -24 0 -10 6 -6 11 13 17 24
8 24 10 9 19 -14 8 -27 6 -53 -8 -22 -12 -27 -17 -12 -14 12 3 22 1 22 -4 0
-5 -28 -10 -62 -11 l-63 -2 55 -3 c38 -3 50 -7 40 -13 -13 -8 -12 -10 2 -10 9
0 20 5 23 10 3 6 13 10 21 10 8 0 12 -4 9 -10 -3 -5 1 -10 10 -10 9 0 14 -4
11 -9 -4 -5 -59 -8 -124 -7 -111 2 -162 14 -162 36 0 6 -8 10 -17 10 -15 0
-15 -2 -4 -9 10 -6 0 -9 -28 -8 -41 2 -41 2 -20 20 12 9 35 17 52 17 24 0 28
3 19 12 -9 9 -21 8 -52 -2 -22 -7 -40 -17 -40 -22 0 -4 -10 -9 -22 -9 -21 -1
-21 -2 -3 -7 l20 -5 -20 -8 c-13 -5 4 -8 48 -8 50 -1 73 -6 87 -18 18 -17 17
-18 -21 -20 -37 -1 -39 0 -22 14 17 14 17 14 0 9 -10 -3 -28 -6 -40 -7 -12 0
-17 -3 -10 -5 7 -3 9 -12 6 -21 -5 -13 -2 -15 15 -11 13 4 22 1 23 -5 0 -8 2
-8 6 1 2 6 22 12 42 12 21 0 53 5 70 11 24 9 35 9 44 0 13 -13 41 -15 32 -1
-3 6 14 7 45 4 28 -2 59 0 70 6 14 7 26 8 38 1 9 -6 15 -11 12 -11 -3 -1 -22
-3 -44 -5 -46 -5 -56 -12 -36 -26 10 -7 -6 -8 -50 -4 -97 8 -100 9 -100 18 0
4 -5 5 -10 2 -6 -4 -8 -11 -5 -16 4 -5 -5 -9 -19 -9 -14 0 -26 5 -26 10 0 6
-7 10 -15 10 -8 0 -15 -4 -15 -9 0 -5 -22 -8 -49 -8 -36 1 -48 4 -44 14 4 9 0
11 -11 7 -9 -3 -16 -10 -16 -14 0 -5 -20 -8 -45 -7 -25 1 -45 6 -45 10 0 4 -9
3 -19 -2 -16 -9 -146 -15 -245 -12 -51 2 -14 22 43 24 28 1 51 5 51 10 0 4 18
4 40 1 27 -4 40 -3 40 5 0 6 8 11 18 11 14 0 15 -2 2 -10 -11 -7 -6 -10 20
-10 26 0 31 3 20 10 -13 8 -13 10 2 10 9 0 20 -5 24 -11 4 -8 9 -8 17 0 6 6
16 11 22 11 5 0 3 -5 -5 -10 -11 -7 -4 -10 28 -10 23 0 42 2 42 4 0 23 -15 31
-53 28 -73 -4 -112 -1 -115 8 -2 6 -16 10 -30 9 l-27 -1 25 -7 c23 -7 23 -8 5
-14 -22 -7 -183 -6 -202 1 -7 2 -13 10 -13 18 0 8 -10 14 -22 15 -22 0 -22 1
-3 9 18 8 18 9 -5 10 -23 1 -23 2 -5 10 14 6 24 3 33 -9 11 -13 34 -16 147
-16 73 0 137 -3 141 -7 11 -12 36 -10 29 2 -3 6 3 10 14 10 10 0 22 -5 24 -10
3 -6 4 -5 3 2 -3 16 -130 26 -196 17 -25 -4 -50 -4 -57 -2 -17 7 -17 25 0 22
23 -4 70 13 57 21 -7 4 -27 2 -44 -5 -23 -10 -36 -10 -51 -2 -11 6 -37 10 -57
8 -21 -1 -38 3 -38 9 0 5 7 10 15 10 8 0 15 5 15 10 0 6 -7 10 -15 10 -8 0
-15 2 -15 4 0 2 -3 11 -6 20 -5 13 2 16 35 16 39 0 40 1 29 20 -7 11 -31 26
-53 34 -25 9 -33 15 -20 16 19 1 18 2 -2 10 -13 5 -23 17 -23 27 0 15 1 15 13
-2 11 -14 22 -17 45 -12 17 4 34 2 37 -3 3 -6 16 -10 28 -9 15 0 17 3 7 6 -8
3 -25 16 -38 28 l-24 23 51 7 c28 4 53 11 57 16 7 11 61 12 68 0 7 -10 56 -2
56 9 0 5 21 7 48 5 40 -2 43 -1 24 8 -16 7 -39 8 -73 1 -30 -7 -49 -7 -49 -1
0 5 -14 7 -32 3 -27 -5 -30 -3 -18 7 8 7 20 21 26 32 8 15 21 19 55 18 24 -1
36 1 27 3 -33 10 -18 24 25 26 l42 1 -38 4 c-27 3 -45 -1 -58 -13 -29 -26 -36
-8 -8 19 25 24 74 33 84 16z m199 -551 c-5 -8 -2 -9 12 -4 38 16 54 18 54 8 0
-6 19 -10 41 -10 23 0 36 4 30 7 -6 4 4 7 22 7 40 -1 40 -26 0 -26 -15 0 -22
-4 -17 -11 4 -7 -1 -7 -16 1 -12 7 -20 8 -16 2 3 -5 -4 -12 -15 -15 -13 -4
-18 -10 -13 -18 5 -9 -3 -11 -34 -6 -23 3 -44 1 -47 -4 -3 -4 -12 -6 -20 -2
-8 3 -15 0 -15 -6 0 -6 -12 -11 -26 -11 -14 0 -23 4 -19 9 3 5 -3 12 -12 14
-10 3 -3 5 15 6 18 0 48 7 67 15 25 11 35 11 38 3 3 -9 13 -7 38 5 29 14 31
17 12 17 -13 1 -23 6 -23 12 0 5 -5 7 -10 4 -6 -4 -8 -10 -5 -15 3 -5 -16 -3
-42 5 -57 18 -63 18 -63 5 0 -5 12 -10 28 -10 l27 -1 -25 -14 c-14 -8 -37 -14
-52 -15 -16 0 -28 -4 -28 -8 0 -12 -93 -9 -97 4 -2 6 4 11 14 11 46 -1 87 5
74 10 -10 4 -3 12 20 24 39 21 115 26 103 7z m1264 -189 c28 -11 38 -35 22
-54 -18 -21 -232 -22 -249 -1 -21 25 7 55 59 62 25 3 50 7 55 8 15 4 86 -6
113 -15z"/>
<path d="M10638 3400 c3 -21 10 -30 22 -30 13 0 17 -6 13 -20 -11 -42 98 -98
134 -68 7 6 13 7 13 3 0 -4 6 -2 14 5 8 6 12 19 9 27 -4 11 -2 14 5 9 13 -8
16 4 4 19 -4 6 -22 23 -39 39 -24 21 -36 26 -45 18 -24 -19 -63 -17 -92 6 -38
29 -43 28 -38 -8z"/>
<path d="M2435 3374 c2 -39 45 -75 45 -38 0 10 4 12 13 7 6 -4 21 -6 32 -5 18
2 19 2 2 -8 -9 -6 -33 -12 -52 -13 -18 -2 -37 -5 -40 -9 -9 -9 31 -29 40 -20
5 4 5 1 1 -6 -4 -7 -12 -10 -17 -7 -17 11 -31 -6 -18 -21 9 -11 9 -14 -1 -14
-7 0 -10 -8 -7 -20 3 -11 1 -20 -5 -20 -5 0 -7 -4 -4 -8 2 -4 -9 -17 -25 -27
-16 -11 -29 -23 -29 -27 0 -5 -8 -8 -17 -8 -15 0 -16 2 -3 10 13 8 13 10 -1
10 -9 0 -21 -6 -27 -13 -9 -10 2 -17 53 -32 36 -10 65 -22 65 -27 0 -8 -35 -2
-78 13 -19 8 -23 6 -20 -8 2 -13 16 -19 53 -24 36 -3 45 -7 33 -13 -10 -5 -25
-6 -33 -3 -8 4 -17 2 -19 -2 -6 -10 38 -31 64 -31 11 0 20 -4 20 -9 0 -15 30
-41 47 -41 9 0 13 6 9 15 -4 11 2 15 25 15 17 0 28 3 26 8 -3 4 -26 7 -51 6
-25 0 -46 3 -46 7 0 4 -10 10 -22 13 -13 3 3 3 35 0 50 -4 57 -2 45 9 -7 8
-27 19 -43 25 -17 6 -22 11 -13 11 9 1 28 -4 42 -10 20 -9 29 -9 40 0 9 8 27
10 46 6 18 -4 30 -3 30 4 0 6 7 8 15 5 8 -4 15 -1 15 5 0 6 -21 10 -55 9 -30
-1 -57 1 -61 5 -4 3 -27 4 -53 2 l-46 -4 45 9 c25 5 53 7 64 4 10 -3 22 -1 26
6 6 10 15 10 39 2 21 -8 33 -8 37 0 4 6 3 13 -2 17 -5 3 -9 12 -10 19 -2 28
-5 32 -21 33 -10 0 -13 3 -6 5 20 8 3 34 -22 34 -13 0 -27 5 -30 10 -3 6 -15
10 -25 10 -10 0 -22 5 -26 11 -5 8 4 10 30 7 20 -2 36 0 36 4 0 4 -18 8 -40 8
-52 0 -51 15 2 26 47 10 61 30 26 37 -20 4 -20 4 5 6 15 0 27 6 27 12 0 7 -11
9 -27 6 -26 -5 -26 -4 -8 9 10 8 22 14 27 14 4 0 8 5 8 10 0 7 -31 10 -83 9
-79 -2 -82 -3 -82 -25z"/>
<path d="M8437 3245 c8 -30 10 -356 2 -429 -2 -22 1 -40 7 -43 14 -5 37 44 23
52 -17 11 1 24 23 16 20 -7 26 -25 31 -91 1 -14 9 -28 17 -32 13 -6 12 -7 -2
-7 -23 -1 -11 -41 13 -41 11 0 16 5 13 14 -4 10 2 12 20 9 16 -3 26 -1 26 6 0
6 -7 11 -15 11 -8 0 -14 3 -13 8 3 8 -30 118 -43 145 -6 10 -5 17 0 17 10 0 6
36 -6 75 -4 11 -6 26 -5 33 2 6 -7 13 -20 13 -16 1 -18 3 -6 6 21 5 12 33 -10
33 -13 0 -12 3 4 15 10 8 14 15 7 15 -13 0 -20 19 -33 87 -13 77 -19 96 -30
107 -8 8 -9 3 -3 -19z"/>
<path d="M802 3088 c-18 -18 -15 -26 11 -31 15 -3 12 -5 -11 -6 -20 0 -31 -5
-27 -11 4 -6 11 -8 16 -5 5 3 6 -1 3 -9 -4 -9 1 -18 10 -22 9 -3 14 -10 11
-14 -7 -11 24 -22 37 -13 7 3 8 1 4 -5 -4 -7 -17 -9 -31 -6 -13 3 -26 0 -30
-6 -5 -8 -2 -10 11 -6 11 3 26 1 34 -4 13 -8 12 -10 -3 -10 -15 0 -16 -2 -5
-14 7 -8 15 -10 16 -5 2 6 10 4 19 -2 9 -8 17 -9 21 -3 4 5 19 9 35 9 16 -1
27 4 27 12 0 9 -8 11 -27 7 -26 -6 -27 -5 -9 8 13 10 15 17 8 22 -6 4 -9 13
-5 21 3 8 0 15 -7 15 -7 0 -10 8 -7 19 3 14 -4 22 -29 31 -26 11 -31 16 -23
27 9 10 6 13 -13 13 -13 0 -29 -5 -36 -12z"/>
<path d="M9420 2720 c0 -6 -14 -10 -30 -10 -18 0 -33 -6 -36 -15 -8 -19 -28
-19 -44 0 -9 10 -29 14 -70 12 -32 -1 -61 -5 -64 -8 -7 -7 -37 -151 -33 -155
6 -7 98 28 143 53 28 16 44 32 44 44 0 16 7 19 43 18 24 -1 52 3 63 9 18 10
18 11 -4 19 l-24 9 27 12 c17 8 31 9 39 3 7 -6 15 -4 23 4 9 10 2 13 -33 13
-24 1 -44 -3 -44 -8z"/>
<path d="M0 1295 l0 -1295 1285 0 c1274 0 1285 0 1282 20 -2 11 -6 23 -10 26
-4 4 -7 15 -7 25 0 10 -11 26 -24 34 -13 9 -34 36 -47 60 -13 25 -27 45 -30
45 -8 0 -10 14 -13 90 -3 75 -29 172 -52 194 -11 11 -12 16 -3 16 7 0 1 12
-13 28 -15 15 -30 39 -33 54 -4 15 -13 29 -21 32 -23 9 -45 77 -47 143 -1 35
-6 63 -10 63 -5 0 -5 5 -2 10 3 6 1 10 -5 10 -6 0 -8 10 -4 25 3 14 2 25 -4
25 -5 0 -12 11 -16 23 -3 13 -19 41 -36 63 -17 21 -42 53 -56 70 -16 21 -37
34 -61 39 -67 12 -126 65 -167 149 -15 31 -32 56 -37 56 -5 0 -18 8 -28 18
-11 9 -26 23 -35 29 -19 16 -95 23 -119 11 -14 -7 -27 1 -67 43 -28 29 -59 72
-71 96 -11 24 -24 43 -29 43 -4 0 -10 19 -14 41 -4 23 -12 51 -18 63 -7 11
-11 25 -10 30 2 4 -2 13 -7 20 -6 7 -10 21 -11 31 -1 43 -5 74 -12 80 -4 4 -4
14 -1 23 4 9 2 13 -4 9 -7 -4 -16 7 -23 29 -12 36 -23 43 -97 63 -49 13 -116
78 -143 138 -29 63 -95 134 -149 159 -33 16 -37 15 -125 -14 -143 -48 -147
-48 -223 -11 -83 41 -115 68 -160 139 -61 95 -147 166 -192 157 -56 -11 -175
9 -219 36 -23 15 -49 27 -57 27 -9 0 -18 7 -21 15 -4 8 -12 15 -20 15 -12 0
-14 -195 -14 -1295z"/>
<path d="M12770 2360 c-6 -11 -17 -20 -25 -20 -7 0 -16 -13 -20 -29 -3 -16
-12 -35 -20 -41 -7 -6 -12 -22 -10 -36 1 -15 -3 -28 -12 -31 -12 -5 -12 -7 -2
-14 10 -6 10 -11 0 -22 -9 -12 -9 -16 1 -20 8 -4 7 -6 -4 -6 -14 -1 -24 -20
-17 -33 1 -2 -35 -40 -79 -85 -75 -76 -82 -87 -106 -163 -14 -44 -26 -91 -26
-103 0 -78 -107 -203 -228 -267 -90 -48 -105 -70 -108 -169 -3 -69 -9 -92 -49
-180 -25 -56 -45 -105 -45 -109 0 -14 -79 -139 -105 -168 -14 -15 -35 -57 -47
-95 -13 -40 -34 -81 -53 -101 -41 -44 -103 -98 -111 -98 -4 0 -16 -8 -26 -17
-14 -13 -40 -18 -103 -19 -48 -2 -96 -9 -112 -17 -15 -8 -57 -19 -93 -25 -58
-10 -69 -16 -105 -56 -22 -24 -59 -56 -83 -72 -41 -26 -45 -27 -105 -16 -94
16 -123 8 -153 -44 -15 -25 -24 -53 -21 -63 2 -10 0 -25 -5 -34 -5 -10 -5 -24
1 -35 6 -11 6 -24 0 -35 -6 -10 -6 -23 0 -35 6 -12 5 -25 -5 -42 -14 -25 -14
-25 -8 6 8 40 -9 52 -25 17 -10 -21 -9 -29 4 -43 8 -9 15 -22 15 -28 0 -9 233
-12 960 -12 l960 0 0 1190 c0 758 -4 1190 -10 1190 -5 0 -14 -9 -20 -20z"/>
<path d="M6782 1341 c-11 -7 -11 -9 2 -14 9 -4 16 -11 16 -18 0 -6 -7 -9 -15
-5 -8 3 -15 1 -15 -4 0 -22 -2 -26 -21 -46 -20 -21 -20 -24 -5 -68 22 -63 20
-147 -5 -261 -19 -85 -19 -99 -7 -137 7 -24 11 -61 8 -83 -3 -22 -1 -59 5 -83
9 -41 10 -42 50 -41 31 0 35 2 20 9 -12 4 -27 15 -35 25 -16 19 -23 72 -10 80
4 3 1 37 -8 75 -14 65 -14 75 1 124 10 29 17 62 17 73 0 29 9 33 30 15 10 -10
31 -26 45 -37 15 -11 33 -26 40 -32 8 -7 16 -13 20 -13 12 0 94 -61 177 -130
45 -39 84 -66 86 -60 2 6 -8 21 -22 34 -17 14 -25 28 -21 38 5 12 -2 18 -24
23 -17 4 -34 11 -38 17 -4 7 0 9 10 5 9 -3 19 -2 22 3 4 6 -1 10 -10 10 -9 0
-13 5 -10 10 3 6 -1 10 -10 10 -9 0 -14 4 -10 9 3 5 1 12 -5 16 -6 4 -8 11 -5
16 4 5 -1 9 -9 9 -9 0 -16 4 -16 10 0 5 -10 19 -22 30 -13 12 -23 25 -23 29 0
5 -12 21 -27 36 -16 15 -28 32 -28 36 0 5 -7 9 -16 9 -8 0 -13 4 -10 9 4 5 -6
14 -21 19 -16 6 -22 11 -15 11 21 2 -29 61 -52 61 -12 0 -16 4 -11 8 6 4 11
18 11 32 1 14 4 41 7 60 10 70 -7 103 -41 81z"/>
<path d="M7159 1270 c-25 -28 -23 -50 3 -34 8 5 9 2 5 -9 -3 -10 -2 -17 4 -17
6 0 34 -20 62 -45 30 -26 62 -45 75 -45 13 0 20 -4 17 -10 -3 -5 -1 -10 5 -10
6 0 17 -6 24 -12 45 -44 96 -77 96 -62 0 2 -47 52 -105 110 -57 58 -104 107
-104 110 0 7 -45 54 -51 53 -3 0 -17 -13 -31 -29z"/>
<path d="M6103 987 c-13 -19 -60 -40 -73 -32 -20 12 -31 -17 -12 -32 14 -10
15 -12 2 -13 -51 -3 219 -67 355 -85 45 -6 48 -5 30 8 -27 19 -82 36 -127 39
-20 2 -34 7 -31 11 3 5 -4 11 -16 14 -12 3 -21 9 -21 12 0 4 -12 7 -27 6 -16
-1 -20 0 -10 2 22 6 21 9 -3 36 -11 12 -18 27 -16 34 7 17 -40 17 -51 0z"/>
<path d="M3072 936 c-4 -6 -19 -17 -34 -25 -25 -13 -30 -12 -46 2 -17 15 -21
15 -60 -4 -23 -12 -42 -26 -42 -32 0 -6 -10 -22 -22 -35 -22 -24 -22 -25 -3
-19 20 7 20 7 1 -8 -17 -13 -17 -15 -3 -15 9 0 22 -9 30 -20 13 -19 15 -19 21
-4 4 10 13 14 26 11 11 -3 18 -2 17 2 -4 11 27 48 53 61 17 9 25 10 28 1 2 -6
12 -11 23 -11 10 0 19 -5 19 -11 0 -5 -4 -7 -10 -4 -5 3 -10 1 -10 -6 0 -7 9
-9 23 -5 12 3 29 6 37 7 8 0 4 5 -10 9 -20 7 -16 8 25 10 44 2 47 3 20 10 -26
7 -23 8 20 8 36 0 45 -2 30 -8 -16 -7 -14 -9 15 -9 33 0 131 36 102 38 -7 1
-21 -3 -31 -9 -16 -8 -17 -6 -13 16 3 17 7 21 12 14 6 -9 13 -9 29 -1 32 17
25 27 -14 23 -20 -2 -35 0 -35 6 0 7 -11 5 -27 -4 -25 -13 -30 -12 -43 3 -17
21 -116 27 -128 9z"/>
<path d="M6930 790 c0 -5 7 -10 16 -10 9 0 12 -5 8 -12 -4 -6 0 -16 8 -22 8
-6 17 -21 20 -34 5 -18 0 -26 -24 -38 -38 -20 -77 -63 -78 -86 0 -12 -8 -18
-22 -18 -21 0 -21 -1 -6 -16 18 -18 38 -11 38 13 0 23 38 72 68 86 40 19 96
21 130 3 41 -21 49 -61 26 -129 -22 -66 -24 -83 -28 -192 -1 -49 -6 -100 -10
-112 -14 -44 -160 -78 -216 -49 -18 8 -47 18 -66 22 -19 3 -37 10 -40 15 -8
14 59 10 81 -4 55 -37 126 -39 96 -3 -8 9 -21 16 -30 16 -13 0 -14 2 -2 9 12
8 12 12 -2 26 -16 15 -21 13 -18 -7 0 -5 -6 -8 -14 -8 -8 0 -14 3 -13 8 1 4
-4 26 -12 49 -12 39 -11 46 12 93 47 95 9 51 -99 -115 -29 -44 -57 -85 -63
-92 -5 -7 -10 -16 -10 -21 0 -18 -47 -51 -85 -60 -87 -19 -186 13 -206 66 -7
18 -5 22 10 22 10 0 32 7 47 16 29 16 28 16 -26 10 l-55 -6 30 25 c17 13 39
24 49 25 11 0 17 3 13 6 -3 4 -1 12 6 19 7 7 19 21 28 31 9 11 31 30 49 44 40
31 80 72 80 82 0 16 -18 7 -34 -16 -8 -14 -60 -57 -113 -97 -54 -39 -129 -97
-166 -127 l-68 -55 -70 1 c-41 1 -77 6 -86 14 -8 7 -23 17 -32 23 -67 39 -121
78 -121 85 0 5 26 7 58 5 31 -2 50 -1 42 2 -39 16 -45 43 -9 43 10 0 21 9 24
20 3 11 11 20 16 20 5 0 27 11 49 25 22 14 46 25 55 25 8 0 15 5 15 10 0 6 8
10 18 10 30 0 112 58 112 79 0 40 94 61 205 46 33 -4 45 -3 36 3 -19 13 -7 29
29 37 16 4 32 11 35 16 9 13 -4 11 -62 -11 -35 -13 -69 -19 -105 -16 -36 2
-65 -2 -89 -14 -40 -19 -56 -13 -78 28 -6 12 -19 22 -29 22 -13 0 -11 -6 11
-25 15 -14 27 -29 28 -33 0 -4 2 -17 3 -29 3 -30 -37 -67 -99 -91 -51 -21
-171 -82 -215 -111 -97 -63 -118 -72 -137 -62 -16 8 -193 53 -264 68 -33 6
-42 -7 -29 -41 8 -23 7 -26 -13 -26 -21 -1 -21 -2 -4 -14 16 -13 16 -14 -7
-20 -29 -7 -56 -51 -56 -93 0 -63 2 -73 12 -79 7 -4 6 -9 -2 -14 -7 -4 -9 -16
-5 -29 5 -17 14 -21 49 -21 44 0 44 0 56 48 14 57 79 234 90 245 4 5 19 1 33
-8 25 -16 55 -24 115 -29 18 -2 35 -6 38 -9 4 -3 18 -4 33 -1 21 5 36 -3 76
-40 27 -25 54 -46 61 -46 6 0 33 -10 59 -21 36 -16 58 -20 89 -15 23 4 51 8
63 10 12 2 38 15 57 30 44 33 52 33 64 -3 6 -17 25 -37 44 -48 l33 -17 -45 -7
c-113 -18 -264 -62 -276 -80 -3 -5 168 -9 437 -8 244 1 436 5 428 9 -8 4 -39
13 -69 20 -85 18 -250 63 -250 67 0 3 12 17 28 32 26 25 62 31 62 9 0 -5 -7
-8 -15 -4 -8 3 -15 2 -15 -3 0 -5 21 -11 47 -14 26 -3 49 -10 51 -16 2 -6 16
-11 32 -11 16 0 41 -5 55 -10 15 -6 54 -11 86 -12 33 -1 54 -5 48 -9 -6 -3 1
-9 17 -11 16 -3 37 -9 47 -13 9 -4 17 -3 17 3 0 5 -9 12 -21 15 -12 3 -18 10
-15 15 6 10 -25 22 -61 22 -12 0 -34 11 -48 24 l-26 24 33 7 c42 9 90 34 105
54 18 24 26 77 27 175 1 93 16 123 36 72 5 -14 14 -26 20 -26 6 0 8 -5 5 -11
-4 -5 3 -19 16 -30 14 -12 17 -19 8 -19 -9 -1 -6 -7 9 -20 21 -17 21 -19 5
-29 -17 -10 -17 -10 0 -11 10 0 15 -5 12 -10 -4 -6 -1 -17 5 -25 10 -12 9 -15
-4 -15 -9 0 -16 -4 -16 -10 0 -5 7 -7 15 -4 15 6 53 -14 88 -47 22 -20 62 -28
97 -18 l25 7 -24 1 -24 1 23 20 c23 20 23 20 2 20 -11 0 -24 5 -27 10 -3 6 -1
10 6 10 7 0 2 9 -11 20 -13 11 -30 20 -39 20 -14 0 -14 2 -1 11 13 8 12 12 -7
26 -13 8 -23 21 -23 27 0 6 -9 18 -19 26 -11 7 -18 17 -15 22 3 4 0 8 -5 8 -6
0 -11 5 -11 10 0 6 -11 23 -25 38 -14 15 -25 33 -25 40 0 7 -6 15 -14 18 -8 3
-12 12 -9 20 3 8 -1 14 -10 14 -11 0 -17 15 -22 50 -6 43 -13 55 -43 78 -21
15 -38 30 -40 35 -2 4 -10 7 -18 7 -8 0 -13 3 -13 8 3 20 -2 32 -16 32 -8 0
-15 5 -15 10 0 6 -7 10 -16 10 -10 0 -14 6 -10 15 4 11 -2 15 -24 15 -17 0
-30 -4 -30 -10z"/>
<path d="M10840 249 c0 -6 -4 -8 -9 -5 -5 3 -12 -9 -15 -28 -4 -19 -19 -47
-34 -63 -16 -15 -36 -40 -45 -55 -10 -16 -24 -28 -31 -28 -7 0 -19 -7 -26 -16
-24 -28 -82 -46 -106 -33 -18 9 -27 8 -45 -5 -22 -15 -13 -16 150 -16 l173 0
-7 23 c-4 12 -8 32 -9 45 0 14 -6 20 -14 17 -7 -2 -1 15 13 39 30 52 41 122
19 130 -8 3 -14 1 -14 -5z"/>
<path d="M7835 210 c-19 -7 -19 -7 0 -18 19 -10 19 -11 2 -18 -10 -3 -33 -4
-52 -1 -42 7 -44 2 -7 -16 23 -12 76 -23 207 -42 17 -3 37 0 45 5 12 8 10 10
-10 10 -19 0 -21 3 -11 9 8 5 21 7 30 5 9 -3 5 3 -8 13 -14 10 -45 23 -70 29
-25 7 -59 16 -76 22 -16 5 -39 6 -50 2z"/>
<path d="M4865 194 c12 -9 28 -12 40 -9 34 11 53 7 74 -14 l21 -21 -21 0 c-11
0 -18 -4 -15 -9 8 -13 -24 -23 -38 -13 -6 5 -24 12 -41 16 l-30 6 25 -15 25
-14 -26 -1 c-14 0 -34 8 -45 19 -11 10 -38 24 -60 32 l-39 14 40 6 c39 6 39 6
-13 8 -50 1 -52 0 -40 -19 7 -11 23 -20 35 -20 29 0 53 -10 53 -22 0 -6 -6 -8
-13 -5 -8 3 -20 1 -28 -4 -10 -7 -6 -9 16 -8 45 4 101 -11 84 -22 -10 -6 -2
-9 24 -9 20 0 37 -4 37 -10 0 -16 26 -12 41 7 8 9 10 14 4 11 -5 -3 -28 -2
-50 2 l-40 8 45 2 c25 2 53 3 63 2 9 -1 17 3 17 8 0 6 -5 10 -12 10 -6 0 -9 3
-6 6 10 10 124 13 139 3 15 -9 -14 -13 -80 -9 -22 1 -31 -2 -27 -9 4 -6 2 -11
-4 -11 -6 0 -9 -4 -6 -9 3 -4 -7 -14 -22 -21 -19 -9 -23 -14 -12 -17 8 -3 27
-8 43 -13 16 -6 27 -5 27 1 0 5 -10 9 -22 9 -12 0 -19 3 -15 6 11 11 127 16
127 5 0 -5 -8 -12 -17 -14 -10 -2 -7 -2 7 0 14 2 30 4 37 5 16 2 4 26 -15 31
-10 2 3 9 28 17 25 7 39 15 31 18 -11 4 -11 6 0 14 10 6 2 8 -21 4 -25 -4 -42
-1 -55 10 -19 14 -15 15 48 11 37 -3 69 -1 72 3 6 9 -71 21 -125 20 -19 -1
-53 -1 -75 -1 -38 0 -39 0 -20 -16 19 -15 19 -15 -10 -8 -16 3 -35 15 -43 26
-15 22 -61 25 -81 7 -11 -10 -14 -10 -18 0 -3 6 -12 12 -21 12 -14 -1 -14 -3
3 -16z"/>
</g>
</svg>
